solid PotiBox
facet normal 1.4793145285241173e-15 1.0 4.306396737094093e-15
  outer loop
    vertex -26.939391273330667 230.90378163929913 23.999999999999996
    vertex 78.06060872666934 230.90378163929913 0.0
    vertex -26.939391273330667 230.90378163929913 0.0
  endloop
endfacet
facet normal 1.4793145285241173e-15 1.0 4.306396737094093e-15
  outer loop
    vertex 78.06060872666934 230.90378163929913 0.0
    vertex -26.939391273330667 230.90378163929913 23.999999999999996
    vertex 47.06060872666936 230.9037816392989 23.999999999999986
  endloop
endfacet
facet normal 1.4793145285241173e-15 1.0 4.306396737094093e-15
  outer loop
    vertex 47.06060872666936 230.9037816392989 23.999999999999986
    vertex -26.939391273330667 230.90378163929913 23.999999999999996
    vertex -10.93939127333067 230.90378163929907 23.999999999999996
  endloop
endfacet
facet normal 1.4793145285241173e-15 1.0 4.306396737094093e-15
  outer loop
    vertex 47.06060872666936 230.9037816392989 23.999999999999986
    vertex -10.93939127333067 230.90378163929907 23.999999999999996
    vertex 47.06060872666936 230.9037816392989 33.99999999999998
  endloop
endfacet
facet normal 1.4793145285241173e-15 1.0 4.306396737094093e-15
  outer loop
    vertex 47.06060872666936 230.9037816392989 33.99999999999998
    vertex -10.93939127333067 230.90378163929907 23.999999999999996
    vertex -10.93939127333067 230.90378163929907 33.99999999999998
  endloop
endfacet
facet normal 1.4793145285241173e-15 1.0 4.306396737094093e-15
  outer loop
    vertex 55.060608726669365 230.9037816392989 33.99999999999998
    vertex 77.06060872666934 230.90378163929893 23.999999999999996
    vertex 55.060608726669365 230.9037816392989 23.999999999999986
  endloop
endfacet
facet normal 1.4793145285241173e-15 1.0 4.306396737094093e-15
  outer loop
    vertex 77.06060872666934 230.90378163929893 23.999999999999996
    vertex 55.060608726669365 230.9037816392989 33.99999999999998
    vertex 77.06060872666934 230.90378163929893 33.99999999999998
  endloop
endfacet
facet normal 1.4793145285241173e-15 1.0 4.306396737094093e-15
  outer loop
    vertex 78.06060872666934 230.90378163929913 0.0
    vertex 55.060608726669365 230.9037816392989 23.999999999999986
    vertex 78.06060872666934 230.90378163929893 23.999999999999996
  endloop
endfacet
facet normal 1.4793145285241173e-15 1.0 4.306396737094093e-15
  outer loop
    vertex 55.060608726669365 230.9037816392989 23.999999999999986
    vertex 78.06060872666934 230.90378163929913 0.0
    vertex 47.06060872666936 230.9037816392989 23.999999999999986
  endloop
endfacet
facet normal 1.4793145285241173e-15 1.0 4.306396737094093e-15
  outer loop
    vertex 78.06060872666934 230.90378163929893 23.999999999999996
    vertex 55.060608726669365 230.9037816392989 23.999999999999986
    vertex 77.06060872666934 230.90378163929893 23.999999999999996
  endloop
endfacet
facet normal -1.0 0.0 0.0
  outer loop
    vertex 76.06060872666934 228.90378163929893 33.99999999999998
    vertex 76.06060872666934 127.90378163929894 1.9999999999999998
    vertex 76.06060872666934 127.90378163929894 33.99999999999998
  endloop
endfacet
facet normal -1.0 0.0 0.0
  outer loop
    vertex 76.06060872666934 127.90378163929894 1.9999999999999998
    vertex 76.06060872666934 228.90378163929893 33.99999999999998
    vertex 76.06060872666934 228.90378163929893 1.9999999999999998
  endloop
endfacet
facet normal 1.0 2.792046022324651e-17 -0.0
  outer loop
    vertex -24.939391273330667 228.90378163929893 1.9999999999999998
    vertex -24.939391273330664 127.90378163929894 33.99999999999998
    vertex -24.939391273330664 127.90378163929894 1.9999999999999998
  endloop
endfacet
facet normal 1.0 2.792046022324651e-17 -0.0
  outer loop
    vertex -24.939391273330664 127.90378163929894 33.99999999999998
    vertex -24.939391273330667 228.90378163929893 1.9999999999999998
    vertex -24.939391273330667 228.90378163929893 33.99999999999998
  endloop
endfacet
facet normal 1.0 0.0 0.0
  outer loop
    vertex 47.06060872666936 127.90378163929894 23.999999999999986
    vertex 47.06060872666936 125.90378163929894 33.99999999999998
    vertex 47.06060872666936 125.90378163929894 23.999999999999986
  endloop
endfacet
facet normal 1.0 0.0 0.0
  outer loop
    vertex 47.06060872666936 125.90378163929894 33.99999999999998
    vertex 47.06060872666936 127.90378163929894 23.999999999999986
    vertex 47.06060872666936 127.90378163929894 33.99999999999998
  endloop
endfacet
facet normal 0.0 0.0 -1.0
  outer loop
    vertex 78.06060872666934 230.90378163929913 0.0
    vertex -26.939391273330667 125.90378163929894 0.0
    vertex -26.939391273330667 230.90378163929913 0.0
  endloop
endfacet
facet normal 0.0 0.0 -1.0
  outer loop
    vertex -26.939391273330667 125.90378163929894 0.0
    vertex 78.06060872666934 230.90378163929913 0.0
    vertex 78.06060872666934 125.90378163929894 0.0
  endloop
endfacet
facet normal -0.0 -0.0 1.0
  outer loop
    vertex -24.939391273330664 127.90378163929894 1.9999999999999998
    vertex 76.06060872666934 228.90378163929893 1.9999999999999998
    vertex -24.939391273330667 228.90378163929893 1.9999999999999998
  endloop
endfacet
facet normal -0.0 -0.0 1.0
  outer loop
    vertex 76.06060872666934 228.90378163929893 1.9999999999999998
    vertex -24.939391273330664 127.90378163929894 1.9999999999999998
    vertex 76.06060872666934 127.90378163929894 1.9999999999999998
  endloop
endfacet
facet normal 0.0 0.0 1.0
  outer loop
    vertex 55.060608726669365 125.90378163929894 23.999999999999986
    vertex 47.06060872666936 127.90378163929894 23.999999999999986
    vertex 47.06060872666936 125.90378163929894 23.999999999999986
  endloop
endfacet
facet normal 0.0 0.0 1.0
  outer loop
    vertex 47.06060872666936 127.90378163929894 23.999999999999986
    vertex 55.060608726669365 125.90378163929894 23.999999999999986
    vertex 55.060608726669365 127.90378163929894 23.999999999999986
  endloop
endfacet
facet normal -1.0 0.0 0.0
  outer loop
    vertex -26.939391273330667 230.90378163929913 23.999999999999996
    vertex -26.939391273330667 125.90378163929894 0.0
    vertex -26.939391273330667 125.90378163929894 23.999999999999996
  endloop
endfacet
facet normal -1.0 0.0 0.0
  outer loop
    vertex -26.939391273330667 125.90378163929894 0.0
    vertex -26.939391273330667 230.90378163929913 23.999999999999996
    vertex -26.939391273330667 230.90378163929913 0.0
  endloop
endfacet
facet normal 1.0 -0.0 -0.0
  outer loop
    vertex 78.06060872666934 230.90378163929913 0.0
    vertex 78.06060872666934 125.90378163929894 23.999999999999996
    vertex 78.06060872666934 125.90378163929894 0.0
  endloop
endfacet
facet normal 1.0 -0.0 -0.0
  outer loop
    vertex 78.06060872666934 125.90378163929894 23.999999999999996
    vertex 78.06060872666934 230.90378163929913 0.0
    vertex 78.06060872666934 230.90378163929893 23.999999999999996
  endloop
endfacet
facet normal -1.0 0.0 0.0
  outer loop
    vertex 55.060608726669365 127.90378163929894 33.99999999999998
    vertex 55.060608726669365 125.90378163929894 23.999999999999986
    vertex 55.060608726669365 125.90378163929894 33.99999999999998
  endloop
endfacet
facet normal -1.0 0.0 0.0
  outer loop
    vertex 55.060608726669365 125.90378163929894 23.999999999999986
    vertex 55.060608726669365 127.90378163929894 33.99999999999998
    vertex 55.060608726669365 127.90378163929894 23.999999999999986
  endloop
endfacet
facet normal -0.0 1.0 -0.0
  outer loop
    vertex 8.038015336981887 127.90378163929894 19.929447639179806
    vertex 27.060608726669358 127.90378163929894 18.999999999999975
    vertex 7.238811956944849 127.90378163929894 17.99999999999997
  endloop
endfacet
facet normal -0.0 1.0 -0.0
  outer loop
    vertex 27.060608726669358 127.90378163929894 18.999999999999975
    vertex 8.038015336981887 127.90378163929894 19.929447639179806
    vertex 26.284151591361795 127.90378163929894 19.10222252113277
  endloop
endfacet
facet normal -0.0 1.0 -0.0
  outer loop
    vertex 26.284151591361795 127.90378163929894 19.10222252113277
    vertex 8.038015336981887 127.90378163929894 19.929447639179806
    vertex 25.560608726669354 127.90378163929894 19.401923788646663
  endloop
endfacet
facet normal -0.0 1.0 -0.0
  outer loop
    vertex 25.560608726669354 127.90378163929894 19.401923788646663
    vertex 8.038015336981887 127.90378163929894 19.929447639179806
    vertex 24.939288383109716 127.90378163929894 19.878679656440333
  endloop
endfacet
facet normal -0.0 1.0 -0.0
  outer loop
    vertex 24.939288383109716 127.90378163929894 19.878679656440333
    vertex 8.038015336981887 127.90378163929894 19.929447639179806
    vertex 24.462532515316042 127.90378163929894 20.499999999999975
  endloop
endfacet
facet normal -0.0 1.0 -0.0
  outer loop
    vertex 24.462532515316042 127.90378163929894 20.499999999999975
    vertex 8.038015336981887 127.90378163929894 19.929447639179806
    vertex 8.310608726669342 127.90378163929894 21.999999999999975
  endloop
endfacet
facet normal -0.0 1.0 -0.0
  outer loop
    vertex 24.462532515316042 127.90378163929894 20.499999999999975
    vertex 8.310608726669342 127.90378163929894 21.999999999999975
    vertex 24.162831247802153 127.90378163929894 21.223542864692416
  endloop
endfacet
facet normal -0.0 1.0 -0.0
  outer loop
    vertex 24.162831247802153 127.90378163929894 21.223542864692416
    vertex 8.310608726669342 127.90378163929894 21.999999999999975
    vertex 24.060608726669358 127.90378163929894 21.999999999999975
  endloop
endfacet
facet normal -0.0 1.0 -0.0
  outer loop
    vertex 24.060608726669358 127.90378163929894 21.999999999999975
    vertex 8.310608726669342 127.90378163929894 21.999999999999975
    vertex 8.03801533698189 127.90378163929894 24.070552360820137
  endloop
endfacet
facet normal -0.0 1.0 -0.0
  outer loop
    vertex 24.060608726669358 127.90378163929894 21.999999999999975
    vertex 8.03801533698189 127.90378163929894 24.070552360820137
    vertex 24.162831247802153 127.90378163929894 22.77645713530754
  endloop
endfacet
facet normal -0.0 1.0 -0.0
  outer loop
    vertex 24.162831247802153 127.90378163929894 22.77645713530754
    vertex 8.03801533698189 127.90378163929894 24.070552360820137
    vertex 24.462532515316045 127.90378163929894 23.499999999999975
  endloop
endfacet
facet normal -0.0 1.0 -0.0
  outer loop
    vertex 24.462532515316045 127.90378163929894 23.499999999999975
    vertex 8.03801533698189 127.90378163929894 24.070552360820137
    vertex 24.939288383109716 127.90378163929894 24.121320343559617
  endloop
endfacet
facet normal -0.0 1.0 -0.0
  outer loop
    vertex 24.939288383109716 127.90378163929894 24.121320343559617
    vertex 8.03801533698189 127.90378163929894 24.070552360820137
    vertex 7.238811956944855 127.90378163929894 25.999999999999975
  endloop
endfacet
facet normal -0.0 1.0 -0.0
  outer loop
    vertex 24.939288383109716 127.90378163929894 24.121320343559617
    vertex 7.238811956944855 127.90378163929894 25.999999999999975
    vertex 25.56060872666936 127.90378163929894 24.59807621135329
  endloop
endfacet
facet normal -0.0 1.0 -0.0
  outer loop
    vertex 25.56060872666936 127.90378163929894 24.59807621135329
    vertex 7.238811956944855 127.90378163929894 25.999999999999975
    vertex 26.284151591361795 127.90378163929894 24.89777747886718
  endloop
endfacet
facet normal -0.0 1.0 -0.0
  outer loop
    vertex 26.284151591361795 127.90378163929894 24.89777747886718
    vertex 7.238811956944855 127.90378163929894 25.999999999999975
    vertex 27.060608726669358 127.90378163929894 24.999999999999975
  endloop
endfacet
facet normal -0.0 1.0 -0.0
  outer loop
    vertex -24.939391273330664 127.90378163929894 1.9999999999999998
    vertex -1.759943634150829 127.90378163929894 14.272593389687428
    vertex 76.06060872666934 127.90378163929894 1.9999999999999998
  endloop
endfacet
facet normal -0.0 1.0 -0.0
  outer loop
    vertex -1.759943634150829 127.90378163929894 14.272593389687428
    vertex -24.939391273330664 127.90378163929894 1.9999999999999998
    vertex -3.689391273330664 127.90378163929894 15.071796769724466
  endloop
endfacet
facet normal -0.0 1.0 -0.0
  outer loop
    vertex -3.689391273330664 127.90378163929894 15.071796769724466
    vertex -24.939391273330664 127.90378163929894 1.9999999999999998
    vertex -5.346245522823042 127.90378163929894 16.343145750507592
  endloop
endfacet
facet normal -0.0 1.0 -0.0
  outer loop
    vertex -5.346245522823042 127.90378163929894 16.343145750507592
    vertex -24.939391273330664 127.90378163929894 1.9999999999999998
    vertex -24.939391273330664 127.90378163929894 33.99999999999998
  endloop
endfacet
facet normal -0.0 1.0 -0.0
  outer loop
    vertex 76.06060872666934 127.90378163929894 1.9999999999999998
    vertex -1.759943634150829 127.90378163929894 14.272593389687428
    vertex 0.31060872666933886 127.90378163929894 13.999999999999975
  endloop
endfacet
facet normal -0.0 1.0 -0.0
  outer loop
    vertex -5.346245522823042 127.90378163929894 16.343145750507592
    vertex -24.939391273330664 127.90378163929894 33.99999999999998
    vertex -6.617594503606172 127.90378163929894 17.99999999999998
  endloop
endfacet
facet normal -0.0 1.0 -0.0
  outer loop
    vertex -6.617594503606172 127.90378163929894 17.99999999999998
    vertex -24.939391273330664 127.90378163929894 33.99999999999998
    vertex -7.416797883643208 127.90378163929894 19.929447639179813
  endloop
endfacet
facet normal -0.0 1.0 -0.0
  outer loop
    vertex -7.416797883643208 127.90378163929894 19.929447639179813
    vertex -24.939391273330664 127.90378163929894 33.99999999999998
    vertex -7.689391273330663 127.90378163929894 21.999999999999975
  endloop
endfacet
facet normal -0.0 1.0 -0.0
  outer loop
    vertex -7.689391273330663 127.90378163929894 21.999999999999975
    vertex -24.939391273330664 127.90378163929894 33.99999999999998
    vertex -7.416797883643208 127.90378163929894 24.070552360820145
  endloop
endfacet
facet normal -0.0 1.0 -0.0
  outer loop
    vertex -7.416797883643208 127.90378163929894 24.070552360820145
    vertex -24.939391273330664 127.90378163929894 33.99999999999998
    vertex -6.6175945036061705 127.90378163929894 25.999999999999982
  endloop
endfacet
facet normal -0.0 1.0 -0.0
  outer loop
    vertex -6.6175945036061705 127.90378163929894 25.999999999999982
    vertex -24.939391273330664 127.90378163929894 33.99999999999998
    vertex -5.346245522823041 127.90378163929894 27.65685424949236
  endloop
endfacet
facet normal -0.0 1.0 -0.0
  outer loop
    vertex -5.346245522823041 127.90378163929894 27.65685424949236
    vertex -24.939391273330664 127.90378163929894 33.99999999999998
    vertex -3.6893912733306604 127.90378163929894 28.92820323027549
  endloop
endfacet
facet normal -0.0 1.0 -0.0
  outer loop
    vertex -3.6893912733306604 127.90378163929894 28.92820323027549
    vertex -24.939391273330664 127.90378163929894 33.99999999999998
    vertex -1.7599436341508268 127.90378163929894 29.727406610312524
  endloop
endfacet
facet normal -0.0 1.0 -0.0
  outer loop
    vertex -1.7599436341508268 127.90378163929894 29.727406610312524
    vertex -24.939391273330664 127.90378163929894 33.99999999999998
    vertex 0.3106087266693398 127.90378163929894 29.99999999999998
  endloop
endfacet
facet normal -0.0 1.0 -0.0
  outer loop
    vertex 29.181929070229 127.90378163929894 24.121320343559617
    vertex 47.06060872666936 127.90378163929894 23.999999999999986
    vertex 29.658684938022677 127.90378163929894 23.499999999999975
  endloop
endfacet
facet normal -0.0 1.0 -0.0
  outer loop
    vertex 47.06060872666936 127.90378163929894 23.999999999999986
    vertex 29.181929070229 127.90378163929894 24.121320343559617
    vertex 47.06060872666936 127.90378163929894 33.99999999999998
  endloop
endfacet
facet normal -0.0 1.0 -0.0
  outer loop
    vertex 47.06060872666936 127.90378163929894 33.99999999999998
    vertex 29.181929070229 127.90378163929894 24.121320343559617
    vertex 28.56060872666936 127.90378163929894 24.59807621135329
  endloop
endfacet
facet normal -0.0 1.0 -0.0
  outer loop
    vertex 47.06060872666936 127.90378163929894 33.99999999999998
    vertex 28.56060872666936 127.90378163929894 24.59807621135329
    vertex 27.83706586197692 127.90378163929894 24.89777747886718
  endloop
endfacet
facet normal -0.0 1.0 -0.0
  outer loop
    vertex 47.06060872666936 127.90378163929894 33.99999999999998
    vertex 27.83706586197692 127.90378163929894 24.89777747886718
    vertex 27.060608726669358 127.90378163929894 24.999999999999975
  endloop
endfacet
facet normal -0.0 1.0 -0.0
  outer loop
    vertex 47.06060872666936 127.90378163929894 33.99999999999998
    vertex 27.060608726669358 127.90378163929894 24.999999999999975
    vertex 7.238811956944855 127.90378163929894 25.999999999999975
  endloop
endfacet
facet normal -0.0 1.0 -0.0
  outer loop
    vertex 47.06060872666936 127.90378163929894 33.99999999999998
    vertex 7.238811956944855 127.90378163929894 25.999999999999975
    vertex 5.967462976161723 127.90378163929894 27.65685424949236
  endloop
endfacet
facet normal -0.0 1.0 -0.0
  outer loop
    vertex 47.06060872666936 127.90378163929894 33.99999999999998
    vertex 5.967462976161723 127.90378163929894 27.65685424949236
    vertex 4.3106087266693445 127.90378163929894 28.928203230275486
  endloop
endfacet
facet normal -0.0 1.0 -0.0
  outer loop
    vertex 47.06060872666936 127.90378163929894 33.99999999999998
    vertex 4.3106087266693445 127.90378163929894 28.928203230275486
    vertex 2.3811610874895126 127.90378163929894 29.727406610312524
  endloop
endfacet
facet normal -0.0 1.0 -0.0
  outer loop
    vertex 47.06060872666936 127.90378163929894 33.99999999999998
    vertex 2.3811610874895126 127.90378163929894 29.727406610312524
    vertex 0.3106087266693398 127.90378163929894 29.99999999999998
  endloop
endfacet
facet normal -0.0 1.0 -0.0
  outer loop
    vertex 47.06060872666936 127.90378163929894 33.99999999999998
    vertex 0.3106087266693398 127.90378163929894 29.99999999999998
    vertex -24.939391273330664 127.90378163929894 33.99999999999998
  endloop
endfacet
facet normal -0.0 1.0 -0.0
  outer loop
    vertex 76.06060872666934 127.90378163929894 1.9999999999999998
    vertex 55.060608726669365 127.90378163929894 23.999999999999986
    vertex 76.06060872666934 127.90378163929894 33.99999999999998
  endloop
endfacet
facet normal -0.0 1.0 -0.0
  outer loop
    vertex 55.060608726669365 127.90378163929894 23.999999999999986
    vertex 76.06060872666934 127.90378163929894 1.9999999999999998
    vertex 2.3811610874895033 127.90378163929894 14.272593389687428
  endloop
endfacet
facet normal -0.0 1.0 -0.0
  outer loop
    vertex 2.3811610874895033 127.90378163929894 14.272593389687428
    vertex 76.06060872666934 127.90378163929894 1.9999999999999998
    vertex 0.31060872666933886 127.90378163929894 13.999999999999975
  endloop
endfacet
facet normal -0.0 1.0 -0.0
  outer loop
    vertex 55.060608726669365 127.90378163929894 23.999999999999986
    vertex 2.3811610874895033 127.90378163929894 14.272593389687428
    vertex 27.83706586197692 127.90378163929894 19.10222252113277
  endloop
endfacet
facet normal -0.0 1.0 -0.0
  outer loop
    vertex 27.83706586197692 127.90378163929894 19.10222252113277
    vertex 2.3811610874895033 127.90378163929894 14.272593389687428
    vertex 4.310608726669339 127.90378163929894 15.071796769724463
  endloop
endfacet
facet normal -0.0 1.0 -0.0
  outer loop
    vertex 27.83706586197692 127.90378163929894 19.10222252113277
    vertex 4.310608726669339 127.90378163929894 15.071796769724463
    vertex 27.060608726669358 127.90378163929894 18.999999999999975
  endloop
endfacet
facet normal -0.0 1.0 -0.0
  outer loop
    vertex 27.060608726669358 127.90378163929894 18.999999999999975
    vertex 4.310608726669339 127.90378163929894 15.071796769724463
    vertex 5.967462976161719 127.90378163929894 16.343145750507592
  endloop
endfacet
facet normal -0.0 1.0 -0.0
  outer loop
    vertex 27.060608726669358 127.90378163929894 18.999999999999975
    vertex 5.967462976161719 127.90378163929894 16.343145750507592
    vertex 7.238811956944849 127.90378163929894 17.99999999999997
  endloop
endfacet
facet normal -0.0 1.0 -0.0
  outer loop
    vertex 55.060608726669365 127.90378163929894 23.999999999999986
    vertex 27.83706586197692 127.90378163929894 19.10222252113277
    vertex 28.560608726669354 127.90378163929894 19.40192378864666
  endloop
endfacet
facet normal -0.0 1.0 -0.0
  outer loop
    vertex 55.060608726669365 127.90378163929894 23.999999999999986
    vertex 28.560608726669354 127.90378163929894 19.40192378864666
    vertex 29.181929070229 127.90378163929894 19.878679656440333
  endloop
endfacet
facet normal -0.0 1.0 -0.0
  outer loop
    vertex 55.060608726669365 127.90378163929894 23.999999999999986
    vertex 29.181929070229 127.90378163929894 19.878679656440333
    vertex 29.658684938022677 127.90378163929894 20.499999999999975
  endloop
endfacet
facet normal -0.0 1.0 -0.0
  outer loop
    vertex 55.060608726669365 127.90378163929894 23.999999999999986
    vertex 29.658684938022677 127.90378163929894 20.499999999999975
    vertex 29.958386205536563 127.90378163929894 21.223542864692412
  endloop
endfacet
facet normal -0.0 1.0 -0.0
  outer loop
    vertex 55.060608726669365 127.90378163929894 23.999999999999986
    vertex 29.958386205536563 127.90378163929894 21.223542864692412
    vertex 30.060608726669358 127.90378163929894 21.999999999999975
  endloop
endfacet
facet normal -0.0 1.0 -0.0
  outer loop
    vertex 55.060608726669365 127.90378163929894 23.999999999999986
    vertex 30.060608726669358 127.90378163929894 21.999999999999975
    vertex 29.958386205536563 127.90378163929894 22.776457135307535
  endloop
endfacet
facet normal -0.0 1.0 -0.0
  outer loop
    vertex 55.060608726669365 127.90378163929894 23.999999999999986
    vertex 29.958386205536563 127.90378163929894 22.776457135307535
    vertex 29.658684938022677 127.90378163929894 23.499999999999975
  endloop
endfacet
facet normal -0.0 1.0 -0.0
  outer loop
    vertex 55.060608726669365 127.90378163929894 23.999999999999986
    vertex 29.658684938022677 127.90378163929894 23.499999999999975
    vertex 47.06060872666936 127.90378163929894 23.999999999999986
  endloop
endfacet
facet normal -0.0 1.0 -0.0
  outer loop
    vertex 76.06060872666934 127.90378163929894 33.99999999999998
    vertex 55.060608726669365 127.90378163929894 23.999999999999986
    vertex 55.060608726669365 127.90378163929894 33.99999999999998
  endloop
endfacet
facet normal 0.0 -1.0 0.0
  outer loop
    vertex 78.06060872666934 125.90378163929894 23.999999999999996
    vertex -26.939391273330667 125.90378163929894 0.0
    vertex 78.06060872666934 125.90378163929894 0.0
  endloop
endfacet
facet normal 0.0 -1.0 0.0
  outer loop
    vertex -26.939391273330667 125.90378163929894 0.0
    vertex 78.06060872666934 125.90378163929894 23.999999999999996
    vertex 0.31060872666933886 125.90378163929893 13.999999999999975
  endloop
endfacet
facet normal 0.0 -1.0 0.0
  outer loop
    vertex 0.31060872666933886 125.90378163929893 13.999999999999975
    vertex 78.06060872666934 125.90378163929894 23.999999999999996
    vertex 2.3811610874895033 125.90378163929893 14.272593389687428
  endloop
endfacet
facet normal 0.0 -1.0 0.0
  outer loop
    vertex 2.3811610874895033 125.90378163929893 14.272593389687428
    vertex 78.06060872666934 125.90378163929894 23.999999999999996
    vertex 4.310608726669339 125.90378163929893 15.071796769724463
  endloop
endfacet
facet normal 0.0 -1.0 0.0
  outer loop
    vertex 4.310608726669339 125.90378163929893 15.071796769724463
    vertex 78.06060872666934 125.90378163929894 23.999999999999996
    vertex 5.967462976161719 125.90378163929893 16.343145750507592
  endloop
endfacet
facet normal 0.0 -1.0 0.0
  outer loop
    vertex 5.967462976161719 125.90378163929893 16.343145750507592
    vertex 78.06060872666934 125.90378163929894 23.999999999999996
    vertex 27.060608726669358 125.90378163929886 18.999999999999975
  endloop
endfacet
facet normal 0.0 -1.0 0.0
  outer loop
    vertex 5.967462976161719 125.90378163929893 16.343145750507592
    vertex 27.060608726669358 125.90378163929886 18.999999999999975
    vertex 7.238811956944849 125.90378163929893 17.99999999999997
  endloop
endfacet
facet normal 0.0 -1.0 0.0
  outer loop
    vertex 27.060608726669358 125.90378163929886 18.999999999999975
    vertex 78.06060872666934 125.90378163929894 23.999999999999996
    vertex 27.83706586197692 125.90378163929886 19.10222252113277
  endloop
endfacet
facet normal 0.0 -1.0 0.0
  outer loop
    vertex 27.83706586197692 125.90378163929886 19.10222252113277
    vertex 78.06060872666934 125.90378163929894 23.999999999999996
    vertex 28.560608726669354 125.90378163929886 19.40192378864666
  endloop
endfacet
facet normal 0.0 -1.0 0.0
  outer loop
    vertex 28.560608726669354 125.90378163929886 19.40192378864666
    vertex 78.06060872666934 125.90378163929894 23.999999999999996
    vertex 29.181929070229 125.90378163929886 19.878679656440333
  endloop
endfacet
facet normal 0.0 -1.0 0.0
  outer loop
    vertex 29.181929070229 125.90378163929886 19.878679656440333
    vertex 78.06060872666934 125.90378163929894 23.999999999999996
    vertex 29.658684938022677 125.90378163929886 20.499999999999975
  endloop
endfacet
facet normal 0.0 -1.0 0.0
  outer loop
    vertex 29.658684938022677 125.90378163929886 20.499999999999975
    vertex 78.06060872666934 125.90378163929894 23.999999999999996
    vertex 29.958386205536563 125.90378163929886 21.223542864692412
  endloop
endfacet
facet normal 0.0 -1.0 0.0
  outer loop
    vertex 29.958386205536563 125.90378163929886 21.223542864692412
    vertex 78.06060872666934 125.90378163929894 23.999999999999996
    vertex 30.060608726669358 125.90378163929886 21.999999999999975
  endloop
endfacet
facet normal 0.0 -1.0 0.0
  outer loop
    vertex 30.060608726669358 125.90378163929886 21.999999999999975
    vertex 78.06060872666934 125.90378163929894 23.999999999999996
    vertex 29.958386205536563 125.90378163929886 22.776457135307535
  endloop
endfacet
facet normal 0.0 -1.0 0.0
  outer loop
    vertex 29.958386205536563 125.90378163929886 22.776457135307535
    vertex 78.06060872666934 125.90378163929894 23.999999999999996
    vertex 29.658684938022677 125.90378163929886 23.499999999999975
  endloop
endfacet
facet normal 0.0 -1.0 0.0
  outer loop
    vertex 29.658684938022677 125.90378163929886 23.499999999999975
    vertex 78.06060872666934 125.90378163929894 23.999999999999996
    vertex 55.060608726669365 125.90378163929894 23.999999999999986
  endloop
endfacet
facet normal 0.0 -1.0 0.0
  outer loop
    vertex 55.060608726669365 125.90378163929894 23.999999999999986
    vertex 78.06060872666934 125.90378163929894 23.999999999999996
    vertex 62.06060872666935 125.90378163929894 23.999999999999996
  endloop
endfacet
facet normal 0.0 -1.0 0.0
  outer loop
    vertex 55.060608726669365 125.90378163929894 23.999999999999986
    vertex 62.06060872666935 125.90378163929894 23.999999999999996
    vertex 55.060608726669365 125.90378163929894 33.99999999999998
  endloop
endfacet
facet normal 0.0 -1.0 0.0
  outer loop
    vertex 55.060608726669365 125.90378163929894 33.99999999999998
    vertex 62.06060872666935 125.90378163929894 23.999999999999996
    vertex 62.06060872666935 125.90378163929894 33.99999999999998
  endloop
endfacet
facet normal 0.0 -1.0 0.0
  outer loop
    vertex 29.658684938022677 125.90378163929886 23.499999999999975
    vertex 47.06060872666936 125.90378163929894 23.999999999999986
    vertex 29.181929070229 125.90378163929886 24.121320343559617
  endloop
endfacet
facet normal 0.0 -1.0 0.0
  outer loop
    vertex 47.06060872666936 125.90378163929894 23.999999999999986
    vertex 29.658684938022677 125.90378163929886 23.499999999999975
    vertex 55.060608726669365 125.90378163929894 23.999999999999986
  endloop
endfacet
facet normal 0.0 -1.0 0.0
  outer loop
    vertex 29.181929070229 125.90378163929886 24.121320343559617
    vertex 47.06060872666936 125.90378163929894 23.999999999999986
    vertex 47.06060872666936 125.90378163929894 33.99999999999998
  endloop
endfacet
facet normal 0.0 -1.0 0.0
  outer loop
    vertex 29.181929070229 125.90378163929886 24.121320343559617
    vertex 47.06060872666936 125.90378163929894 33.99999999999998
    vertex 28.56060872666936 125.90378163929886 24.59807621135329
  endloop
endfacet
facet normal 0.0 -1.0 0.0
  outer loop
    vertex 28.56060872666936 125.90378163929886 24.59807621135329
    vertex 47.06060872666936 125.90378163929894 33.99999999999998
    vertex 27.83706586197692 125.90378163929886 24.89777747886718
  endloop
endfacet
facet normal 0.0 -1.0 0.0
  outer loop
    vertex 27.83706586197692 125.90378163929886 24.89777747886718
    vertex 47.06060872666936 125.90378163929894 33.99999999999998
    vertex 27.060608726669358 125.90378163929886 24.999999999999975
  endloop
endfacet
facet normal 0.0 -1.0 0.0
  outer loop
    vertex 27.060608726669358 125.90378163929886 24.999999999999975
    vertex 47.06060872666936 125.90378163929894 33.99999999999998
    vertex 7.238811956944855 125.90378163929893 25.999999999999975
  endloop
endfacet
facet normal 0.0 -1.0 0.0
  outer loop
    vertex 7.238811956944855 125.90378163929893 25.999999999999975
    vertex 47.06060872666936 125.90378163929894 33.99999999999998
    vertex 5.967462976161723 125.90378163929893 27.65685424949236
  endloop
endfacet
facet normal 0.0 -1.0 0.0
  outer loop
    vertex 5.967462976161723 125.90378163929893 27.65685424949236
    vertex 47.06060872666936 125.90378163929894 33.99999999999998
    vertex 4.3106087266693445 125.90378163929893 28.928203230275486
  endloop
endfacet
facet normal 0.0 -1.0 0.0
  outer loop
    vertex 4.3106087266693445 125.90378163929893 28.928203230275486
    vertex 47.06060872666936 125.90378163929894 33.99999999999998
    vertex 2.3811610874895126 125.90378163929893 29.727406610312524
  endloop
endfacet
facet normal 0.0 -1.0 0.0
  outer loop
    vertex 2.3811610874895126 125.90378163929893 29.727406610312524
    vertex 47.06060872666936 125.90378163929894 33.99999999999998
    vertex 0.3106087266693398 125.90378163929893 29.99999999999998
  endloop
endfacet
facet normal 0.0 -1.0 0.0
  outer loop
    vertex -7.416797883643208 125.90378163929893 24.070552360820145
    vertex -25.939391273330667 125.90378163929894 23.999999999999996
    vertex -7.689391273330663 125.90378163929893 21.999999999999975
  endloop
endfacet
facet normal 0.0 -1.0 0.0
  outer loop
    vertex -25.939391273330667 125.90378163929894 23.999999999999996
    vertex -7.416797883643208 125.90378163929893 24.070552360820145
    vertex -25.939391273330667 125.90378163929894 33.99999999999998
  endloop
endfacet
facet normal 0.0 -1.0 0.0
  outer loop
    vertex -25.939391273330667 125.90378163929894 33.99999999999998
    vertex -7.416797883643208 125.90378163929893 24.070552360820145
    vertex -6.6175945036061705 125.90378163929893 25.999999999999982
  endloop
endfacet
facet normal 0.0 -1.0 0.0
  outer loop
    vertex -25.939391273330667 125.90378163929894 33.99999999999998
    vertex -6.6175945036061705 125.90378163929893 25.999999999999982
    vertex -5.346245522823041 125.90378163929893 27.65685424949236
  endloop
endfacet
facet normal 0.0 -1.0 0.0
  outer loop
    vertex -25.939391273330667 125.90378163929894 33.99999999999998
    vertex -5.346245522823041 125.90378163929893 27.65685424949236
    vertex -3.6893912733306604 125.90378163929893 28.92820323027549
  endloop
endfacet
facet normal 0.0 -1.0 0.0
  outer loop
    vertex -25.939391273330667 125.90378163929894 33.99999999999998
    vertex -3.6893912733306604 125.90378163929893 28.92820323027549
    vertex -1.7599436341508268 125.90378163929893 29.727406610312524
  endloop
endfacet
facet normal 0.0 -1.0 0.0
  outer loop
    vertex -25.939391273330667 125.90378163929894 33.99999999999998
    vertex -1.7599436341508268 125.90378163929893 29.727406610312524
    vertex 0.3106087266693398 125.90378163929893 29.99999999999998
  endloop
endfacet
facet normal 0.0 -1.0 0.0
  outer loop
    vertex -25.939391273330667 125.90378163929894 33.99999999999998
    vertex 0.3106087266693398 125.90378163929893 29.99999999999998
    vertex 47.06060872666936 125.90378163929894 33.99999999999998
  endloop
endfacet
facet normal 0.0 -1.0 0.0
  outer loop
    vertex 27.060608726669358 125.90378163929886 18.999999999999975
    vertex 8.038015336981887 125.90378163929893 19.929447639179806
    vertex 7.238811956944849 125.90378163929893 17.99999999999997
  endloop
endfacet
facet normal 0.0 -1.0 0.0
  outer loop
    vertex 8.038015336981887 125.90378163929893 19.929447639179806
    vertex 27.060608726669358 125.90378163929886 18.999999999999975
    vertex 26.284151591361795 125.90378163929886 19.10222252113277
  endloop
endfacet
facet normal 0.0 -1.0 0.0
  outer loop
    vertex 8.038015336981887 125.90378163929893 19.929447639179806
    vertex 26.284151591361795 125.90378163929886 19.10222252113277
    vertex 25.560608726669354 125.90378163929886 19.401923788646663
  endloop
endfacet
facet normal 0.0 -1.0 0.0
  outer loop
    vertex 8.038015336981887 125.90378163929893 19.929447639179806
    vertex 25.560608726669354 125.90378163929886 19.401923788646663
    vertex 24.939288383109716 125.90378163929886 19.878679656440333
  endloop
endfacet
facet normal 0.0 -1.0 0.0
  outer loop
    vertex 8.038015336981887 125.90378163929893 19.929447639179806
    vertex 24.939288383109716 125.90378163929886 19.878679656440333
    vertex 24.462532515316042 125.90378163929886 20.499999999999975
  endloop
endfacet
facet normal 0.0 -1.0 0.0
  outer loop
    vertex 8.038015336981887 125.90378163929893 19.929447639179806
    vertex 24.462532515316042 125.90378163929886 20.499999999999975
    vertex 8.310608726669342 125.90378163929893 21.999999999999975
  endloop
endfacet
facet normal 0.0 -1.0 0.0
  outer loop
    vertex 8.310608726669342 125.90378163929893 21.999999999999975
    vertex 24.462532515316042 125.90378163929886 20.499999999999975
    vertex 24.162831247802153 125.90378163929886 21.223542864692416
  endloop
endfacet
facet normal 0.0 -1.0 0.0
  outer loop
    vertex 8.310608726669342 125.90378163929893 21.999999999999975
    vertex 24.162831247802153 125.90378163929886 21.223542864692416
    vertex 24.060608726669358 125.90378163929886 21.999999999999975
  endloop
endfacet
facet normal 0.0 -1.0 0.0
  outer loop
    vertex 8.310608726669342 125.90378163929893 21.999999999999975
    vertex 24.060608726669358 125.90378163929886 21.999999999999975
    vertex 8.03801533698189 125.90378163929893 24.070552360820137
  endloop
endfacet
facet normal 0.0 -1.0 0.0
  outer loop
    vertex 8.03801533698189 125.90378163929893 24.070552360820137
    vertex 24.060608726669358 125.90378163929886 21.999999999999975
    vertex 24.162831247802153 125.90378163929886 22.77645713530754
  endloop
endfacet
facet normal 0.0 -1.0 0.0
  outer loop
    vertex 8.03801533698189 125.90378163929893 24.070552360820137
    vertex 24.162831247802153 125.90378163929886 22.77645713530754
    vertex 24.462532515316045 125.90378163929886 23.499999999999975
  endloop
endfacet
facet normal 0.0 -1.0 0.0
  outer loop
    vertex 8.03801533698189 125.90378163929893 24.070552360820137
    vertex 24.462532515316045 125.90378163929886 23.499999999999975
    vertex 24.939288383109716 125.90378163929886 24.121320343559617
  endloop
endfacet
facet normal 0.0 -1.0 0.0
  outer loop
    vertex 8.03801533698189 125.90378163929893 24.070552360820137
    vertex 24.939288383109716 125.90378163929886 24.121320343559617
    vertex 7.238811956944855 125.90378163929893 25.999999999999975
  endloop
endfacet
facet normal 0.0 -1.0 0.0
  outer loop
    vertex 7.238811956944855 125.90378163929893 25.999999999999975
    vertex 24.939288383109716 125.90378163929886 24.121320343559617
    vertex 25.56060872666936 125.90378163929886 24.59807621135329
  endloop
endfacet
facet normal 0.0 -1.0 0.0
  outer loop
    vertex 7.238811956944855 125.90378163929893 25.999999999999975
    vertex 25.56060872666936 125.90378163929886 24.59807621135329
    vertex 26.284151591361795 125.90378163929886 24.89777747886718
  endloop
endfacet
facet normal 0.0 -1.0 0.0
  outer loop
    vertex 7.238811956944855 125.90378163929893 25.999999999999975
    vertex 26.284151591361795 125.90378163929886 24.89777747886718
    vertex 27.060608726669358 125.90378163929886 24.999999999999975
  endloop
endfacet
facet normal 0.0 -1.0 0.0
  outer loop
    vertex -26.939391273330667 125.90378163929894 0.0
    vertex -1.759943634150829 125.90378163929893 14.272593389687428
    vertex -26.939391273330667 125.90378163929894 23.999999999999996
  endloop
endfacet
facet normal 0.0 -1.0 0.0
  outer loop
    vertex -1.759943634150829 125.90378163929893 14.272593389687428
    vertex -26.939391273330667 125.90378163929894 0.0
    vertex 0.31060872666933886 125.90378163929893 13.999999999999975
  endloop
endfacet
facet normal 0.0 -1.0 0.0
  outer loop
    vertex -26.939391273330667 125.90378163929894 23.999999999999996
    vertex -1.759943634150829 125.90378163929893 14.272593389687428
    vertex -3.689391273330664 125.90378163929893 15.071796769724466
  endloop
endfacet
facet normal 0.0 -1.0 0.0
  outer loop
    vertex -26.939391273330667 125.90378163929894 23.999999999999996
    vertex -3.689391273330664 125.90378163929893 15.071796769724466
    vertex -5.346245522823042 125.90378163929893 16.343145750507592
  endloop
endfacet
facet normal 0.0 -1.0 0.0
  outer loop
    vertex -26.939391273330667 125.90378163929894 23.999999999999996
    vertex -5.346245522823042 125.90378163929893 16.343145750507592
    vertex -6.617594503606172 125.90378163929893 17.99999999999998
  endloop
endfacet
facet normal 0.0 -1.0 0.0
  outer loop
    vertex -26.939391273330667 125.90378163929894 23.999999999999996
    vertex -6.617594503606172 125.90378163929893 17.99999999999998
    vertex -7.416797883643208 125.90378163929893 19.929447639179813
  endloop
endfacet
facet normal 0.0 -1.0 0.0
  outer loop
    vertex -26.939391273330667 125.90378163929894 23.999999999999996
    vertex -7.416797883643208 125.90378163929893 19.929447639179813
    vertex -7.689391273330663 125.90378163929893 21.999999999999975
  endloop
endfacet
facet normal 0.0 -1.0 0.0
  outer loop
    vertex -26.939391273330667 125.90378163929894 23.999999999999996
    vertex -7.689391273330663 125.90378163929893 21.999999999999975
    vertex -25.939391273330667 125.90378163929894 23.999999999999996
  endloop
endfacet
facet normal -0.13052619222005185 -0.0 0.9914448613738105
  outer loop
    vertex 2.3811610874895033 125.90378163929893 14.272593389687428
    vertex 0.31060872666933886 127.90378163929894 13.999999999999975
    vertex 0.31060872666933886 125.90378163929893 13.999999999999975
  endloop
endfacet
facet normal -0.13052619222005185 -0.0 0.9914448613738105
  outer loop
    vertex 0.31060872666933886 127.90378163929894 13.999999999999975
    vertex 2.3811610874895033 125.90378163929893 14.272593389687428
    vertex 2.3811610874895033 127.90378163929894 14.272593389687428
  endloop
endfacet
facet normal 0.13052619222005163 0.0 0.9914448613738104
  outer loop
    vertex 0.31060872666933886 125.90378163929893 13.999999999999975
    vertex -1.759943634150829 127.90378163929894 14.272593389687428
    vertex -1.759943634150829 125.90378163929893 14.272593389687428
  endloop
endfacet
facet normal 0.13052619222005163 0.0 0.9914448613738104
  outer loop
    vertex -1.759943634150829 127.90378163929894 14.272593389687428
    vertex 0.31060872666933886 125.90378163929893 13.999999999999975
    vertex 0.31060872666933886 127.90378163929894 13.999999999999975
  endloop
endfacet
facet normal 0.3826834323650898 0.0 0.9238795325112867
  outer loop
    vertex -1.759943634150829 125.90378163929893 14.272593389687428
    vertex -3.689391273330664 127.90378163929894 15.071796769724466
    vertex -3.689391273330664 125.90378163929893 15.071796769724466
  endloop
endfacet
facet normal 0.3826834323650898 0.0 0.9238795325112867
  outer loop
    vertex -3.689391273330664 127.90378163929894 15.071796769724466
    vertex -1.759943634150829 125.90378163929893 14.272593389687428
    vertex -1.759943634150829 127.90378163929894 14.272593389687428
  endloop
endfacet
facet normal 0.6087614290087207 0.0 0.7933533402912352
  outer loop
    vertex -3.689391273330664 125.90378163929893 15.071796769724466
    vertex -5.346245522823042 127.90378163929894 16.343145750507592
    vertex -5.346245522823042 125.90378163929893 16.343145750507592
  endloop
endfacet
facet normal 0.6087614290087207 0.0 0.7933533402912352
  outer loop
    vertex -5.346245522823042 127.90378163929894 16.343145750507592
    vertex -3.689391273330664 125.90378163929893 15.071796769724466
    vertex -3.689391273330664 127.90378163929894 15.071796769724466
  endloop
endfacet
facet normal 0.7933533402912358 0.0 0.6087614290087199
  outer loop
    vertex -5.346245522823042 127.90378163929894 16.343145750507592
    vertex -6.617594503606172 125.90378163929893 17.99999999999998
    vertex -5.346245522823042 125.90378163929893 16.343145750507592
  endloop
endfacet
facet normal 0.7933533402912358 0.0 0.6087614290087199
  outer loop
    vertex -6.617594503606172 125.90378163929893 17.99999999999998
    vertex -5.346245522823042 127.90378163929894 16.343145750507592
    vertex -6.617594503606172 127.90378163929894 17.99999999999998
  endloop
endfacet
facet normal 0.9238795325112868 0.0 0.38268343236508956
  outer loop
    vertex -6.617594503606172 127.90378163929894 17.99999999999998
    vertex -7.416797883643208 125.90378163929893 19.929447639179813
    vertex -6.617594503606172 125.90378163929893 17.99999999999998
  endloop
endfacet
facet normal 0.9238795325112868 0.0 0.38268343236508956
  outer loop
    vertex -7.416797883643208 125.90378163929893 19.929447639179813
    vertex -6.617594503606172 127.90378163929894 17.99999999999998
    vertex -7.416797883643208 127.90378163929894 19.929447639179813
  endloop
endfacet
facet normal 0.9914448613738104 0.0 0.1305261922200518
  outer loop
    vertex -7.416797883643208 127.90378163929894 19.929447639179813
    vertex -7.689391273330663 125.90378163929893 21.999999999999975
    vertex -7.416797883643208 125.90378163929893 19.929447639179813
  endloop
endfacet
facet normal 0.9914448613738104 0.0 0.1305261922200518
  outer loop
    vertex -7.689391273330663 125.90378163929893 21.999999999999975
    vertex -7.416797883643208 127.90378163929894 19.929447639179813
    vertex -7.689391273330663 127.90378163929894 21.999999999999975
  endloop
endfacet
facet normal 0.9914448613738104 -0.0 -0.13052619222005163
  outer loop
    vertex -7.689391273330663 127.90378163929894 21.999999999999975
    vertex -7.416797883643208 125.90378163929893 24.070552360820145
    vertex -7.689391273330663 125.90378163929893 21.999999999999975
  endloop
endfacet
facet normal 0.9914448613738104 -0.0 -0.13052619222005163
  outer loop
    vertex -7.416797883643208 125.90378163929893 24.070552360820145
    vertex -7.689391273330663 127.90378163929894 21.999999999999975
    vertex -7.416797883643208 127.90378163929894 24.070552360820145
  endloop
endfacet
facet normal 0.9238795325112868 -0.0 -0.38268343236508967
  outer loop
    vertex -7.416797883643208 127.90378163929894 24.070552360820145
    vertex -6.6175945036061705 125.90378163929893 25.999999999999982
    vertex -7.416797883643208 125.90378163929893 24.070552360820145
  endloop
endfacet
facet normal 0.9238795325112868 -0.0 -0.38268343236508967
  outer loop
    vertex -6.6175945036061705 125.90378163929893 25.999999999999982
    vertex -7.416797883643208 127.90378163929894 24.070552360820145
    vertex -6.6175945036061705 127.90378163929894 25.999999999999982
  endloop
endfacet
facet normal 0.7933533402912349 -0.0 -0.6087614290087209
  outer loop
    vertex -6.6175945036061705 127.90378163929894 25.999999999999982
    vertex -5.346245522823041 125.90378163929893 27.65685424949236
    vertex -6.6175945036061705 125.90378163929893 25.999999999999982
  endloop
endfacet
facet normal 0.7933533402912349 -0.0 -0.6087614290087209
  outer loop
    vertex -5.346245522823041 125.90378163929893 27.65685424949236
    vertex -6.6175945036061705 127.90378163929894 25.999999999999982
    vertex -5.346245522823041 127.90378163929894 27.65685424949236
  endloop
endfacet
facet normal 0.6087614290087208 -0.0 -0.793353340291235
  outer loop
    vertex -3.6893912733306604 127.90378163929894 28.92820323027549
    vertex -5.346245522823041 125.90378163929893 27.65685424949236
    vertex -5.346245522823041 127.90378163929894 27.65685424949236
  endloop
endfacet
facet normal 0.6087614290087208 -0.0 -0.793353340291235
  outer loop
    vertex -5.346245522823041 125.90378163929893 27.65685424949236
    vertex -3.6893912733306604 127.90378163929894 28.92820323027549
    vertex -3.6893912733306604 125.90378163929893 28.92820323027549
  endloop
endfacet
facet normal 0.3826834323650889 -0.0 -0.9238795325112872
  outer loop
    vertex -1.7599436341508268 127.90378163929894 29.727406610312524
    vertex -3.6893912733306604 125.90378163929893 28.92820323027549
    vertex -3.6893912733306604 127.90378163929894 28.92820323027549
  endloop
endfacet
facet normal 0.3826834323650889 -0.0 -0.9238795325112872
  outer loop
    vertex -3.6893912733306604 125.90378163929893 28.92820323027549
    vertex -1.7599436341508268 127.90378163929894 29.727406610312524
    vertex -1.7599436341508268 125.90378163929893 29.727406610312524
  endloop
endfacet
facet normal 0.1305261922200517 -0.0 -0.9914448613738105
  outer loop
    vertex 0.3106087266693398 127.90378163929894 29.99999999999998
    vertex -1.7599436341508268 125.90378163929893 29.727406610312524
    vertex -1.7599436341508268 127.90378163929894 29.727406610312524
  endloop
endfacet
facet normal 0.1305261922200517 -0.0 -0.9914448613738105
  outer loop
    vertex -1.7599436341508268 125.90378163929893 29.727406610312524
    vertex 0.3106087266693398 127.90378163929894 29.99999999999998
    vertex 0.3106087266693398 125.90378163929893 29.99999999999998
  endloop
endfacet
facet normal -0.13052619222005132 -0.0 -0.9914448613738104
  outer loop
    vertex 2.3811610874895126 127.90378163929894 29.727406610312524
    vertex 0.3106087266693398 125.90378163929893 29.99999999999998
    vertex 0.3106087266693398 127.90378163929894 29.99999999999998
  endloop
endfacet
facet normal -0.13052619222005132 -0.0 -0.9914448613738104
  outer loop
    vertex 0.3106087266693398 125.90378163929893 29.99999999999998
    vertex 2.3811610874895126 127.90378163929894 29.727406610312524
    vertex 2.3811610874895126 125.90378163929893 29.727406610312524
  endloop
endfacet
facet normal -0.3826834323650915 -0.0 -0.9238795325112861
  outer loop
    vertex 4.3106087266693445 127.90378163929894 28.928203230275486
    vertex 2.3811610874895126 125.90378163929893 29.727406610312524
    vertex 2.3811610874895126 127.90378163929894 29.727406610312524
  endloop
endfacet
facet normal -0.3826834323650915 -0.0 -0.9238795325112861
  outer loop
    vertex 2.3811610874895126 125.90378163929893 29.727406610312524
    vertex 4.3106087266693445 127.90378163929894 28.928203230275486
    vertex 4.3106087266693445 125.90378163929893 28.928203230275486
  endloop
endfacet
facet normal -0.6087614290087198 -0.0 -0.7933533402912359
  outer loop
    vertex 5.967462976161723 127.90378163929894 27.65685424949236
    vertex 4.3106087266693445 125.90378163929893 28.928203230275486
    vertex 4.3106087266693445 127.90378163929894 28.928203230275486
  endloop
endfacet
facet normal -0.6087614290087198 -0.0 -0.7933533402912359
  outer loop
    vertex 4.3106087266693445 125.90378163929893 28.928203230275486
    vertex 5.967462976161723 127.90378163929894 27.65685424949236
    vertex 5.967462976161723 125.90378163929893 27.65685424949236
  endloop
endfacet
facet normal -0.7933533402912353 -0.0 -0.6087614290087204
  outer loop
    vertex 5.967462976161723 127.90378163929894 27.65685424949236
    vertex 7.238811956944855 125.90378163929893 25.999999999999975
    vertex 5.967462976161723 125.90378163929893 27.65685424949236
  endloop
endfacet
facet normal -0.7933533402912353 -0.0 -0.6087614290087204
  outer loop
    vertex 7.238811956944855 125.90378163929893 25.999999999999975
    vertex 5.967462976161723 127.90378163929894 27.65685424949236
    vertex 7.238811956944855 127.90378163929894 25.999999999999975
  endloop
endfacet
facet normal -0.9238795325112873 -0.0 -0.3826834323650885
  outer loop
    vertex 7.238811956944855 127.90378163929894 25.999999999999975
    vertex 8.03801533698189 125.90378163929893 24.070552360820137
    vertex 7.238811956944855 125.90378163929893 25.999999999999975
  endloop
endfacet
facet normal -0.9238795325112873 -0.0 -0.3826834323650885
  outer loop
    vertex 8.03801533698189 125.90378163929893 24.070552360820137
    vertex 7.238811956944855 127.90378163929894 25.999999999999975
    vertex 8.03801533698189 127.90378163929894 24.070552360820137
  endloop
endfacet
facet normal -0.9914448613738105 -0.0 -0.13052619222005113
  outer loop
    vertex 8.03801533698189 127.90378163929894 24.070552360820137
    vertex 8.310608726669342 125.90378163929893 21.999999999999975
    vertex 8.03801533698189 125.90378163929893 24.070552360820137
  endloop
endfacet
facet normal -0.9914448613738105 -0.0 -0.13052619222005113
  outer loop
    vertex 8.310608726669342 125.90378163929893 21.999999999999975
    vertex 8.03801533698189 127.90378163929894 24.070552360820137
    vertex 8.310608726669342 127.90378163929894 21.999999999999975
  endloop
endfacet
facet normal -0.9914448613738104 -0.0 0.1305261922200523
  outer loop
    vertex 8.310608726669342 127.90378163929894 21.999999999999975
    vertex 8.038015336981887 125.90378163929893 19.929447639179806
    vertex 8.310608726669342 125.90378163929893 21.999999999999975
  endloop
endfacet
facet normal -0.9914448613738104 -0.0 0.1305261922200523
  outer loop
    vertex 8.038015336981887 125.90378163929893 19.929447639179806
    vertex 8.310608726669342 127.90378163929894 21.999999999999975
    vertex 8.038015336981887 127.90378163929894 19.929447639179806
  endloop
endfacet
facet normal -0.9238795325112867 -0.0 0.3826834323650902
  outer loop
    vertex 8.038015336981887 127.90378163929894 19.929447639179806
    vertex 7.238811956944849 125.90378163929893 17.99999999999997
    vertex 8.038015336981887 125.90378163929893 19.929447639179806
  endloop
endfacet
facet normal -0.9238795325112867 -0.0 0.3826834323650902
  outer loop
    vertex 7.238811956944849 125.90378163929893 17.99999999999997
    vertex 8.038015336981887 127.90378163929894 19.929447639179806
    vertex 7.238811956944849 127.90378163929894 17.99999999999997
  endloop
endfacet
facet normal -0.7933533402912353 -0.0 0.6087614290087208
  outer loop
    vertex 7.238811956944849 127.90378163929894 17.99999999999997
    vertex 5.967462976161719 125.90378163929893 16.343145750507592
    vertex 7.238811956944849 125.90378163929893 17.99999999999997
  endloop
endfacet
facet normal -0.7933533402912353 -0.0 0.6087614290087208
  outer loop
    vertex 5.967462976161719 125.90378163929893 16.343145750507592
    vertex 7.238811956944849 127.90378163929894 17.99999999999997
    vertex 5.967462976161719 127.90378163929894 16.343145750507592
  endloop
endfacet
facet normal -0.6087614290087203 -0.0 0.7933533402912356
  outer loop
    vertex 5.967462976161719 125.90378163929893 16.343145750507592
    vertex 4.310608726669339 127.90378163929894 15.071796769724463
    vertex 4.310608726669339 125.90378163929893 15.071796769724463
  endloop
endfacet
facet normal -0.6087614290087203 -0.0 0.7933533402912356
  outer loop
    vertex 4.310608726669339 127.90378163929894 15.071796769724463
    vertex 5.967462976161719 125.90378163929893 16.343145750507592
    vertex 5.967462976161719 127.90378163929894 16.343145750507592
  endloop
endfacet
facet normal -0.38268343236508856 -0.0 0.9238795325112872
  outer loop
    vertex 4.310608726669339 125.90378163929893 15.071796769724463
    vertex 2.3811610874895033 127.90378163929894 14.272593389687428
    vertex 2.3811610874895033 125.90378163929893 14.272593389687428
  endloop
endfacet
facet normal -0.38268343236508856 -0.0 0.9238795325112872
  outer loop
    vertex 2.3811610874895033 127.90378163929894 14.272593389687428
    vertex 4.310608726669339 125.90378163929893 15.071796769724463
    vertex 4.310608726669339 127.90378163929894 15.071796769724463
  endloop
endfacet
facet normal 0.0 -1.0 0.0
  outer loop
    vertex 76.06060872666934 228.90378163929893 1.9999999999999998
    vertex 55.060608726669365 228.90378163929893 23.999999999999986
    vertex -24.939391273330667 228.90378163929893 1.9999999999999998
  endloop
endfacet
facet normal 0.0 -1.0 0.0
  outer loop
    vertex 55.060608726669365 228.90378163929893 23.999999999999986
    vertex 76.06060872666934 228.90378163929893 1.9999999999999998
    vertex 76.06060872666934 228.90378163929893 33.99999999999998
  endloop
endfacet
facet normal 0.0 -1.0 0.0
  outer loop
    vertex 55.060608726669365 228.90378163929893 23.999999999999986
    vertex 76.06060872666934 228.90378163929893 33.99999999999998
    vertex 55.060608726669365 228.90378163929893 33.99999999999998
  endloop
endfacet
facet normal 0.0 -1.0 0.0
  outer loop
    vertex -24.939391273330667 228.90378163929893 1.9999999999999998
    vertex 47.06060872666936 228.90378163929893 23.999999999999986
    vertex -24.939391273330667 228.90378163929893 33.99999999999998
  endloop
endfacet
facet normal 0.0 -1.0 0.0
  outer loop
    vertex 47.06060872666936 228.90378163929893 23.999999999999986
    vertex -24.939391273330667 228.90378163929893 1.9999999999999998
    vertex 55.060608726669365 228.90378163929893 23.999999999999986
  endloop
endfacet
facet normal 0.0 -1.0 0.0
  outer loop
    vertex -24.939391273330667 228.90378163929893 33.99999999999998
    vertex 47.06060872666936 228.90378163929893 23.999999999999986
    vertex 47.06060872666936 228.90378163929893 33.99999999999998
  endloop
endfacet
facet normal 1.0 -0.0 -0.0
  outer loop
    vertex 47.06060872666936 230.9037816392989 23.999999999999986
    vertex 47.06060872666936 228.90378163929893 33.99999999999998
    vertex 47.06060872666936 228.90378163929893 23.999999999999986
  endloop
endfacet
facet normal 1.0 -0.0 -0.0
  outer loop
    vertex 47.06060872666936 228.90378163929893 33.99999999999998
    vertex 47.06060872666936 230.9037816392989 23.999999999999986
    vertex 47.06060872666936 230.9037816392989 33.99999999999998
  endloop
endfacet
facet normal -0.0 -0.0 1.0
  outer loop
    vertex 55.060608726669365 228.90378163929893 23.999999999999986
    vertex 47.06060872666936 230.9037816392989 23.999999999999986
    vertex 47.06060872666936 228.90378163929893 23.999999999999986
  endloop
endfacet
facet normal -0.0 -0.0 1.0
  outer loop
    vertex 47.06060872666936 230.9037816392989 23.999999999999986
    vertex 55.060608726669365 228.90378163929893 23.999999999999986
    vertex 55.060608726669365 230.9037816392989 23.999999999999986
  endloop
endfacet
facet normal -1.0 0.0 0.0
  outer loop
    vertex 55.060608726669365 230.9037816392989 33.99999999999998
    vertex 55.060608726669365 228.90378163929893 23.999999999999986
    vertex 55.060608726669365 228.90378163929893 33.99999999999998
  endloop
endfacet
facet normal -1.0 0.0 0.0
  outer loop
    vertex 55.060608726669365 228.90378163929893 23.999999999999986
    vertex 55.060608726669365 230.9037816392989 33.99999999999998
    vertex 55.060608726669365 230.9037816392989 23.999999999999986
  endloop
endfacet
facet normal -0.0 -0.0 1.0
  outer loop
    vertex 78.06060872666934 125.90378163929894 23.999999999999996
    vertex 62.06060872666935 126.90378163929894 23.999999999999996
    vertex 62.06060872666935 125.90378163929894 23.999999999999996
  endloop
endfacet
facet normal -0.0 -0.0 1.0
  outer loop
    vertex 62.06060872666935 126.90378163929894 23.999999999999996
    vertex 78.06060872666934 125.90378163929894 23.999999999999996
    vertex 77.06060872666934 126.90378163929894 23.999999999999996
  endloop
endfacet
facet normal -0.0 -0.0 1.0
  outer loop
    vertex 77.06060872666934 126.90378163929894 23.999999999999996
    vertex 78.06060872666934 125.90378163929894 23.999999999999996
    vertex 77.06060872666934 230.90378163929893 23.999999999999996
  endloop
endfacet
facet normal -0.0 -0.0 1.0
  outer loop
    vertex 77.06060872666934 230.90378163929893 23.999999999999996
    vertex 78.06060872666934 125.90378163929894 23.999999999999996
    vertex 78.06060872666934 230.90378163929893 23.999999999999996
  endloop
endfacet
facet normal 1.0 -0.0 -0.0
  outer loop
    vertex 77.06060872666934 230.90378163929893 23.999999999999996
    vertex 77.06060872666934 126.90378163929894 33.99999999999998
    vertex 77.06060872666934 126.90378163929894 23.999999999999996
  endloop
endfacet
facet normal 1.0 -0.0 -0.0
  outer loop
    vertex 77.06060872666934 126.90378163929894 33.99999999999998
    vertex 77.06060872666934 230.90378163929893 23.999999999999996
    vertex 77.06060872666934 230.90378163929893 33.99999999999998
  endloop
endfacet
facet normal -0.0 -0.0 1.0
  outer loop
    vertex -25.939391273330667 125.90378163929894 23.999999999999996
    vertex -26.939391273330667 230.90378163929913 23.999999999999996
    vertex -26.939391273330667 125.90378163929894 23.999999999999996
  endloop
endfacet
facet normal -0.0 -0.0 1.0
  outer loop
    vertex -26.939391273330667 230.90378163929913 23.999999999999996
    vertex -25.939391273330667 125.90378163929894 23.999999999999996
    vertex -25.939391273330667 229.90378163929913 23.999999999999996
  endloop
endfacet
facet normal -0.0 -0.0 1.0
  outer loop
    vertex -26.939391273330667 230.90378163929913 23.999999999999996
    vertex -25.939391273330667 229.90378163929913 23.999999999999996
    vertex -10.93939127333067 230.90378163929907 23.999999999999996
  endloop
endfacet
facet normal -0.0 -0.0 1.0
  outer loop
    vertex -10.93939127333067 230.90378163929907 23.999999999999996
    vertex -25.939391273330667 229.90378163929913 23.999999999999996
    vertex -10.939391273330667 229.90378163929913 23.999999999999996
  endloop
endfacet
facet normal -1.0 0.0 0.0
  outer loop
    vertex -25.939391273330667 229.90378163929913 33.99999999999998
    vertex -25.939391273330667 125.90378163929894 23.999999999999996
    vertex -25.939391273330667 125.90378163929894 33.99999999999998
  endloop
endfacet
facet normal -1.0 0.0 0.0
  outer loop
    vertex -25.939391273330667 125.90378163929894 23.999999999999996
    vertex -25.939391273330667 229.90378163929913 33.99999999999998
    vertex -25.939391273330667 229.90378163929913 23.999999999999996
  endloop
endfacet
facet normal -0.0 -0.0 1.0
  outer loop
    vertex 62.06060872666935 125.90378163929894 33.99999999999998
    vertex 55.060608726669365 127.90378163929894 33.99999999999998
    vertex 55.060608726669365 125.90378163929894 33.99999999999998
  endloop
endfacet
facet normal -0.0 -0.0 1.0
  outer loop
    vertex 55.060608726669365 127.90378163929894 33.99999999999998
    vertex 62.06060872666935 125.90378163929894 33.99999999999998
    vertex 62.06060872666935 126.90378163929894 33.99999999999998
  endloop
endfacet
facet normal -0.0 -0.0 1.0
  outer loop
    vertex 55.060608726669365 127.90378163929894 33.99999999999998
    vertex 62.06060872666935 126.90378163929894 33.99999999999998
    vertex 76.06060872666934 127.90378163929894 33.99999999999998
  endloop
endfacet
facet normal -0.0 -0.0 1.0
  outer loop
    vertex 76.06060872666934 127.90378163929894 33.99999999999998
    vertex 62.06060872666935 126.90378163929894 33.99999999999998
    vertex 77.06060872666934 126.90378163929894 33.99999999999998
  endloop
endfacet
facet normal -0.0 -0.0 1.0
  outer loop
    vertex 76.06060872666934 127.90378163929894 33.99999999999998
    vertex 77.06060872666934 126.90378163929894 33.99999999999998
    vertex 76.06060872666934 228.90378163929893 33.99999999999998
  endloop
endfacet
facet normal -0.0 -0.0 1.0
  outer loop
    vertex 76.06060872666934 228.90378163929893 33.99999999999998
    vertex 55.060608726669365 230.9037816392989 33.99999999999998
    vertex 55.060608726669365 228.90378163929893 33.99999999999998
  endloop
endfacet
facet normal -0.0 -0.0 1.0
  outer loop
    vertex 55.060608726669365 230.9037816392989 33.99999999999998
    vertex 76.06060872666934 228.90378163929893 33.99999999999998
    vertex 77.06060872666934 230.90378163929893 33.99999999999998
  endloop
endfacet
facet normal -0.0 -0.0 1.0
  outer loop
    vertex 77.06060872666934 230.90378163929893 33.99999999999998
    vertex 76.06060872666934 228.90378163929893 33.99999999999998
    vertex 77.06060872666934 126.90378163929894 33.99999999999998
  endloop
endfacet
facet normal 0.0 -1.0 0.0
  outer loop
    vertex 77.06060872666934 126.90378163929894 33.99999999999998
    vertex 62.06060872666935 126.90378163929894 23.999999999999996
    vertex 77.06060872666934 126.90378163929894 23.999999999999996
  endloop
endfacet
facet normal 0.0 -1.0 0.0
  outer loop
    vertex 62.06060872666935 126.90378163929894 23.999999999999996
    vertex 77.06060872666934 126.90378163929894 33.99999999999998
    vertex 62.06060872666935 126.90378163929894 33.99999999999998
  endloop
endfacet
facet normal 1.0 0.0 0.0
  outer loop
    vertex 62.06060872666935 126.90378163929894 23.999999999999996
    vertex 62.06060872666935 125.90378163929894 33.99999999999998
    vertex 62.06060872666935 125.90378163929894 23.999999999999996
  endloop
endfacet
facet normal 1.0 0.0 0.0
  outer loop
    vertex 62.06060872666935 125.90378163929894 33.99999999999998
    vertex 62.06060872666935 126.90378163929894 23.999999999999996
    vertex 62.06060872666935 126.90378163929894 33.99999999999998
  endloop
endfacet
facet normal -0.0 -0.0 1.0
  outer loop
    vertex -25.939391273330667 125.90378163929894 33.99999999999998
    vertex -24.939391273330664 127.90378163929894 33.99999999999998
    vertex -25.939391273330667 229.90378163929913 33.99999999999998
  endloop
endfacet
facet normal -0.0 -0.0 1.0
  outer loop
    vertex -24.939391273330664 127.90378163929894 33.99999999999998
    vertex -25.939391273330667 125.90378163929894 33.99999999999998
    vertex 47.06060872666936 125.90378163929894 33.99999999999998
  endloop
endfacet
facet normal -0.0 -0.0 1.0
  outer loop
    vertex -25.939391273330667 229.90378163929913 33.99999999999998
    vertex -24.939391273330664 127.90378163929894 33.99999999999998
    vertex -24.939391273330667 228.90378163929893 33.99999999999998
  endloop
endfacet
facet normal -0.0 -0.0 1.0
  outer loop
    vertex -24.939391273330664 127.90378163929894 33.99999999999998
    vertex 47.06060872666936 125.90378163929894 33.99999999999998
    vertex 47.06060872666936 127.90378163929894 33.99999999999998
  endloop
endfacet
facet normal -0.0 -0.0 1.0
  outer loop
    vertex -24.939391273330667 228.90378163929893 33.99999999999998
    vertex -10.939391273330667 229.90378163929913 33.99999999999998
    vertex -25.939391273330667 229.90378163929913 33.99999999999998
  endloop
endfacet
facet normal -0.0 -0.0 1.0
  outer loop
    vertex -10.939391273330667 229.90378163929913 33.99999999999998
    vertex -24.939391273330667 228.90378163929893 33.99999999999998
    vertex 47.06060872666936 228.90378163929893 33.99999999999998
  endloop
endfacet
facet normal -0.0 -0.0 1.0
  outer loop
    vertex -10.939391273330667 229.90378163929913 33.99999999999998
    vertex 47.06060872666936 230.9037816392989 33.99999999999998
    vertex -10.93939127333067 230.90378163929907 33.99999999999998
  endloop
endfacet
facet normal -0.0 -0.0 1.0
  outer loop
    vertex 47.06060872666936 230.9037816392989 33.99999999999998
    vertex -10.939391273330667 229.90378163929913 33.99999999999998
    vertex 47.06060872666936 228.90378163929893 33.99999999999998
  endloop
endfacet
facet normal -0.0 1.0 -0.0
  outer loop
    vertex -25.939391273330667 229.90378163929913 33.99999999999998
    vertex -10.939391273330667 229.90378163929913 23.999999999999996
    vertex -25.939391273330667 229.90378163929913 23.999999999999996
  endloop
endfacet
facet normal -0.0 1.0 -0.0
  outer loop
    vertex -10.939391273330667 229.90378163929913 23.999999999999996
    vertex -25.939391273330667 229.90378163929913 33.99999999999998
    vertex -10.939391273330667 229.90378163929913 33.99999999999998
  endloop
endfacet
facet normal -1.0 -2.81996648254803e-15 -0.0
  outer loop
    vertex -10.93939127333067 230.90378163929907 33.99999999999998
    vertex -10.939391273330667 229.90378163929913 23.999999999999996
    vertex -10.939391273330667 229.90378163929913 33.99999999999998
  endloop
endfacet
facet normal -1.0 -2.81996648254803e-15 -0.0
  outer loop
    vertex -10.939391273330667 229.90378163929913 23.999999999999996
    vertex -10.93939127333067 230.90378163929907 33.99999999999998
    vertex -10.93939127333067 230.90378163929907 23.999999999999996
  endloop
endfacet
facet normal 0.13052619222005168 -0.0 -0.9914448613738105
  outer loop
    vertex 27.060608726669358 127.90378163929894 24.999999999999975
    vertex 26.284151591361795 125.90378163929886 24.89777747886718
    vertex 26.284151591361795 127.90378163929894 24.89777747886718
  endloop
endfacet
facet normal 0.13052619222005168 -0.0 -0.9914448613738105
  outer loop
    vertex 26.284151591361795 125.90378163929886 24.89777747886718
    vertex 27.060608726669358 127.90378163929894 24.999999999999975
    vertex 27.060608726669358 125.90378163929886 24.999999999999975
  endloop
endfacet
facet normal -0.13052619222005168 -0.0 -0.9914448613738105
  outer loop
    vertex 27.83706586197692 127.90378163929894 24.89777747886718
    vertex 27.060608726669358 125.90378163929886 24.999999999999975
    vertex 27.060608726669358 127.90378163929894 24.999999999999975
  endloop
endfacet
facet normal -0.13052619222005168 -0.0 -0.9914448613738105
  outer loop
    vertex 27.060608726669358 125.90378163929886 24.999999999999975
    vertex 27.83706586197692 127.90378163929894 24.89777747886718
    vertex 27.83706586197692 125.90378163929886 24.89777747886718
  endloop
endfacet
facet normal -0.38268343236509006 -0.0 -0.9238795325112867
  outer loop
    vertex 28.56060872666936 127.90378163929894 24.59807621135329
    vertex 27.83706586197692 125.90378163929886 24.89777747886718
    vertex 27.83706586197692 127.90378163929894 24.89777747886718
  endloop
endfacet
facet normal -0.38268343236509006 -0.0 -0.9238795325112867
  outer loop
    vertex 27.83706586197692 125.90378163929886 24.89777747886718
    vertex 28.56060872666936 127.90378163929894 24.59807621135329
    vertex 28.56060872666936 125.90378163929886 24.59807621135329
  endloop
endfacet
facet normal -0.608761429008722 -0.0 -0.7933533402912343
  outer loop
    vertex 29.181929070229 127.90378163929894 24.121320343559617
    vertex 28.56060872666936 125.90378163929886 24.59807621135329
    vertex 28.56060872666936 127.90378163929894 24.59807621135329
  endloop
endfacet
facet normal -0.608761429008722 -0.0 -0.7933533402912343
  outer loop
    vertex 28.56060872666936 125.90378163929886 24.59807621135329
    vertex 29.181929070229 127.90378163929894 24.121320343559617
    vertex 29.181929070229 125.90378163929886 24.121320343559617
  endloop
endfacet
facet normal -0.793353340291235 -0.0 -0.6087614290087207
  outer loop
    vertex 29.181929070229 127.90378163929894 24.121320343559617
    vertex 29.658684938022677 125.90378163929886 23.499999999999975
    vertex 29.181929070229 125.90378163929886 24.121320343559617
  endloop
endfacet
facet normal -0.793353340291235 -0.0 -0.6087614290087207
  outer loop
    vertex 29.658684938022677 125.90378163929886 23.499999999999975
    vertex 29.181929070229 127.90378163929894 24.121320343559617
    vertex 29.658684938022677 127.90378163929894 23.499999999999975
  endloop
endfacet
facet normal -0.9238795325112874 -0.0 -0.3826834323650882
  outer loop
    vertex 29.658684938022677 127.90378163929894 23.499999999999975
    vertex 29.958386205536563 125.90378163929886 22.776457135307535
    vertex 29.658684938022677 125.90378163929886 23.499999999999975
  endloop
endfacet
facet normal -0.9238795325112874 -0.0 -0.3826834323650882
  outer loop
    vertex 29.958386205536563 125.90378163929886 22.776457135307535
    vertex 29.658684938022677 127.90378163929894 23.499999999999975
    vertex 29.958386205536563 127.90378163929894 22.776457135307535
  endloop
endfacet
facet normal -0.9914448613738104 -0.0 -0.13052619222005216
  outer loop
    vertex 29.958386205536563 127.90378163929894 22.776457135307535
    vertex 30.060608726669358 125.90378163929886 21.999999999999975
    vertex 29.958386205536563 125.90378163929886 22.776457135307535
  endloop
endfacet
facet normal -0.9914448613738104 -0.0 -0.13052619222005216
  outer loop
    vertex 30.060608726669358 125.90378163929886 21.999999999999975
    vertex 29.958386205536563 127.90378163929894 22.776457135307535
    vertex 30.060608726669358 127.90378163929894 21.999999999999975
  endloop
endfacet
facet normal -0.9914448613738106 -0.0 0.13052619222005124
  outer loop
    vertex 30.060608726669358 127.90378163929894 21.999999999999975
    vertex 29.958386205536563 125.90378163929886 21.223542864692412
    vertex 30.060608726669358 125.90378163929886 21.999999999999975
  endloop
endfacet
facet normal -0.9914448613738106 -0.0 0.13052619222005124
  outer loop
    vertex 29.958386205536563 125.90378163929886 21.223542864692412
    vertex 30.060608726669358 127.90378163929894 21.999999999999975
    vertex 29.958386205536563 127.90378163929894 21.223542864692412
  endloop
endfacet
facet normal -0.9238795325112868 -0.0 0.3826834323650895
  outer loop
    vertex 29.958386205536563 127.90378163929894 21.223542864692412
    vertex 29.658684938022677 125.90378163929886 20.499999999999975
    vertex 29.958386205536563 125.90378163929886 21.223542864692412
  endloop
endfacet
facet normal -0.9238795325112868 -0.0 0.3826834323650895
  outer loop
    vertex 29.658684938022677 125.90378163929886 20.499999999999975
    vertex 29.958386205536563 127.90378163929894 21.223542864692412
    vertex 29.658684938022677 127.90378163929894 20.499999999999975
  endloop
endfacet
facet normal -0.7933533402912337 -0.0 0.6087614290087224
  outer loop
    vertex 29.658684938022677 127.90378163929894 20.499999999999975
    vertex 29.181929070229 125.90378163929886 19.878679656440333
    vertex 29.658684938022677 125.90378163929886 20.499999999999975
  endloop
endfacet
facet normal -0.7933533402912337 -0.0 0.6087614290087224
  outer loop
    vertex 29.181929070229 125.90378163929886 19.878679656440333
    vertex 29.658684938022677 127.90378163929894 20.499999999999975
    vertex 29.181929070229 127.90378163929894 19.878679656440333
  endloop
endfacet
facet normal -0.6087614290087207 -0.0 0.793353340291235
  outer loop
    vertex 29.181929070229 125.90378163929886 19.878679656440333
    vertex 28.560608726669354 127.90378163929894 19.40192378864666
    vertex 28.560608726669354 125.90378163929886 19.40192378864666
  endloop
endfacet
facet normal -0.6087614290087207 -0.0 0.793353340291235
  outer loop
    vertex 28.560608726669354 127.90378163929894 19.40192378864666
    vertex 29.181929070229 125.90378163929886 19.878679656440333
    vertex 29.181929070229 127.90378163929894 19.878679656440333
  endloop
endfacet
facet normal -0.3826834323650895 -0.0 0.9238795325112868
  outer loop
    vertex 28.560608726669354 125.90378163929886 19.40192378864666
    vertex 27.83706586197692 127.90378163929894 19.10222252113277
    vertex 27.83706586197692 125.90378163929886 19.10222252113277
  endloop
endfacet
facet normal -0.3826834323650895 -0.0 0.9238795325112868
  outer loop
    vertex 27.83706586197692 127.90378163929894 19.10222252113277
    vertex 28.560608726669354 125.90378163929886 19.40192378864666
    vertex 28.560608726669354 127.90378163929894 19.40192378864666
  endloop
endfacet
facet normal -0.13052619222005168 -0.0 0.9914448613738105
  outer loop
    vertex 27.83706586197692 125.90378163929886 19.10222252113277
    vertex 27.060608726669358 127.90378163929894 18.999999999999975
    vertex 27.060608726669358 125.90378163929886 18.999999999999975
  endloop
endfacet
facet normal -0.13052619222005168 -0.0 0.9914448613738105
  outer loop
    vertex 27.060608726669358 127.90378163929894 18.999999999999975
    vertex 27.83706586197692 125.90378163929886 19.10222252113277
    vertex 27.83706586197692 127.90378163929894 19.10222252113277
  endloop
endfacet
facet normal 0.13052619222005168 0.0 0.9914448613738105
  outer loop
    vertex 27.060608726669358 125.90378163929886 18.999999999999975
    vertex 26.284151591361795 127.90378163929894 19.10222252113277
    vertex 26.284151591361795 125.90378163929886 19.10222252113277
  endloop
endfacet
facet normal 0.13052619222005168 0.0 0.9914448613738105
  outer loop
    vertex 26.284151591361795 127.90378163929894 19.10222252113277
    vertex 27.060608726669358 125.90378163929886 18.999999999999975
    vertex 27.060608726669358 127.90378163929894 18.999999999999975
  endloop
endfacet
facet normal 0.38268343236509006 0.0 0.9238795325112867
  outer loop
    vertex 26.284151591361795 125.90378163929886 19.10222252113277
    vertex 25.560608726669354 127.90378163929894 19.401923788646663
    vertex 25.560608726669354 125.90378163929886 19.401923788646663
  endloop
endfacet
facet normal 0.38268343236509006 0.0 0.9238795325112867
  outer loop
    vertex 25.560608726669354 127.90378163929894 19.401923788646663
    vertex 26.284151591361795 125.90378163929886 19.10222252113277
    vertex 26.284151591361795 127.90378163929894 19.10222252113277
  endloop
endfacet
facet normal 0.608761429008722 0.0 0.7933533402912343
  outer loop
    vertex 25.560608726669354 125.90378163929886 19.401923788646663
    vertex 24.939288383109716 127.90378163929894 19.878679656440333
    vertex 24.939288383109716 125.90378163929886 19.878679656440333
  endloop
endfacet
facet normal 0.608761429008722 0.0 0.7933533402912343
  outer loop
    vertex 24.939288383109716 127.90378163929894 19.878679656440333
    vertex 25.560608726669354 125.90378163929886 19.401923788646663
    vertex 25.560608726669354 127.90378163929894 19.401923788646663
  endloop
endfacet
facet normal 0.7933533402912337 0.0 0.6087614290087224
  outer loop
    vertex 24.939288383109716 127.90378163929894 19.878679656440333
    vertex 24.462532515316042 125.90378163929886 20.499999999999975
    vertex 24.939288383109716 125.90378163929886 19.878679656440333
  endloop
endfacet
facet normal 0.7933533402912337 0.0 0.6087614290087224
  outer loop
    vertex 24.462532515316042 125.90378163929886 20.499999999999975
    vertex 24.939288383109716 127.90378163929894 19.878679656440333
    vertex 24.462532515316042 127.90378163929894 20.499999999999975
  endloop
endfacet
facet normal 0.9238795325112874 0.0 0.3826834323650882
  outer loop
    vertex 24.462532515316042 127.90378163929894 20.499999999999975
    vertex 24.162831247802153 125.90378163929886 21.223542864692416
    vertex 24.462532515316042 125.90378163929886 20.499999999999975
  endloop
endfacet
facet normal 0.9238795325112874 0.0 0.3826834323650882
  outer loop
    vertex 24.162831247802153 125.90378163929886 21.223542864692416
    vertex 24.462532515316042 127.90378163929894 20.499999999999975
    vertex 24.162831247802153 127.90378163929894 21.223542864692416
  endloop
endfacet
facet normal 0.9914448613738105 0.0 0.13052619222005168
  outer loop
    vertex 24.162831247802153 127.90378163929894 21.223542864692416
    vertex 24.060608726669358 125.90378163929886 21.999999999999975
    vertex 24.162831247802153 125.90378163929886 21.223542864692416
  endloop
endfacet
facet normal 0.9914448613738105 0.0 0.13052619222005168
  outer loop
    vertex 24.060608726669358 125.90378163929886 21.999999999999975
    vertex 24.162831247802153 127.90378163929894 21.223542864692416
    vertex 24.060608726669358 127.90378163929894 21.999999999999975
  endloop
endfacet
facet normal 0.9914448613738105 -0.0 -0.13052619222005168
  outer loop
    vertex 24.060608726669358 127.90378163929894 21.999999999999975
    vertex 24.162831247802153 125.90378163929886 22.77645713530754
    vertex 24.060608726669358 125.90378163929886 21.999999999999975
  endloop
endfacet
facet normal 0.9914448613738105 -0.0 -0.13052619222005168
  outer loop
    vertex 24.162831247802153 125.90378163929886 22.77645713530754
    vertex 24.060608726669358 127.90378163929894 21.999999999999975
    vertex 24.162831247802153 127.90378163929894 22.77645713530754
  endloop
endfacet
facet normal 0.9238795325112862 -0.0 -0.38268343236509134
  outer loop
    vertex 24.162831247802153 127.90378163929894 22.77645713530754
    vertex 24.462532515316045 125.90378163929886 23.499999999999975
    vertex 24.162831247802153 125.90378163929886 22.77645713530754
  endloop
endfacet
facet normal 0.9238795325112862 -0.0 -0.38268343236509134
  outer loop
    vertex 24.462532515316045 125.90378163929886 23.499999999999975
    vertex 24.162831247802153 127.90378163929894 22.77645713530754
    vertex 24.462532515316045 127.90378163929894 23.499999999999975
  endloop
endfacet
facet normal 0.7933533402912355 -0.0 -0.6087614290087202
  outer loop
    vertex 24.462532515316045 127.90378163929894 23.499999999999975
    vertex 24.939288383109716 125.90378163929886 24.121320343559617
    vertex 24.462532515316045 125.90378163929886 23.499999999999975
  endloop
endfacet
facet normal 0.7933533402912355 -0.0 -0.6087614290087202
  outer loop
    vertex 24.939288383109716 125.90378163929886 24.121320343559617
    vertex 24.462532515316045 127.90378163929894 23.499999999999975
    vertex 24.939288383109716 127.90378163929894 24.121320343559617
  endloop
endfacet
facet normal 0.6087614290087184 -0.0 -0.7933533402912368
  outer loop
    vertex 25.56060872666936 127.90378163929894 24.59807621135329
    vertex 24.939288383109716 125.90378163929886 24.121320343559617
    vertex 24.939288383109716 127.90378163929894 24.121320343559617
  endloop
endfacet
facet normal 0.6087614290087184 -0.0 -0.7933533402912368
  outer loop
    vertex 24.939288383109716 125.90378163929886 24.121320343559617
    vertex 25.56060872666936 127.90378163929894 24.59807621135329
    vertex 25.56060872666936 125.90378163929886 24.59807621135329
  endloop
endfacet
facet normal 0.38268343236509256 -0.0 -0.9238795325112856
  outer loop
    vertex 26.284151591361795 127.90378163929894 24.89777747886718
    vertex 25.56060872666936 125.90378163929886 24.59807621135329
    vertex 25.56060872666936 127.90378163929894 24.59807621135329
  endloop
endfacet
facet normal 0.38268343236509256 -0.0 -0.9238795325112856
  outer loop
    vertex 25.56060872666936 125.90378163929886 24.59807621135329
    vertex 26.284151591361795 127.90378163929894 24.89777747886718
    vertex 26.284151591361795 125.90378163929886 24.89777747886718
  endloop
endfacet
endsolid PotiBox
