solid PotiBox
facet normal 0.1305572648392141 0.9914407700905301 0.0
  outer loop
    vertex -408.2444585196032 -66.68809544861273 91.99999999999997
    vertex -406.6915506572237 -66.89258916036624 88.99999999999997
    vertex -408.2444585196032 -66.68809544861273 88.99999999999997
  endloop
endfacet
facet normal 0.1305572648392141 0.9914407700905301 0.0
  outer loop
    vertex -406.6915506572237 -66.89258916036624 88.99999999999997
    vertex -408.2444585196032 -66.68809544861273 91.99999999999997
    vertex -406.6915506572237 -66.89258916036624 91.99999999999997
  endloop
endfacet
facet normal -0.13049511947266548 0.9914489516832498 0.0
  outer loop
    vertex -406.6915506572237 -66.89258916036624 91.99999999999997
    vertex -405.1386299798984 -66.68819278778943 88.99999999999997
    vertex -406.6915506572237 -66.89258916036624 88.99999999999997
  endloop
endfacet
facet normal -0.13049511947266548 0.9914489516832498 0.0
  outer loop
    vertex -405.1386299798984 -66.68819278778943 88.99999999999997
    vertex -406.6915506572237 -66.89258916036624 91.99999999999997
    vertex -405.1386299798984 -66.68819278778943 91.99999999999997
  endloop
endfacet
facet normal -0.38265447704588795 0.9238915256656152 0.0
  outer loop
    vertex -405.1386299798984 -66.68819278778943 91.99999999999997
    vertex -403.6915254654643 -66.08883560589237 88.99999999999997
    vertex -405.1386299798984 -66.68819278778943 88.99999999999997
  endloop
endfacet
facet normal -0.38265447704588795 0.9238915256656152 0.0
  outer loop
    vertex -403.6915254654643 -66.08883560589237 88.99999999999997
    vertex -405.1386299798984 -66.68819278778943 91.99999999999997
    vertex -403.6915254654643 -66.08883560589237 91.99999999999997
  endloop
endfacet
facet normal -0.6087365643748006 0.7933724189768411 0.0
  outer loop
    vertex -403.6915254654643 -66.08883560589237 91.99999999999997
    vertex -403.43616400561376 -65.89290258121828 88.99999999999997
    vertex -403.6915254654643 -66.08883560589237 88.99999999999997
  endloop
endfacet
facet normal -0.6087365643748006 0.7933724189768411 0.0
  outer loop
    vertex -403.43616400561376 -65.89290258121828 88.99999999999997
    vertex -403.6915254654643 -66.08883560589237 91.99999999999997
    vertex -403.43616400561376 -65.89290258121828 91.99999999999997
  endloop
endfacet
facet normal -0.7933342608263942 0.6087862930446436 0.0
  outer loop
    vertex -401.49530421464425 -63.89275201345629 91.99999999999997
    vertex -402.44885489512683 -65.13536281613686 88.99999999999997
    vertex -402.44885489512683 -65.13536281613686 91.99999999999997
  endloop
endfacet
facet normal -0.7933342608263942 0.6087862930446436 0.0
  outer loop
    vertex -402.44885489512683 -65.13536281613686 88.99999999999997
    vertex -401.49530421464425 -63.89275201345629 91.99999999999997
    vertex -401.49530421464425 -63.89275201345629 88.99999999999997
  endloop
endfacet
facet normal 0.0 0.0 1.0
  outer loop
    vertex -398.03110857452987 -55.892902581218344 97.0
    vertex -401.6913626123742 -52.232648543373905 97.0
    vertex -401.69136261237423 -55.89227574540774 97.0
  endloop
endfacet
facet normal 0.0 0.0 1.0
  outer loop
    vertex -401.6913626123742 -52.232648543373905 97.0
    vertex -398.03110857452987 -55.892902581218344 97.0
    vertex -399.62029480050876 -53.8218347693528 97.0
  endloop
endfacet
facet normal -0.6087365643748176 0.793372418976828 0.0
  outer loop
    vertex -403.43616400561376 -65.89290258121828 91.99999999999997
    vertex -402.44885489512683 -65.13536281613686 88.99999999999997
    vertex -403.43616400561376 -65.89290258121828 88.99999999999997
  endloop
endfacet
facet normal -0.6087365643748176 0.793372418976828 0.0
  outer loop
    vertex -402.44885489512683 -65.13536281613686 88.99999999999997
    vertex -403.43616400561376 -65.89290258121828 91.99999999999997
    vertex -402.44885489512683 -65.13536281613686 91.99999999999997
  endloop
endfacet
facet normal 0.3827123873083979 0.923867538449483 0.0
  outer loop
    vertex -409.6915254625175 -66.08864756104298 91.99999999999997
    vertex -408.2444585196032 -66.68809544861273 88.99999999999997
    vertex -409.6915254625175 -66.08864756104298 88.99999999999997
  endloop
endfacet
facet normal 0.3827123873083979 0.923867538449483 0.0
  outer loop
    vertex -408.2444585196032 -66.68809544861273 88.99999999999997
    vertex -409.6915254625175 -66.08864756104298 91.99999999999997
    vertex -408.2444585196032 -66.68809544861273 91.99999999999997
  endloop
endfacet
facet normal 0.6087614290086992 -0.7933533402912517 0.0
  outer loop
    vertex -399.62029480050876 -67.96397039308383 97.0
    vertex -401.69136261237423 -69.55315661906266 0.0
    vertex -399.62029480050876 -67.96397039308383 0.0
  endloop
endfacet
facet normal 0.6087614290086992 -0.7933533402912517 0.0
  outer loop
    vertex -401.69136261237423 -69.55315661906266 0.0
    vertex -399.62029480050876 -67.96397039308383 97.0
    vertex -401.69136261237423 -69.55315661906266 91.99999999999997
  endloop
endfacet
facet normal 0.6087614290086992 -0.7933533402912517 0.0
  outer loop
    vertex -401.69136261237423 -69.55315661906266 91.99999999999997
    vertex -399.62029480050876 -67.96397039308383 97.0
    vertex -401.69136261237423 -69.55315661906266 97.0
  endloop
endfacet
facet normal 0.9238795325112811 -0.38268343236510377 0.0
  outer loop
    vertex -397.0321043494835 -63.481093032243535 0.0
    vertex -398.03110857452987 -65.89290258121828 91.99999999999997
    vertex -398.03110857452987 -65.89290258121828 0.0
  endloop
endfacet
facet normal 0.9238795325112811 -0.38268343236510377 0.0
  outer loop
    vertex -398.03110857452987 -65.89290258121828 91.99999999999997
    vertex -397.0321043494835 -63.481093032243535 0.0
    vertex -397.0321043494835 -63.481093032243535 91.99999999999997
  endloop
endfacet
facet normal 0.7933342608263836 -0.6087862930446575 0.0
  outer loop
    vertex -410.93387032962164 -56.6498155104892 88.99999999999997
    vertex -411.8874210101042 -57.89242631316972 91.99999999999997
    vertex -411.8874210101042 -57.89242631316972 88.99999999999997
  endloop
endfacet
facet normal 0.7933342608263836 -0.6087862930446575 0.0
  outer loop
    vertex -411.8874210101042 -57.89242631316972 91.99999999999997
    vertex -410.93387032962164 -56.6498155104892 88.99999999999997
    vertex -410.93387032962164 -56.6498155104892 91.99999999999997
  endloop
endfacet
facet normal 0.9238675384494788 -0.3827123873084081 0.0
  outer loop
    vertex -411.8874210101042 -57.89242631316972 88.99999999999997
    vertex -412.48686889767396 -59.339493256084 91.99999999999997
    vertex -412.48686889767396 -59.339493256084 88.99999999999997
  endloop
endfacet
facet normal 0.9238675384494788 -0.3827123873084081 0.0
  outer loop
    vertex -412.48686889767396 -59.339493256084 91.99999999999997
    vertex -411.8874210101042 -57.89242631316972 88.99999999999997
    vertex -411.8874210101042 -57.89242631316972 91.99999999999997
  endloop
endfacet
facet normal 0.9914407700905312 -0.1305572648392067 0.0
  outer loop
    vertex -412.48686889767396 -59.339493256084 88.99999999999997
    vertex -412.6913626094275 -60.89240111846362 91.99999999999997
    vertex -412.6913626094275 -60.89240111846362 88.99999999999997
  endloop
endfacet
facet normal 0.9914407700905312 -0.1305572648392067 0.0
  outer loop
    vertex -412.6913626094275 -60.89240111846362 91.99999999999997
    vertex -412.48686889767396 -59.339493256084 88.99999999999997
    vertex -412.48686889767396 -59.339493256084 91.99999999999997
  endloop
endfacet
facet normal 0.9914489516832534 0.13049511947263714 0.0
  outer loop
    vertex -412.6913626094275 -60.89240111846362 88.99999999999997
    vertex -412.4869662368507 -62.445321795788914 91.99999999999997
    vertex -412.4869662368507 -62.445321795788914 88.99999999999997
  endloop
endfacet
facet normal 0.9914489516832534 0.13049511947263714 0.0
  outer loop
    vertex -412.4869662368507 -62.445321795788914 91.99999999999997
    vertex -412.6913626094275 -60.89240111846362 88.99999999999997
    vertex -412.6913626094275 -60.89240111846362 91.99999999999997
  endloop
endfacet
facet normal 0.9238915256656152 0.38265447704588795 0.0
  outer loop
    vertex -412.4869662368507 -62.445321795788914 88.99999999999997
    vertex -411.88760905495366 -63.89242631022301 91.99999999999997
    vertex -411.88760905495366 -63.89242631022301 88.99999999999997
  endloop
endfacet
facet normal 0.9238915256656152 0.38265447704588795 0.0
  outer loop
    vertex -411.88760905495366 -63.89242631022301 91.99999999999997
    vertex -412.4869662368507 -62.445321795788914 88.99999999999997
    vertex -412.4869662368507 -62.445321795788914 91.99999999999997
  endloop
endfacet
facet normal 0.7933724189768168 0.6087365643748324 0.0
  outer loop
    vertex -411.88760905495366 -63.89242631022301 88.99999999999997
    vertex -410.9341362651981 -65.13509688056047 91.99999999999997
    vertex -410.9341362651981 -65.13509688056047 88.99999999999997
  endloop
endfacet
facet normal 0.7933724189768168 0.6087365643748324 0.0
  outer loop
    vertex -410.9341362651981 -65.13509688056047 91.99999999999997
    vertex -411.88760905495366 -63.89242631022301 88.99999999999997
    vertex -411.88760905495366 -63.89242631022301 91.99999999999997
  endloop
endfacet
facet normal 0.6087862930446057 0.7933342608264234 0.0
  outer loop
    vertex -410.9341362651981 -65.13509688056047 91.99999999999997
    vertex -409.9466087333695 -65.89290258121828 88.99999999999997
    vertex -410.9341362651981 -65.13509688056047 88.99999999999997
  endloop
endfacet
facet normal 0.6087862930446057 0.7933342608264234 0.0
  outer loop
    vertex -409.9466087333695 -65.89290258121828 88.99999999999997
    vertex -410.9341362651981 -65.13509688056047 91.99999999999997
    vertex -409.9466087333695 -65.89290258121828 91.99999999999997
  endloop
endfacet
facet normal 0.6087862930447021 0.7933342608263493 0.0
  outer loop
    vertex -409.9466087333695 -65.89290258121828 91.99999999999997
    vertex -409.6915254625175 -66.08864756104298 88.99999999999997
    vertex -409.9466087333695 -65.89290258121828 88.99999999999997
  endloop
endfacet
facet normal 0.6087862930447021 0.7933342608263493 0.0
  outer loop
    vertex -409.6915254625175 -66.08864756104298 88.99999999999997
    vertex -409.9466087333695 -65.89290258121828 91.99999999999997
    vertex -409.6915254625175 -66.08864756104298 91.99999999999997
  endloop
endfacet
facet normal -0.12133317390082954 -0.9216169546673405 -0.36864678186693606
  outer loop
    vertex -406.69136261237423 -60.89290258121833 29.99999999999999
    vertex -406.69136261237423 -56.89290258121834 20.000000000000007
    vertex -405.6560864319642 -57.029199276062045 20.000000000000007
  endloop
endfacet
facet normal -0.1213331739008691 0.9216169546673361 -0.3686467818669342
  outer loop
    vertex -406.69136261237423 -60.89290258121833 29.99999999999999
    vertex -405.6560864319642 -64.75660588637457 20.000000000000007
    vertex -406.69136261237423 -64.89290258121832 20.000000000000007
  endloop
endfacet
facet normal -0.8588102822507915 -0.35573086641373863 -0.3686467818669342
  outer loop
    vertex -403.2272609972365 -58.89290258121834 20.000000000000007
    vertex -402.82765930721797 -59.85762640080824 20.000000000000007
    vertex -406.69136261237423 -60.89290258121833 29.99999999999999
  endloop
endfacet
facet normal -0.1305572648392141 -0.9914407700905301 0.0
  outer loop
    vertex -405.13826670514527 -55.09708287801329 91.99999999999997
    vertex -406.6911745675248 -54.89258916625977 88.99999999999997
    vertex -405.13826670514527 -55.09708287801329 88.99999999999997
  endloop
endfacet
facet normal -0.1305572648392141 -0.9914407700905301 0.0
  outer loop
    vertex -406.6911745675248 -54.89258916625977 88.99999999999997
    vertex -405.13826670514527 -55.09708287801329 91.99999999999997
    vertex -406.6911745675248 -54.89258916625977 91.99999999999997
  endloop
endfacet
facet normal 0.13049511947266548 -0.9914489516832498 0.0
  outer loop
    vertex -406.6911745675248 -54.89258916625977 91.99999999999997
    vertex -408.2440952448501 -55.096985538836584 88.99999999999997
    vertex -406.6911745675248 -54.89258916625977 88.99999999999997
  endloop
endfacet
facet normal 0.13049511947266548 -0.9914489516832498 0.0
  outer loop
    vertex -408.2440952448501 -55.096985538836584 88.99999999999997
    vertex -406.6911745675248 -54.89258916625977 91.99999999999997
    vertex -408.2440952448501 -55.096985538836584 91.99999999999997
  endloop
endfacet
facet normal 0.38265447704586336 -0.9238915256656254 0.0
  outer loop
    vertex -408.2440952448501 -55.096985538836584 91.99999999999997
    vertex -409.6911997592842 -55.6963427207336 88.99999999999997
    vertex -408.2440952448501 -55.096985538836584 88.99999999999997
  endloop
endfacet
facet normal 0.38265447704586336 -0.9238915256656254 0.0
  outer loop
    vertex -409.6911997592842 -55.6963427207336 88.99999999999997
    vertex -408.2440952448501 -55.096985538836584 91.99999999999997
    vertex -409.6911997592842 -55.6963427207336 91.99999999999997
  endloop
endfacet
facet normal 0.6087365643748505 -0.7933724189768028 0.0
  outer loop
    vertex -409.6911997592842 -55.6963427207336 91.99999999999997
    vertex -410.93387032962164 -56.6498155104892 88.99999999999997
    vertex -409.6911997592842 -55.6963427207336 88.99999999999997
  endloop
endfacet
facet normal 0.6087365643748505 -0.7933724189768028 0.0
  outer loop
    vertex -410.93387032962164 -56.6498155104892 88.99999999999997
    vertex -409.6911997592842 -55.6963427207336 91.99999999999997
    vertex -410.93387032962164 -56.6498155104892 91.99999999999997
  endloop
endfacet
facet normal -0.130526192220039 -0.991444861373812 0.0
  outer loop
    vertex -406.69136261237423 -70.89290258121831 91.99999999999997
    vertex -409.2795530633995 -70.55216084410903 0.0
    vertex -406.69136261237423 -70.89290258121831 0.0
  endloop
endfacet
facet normal -0.130526192220039 -0.991444861373812 0.0
  outer loop
    vertex -409.2795530633995 -70.55216084410903 0.0
    vertex -406.69136261237423 -70.89290258121831 91.99999999999997
    vertex -409.2795530633995 -70.55216084410903 91.99999999999997
  endloop
endfacet
facet normal -0.38268343236511243 -0.9238795325112774 0.0
  outer loop
    vertex -409.2795530633995 -70.55216084410903 91.99999999999997
    vertex -411.6913626123743 -69.55315661906266 0.0
    vertex -409.2795530633995 -70.55216084410903 0.0
  endloop
endfacet
facet normal -0.38268343236511243 -0.9238795325112774 0.0
  outer loop
    vertex -411.6913626123743 -69.55315661906266 0.0
    vertex -409.2795530633995 -70.55216084410903 91.99999999999997
    vertex -411.6913626123743 -69.55315661906266 91.99999999999997
  endloop
endfacet
facet normal 0.9238795325112835 0.3826834323650976 0.0
  outer loop
    vertex -398.03110857452987 -55.892902581218344 0.0
    vertex -397.0321043494835 -58.304712130193124 91.99999999999997
    vertex -397.0321043494835 -58.304712130193124 0.0
  endloop
endfacet
facet normal 0.9238795325112835 0.3826834323650976 0.0
  outer loop
    vertex -397.0321043494835 -58.304712130193124 91.99999999999997
    vertex -398.03110857452987 -55.892902581218344 0.0
    vertex -398.03110857452987 -55.892902581218344 91.99999999999997
  endloop
endfacet
facet normal -0.9238675384494788 0.3827123873084081 0.0
  outer loop
    vertex -400.8958563270745 -62.44568507054202 91.99999999999997
    vertex -401.49530421464425 -63.89275201345629 88.99999999999997
    vertex -401.49530421464425 -63.89275201345629 91.99999999999997
  endloop
endfacet
facet normal -0.9238675384494788 0.3827123873084081 0.0
  outer loop
    vertex -401.49530421464425 -63.89275201345629 88.99999999999997
    vertex -400.8958563270745 -62.44568507054202 91.99999999999997
    vertex -400.8958563270745 -62.44568507054202 88.99999999999997
  endloop
endfacet
facet normal -0.3827123873083979 -0.923867538449483 0.0
  outer loop
    vertex -403.69119976223095 -55.696530765583034 91.99999999999997
    vertex -405.13826670514527 -55.09708287801329 88.99999999999997
    vertex -403.69119976223095 -55.696530765583034 88.99999999999997
  endloop
endfacet
facet normal -0.3827123873083979 -0.923867538449483 0.0
  outer loop
    vertex -405.13826670514527 -55.09708287801329 88.99999999999997
    vertex -403.69119976223095 -55.696530765583034 91.99999999999997
    vertex -405.13826670514527 -55.09708287801329 91.99999999999997
  endloop
endfacet
facet normal 0.0 0.0 1.0
  outer loop
    vertex -411.6913626123743 -55.89227574540774 97.0
    vertex -413.7624304242397 -53.8218347693528 97.0
    vertex -415.35161665021866 -55.892902581218344 97.0
  endloop
endfacet
facet normal 0.0 0.0 1.0
  outer loop
    vertex -413.7624304242397 -53.8218347693528 97.0
    vertex -411.6913626123743 -55.89227574540774 97.0
    vertex -411.6913626123743 -52.232648543373905 97.0
  endloop
endfacet
facet normal 0.0 0.0 1.0
  outer loop
    vertex -399.62029480050876 -67.96397039308383 97.0
    vertex -401.69136261237423 -65.89290258121828 97.0
    vertex -401.69136261237423 -69.55315661906266 97.0
  endloop
endfacet
facet normal 0.0 0.0 1.0
  outer loop
    vertex -401.69136261237423 -65.89290258121828 97.0
    vertex -399.62029480050876 -67.96397039308383 97.0
    vertex -398.03110857452987 -65.89290258121828 97.0
  endloop
endfacet
facet normal 0.0 0.0 1.0
  outer loop
    vertex -413.7624304242397 -67.96397039308383 97.0
    vertex -411.6913626123743 -65.89290258121828 97.0
    vertex -415.35161665021866 -65.89290258121828 97.0
  endloop
endfacet
facet normal 0.0 0.0 1.0
  outer loop
    vertex -411.6913626123743 -65.89290258121828 97.0
    vertex -413.7624304242397 -67.96397039308383 97.0
    vertex -411.6913626123743 -69.55315661906266 97.0
  endloop
endfacet
facet normal -0.9914407700905306 0.1305572648392104 0.0
  outer loop
    vertex -400.691362615321 -60.89277720816244 91.99999999999997
    vertex -400.8958563270745 -62.44568507054202 88.99999999999997
    vertex -400.8958563270745 -62.44568507054202 91.99999999999997
  endloop
endfacet
facet normal -0.9914407700905306 0.1305572648392104 0.0
  outer loop
    vertex -400.8958563270745 -62.44568507054202 88.99999999999997
    vertex -400.691362615321 -60.89277720816244 91.99999999999997
    vertex -400.691362615321 -60.89277720816244 88.99999999999997
  endloop
endfacet
facet normal -0.9914489516832539 -0.13049511947263337 0.0
  outer loop
    vertex -400.89575898789775 -59.339856530837096 91.99999999999997
    vertex -400.691362615321 -60.89277720816244 88.99999999999997
    vertex -400.691362615321 -60.89277720816244 91.99999999999997
  endloop
endfacet
facet normal -0.9914489516832539 -0.13049511947263337 0.0
  outer loop
    vertex -400.691362615321 -60.89277720816244 88.99999999999997
    vertex -400.89575898789775 -59.339856530837096 91.99999999999997
    vertex -400.89575898789775 -59.339856530837096 88.99999999999997
  endloop
endfacet
facet normal -0.923891525665611 -0.38265447704589817 0.0
  outer loop
    vertex -401.4951161697948 -57.89275201640305 91.99999999999997
    vertex -400.89575898789775 -59.339856530837096 88.99999999999997
    vertex -400.89575898789775 -59.339856530837096 91.99999999999997
  endloop
endfacet
facet normal -0.923891525665611 -0.38265447704589817 0.0
  outer loop
    vertex -400.89575898789775 -59.339856530837096 88.99999999999997
    vertex -401.4951161697948 -57.89275201640305 91.99999999999997
    vertex -401.4951161697948 -57.89275201640305 88.99999999999997
  endloop
endfacet
facet normal -0.7933724189768168 -0.6087365643748324 0.0
  outer loop
    vertex -402.44858895955036 -56.65008144606559 91.99999999999997
    vertex -401.4951161697948 -57.89275201640305 88.99999999999997
    vertex -401.4951161697948 -57.89275201640305 91.99999999999997
  endloop
endfacet
facet normal -0.7933724189768168 -0.6087365643748324 0.0
  outer loop
    vertex -401.4951161697948 -57.89275201640305 88.99999999999997
    vertex -402.44858895955036 -56.65008144606559 91.99999999999997
    vertex -402.44858895955036 -56.65008144606559 88.99999999999997
  endloop
endfacet
facet normal -0.6087862930446436 -0.7933342608263942 0.0
  outer loop
    vertex -402.44858895955036 -56.65008144606559 91.99999999999997
    vertex -403.69119976223095 -55.696530765583034 88.99999999999997
    vertex -402.44858895955036 -56.65008144606559 88.99999999999997
  endloop
endfacet
facet normal -0.6087862930446436 -0.7933342608263942 0.0
  outer loop
    vertex -403.69119976223095 -55.696530765583034 88.99999999999997
    vertex -402.44858895955036 -56.65008144606559 91.99999999999997
    vertex -403.69119976223095 -55.696530765583034 91.99999999999997
  endloop
endfacet
facet normal -0.6087614290087182 0.7933533402912369 3.259321071857477e-19
  outer loop
    vertex -413.7624304242397 -53.8218347693528 97.0
    vertex -411.6913626123743 -52.232648543373905 0.0
    vertex -413.7624304242397 -53.8218347693528 0.0
  endloop
endfacet
facet normal -0.6087614290087182 0.7933533402912369 3.259321071857477e-19
  outer loop
    vertex -411.6913626123743 -52.232648543373905 0.0
    vertex -413.7624304242397 -53.8218347693528 97.0
    vertex -411.6913626123743 -52.232648543373905 91.99999999999997
  endloop
endfacet
facet normal -0.6087614290087182 0.7933533402912369 3.259321071857477e-19
  outer loop
    vertex -411.6913626123743 -52.232648543373905 91.99999999999997
    vertex -413.7624304242397 -53.8218347693528 97.0
    vertex -411.6913626123743 -52.232648543373905 97.0
  endloop
endfacet
facet normal -1.0 1.2328978125337828e-14 0.0
  outer loop
    vertex -401.6913626123742 -52.232648543373905 97.0
    vertex -401.69136261237423 -55.89227574540774 91.99999999999997
    vertex -401.69136261237423 -55.89227574540774 97.0
  endloop
endfacet
facet normal -1.0 1.2328978125337828e-14 0.0
  outer loop
    vertex -401.69136261237423 -55.89227574540774 91.99999999999997
    vertex -401.6913626123742 -52.232648543373905 97.0
    vertex -401.6913626123742 -52.232648543373905 91.99999999999997
  endloop
endfacet
facet normal 1.0 0.0 0.0
  outer loop
    vertex -411.6913626123743 -52.232648543373905 91.99999999999997
    vertex -411.6913626123743 -55.89227574540774 97.0
    vertex -411.6913626123743 -55.89227574540774 91.99999999999997
  endloop
endfacet
facet normal 1.0 0.0 0.0
  outer loop
    vertex -411.6913626123743 -55.89227574540774 97.0
    vertex -411.6913626123743 -52.232648543373905 91.99999999999997
    vertex -411.6913626123743 -52.232648543373905 97.0
  endloop
endfacet
facet normal 0.00017125472574659826 -0.9999999853359094 0.0
  outer loop
    vertex -411.6913626123743 -55.89227574540774 97.0
    vertex -415.35161665021866 -55.892902581218344 91.99999999999997
    vertex -411.6913626123743 -55.89227574540774 91.99999999999997
  endloop
endfacet
facet normal 0.00017125472574659826 -0.9999999853359094 0.0
  outer loop
    vertex -415.35161665021866 -55.892902581218344 91.99999999999997
    vertex -411.6913626123743 -55.89227574540774 97.0
    vertex -415.35161665021866 -55.892902581218344 97.0
  endloop
endfacet
facet normal 0.0 1.0 0.0
  outer loop
    vertex -415.35161665021866 -65.89290258121828 97.0
    vertex -411.6913626123743 -65.89290258121828 91.99999999999997
    vertex -415.35161665021866 -65.89290258121828 91.99999999999997
  endloop
endfacet
facet normal 0.0 1.0 0.0
  outer loop
    vertex -411.6913626123743 -65.89290258121828 91.99999999999997
    vertex -415.35161665021866 -65.89290258121828 97.0
    vertex -411.6913626123743 -65.89290258121828 97.0
  endloop
endfacet
facet normal 1.0 0.0 0.0
  outer loop
    vertex -411.6913626123743 -65.89290258121828 91.99999999999997
    vertex -411.6913626123743 -69.55315661906266 97.0
    vertex -411.6913626123743 -69.55315661906266 91.99999999999997
  endloop
endfacet
facet normal 1.0 0.0 0.0
  outer loop
    vertex -411.6913626123743 -69.55315661906266 97.0
    vertex -411.6913626123743 -65.89290258121828 91.99999999999997
    vertex -411.6913626123743 -65.89290258121828 97.0
  endloop
endfacet
facet normal -1.0 0.0 0.0
  outer loop
    vertex -401.69136261237423 -65.89290258121828 97.0
    vertex -401.69136261237423 -69.55315661906266 91.99999999999997
    vertex -401.69136261237423 -69.55315661906266 97.0
  endloop
endfacet
facet normal -1.0 0.0 0.0
  outer loop
    vertex -401.69136261237423 -69.55315661906266 91.99999999999997
    vertex -401.69136261237423 -65.89290258121828 97.0
    vertex -401.69136261237423 -65.89290258121828 91.99999999999997
  endloop
endfacet
facet normal 0.0 1.0 0.0
  outer loop
    vertex -401.69136261237423 -65.89290258121828 97.0
    vertex -398.03110857452987 -65.89290258121828 91.99999999999997
    vertex -401.69136261237423 -65.89290258121828 91.99999999999997
  endloop
endfacet
facet normal 0.0 1.0 0.0
  outer loop
    vertex -398.03110857452987 -65.89290258121828 91.99999999999997
    vertex -401.69136261237423 -65.89290258121828 97.0
    vertex -398.03110857452987 -65.89290258121828 97.0
  endloop
endfacet
facet normal -0.00017125472574659826 -0.9999999853359094 0.0
  outer loop
    vertex -398.03110857452987 -55.892902581218344 97.0
    vertex -401.69136261237423 -55.89227574540774 91.99999999999997
    vertex -398.03110857452987 -55.892902581218344 91.99999999999997
  endloop
endfacet
facet normal -0.00017125472574659826 -0.9999999853359094 0.0
  outer loop
    vertex -401.69136261237423 -55.89227574540774 91.99999999999997
    vertex -398.03110857452987 -55.892902581218344 97.0
    vertex -401.69136261237423 -55.89227574540774 97.0
  endloop
endfacet
facet normal 0.0 0.0 1.0
  outer loop
    vertex -409.2795530633995 -70.55216084410903 91.99999999999997
    vertex -411.6913626123743 -65.89290258121828 91.99999999999997
    vertex -411.6913626123743 -69.55315661906266 91.99999999999997
  endloop
endfacet
facet normal 0.0 0.0 1.0
  outer loop
    vertex -411.6913626123743 -65.89290258121828 91.99999999999997
    vertex -409.2795530633995 -70.55216084410903 91.99999999999997
    vertex -410.9341362651981 -65.13509688056047 91.99999999999997
  endloop
endfacet
facet normal 0.0 0.0 1.0
  outer loop
    vertex -410.9341362651981 -65.13509688056047 91.99999999999997
    vertex -409.2795530633995 -70.55216084410903 91.99999999999997
    vertex -409.9466087333695 -65.89290258121828 91.99999999999997
  endloop
endfacet
facet normal 0.0 0.0 1.0
  outer loop
    vertex -409.9466087333695 -65.89290258121828 91.99999999999997
    vertex -409.2795530633995 -70.55216084410903 91.99999999999997
    vertex -409.6915254625175 -66.08864756104298 91.99999999999997
  endloop
endfacet
facet normal 0.0 0.0 1.0
  outer loop
    vertex -409.6915254625175 -66.08864756104298 91.99999999999997
    vertex -409.2795530633995 -70.55216084410903 91.99999999999997
    vertex -408.2444585196032 -66.68809544861273 91.99999999999997
  endloop
endfacet
facet normal 0.0 0.0 1.0
  outer loop
    vertex -408.2444585196032 -66.68809544861273 91.99999999999997
    vertex -409.2795530633995 -70.55216084410903 91.99999999999997
    vertex -406.69136261237423 -70.89290258121831 91.99999999999997
  endloop
endfacet
facet normal 0.0 0.0 1.0
  outer loop
    vertex -408.2444585196032 -66.68809544861273 91.99999999999997
    vertex -406.69136261237423 -70.89290258121831 91.99999999999997
    vertex -406.6915506572237 -66.89258916036624 91.99999999999997
  endloop
endfacet
facet normal 0.0 0.0 1.0
  outer loop
    vertex -406.6915506572237 -66.89258916036624 91.99999999999997
    vertex -406.69136261237423 -70.89290258121831 91.99999999999997
    vertex -405.1386299798984 -66.68819278778943 91.99999999999997
  endloop
endfacet
facet normal 0.0 0.0 1.0
  outer loop
    vertex -405.1386299798984 -66.68819278778943 91.99999999999997
    vertex -406.69136261237423 -70.89290258121831 91.99999999999997
    vertex -404.10317216134905 -70.55216084410903 91.99999999999997
  endloop
endfacet
facet normal 0.0 0.0 1.0
  outer loop
    vertex -405.1386299798984 -66.68819278778943 91.99999999999997
    vertex -404.10317216134905 -70.55216084410903 91.99999999999997
    vertex -403.6915254654643 -66.08883560589237 91.99999999999997
  endloop
endfacet
facet normal 0.0 0.0 1.0
  outer loop
    vertex -403.6915254654643 -66.08883560589237 91.99999999999997
    vertex -404.10317216134905 -70.55216084410903 91.99999999999997
    vertex -401.69136261237423 -69.55315661906266 91.99999999999997
  endloop
endfacet
facet normal 0.0 0.0 1.0
  outer loop
    vertex -403.6915254654643 -66.08883560589237 91.99999999999997
    vertex -401.69136261237423 -69.55315661906266 91.99999999999997
    vertex -403.43616400561376 -65.89290258121828 91.99999999999997
  endloop
endfacet
facet normal 0.0 0.0 1.0
  outer loop
    vertex -403.43616400561376 -65.89290258121828 91.99999999999997
    vertex -401.69136261237423 -69.55315661906266 91.99999999999997
    vertex -402.44885489512683 -65.13536281613686 91.99999999999997
  endloop
endfacet
facet normal 0.0 0.0 1.0
  outer loop
    vertex -402.44885489512683 -65.13536281613686 91.99999999999997
    vertex -401.69136261237423 -69.55315661906266 91.99999999999997
    vertex -401.69136261237423 -65.89290258121828 91.99999999999997
  endloop
endfacet
facet normal 0.0 0.0 1.0
  outer loop
    vertex -402.44885489512683 -65.13536281613686 91.99999999999997
    vertex -401.69136261237423 -65.89290258121828 91.99999999999997
    vertex -401.49530421464425 -63.89275201345629 91.99999999999997
  endloop
endfacet
facet normal 0.0 0.0 1.0
  outer loop
    vertex -401.49530421464425 -63.89275201345629 91.99999999999997
    vertex -401.69136261237423 -65.89290258121828 91.99999999999997
    vertex -398.03110857452987 -65.89290258121828 91.99999999999997
  endloop
endfacet
facet normal 0.0 0.0 1.0
  outer loop
    vertex -401.49530421464425 -63.89275201345629 91.99999999999997
    vertex -398.03110857452987 -65.89290258121828 91.99999999999997
    vertex -400.8958563270745 -62.44568507054202 91.99999999999997
  endloop
endfacet
facet normal 0.0 0.0 1.0
  outer loop
    vertex -400.8958563270745 -62.44568507054202 91.99999999999997
    vertex -398.03110857452987 -65.89290258121828 91.99999999999997
    vertex -400.691362615321 -60.89277720816244 91.99999999999997
  endloop
endfacet
facet normal 0.0 0.0 1.0
  outer loop
    vertex -401.4951161697948 -57.89275201640305 91.99999999999997
    vertex -401.69136261237423 -55.89227574540774 91.99999999999997
    vertex -402.44858895955036 -56.65008144606559 91.99999999999997
  endloop
endfacet
facet normal 0.0 0.0 1.0
  outer loop
    vertex -401.69136261237423 -55.89227574540774 91.99999999999997
    vertex -401.4951161697948 -57.89275201640305 91.99999999999997
    vertex -398.03110857452987 -55.892902581218344 91.99999999999997
  endloop
endfacet
facet normal 0.0 0.0 1.0
  outer loop
    vertex -398.03110857452987 -55.892902581218344 91.99999999999997
    vertex -401.4951161697948 -57.89275201640305 91.99999999999997
    vertex -400.89575898789775 -59.339856530837096 91.99999999999997
  endloop
endfacet
facet normal 0.0 0.0 1.0
  outer loop
    vertex -398.03110857452987 -55.892902581218344 91.99999999999997
    vertex -400.89575898789775 -59.339856530837096 91.99999999999997
    vertex -400.691362615321 -60.89277720816244 91.99999999999997
  endloop
endfacet
facet normal 0.0 0.0 1.0
  outer loop
    vertex -398.03110857452987 -55.892902581218344 91.99999999999997
    vertex -400.691362615321 -60.89277720816244 91.99999999999997
    vertex -398.03110857452987 -65.89290258121828 91.99999999999997
  endloop
endfacet
facet normal 0.0 0.0 1.0
  outer loop
    vertex -398.03110857452987 -55.892902581218344 91.99999999999997
    vertex -398.03110857452987 -65.89290258121828 91.99999999999997
    vertex -397.0321043494835 -63.481093032243535 91.99999999999997
  endloop
endfacet
facet normal 0.0 0.0 1.0
  outer loop
    vertex -398.03110857452987 -55.892902581218344 91.99999999999997
    vertex -397.0321043494835 -63.481093032243535 91.99999999999997
    vertex -397.0321043494835 -58.304712130193124 91.99999999999997
  endloop
endfacet
facet normal 0.0 0.0 1.0
  outer loop
    vertex -397.0321043494835 -58.304712130193124 91.99999999999997
    vertex -397.0321043494835 -63.481093032243535 91.99999999999997
    vertex -396.6913626123742 -60.89290258121833 91.99999999999997
  endloop
endfacet
facet normal 0.0 0.0 1.0
  outer loop
    vertex -415.35161665021866 -55.892902581218344 91.99999999999997
    vertex -412.48686889767396 -59.339493256084 91.99999999999997
    vertex -411.6913626123743 -55.89227574540774 91.99999999999997
  endloop
endfacet
facet normal 0.0 0.0 1.0
  outer loop
    vertex -412.48686889767396 -59.339493256084 91.99999999999997
    vertex -415.35161665021866 -55.892902581218344 91.99999999999997
    vertex -412.6913626094275 -60.89240111846362 91.99999999999997
  endloop
endfacet
facet normal 0.0 0.0 1.0
  outer loop
    vertex -411.6913626123743 -55.89227574540774 91.99999999999997
    vertex -412.48686889767396 -59.339493256084 91.99999999999997
    vertex -411.8874210101042 -57.89242631316972 91.99999999999997
  endloop
endfacet
facet normal 0.0 0.0 1.0
  outer loop
    vertex -411.6913626123743 -55.89227574540774 91.99999999999997
    vertex -411.8874210101042 -57.89242631316972 91.99999999999997
    vertex -410.93387032962164 -56.6498155104892 91.99999999999997
  endloop
endfacet
facet normal 0.0 0.0 1.0
  outer loop
    vertex -411.6913626123743 -55.89227574540774 91.99999999999997
    vertex -410.93387032962164 -56.6498155104892 91.99999999999997
    vertex -411.6913626123743 -52.232648543373905 91.99999999999997
  endloop
endfacet
facet normal 0.0 0.0 1.0
  outer loop
    vertex -411.6913626123743 -52.232648543373905 91.99999999999997
    vertex -410.93387032962164 -56.6498155104892 91.99999999999997
    vertex -409.27955306339936 -51.23364431832759 91.99999999999997
  endloop
endfacet
facet normal 0.0 0.0 1.0
  outer loop
    vertex -409.27955306339936 -51.23364431832759 91.99999999999997
    vertex -410.93387032962164 -56.6498155104892 91.99999999999997
    vertex -409.6911997592842 -55.6963427207336 91.99999999999997
  endloop
endfacet
facet normal 0.0 0.0 1.0
  outer loop
    vertex -409.27955306339936 -51.23364431832759 91.99999999999997
    vertex -409.6911997592842 -55.6963427207336 91.99999999999997
    vertex -408.2440952448501 -55.096985538836584 91.99999999999997
  endloop
endfacet
facet normal 0.0 0.0 1.0
  outer loop
    vertex -409.27955306339936 -51.23364431832759 91.99999999999997
    vertex -408.2440952448501 -55.096985538836584 91.99999999999997
    vertex -406.69136261237423 -50.89290258121826 91.99999999999997
  endloop
endfacet
facet normal 0.0 0.0 1.0
  outer loop
    vertex -406.69136261237423 -50.89290258121826 91.99999999999997
    vertex -408.2440952448501 -55.096985538836584 91.99999999999997
    vertex -406.6911745675248 -54.89258916625977 91.99999999999997
  endloop
endfacet
facet normal 0.0 0.0 1.0
  outer loop
    vertex -406.69136261237423 -50.89290258121826 91.99999999999997
    vertex -406.6911745675248 -54.89258916625977 91.99999999999997
    vertex -404.10317216134905 -51.23364431832759 91.99999999999997
  endloop
endfacet
facet normal 0.0 0.0 1.0
  outer loop
    vertex -404.10317216134905 -51.23364431832759 91.99999999999997
    vertex -406.6911745675248 -54.89258916625977 91.99999999999997
    vertex -405.13826670514527 -55.09708287801329 91.99999999999997
  endloop
endfacet
facet normal 0.0 0.0 1.0
  outer loop
    vertex -404.10317216134905 -51.23364431832759 91.99999999999997
    vertex -405.13826670514527 -55.09708287801329 91.99999999999997
    vertex -403.69119976223095 -55.696530765583034 91.99999999999997
  endloop
endfacet
facet normal 0.0 0.0 1.0
  outer loop
    vertex -404.10317216134905 -51.23364431832759 91.99999999999997
    vertex -403.69119976223095 -55.696530765583034 91.99999999999997
    vertex -401.6913626123742 -52.232648543373905 91.99999999999997
  endloop
endfacet
facet normal 0.0 0.0 1.0
  outer loop
    vertex -401.6913626123742 -52.232648543373905 91.99999999999997
    vertex -403.69119976223095 -55.696530765583034 91.99999999999997
    vertex -402.44858895955036 -56.65008144606559 91.99999999999997
  endloop
endfacet
facet normal 0.0 0.0 1.0
  outer loop
    vertex -401.6913626123742 -52.232648543373905 91.99999999999997
    vertex -402.44858895955036 -56.65008144606559 91.99999999999997
    vertex -401.69136261237423 -55.89227574540774 91.99999999999997
  endloop
endfacet
facet normal 0.0 0.0 1.0
  outer loop
    vertex -416.35062087526495 -63.481093032243535 91.99999999999997
    vertex -416.35062087526495 -58.304712130193124 91.99999999999997
    vertex -416.6913626123743 -60.89290258121833 91.99999999999997
  endloop
endfacet
facet normal 0.0 0.0 1.0
  outer loop
    vertex -416.35062087526495 -58.304712130193124 91.99999999999997
    vertex -416.35062087526495 -63.481093032243535 91.99999999999997
    vertex -415.35161665021866 -65.89290258121828 91.99999999999997
  endloop
endfacet
facet normal 0.0 0.0 1.0
  outer loop
    vertex -416.35062087526495 -58.304712130193124 91.99999999999997
    vertex -415.35161665021866 -65.89290258121828 91.99999999999997
    vertex -415.35161665021866 -55.892902581218344 91.99999999999997
  endloop
endfacet
facet normal 0.0 0.0 1.0
  outer loop
    vertex -415.35161665021866 -55.892902581218344 91.99999999999997
    vertex -415.35161665021866 -65.89290258121828 91.99999999999997
    vertex -411.6913626123743 -65.89290258121828 91.99999999999997
  endloop
endfacet
facet normal 0.0 0.0 1.0
  outer loop
    vertex -415.35161665021866 -55.892902581218344 91.99999999999997
    vertex -411.6913626123743 -65.89290258121828 91.99999999999997
    vertex -412.4869662368507 -62.445321795788914 91.99999999999997
  endloop
endfacet
facet normal 0.0 0.0 1.0
  outer loop
    vertex -415.35161665021866 -55.892902581218344 91.99999999999997
    vertex -412.4869662368507 -62.445321795788914 91.99999999999997
    vertex -412.6913626094275 -60.89240111846362 91.99999999999997
  endloop
endfacet
facet normal 0.0 0.0 1.0
  outer loop
    vertex -412.4869662368507 -62.445321795788914 91.99999999999997
    vertex -411.6913626123743 -65.89290258121828 91.99999999999997
    vertex -411.88760905495366 -63.89242631022301 91.99999999999997
  endloop
endfacet
facet normal 0.0 0.0 1.0
  outer loop
    vertex -411.88760905495366 -63.89242631022301 91.99999999999997
    vertex -411.6913626123743 -65.89290258121828 91.99999999999997
    vertex -410.9341362651981 -65.13509688056047 91.99999999999997
  endloop
endfacet
facet normal 0.9914448613738098 -0.13052619222005613 0.0
  outer loop
    vertex -396.6913626123742 -60.89290258121833 0.0
    vertex -397.0321043494835 -63.481093032243535 91.99999999999997
    vertex -397.0321043494835 -63.481093032243535 0.0
  endloop
endfacet
facet normal 0.9914448613738098 -0.13052619222005613 0.0
  outer loop
    vertex -397.0321043494835 -63.481093032243535 91.99999999999997
    vertex -396.6913626123742 -60.89290258121833 0.0
    vertex -396.6913626123742 -60.89290258121833 91.99999999999997
  endloop
endfacet
facet normal 0.9914448613738098 0.13052619222005613 0.0
  outer loop
    vertex -397.0321043494835 -58.304712130193124 0.0
    vertex -396.6913626123742 -60.89290258121833 91.99999999999997
    vertex -396.6913626123742 -60.89290258121833 0.0
  endloop
endfacet
facet normal 0.9914448613738098 0.13052619222005613 0.0
  outer loop
    vertex -396.6913626123742 -60.89290258121833 91.99999999999997
    vertex -397.0321043494835 -58.304712130193124 0.0
    vertex -397.0321043494835 -58.304712130193124 91.99999999999997
  endloop
endfacet
facet normal 0.6087614290087182 0.793353340291237 -6.518642143714955e-19
  outer loop
    vertex -401.6913626123742 -52.232648543373905 91.99999999999997
    vertex -399.62029480050876 -53.8218347693528 0.0
    vertex -401.6913626123742 -52.232648543373905 0.0
  endloop
endfacet
facet normal 0.6087614290087182 0.793353340291237 -6.518642143714955e-19
  outer loop
    vertex -399.62029480050876 -53.8218347693528 0.0
    vertex -401.6913626123742 -52.232648543373905 91.99999999999997
    vertex -399.62029480050876 -53.8218347693528 97.0
  endloop
endfacet
facet normal 0.6087614290087182 0.793353340291237 -6.518642143714955e-19
  outer loop
    vertex -399.62029480050876 -53.8218347693528 97.0
    vertex -401.6913626123742 -52.232648543373905 91.99999999999997
    vertex -401.6913626123742 -52.232648543373905 97.0
  endloop
endfacet
facet normal -0.6087614290087073 -0.7933533402912453 0.0
  outer loop
    vertex -411.6913626123743 -69.55315661906266 91.99999999999997
    vertex -413.7624304242397 -67.96397039308383 0.0
    vertex -411.6913626123743 -69.55315661906266 0.0
  endloop
endfacet
facet normal -0.6087614290087073 -0.7933533402912453 0.0
  outer loop
    vertex -413.7624304242397 -67.96397039308383 0.0
    vertex -411.6913626123743 -69.55315661906266 91.99999999999997
    vertex -413.7624304242397 -67.96397039308383 97.0
  endloop
endfacet
facet normal -0.6087614290087073 -0.7933533402912453 0.0
  outer loop
    vertex -413.7624304242397 -67.96397039308383 97.0
    vertex -411.6913626123743 -69.55315661906266 91.99999999999997
    vertex -411.6913626123743 -69.55315661906266 97.0
  endloop
endfacet
facet normal -0.7933533402912414 -0.6087614290087126 -3.259321071857211e-19
  outer loop
    vertex -415.35161665021866 -65.89290258121828 97.0
    vertex -413.7624304242397 -67.96397039308383 0.0
    vertex -413.7624304242397 -67.96397039308383 97.0
  endloop
endfacet
facet normal -0.7933533402912414 -0.6087614290087126 -3.259321071857211e-19
  outer loop
    vertex -413.7624304242397 -67.96397039308383 0.0
    vertex -415.35161665021866 -65.89290258121828 97.0
    vertex -415.35161665021866 -65.89290258121828 0.0
  endloop
endfacet
facet normal -0.7933533402912414 -0.6087614290087126 -3.259321071857211e-19
  outer loop
    vertex -415.35161665021866 -65.89290258121828 0.0
    vertex -415.35161665021866 -65.89290258121828 97.0
    vertex -415.35161665021866 -65.89290258121828 91.99999999999997
  endloop
endfacet
facet normal -0.9238795325112811 -0.38268343236510377 0.0
  outer loop
    vertex -416.35062087526495 -63.481093032243535 91.99999999999997
    vertex -415.35161665021866 -65.89290258121828 0.0
    vertex -415.35161665021866 -65.89290258121828 91.99999999999997
  endloop
endfacet
facet normal -0.9238795325112811 -0.38268343236510377 0.0
  outer loop
    vertex -415.35161665021866 -65.89290258121828 0.0
    vertex -416.35062087526495 -63.481093032243535 91.99999999999997
    vertex -416.35062087526495 -63.481093032243535 0.0
  endloop
endfacet
facet normal -0.7933533402912414 0.6087614290087126 -9.777963215571637e-19
  outer loop
    vertex -413.7624304242397 -53.8218347693528 97.0
    vertex -415.35161665021866 -55.892902581218344 91.99999999999997
    vertex -415.35161665021866 -55.892902581218344 97.0
  endloop
endfacet
facet normal -0.7933533402912414 0.6087614290087126 -9.777963215571637e-19
  outer loop
    vertex -415.35161665021866 -55.892902581218344 91.99999999999997
    vertex -413.7624304242397 -53.8218347693528 97.0
    vertex -415.35161665021866 -55.892902581218344 0.0
  endloop
endfacet
facet normal -0.7933533402912414 0.6087614290087126 -9.777963215571637e-19
  outer loop
    vertex -415.35161665021866 -55.892902581218344 0.0
    vertex -413.7624304242397 -53.8218347693528 97.0
    vertex -413.7624304242397 -53.8218347693528 0.0
  endloop
endfacet
facet normal 0.38268343236509145 0.923879532511286 0.0
  outer loop
    vertex -404.10317216134905 -51.23364431832759 91.99999999999997
    vertex -401.6913626123742 -52.232648543373905 0.0
    vertex -404.10317216134905 -51.23364431832759 0.0
  endloop
endfacet
facet normal 0.38268343236509145 0.923879532511286 0.0
  outer loop
    vertex -401.6913626123742 -52.232648543373905 0.0
    vertex -404.10317216134905 -51.23364431832759 91.99999999999997
    vertex -401.6913626123742 -52.232648543373905 91.99999999999997
  endloop
endfacet
facet normal -0.9914448613738098 0.13052619222005613 0.0
  outer loop
    vertex -416.35062087526495 -58.304712130193124 91.99999999999997
    vertex -416.6913626123743 -60.89290258121833 0.0
    vertex -416.6913626123743 -60.89290258121833 91.99999999999997
  endloop
endfacet
facet normal -0.9914448613738098 0.13052619222005613 0.0
  outer loop
    vertex -416.6913626123743 -60.89290258121833 0.0
    vertex -416.35062087526495 -58.304712130193124 91.99999999999997
    vertex -416.35062087526495 -58.304712130193124 0.0
  endloop
endfacet
facet normal -0.9238795325112835 0.3826834323650976 0.0
  outer loop
    vertex -415.35161665021866 -55.892902581218344 91.99999999999997
    vertex -416.35062087526495 -58.304712130193124 0.0
    vertex -416.35062087526495 -58.304712130193124 91.99999999999997
  endloop
endfacet
facet normal -0.9238795325112835 0.3826834323650976 0.0
  outer loop
    vertex -416.35062087526495 -58.304712130193124 0.0
    vertex -415.35161665021866 -55.892902581218344 91.99999999999997
    vertex -415.35161665021866 -55.892902581218344 0.0
  endloop
endfacet
facet normal -0.7374771083499612 0.5658860882535739 -0.3686467818669357
  outer loop
    vertex -406.69136261237423 -60.89290258121833 29.99999999999999
    vertex -403.2272609972365 -62.89290258121833 20.000000000000007
    vertex -403.862935487628 -63.72132970596453 20.000000000000007
  endloop
endfacet
facet normal -0.5658860882535749 0.7374771083499606 -0.3686467818669354
  outer loop
    vertex -406.69136261237423 -60.89290258121833 29.99999999999999
    vertex -403.862935487628 -63.72132970596453 20.000000000000007
    vertex -404.69136261237423 -64.35700419635607 20.000000000000007
  endloop
endfacet
facet normal 0.9216169546673368 0.1213331739008633 -0.3686467818669345
  outer loop
    vertex -406.69136261237423 -60.89290258121833 29.99999999999999
    vertex -410.5550659175305 -61.92817876162842 20.000000000000007
    vertex -410.69136261237423 -60.89290258121833 20.000000000000007
  endloop
endfacet
facet normal 0.8588102822507915 0.35573086641373863 -0.3686467818669342
  outer loop
    vertex -406.69136261237423 -60.89290258121833 29.99999999999999
    vertex -410.15546422751197 -62.89290258121833 20.000000000000007
    vertex -410.5550659175305 -61.92817876162842 20.000000000000007
  endloop
endfacet
facet normal 0.5658860882535749 0.7374771083499606 -0.3686467818669354
  outer loop
    vertex -406.69136261237423 -60.89290258121833 29.99999999999999
    vertex -408.69136261237423 -64.35700419635607 20.000000000000007
    vertex -409.51978973712045 -63.72132970596453 20.000000000000007
  endloop
endfacet
facet normal 0.7374771083499606 0.5658860882535749 -0.3686467818669354
  outer loop
    vertex -406.69136261237423 -60.89290258121833 29.99999999999999
    vertex -409.51978973712045 -63.72132970596453 20.000000000000007
    vertex -410.15546422751197 -62.89290258121833 20.000000000000007
  endloop
endfacet
facet normal 0.5658860882535983 -0.7374771083499418 -0.368646781866937
  outer loop
    vertex -406.69136261237423 -60.89290258121833 29.99999999999999
    vertex -409.51978973712045 -58.06447545647214 20.000000000000007
    vertex -408.69136261237423 -57.42880096608055 20.000000000000007
  endloop
endfacet
facet normal 0.7933533402912498 0.6087614290087017 -6.518642143714494e-19
  outer loop
    vertex -399.62029480050876 -53.8218347693528 0.0
    vertex -398.03110857452987 -55.892902581218344 91.99999999999997
    vertex -398.03110857452987 -55.892902581218344 0.0
  endloop
endfacet
facet normal 0.7933533402912498 0.6087614290087017 -6.518642143714494e-19
  outer loop
    vertex -398.03110857452987 -55.892902581218344 91.99999999999997
    vertex -399.62029480050876 -53.8218347693528 0.0
    vertex -398.03110857452987 -55.892902581218344 97.0
  endloop
endfacet
facet normal 0.7933533402912498 0.6087614290087017 -6.518642143714494e-19
  outer loop
    vertex -398.03110857452987 -55.892902581218344 97.0
    vertex -399.62029480050876 -53.8218347693528 0.0
    vertex -399.62029480050876 -53.8218347693528 97.0
  endloop
endfacet
facet normal -0.3826834323650854 0.9238795325112886 0.0
  outer loop
    vertex -411.6913626123743 -52.232648543373905 91.99999999999997
    vertex -409.27955306339936 -51.23364431832759 0.0
    vertex -411.6913626123743 -52.232648543373905 0.0
  endloop
endfacet
facet normal -0.3826834323650854 0.9238795325112886 0.0
  outer loop
    vertex -409.27955306339936 -51.23364431832759 0.0
    vertex -411.6913626123743 -52.232648543373905 91.99999999999997
    vertex -409.27955306339936 -51.23364431832759 91.99999999999997
  endloop
endfacet
facet normal -0.13052619222005835 0.9914448613738096 0.0
  outer loop
    vertex -409.27955306339936 -51.23364431832759 91.99999999999997
    vertex -406.69136261237423 -50.89290258121826 0.0
    vertex -409.27955306339936 -51.23364431832759 0.0
  endloop
endfacet
facet normal -0.13052619222005835 0.9914448613738096 0.0
  outer loop
    vertex -406.69136261237423 -50.89290258121826 0.0
    vertex -409.27955306339936 -51.23364431832759 91.99999999999997
    vertex -406.69136261237423 -50.89290258121826 91.99999999999997
  endloop
endfacet
facet normal -0.9914448613738098 -0.13052619222005613 0.0
  outer loop
    vertex -416.6913626123743 -60.89290258121833 91.99999999999997
    vertex -416.35062087526495 -63.481093032243535 0.0
    vertex -416.35062087526495 -63.481093032243535 91.99999999999997
  endloop
endfacet
facet normal -0.9914448613738098 -0.13052619222005613 0.0
  outer loop
    vertex -416.35062087526495 -63.481093032243535 0.0
    vertex -416.6913626123743 -60.89290258121833 91.99999999999997
    vertex -416.6913626123743 -60.89290258121833 0.0
  endloop
endfacet
facet normal 0.13052619222005613 0.9914448613738098 0.0
  outer loop
    vertex -406.69136261237423 -50.89290258121826 91.99999999999997
    vertex -404.10317216134905 -51.23364431832759 0.0
    vertex -406.69136261237423 -50.89290258121826 0.0
  endloop
endfacet
facet normal 0.13052619222005613 0.9914448613738098 0.0
  outer loop
    vertex -404.10317216134905 -51.23364431832759 0.0
    vertex -406.69136261237423 -50.89290258121826 91.99999999999997
    vertex -404.10317216134905 -51.23364431832759 91.99999999999997
  endloop
endfacet
facet normal 0.0 0.0 1.0
  outer loop
    vertex -412.4869662368507 -62.445321795788914 88.99999999999997
    vertex -412.48686889767396 -59.339493256084 88.99999999999997
    vertex -412.6913626094275 -60.89240111846362 88.99999999999997
  endloop
endfacet
facet normal 0.0 0.0 1.0
  outer loop
    vertex -412.48686889767396 -59.339493256084 88.99999999999997
    vertex -412.4869662368507 -62.445321795788914 88.99999999999997
    vertex -411.88760905495366 -63.89242631022301 88.99999999999997
  endloop
endfacet
facet normal 0.0 0.0 1.0
  outer loop
    vertex -412.48686889767396 -59.339493256084 88.99999999999997
    vertex -411.88760905495366 -63.89242631022301 88.99999999999997
    vertex -411.8874210101042 -57.89242631316972 88.99999999999997
  endloop
endfacet
facet normal 0.0 0.0 1.0
  outer loop
    vertex -411.8874210101042 -57.89242631316972 88.99999999999997
    vertex -411.88760905495366 -63.89242631022301 88.99999999999997
    vertex -410.9341362651981 -65.13509688056047 88.99999999999997
  endloop
endfacet
facet normal 0.0 0.0 1.0
  outer loop
    vertex -411.8874210101042 -57.89242631316972 88.99999999999997
    vertex -410.9341362651981 -65.13509688056047 88.99999999999997
    vertex -410.93387032962164 -56.6498155104892 88.99999999999997
  endloop
endfacet
facet normal 0.0 0.0 1.0
  outer loop
    vertex -410.93387032962164 -56.6498155104892 88.99999999999997
    vertex -410.9341362651981 -65.13509688056047 88.99999999999997
    vertex -409.9466087333695 -65.89290258121828 88.99999999999997
  endloop
endfacet
facet normal 0.0 0.0 1.0
  outer loop
    vertex -410.93387032962164 -56.6498155104892 88.99999999999997
    vertex -409.9466087333695 -65.89290258121828 88.99999999999997
    vertex -409.6911997592842 -55.6963427207336 88.99999999999997
  endloop
endfacet
facet normal 0.0 0.0 1.0
  outer loop
    vertex -409.6911997592842 -55.6963427207336 88.99999999999997
    vertex -409.9466087333695 -65.89290258121828 88.99999999999997
    vertex -409.6915254625175 -66.08864756104298 88.99999999999997
  endloop
endfacet
facet normal 0.0 0.0 1.0
  outer loop
    vertex -409.6911997592842 -55.6963427207336 88.99999999999997
    vertex -409.6915254625175 -66.08864756104298 88.99999999999997
    vertex -408.2444585196032 -66.68809544861273 88.99999999999997
  endloop
endfacet
facet normal 0.0 0.0 1.0
  outer loop
    vertex -409.6911997592842 -55.6963427207336 88.99999999999997
    vertex -408.2444585196032 -66.68809544861273 88.99999999999997
    vertex -408.2440952448501 -55.096985538836584 88.99999999999997
  endloop
endfacet
facet normal 0.0 0.0 1.0
  outer loop
    vertex -408.2440952448501 -55.096985538836584 88.99999999999997
    vertex -408.2444585196032 -66.68809544861273 88.99999999999997
    vertex -406.6915506572237 -66.89258916036624 88.99999999999997
  endloop
endfacet
facet normal 0.0 0.0 1.0
  outer loop
    vertex -408.2440952448501 -55.096985538836584 88.99999999999997
    vertex -406.6915506572237 -66.89258916036624 88.99999999999997
    vertex -406.6911745675248 -54.89258916625977 88.99999999999997
  endloop
endfacet
facet normal 0.0 0.0 1.0
  outer loop
    vertex -406.6911745675248 -54.89258916625977 88.99999999999997
    vertex -406.6915506572237 -66.89258916036624 88.99999999999997
    vertex -405.1386299798984 -66.68819278778943 88.99999999999997
  endloop
endfacet
facet normal 0.0 0.0 1.0
  outer loop
    vertex -406.6911745675248 -54.89258916625977 88.99999999999997
    vertex -405.1386299798984 -66.68819278778943 88.99999999999997
    vertex -405.13826670514527 -55.09708287801329 88.99999999999997
  endloop
endfacet
facet normal 0.0 0.0 1.0
  outer loop
    vertex -405.13826670514527 -55.09708287801329 88.99999999999997
    vertex -405.1386299798984 -66.68819278778943 88.99999999999997
    vertex -403.6915254654643 -66.08883560589237 88.99999999999997
  endloop
endfacet
facet normal 0.0 0.0 1.0
  outer loop
    vertex -405.13826670514527 -55.09708287801329 88.99999999999997
    vertex -403.6915254654643 -66.08883560589237 88.99999999999997
    vertex -403.69119976223095 -55.696530765583034 88.99999999999997
  endloop
endfacet
facet normal 0.0 0.0 1.0
  outer loop
    vertex -403.69119976223095 -55.696530765583034 88.99999999999997
    vertex -403.6915254654643 -66.08883560589237 88.99999999999997
    vertex -403.43616400561376 -65.89290258121828 88.99999999999997
  endloop
endfacet
facet normal 0.0 0.0 1.0
  outer loop
    vertex -403.69119976223095 -55.696530765583034 88.99999999999997
    vertex -403.43616400561376 -65.89290258121828 88.99999999999997
    vertex -402.44858895955036 -56.65008144606559 88.99999999999997
  endloop
endfacet
facet normal 0.0 0.0 1.0
  outer loop
    vertex -402.44858895955036 -56.65008144606559 88.99999999999997
    vertex -403.43616400561376 -65.89290258121828 88.99999999999997
    vertex -402.44885489512683 -65.13536281613686 88.99999999999997
  endloop
endfacet
facet normal 0.0 0.0 1.0
  outer loop
    vertex -402.44858895955036 -56.65008144606559 88.99999999999997
    vertex -402.44885489512683 -65.13536281613686 88.99999999999997
    vertex -401.49530421464425 -63.89275201345629 88.99999999999997
  endloop
endfacet
facet normal 0.0 0.0 1.0
  outer loop
    vertex -402.44858895955036 -56.65008144606559 88.99999999999997
    vertex -401.49530421464425 -63.89275201345629 88.99999999999997
    vertex -401.4951161697948 -57.89275201640305 88.99999999999997
  endloop
endfacet
facet normal 0.0 0.0 1.0
  outer loop
    vertex -401.4951161697948 -57.89275201640305 88.99999999999997
    vertex -401.49530421464425 -63.89275201345629 88.99999999999997
    vertex -400.8958563270745 -62.44568507054202 88.99999999999997
  endloop
endfacet
facet normal 0.0 0.0 1.0
  outer loop
    vertex -401.4951161697948 -57.89275201640305 88.99999999999997
    vertex -400.8958563270745 -62.44568507054202 88.99999999999997
    vertex -400.89575898789775 -59.339856530837096 88.99999999999997
  endloop
endfacet
facet normal 0.0 0.0 1.0
  outer loop
    vertex -400.89575898789775 -59.339856530837096 88.99999999999997
    vertex -400.8958563270745 -62.44568507054202 88.99999999999997
    vertex -400.691362615321 -60.89277720816244 88.99999999999997
  endloop
endfacet
facet normal 0.0 0.0 -1.0
  outer loop
    vertex -416.35062087526495 -58.304712130193124 0.0
    vertex -416.35062087526495 -63.481093032243535 0.0
    vertex -416.6913626123743 -60.89290258121833 0.0
  endloop
endfacet
facet normal 0.0 0.0 -1.0
  outer loop
    vertex -416.35062087526495 -63.481093032243535 0.0
    vertex -416.35062087526495 -58.304712130193124 0.0
    vertex -415.35161665021866 -55.892902581218344 0.0
  endloop
endfacet
facet normal 0.0 0.0 -1.0
  outer loop
    vertex -416.35062087526495 -63.481093032243535 0.0
    vertex -415.35161665021866 -55.892902581218344 0.0
    vertex -415.35161665021866 -65.89290258121828 0.0
  endloop
endfacet
facet normal 0.0 0.0 -1.0
  outer loop
    vertex -415.35161665021866 -65.89290258121828 0.0
    vertex -415.35161665021866 -55.892902581218344 0.0
    vertex -413.7624304242397 -53.8218347693528 0.0
  endloop
endfacet
facet normal 0.0 0.0 -1.0
  outer loop
    vertex -415.35161665021866 -65.89290258121828 0.0
    vertex -413.7624304242397 -53.8218347693528 0.0
    vertex -413.7624304242397 -67.96397039308383 0.0
  endloop
endfacet
facet normal 0.0 0.0 -1.0
  outer loop
    vertex -413.7624304242397 -67.96397039308383 0.0
    vertex -413.7624304242397 -53.8218347693528 0.0
    vertex -411.6913626123743 -52.232648543373905 0.0
  endloop
endfacet
facet normal 0.0 0.0 -1.0
  outer loop
    vertex -413.7624304242397 -67.96397039308383 0.0
    vertex -411.6913626123743 -52.232648543373905 0.0
    vertex -411.6913626123743 -69.55315661906266 0.0
  endloop
endfacet
facet normal 0.0 0.0 -1.0
  outer loop
    vertex -411.6913626123743 -69.55315661906266 0.0
    vertex -411.6913626123743 -52.232648543373905 0.0
    vertex -410.69136261237423 -60.89290258121833 0.0
  endloop
endfacet
facet normal 0.0 0.0 -1.0
  outer loop
    vertex -410.69136261237423 -60.89290258121833 0.0
    vertex -411.6913626123743 -52.232648543373905 0.0
    vertex -410.5550659175305 -59.85762640080824 0.0
  endloop
endfacet
facet normal 0.0 0.0 -1.0
  outer loop
    vertex -410.5550659175305 -59.85762640080824 0.0
    vertex -411.6913626123743 -52.232648543373905 0.0
    vertex -409.27955306339936 -51.23364431832759 0.0
  endloop
endfacet
facet normal 0.0 0.0 -1.0
  outer loop
    vertex -410.5550659175305 -59.85762640080824 0.0
    vertex -409.27955306339936 -51.23364431832759 0.0
    vertex -410.15546422751197 -58.89290258121834 0.0
  endloop
endfacet
facet normal 0.0 0.0 -1.0
  outer loop
    vertex -410.15546422751197 -58.89290258121834 0.0
    vertex -409.27955306339936 -51.23364431832759 0.0
    vertex -409.51978973712045 -58.06447545647214 0.0
  endloop
endfacet
facet normal 0.0 0.0 -1.0
  outer loop
    vertex -409.51978973712045 -58.06447545647214 0.0
    vertex -409.27955306339936 -51.23364431832759 0.0
    vertex -408.69136261237423 -57.42880096608055 0.0
  endloop
endfacet
facet normal 0.0 0.0 -1.0
  outer loop
    vertex -408.69136261237423 -57.42880096608055 0.0
    vertex -409.27955306339936 -51.23364431832759 0.0
    vertex -406.69136261237423 -50.89290258121826 0.0
  endloop
endfacet
facet normal 0.0 0.0 -1.0
  outer loop
    vertex -408.69136261237423 -57.42880096608055 0.0
    vertex -406.69136261237423 -50.89290258121826 0.0
    vertex -407.7266387927843 -57.029199276062045 0.0
  endloop
endfacet
facet normal 0.0 0.0 -1.0
  outer loop
    vertex -407.7266387927843 -57.029199276062045 0.0
    vertex -406.69136261237423 -50.89290258121826 0.0
    vertex -406.69136261237423 -56.89290258121834 0.0
  endloop
endfacet
facet normal 0.0 0.0 -1.0
  outer loop
    vertex -406.69136261237423 -56.89290258121834 0.0
    vertex -406.69136261237423 -50.89290258121826 0.0
    vertex -404.10317216134905 -51.23364431832759 0.0
  endloop
endfacet
facet normal 0.0 0.0 -1.0
  outer loop
    vertex -406.69136261237423 -56.89290258121834 0.0
    vertex -404.10317216134905 -51.23364431832759 0.0
    vertex -405.6560864319642 -57.029199276062045 0.0
  endloop
endfacet
facet normal 0.0 0.0 -1.0
  outer loop
    vertex -405.6560864319642 -57.029199276062045 0.0
    vertex -404.10317216134905 -51.23364431832759 0.0
    vertex -404.69136261237423 -57.42880096608055 0.0
  endloop
endfacet
facet normal 0.0 0.0 -1.0
  outer loop
    vertex -404.69136261237423 -57.42880096608055 0.0
    vertex -404.10317216134905 -51.23364431832759 0.0
    vertex -403.862935487628 -58.06447545647214 0.0
  endloop
endfacet
facet normal 0.0 0.0 -1.0
  outer loop
    vertex -403.862935487628 -58.06447545647214 0.0
    vertex -404.10317216134905 -51.23364431832759 0.0
    vertex -401.6913626123742 -52.232648543373905 0.0
  endloop
endfacet
facet normal 0.0 0.0 -1.0
  outer loop
    vertex -403.862935487628 -58.06447545647214 0.0
    vertex -401.6913626123742 -52.232648543373905 0.0
    vertex -403.2272609972365 -58.89290258121834 0.0
  endloop
endfacet
facet normal 0.0 0.0 -1.0
  outer loop
    vertex -403.2272609972365 -58.89290258121834 0.0
    vertex -401.6913626123742 -52.232648543373905 0.0
    vertex -402.82765930721797 -59.85762640080824 0.0
  endloop
endfacet
facet normal 0.0 0.0 -1.0
  outer loop
    vertex -402.82765930721797 -59.85762640080824 0.0
    vertex -401.6913626123742 -52.232648543373905 0.0
    vertex -402.69136261237423 -60.89290258121833 0.0
  endloop
endfacet
facet normal 0.0 0.0 -1.0
  outer loop
    vertex -402.69136261237423 -60.89290258121833 0.0
    vertex -401.6913626123742 -52.232648543373905 0.0
    vertex -401.69136261237423 -69.55315661906266 0.0
  endloop
endfacet
facet normal 0.0 0.0 -1.0
  outer loop
    vertex -401.69136261237423 -69.55315661906266 0.0
    vertex -401.6913626123742 -52.232648543373905 0.0
    vertex -399.62029480050876 -67.96397039308383 0.0
  endloop
endfacet
facet normal 0.0 0.0 -1.0
  outer loop
    vertex -399.62029480050876 -67.96397039308383 0.0
    vertex -401.6913626123742 -52.232648543373905 0.0
    vertex -399.62029480050876 -53.8218347693528 0.0
  endloop
endfacet
facet normal 0.0 0.0 -1.0
  outer loop
    vertex -399.62029480050876 -67.96397039308383 0.0
    vertex -399.62029480050876 -53.8218347693528 0.0
    vertex -398.03110857452987 -55.892902581218344 0.0
  endloop
endfacet
facet normal 0.0 0.0 -1.0
  outer loop
    vertex -399.62029480050876 -67.96397039308383 0.0
    vertex -398.03110857452987 -55.892902581218344 0.0
    vertex -398.03110857452987 -65.89290258121828 0.0
  endloop
endfacet
facet normal 0.0 0.0 -1.0
  outer loop
    vertex -398.03110857452987 -65.89290258121828 0.0
    vertex -398.03110857452987 -55.892902581218344 0.0
    vertex -397.0321043494835 -58.304712130193124 0.0
  endloop
endfacet
facet normal 0.0 0.0 -1.0
  outer loop
    vertex -398.03110857452987 -65.89290258121828 0.0
    vertex -397.0321043494835 -58.304712130193124 0.0
    vertex -397.0321043494835 -63.481093032243535 0.0
  endloop
endfacet
facet normal 0.0 0.0 -1.0
  outer loop
    vertex -397.0321043494835 -63.481093032243535 0.0
    vertex -397.0321043494835 -58.304712130193124 0.0
    vertex -396.6913626123742 -60.89290258121833 0.0
  endloop
endfacet
facet normal 0.0 0.0 -1.0
  outer loop
    vertex -411.6913626123743 -69.55315661906266 0.0
    vertex -410.5550659175305 -61.92817876162842 0.0
    vertex -409.2795530633995 -70.55216084410903 0.0
  endloop
endfacet
facet normal 0.0 0.0 -1.0
  outer loop
    vertex -410.5550659175305 -61.92817876162842 0.0
    vertex -411.6913626123743 -69.55315661906266 0.0
    vertex -410.69136261237423 -60.89290258121833 0.0
  endloop
endfacet
facet normal 0.0 0.0 -1.0
  outer loop
    vertex -409.2795530633995 -70.55216084410903 0.0
    vertex -410.5550659175305 -61.92817876162842 0.0
    vertex -410.15546422751197 -62.89290258121833 0.0
  endloop
endfacet
facet normal 0.0 0.0 -1.0
  outer loop
    vertex -409.2795530633995 -70.55216084410903 0.0
    vertex -410.15546422751197 -62.89290258121833 0.0
    vertex -409.51978973712045 -63.72132970596453 0.0
  endloop
endfacet
facet normal 0.0 0.0 -1.0
  outer loop
    vertex -409.2795530633995 -70.55216084410903 0.0
    vertex -409.51978973712045 -63.72132970596453 0.0
    vertex -408.69136261237423 -64.35700419635607 0.0
  endloop
endfacet
facet normal 0.0 0.0 -1.0
  outer loop
    vertex -409.2795530633995 -70.55216084410903 0.0
    vertex -408.69136261237423 -64.35700419635607 0.0
    vertex -406.69136261237423 -70.89290258121831 0.0
  endloop
endfacet
facet normal 0.0 0.0 -1.0
  outer loop
    vertex -406.69136261237423 -70.89290258121831 0.0
    vertex -408.69136261237423 -64.35700419635607 0.0
    vertex -407.7266387927843 -64.75660588637457 0.0
  endloop
endfacet
facet normal 0.0 0.0 -1.0
  outer loop
    vertex -406.69136261237423 -70.89290258121831 0.0
    vertex -407.7266387927843 -64.75660588637457 0.0
    vertex -406.69136261237423 -64.89290258121832 0.0
  endloop
endfacet
facet normal 0.0 0.0 -1.0
  outer loop
    vertex -406.69136261237423 -70.89290258121831 0.0
    vertex -406.69136261237423 -64.89290258121832 0.0
    vertex -405.6560864319642 -64.75660588637457 0.0
  endloop
endfacet
facet normal 0.0 0.0 -1.0
  outer loop
    vertex -406.69136261237423 -70.89290258121831 0.0
    vertex -405.6560864319642 -64.75660588637457 0.0
    vertex -404.10317216134905 -70.55216084410903 0.0
  endloop
endfacet
facet normal 0.0 0.0 -1.0
  outer loop
    vertex -404.10317216134905 -70.55216084410903 0.0
    vertex -405.6560864319642 -64.75660588637457 0.0
    vertex -404.69136261237423 -64.35700419635607 0.0
  endloop
endfacet
facet normal 0.0 0.0 -1.0
  outer loop
    vertex -404.10317216134905 -70.55216084410903 0.0
    vertex -404.69136261237423 -64.35700419635607 0.0
    vertex -403.862935487628 -63.72132970596453 0.0
  endloop
endfacet
facet normal 0.0 0.0 -1.0
  outer loop
    vertex -404.10317216134905 -70.55216084410903 0.0
    vertex -403.862935487628 -63.72132970596453 0.0
    vertex -401.69136261237423 -69.55315661906266 0.0
  endloop
endfacet
facet normal 0.0 0.0 -1.0
  outer loop
    vertex -401.69136261237423 -69.55315661906266 0.0
    vertex -403.862935487628 -63.72132970596453 0.0
    vertex -403.2272609972365 -62.89290258121833 0.0
  endloop
endfacet
facet normal 0.0 0.0 -1.0
  outer loop
    vertex -401.69136261237423 -69.55315661906266 0.0
    vertex -403.2272609972365 -62.89290258121833 0.0
    vertex -402.82765930721797 -61.92817876162842 0.0
  endloop
endfacet
facet normal 0.0 0.0 -1.0
  outer loop
    vertex -401.69136261237423 -69.55315661906266 0.0
    vertex -402.82765930721797 -61.92817876162842 0.0
    vertex -402.69136261237423 -60.89290258121833 0.0
  endloop
endfacet
facet normal -0.7374771083499612 -0.5658860882535739 -0.3686467818669357
  outer loop
    vertex -403.862935487628 -58.06447545647214 20.000000000000007
    vertex -403.2272609972365 -58.89290258121834 20.000000000000007
    vertex -406.69136261237423 -60.89290258121833 29.99999999999999
  endloop
endfacet
facet normal -0.8588102822507918 0.3557308664137375 -0.36864678186693406
  outer loop
    vertex -406.69136261237423 -60.89290258121833 29.99999999999999
    vertex -402.82765930721797 -61.92817876162842 20.000000000000007
    vertex -403.2272609972365 -62.89290258121833 20.000000000000007
  endloop
endfacet
facet normal -0.35573086641372537 0.8588102822507971 -0.36864678186693345
  outer loop
    vertex -406.69136261237423 -60.89290258121833 29.99999999999999
    vertex -404.69136261237423 -64.35700419635607 20.000000000000007
    vertex -405.6560864319642 -64.75660588637457 20.000000000000007
  endloop
endfacet
facet normal 0.35573086641372276 -0.8588102822507969 -0.3686467818669369
  outer loop
    vertex -406.69136261237423 -60.89290258121833 29.99999999999999
    vertex -408.69136261237423 -57.42880096608055 20.000000000000007
    vertex -407.7266387927843 -57.029199276062045 20.000000000000007
  endloop
endfacet
facet normal 0.9216169546673368 -0.1213331739008633 -0.3686467818669345
  outer loop
    vertex -410.5550659175305 -59.85762640080824 20.000000000000007
    vertex -406.69136261237423 -60.89290258121833 29.99999999999999
    vertex -410.69136261237423 -60.89290258121833 20.000000000000007
  endloop
endfacet
facet normal -0.9216169546673368 -0.1213331739008633 -0.3686467818669345
  outer loop
    vertex -402.82765930721797 -59.85762640080824 20.000000000000007
    vertex -402.69136261237423 -60.89290258121833 20.000000000000007
    vertex -406.69136261237423 -60.89290258121833 29.99999999999999
  endloop
endfacet
facet normal 0.12133317390082954 -0.9216169546673405 -0.36864678186693606
  outer loop
    vertex -406.69136261237423 -60.89290258121833 29.99999999999999
    vertex -407.7266387927843 -57.029199276062045 20.000000000000007
    vertex -406.69136261237423 -56.89290258121834 20.000000000000007
  endloop
endfacet
facet normal 0.6087614290086991 0.7933533402912517 0.0
  outer loop
    vertex -409.51978973712045 -63.72132970596453 20.000000000000007
    vertex -408.69136261237423 -64.35700419635607 0.0
    vertex -409.51978973712045 -63.72132970596453 0.0
  endloop
endfacet
facet normal 0.6087614290086991 0.7933533402912517 0.0
  outer loop
    vertex -408.69136261237423 -64.35700419635607 0.0
    vertex -409.51978973712045 -63.72132970596453 20.000000000000007
    vertex -408.69136261237423 -64.35700419635607 20.000000000000007
  endloop
endfacet
facet normal 0.3826834323650706 0.9238795325112946 0.0
  outer loop
    vertex -408.69136261237423 -64.35700419635607 20.000000000000007
    vertex -407.7266387927843 -64.75660588637457 0.0
    vertex -408.69136261237423 -64.35700419635607 0.0
  endloop
endfacet
facet normal 0.3826834323650706 0.9238795325112946 0.0
  outer loop
    vertex -407.7266387927843 -64.75660588637457 0.0
    vertex -408.69136261237423 -64.35700419635607 20.000000000000007
    vertex -407.7266387927843 -64.75660588637457 20.000000000000007
  endloop
endfacet
facet normal 0.35573086641372453 0.8588102822507975 -0.3686467818669334
  outer loop
    vertex -406.69136261237423 -60.89290258121833 29.99999999999999
    vertex -407.7266387927843 -64.75660588637457 20.000000000000007
    vertex -408.69136261237423 -64.35700419635607 20.000000000000007
  endloop
endfacet
facet normal -0.5658860882535983 -0.7374771083499418 -0.368646781866937
  outer loop
    vertex -406.69136261237423 -60.89290258121833 29.99999999999999
    vertex -404.69136261237423 -57.42880096608055 20.000000000000007
    vertex -403.862935487628 -58.06447545647214 20.000000000000007
  endloop
endfacet
facet normal -0.35573086641372403 -0.8588102822507964 -0.36864678186693695
  outer loop
    vertex -406.69136261237423 -60.89290258121833 29.99999999999999
    vertex -405.6560864319642 -57.029199276062045 20.000000000000007
    vertex -404.69136261237423 -57.42880096608055 20.000000000000007
  endloop
endfacet
facet normal 0.12133317390086883 0.9216169546673361 -0.36864678186693434
  outer loop
    vertex -406.69136261237423 -60.89290258121833 29.99999999999999
    vertex -406.69136261237423 -64.89290258121832 20.000000000000007
    vertex -407.7266387927843 -64.75660588637457 20.000000000000007
  endloop
endfacet
facet normal 0.7374771083499606 -0.5658860882535749 -0.3686467818669354
  outer loop
    vertex -409.51978973712045 -58.06447545647214 20.000000000000007
    vertex -406.69136261237423 -60.89290258121833 29.99999999999999
    vertex -410.15546422751197 -58.89290258121834 20.000000000000007
  endloop
endfacet
facet normal 0.8588102822507914 -0.3557308664137391 -0.36864678186693406
  outer loop
    vertex -410.15546422751197 -58.89290258121834 20.000000000000007
    vertex -406.69136261237423 -60.89290258121833 29.99999999999999
    vertex -410.5550659175305 -59.85762640080824 20.000000000000007
  endloop
endfacet
facet normal -0.9216169546673368 0.1213331739008633 -0.3686467818669345
  outer loop
    vertex -402.69136261237423 -60.89290258121833 20.000000000000007
    vertex -402.82765930721797 -61.92817876162842 20.000000000000007
    vertex -406.69136261237423 -60.89290258121833 29.99999999999999
  endloop
endfacet
facet normal -0.9914448613738077 -0.130526192220072 0.0
  outer loop
    vertex -402.82765930721797 -59.85762640080824 20.000000000000007
    vertex -402.69136261237423 -60.89290258121833 0.0
    vertex -402.69136261237423 -60.89290258121833 20.000000000000007
  endloop
endfacet
facet normal -0.9914448613738077 -0.130526192220072 0.0
  outer loop
    vertex -402.69136261237423 -60.89290258121833 0.0
    vertex -402.82765930721797 -59.85762640080824 20.000000000000007
    vertex -402.82765930721797 -59.85762640080824 0.0
  endloop
endfacet
facet normal -0.9238795325112884 -0.38268343236508595 0.0
  outer loop
    vertex -403.2272609972365 -58.89290258121834 20.000000000000007
    vertex -402.82765930721797 -59.85762640080824 0.0
    vertex -402.82765930721797 -59.85762640080824 20.000000000000007
  endloop
endfacet
facet normal -0.9238795325112884 -0.38268343236508595 0.0
  outer loop
    vertex -402.82765930721797 -59.85762640080824 0.0
    vertex -403.2272609972365 -58.89290258121834 20.000000000000007
    vertex -403.2272609972365 -58.89290258121834 0.0
  endloop
endfacet
facet normal 0.1305261922200776 0.991444861373807 0.0
  outer loop
    vertex -407.7266387927843 -64.75660588637457 20.000000000000007
    vertex -406.69136261237423 -64.89290258121832 0.0
    vertex -407.7266387927843 -64.75660588637457 0.0
  endloop
endfacet
facet normal 0.1305261922200776 0.991444861373807 0.0
  outer loop
    vertex -406.69136261237423 -64.89290258121832 0.0
    vertex -407.7266387927843 -64.75660588637457 20.000000000000007
    vertex -406.69136261237423 -64.89290258121832 20.000000000000007
  endloop
endfacet
facet normal -0.3826834323650706 -0.9238795325112946 0.0
  outer loop
    vertex -404.69136261237423 -57.42880096608055 20.000000000000007
    vertex -405.6560864319642 -57.029199276062045 0.0
    vertex -404.69136261237423 -57.42880096608055 0.0
  endloop
endfacet
facet normal -0.3826834323650706 -0.9238795325112946 0.0
  outer loop
    vertex -405.6560864319642 -57.029199276062045 0.0
    vertex -404.69136261237423 -57.42880096608055 20.000000000000007
    vertex -405.6560864319642 -57.029199276062045 20.000000000000007
  endloop
endfacet
facet normal -0.6087614290087264 -0.793353340291231 0.0
  outer loop
    vertex -403.862935487628 -58.06447545647214 20.000000000000007
    vertex -404.69136261237423 -57.42880096608055 0.0
    vertex -403.862935487628 -58.06447545647214 0.0
  endloop
endfacet
facet normal -0.6087614290087264 -0.793353340291231 0.0
  outer loop
    vertex -404.69136261237423 -57.42880096608055 0.0
    vertex -403.862935487628 -58.06447545647214 20.000000000000007
    vertex -404.69136261237423 -57.42880096608055 20.000000000000007
  endloop
endfacet
facet normal -0.7933533402912517 -0.6087614290086991 0.0
  outer loop
    vertex -403.862935487628 -58.06447545647214 20.000000000000007
    vertex -403.2272609972365 -58.89290258121834 0.0
    vertex -403.2272609972365 -58.89290258121834 20.000000000000007
  endloop
endfacet
facet normal -0.7933533402912517 -0.6087614290086991 0.0
  outer loop
    vertex -403.2272609972365 -58.89290258121834 0.0
    vertex -403.862935487628 -58.06447545647214 20.000000000000007
    vertex -403.862935487628 -58.06447545647214 0.0
  endloop
endfacet
facet normal -0.13052619222003511 -0.9914448613738127 0.0
  outer loop
    vertex -405.6560864319642 -57.029199276062045 20.000000000000007
    vertex -406.69136261237423 -56.89290258121834 0.0
    vertex -405.6560864319642 -57.029199276062045 0.0
  endloop
endfacet
facet normal -0.13052619222003511 -0.9914448613738127 0.0
  outer loop
    vertex -406.69136261237423 -56.89290258121834 0.0
    vertex -405.6560864319642 -57.029199276062045 20.000000000000007
    vertex -406.69136261237423 -56.89290258121834 20.000000000000007
  endloop
endfacet
facet normal 0.13052619222003511 -0.9914448613738127 0.0
  outer loop
    vertex -406.69136261237423 -56.89290258121834 20.000000000000007
    vertex -407.7266387927843 -57.029199276062045 0.0
    vertex -406.69136261237423 -56.89290258121834 0.0
  endloop
endfacet
facet normal 0.13052619222003511 -0.9914448613738127 0.0
  outer loop
    vertex -407.7266387927843 -57.029199276062045 0.0
    vertex -406.69136261237423 -56.89290258121834 20.000000000000007
    vertex -407.7266387927843 -57.029199276062045 20.000000000000007
  endloop
endfacet
facet normal 0.7933533402912517 0.6087614290086991 0.0
  outer loop
    vertex -410.15546422751197 -62.89290258121833 0.0
    vertex -409.51978973712045 -63.72132970596453 20.000000000000007
    vertex -409.51978973712045 -63.72132970596453 0.0
  endloop
endfacet
facet normal 0.7933533402912517 0.6087614290086991 0.0
  outer loop
    vertex -409.51978973712045 -63.72132970596453 20.000000000000007
    vertex -410.15546422751197 -62.89290258121833 0.0
    vertex -410.15546422751197 -62.89290258121833 20.000000000000007
  endloop
endfacet
facet normal -0.3826834323650706 0.9238795325112946 0.0
  outer loop
    vertex -405.6560864319642 -64.75660588637457 20.000000000000007
    vertex -404.69136261237423 -64.35700419635607 0.0
    vertex -405.6560864319642 -64.75660588637457 0.0
  endloop
endfacet
facet normal -0.3826834323650706 0.9238795325112946 0.0
  outer loop
    vertex -404.69136261237423 -64.35700419635607 0.0
    vertex -405.6560864319642 -64.75660588637457 20.000000000000007
    vertex -404.69136261237423 -64.35700419635607 20.000000000000007
  endloop
endfacet
facet normal -0.1305261922200776 0.991444861373807 0.0
  outer loop
    vertex -406.69136261237423 -64.89290258121832 20.000000000000007
    vertex -405.6560864319642 -64.75660588637457 0.0
    vertex -406.69136261237423 -64.89290258121832 0.0
  endloop
endfacet
facet normal -0.1305261922200776 0.991444861373807 0.0
  outer loop
    vertex -405.6560864319642 -64.75660588637457 0.0
    vertex -406.69136261237423 -64.89290258121832 20.000000000000007
    vertex -405.6560864319642 -64.75660588637457 20.000000000000007
  endloop
endfacet
facet normal -0.9238795325112884 0.38268343236508595 0.0
  outer loop
    vertex -402.82765930721797 -61.92817876162842 20.000000000000007
    vertex -403.2272609972365 -62.89290258121833 0.0
    vertex -403.2272609972365 -62.89290258121833 20.000000000000007
  endloop
endfacet
facet normal -0.9238795325112884 0.38268343236508595 0.0
  outer loop
    vertex -403.2272609972365 -62.89290258121833 0.0
    vertex -402.82765930721797 -61.92817876162842 20.000000000000007
    vertex -402.82765930721797 -61.92817876162842 0.0
  endloop
endfacet
facet normal -0.9914448613738077 0.130526192220072 0.0
  outer loop
    vertex -402.69136261237423 -60.89290258121833 20.000000000000007
    vertex -402.82765930721797 -61.92817876162842 0.0
    vertex -402.82765930721797 -61.92817876162842 20.000000000000007
  endloop
endfacet
facet normal -0.9914448613738077 0.130526192220072 0.0
  outer loop
    vertex -402.82765930721797 -61.92817876162842 0.0
    vertex -402.69136261237423 -60.89290258121833 20.000000000000007
    vertex -402.69136261237423 -60.89290258121833 0.0
  endloop
endfacet
facet normal 0.9914448613738077 0.130526192220072 0.0
  outer loop
    vertex -410.69136261237423 -60.89290258121833 0.0
    vertex -410.5550659175305 -61.92817876162842 20.000000000000007
    vertex -410.5550659175305 -61.92817876162842 0.0
  endloop
endfacet
facet normal 0.9914448613738077 0.130526192220072 0.0
  outer loop
    vertex -410.5550659175305 -61.92817876162842 20.000000000000007
    vertex -410.69136261237423 -60.89290258121833 0.0
    vertex -410.69136261237423 -60.89290258121833 20.000000000000007
  endloop
endfacet
facet normal 0.9238795325112884 0.38268343236508595 0.0
  outer loop
    vertex -410.5550659175305 -61.92817876162842 0.0
    vertex -410.15546422751197 -62.89290258121833 20.000000000000007
    vertex -410.15546422751197 -62.89290258121833 0.0
  endloop
endfacet
facet normal 0.9238795325112884 0.38268343236508595 0.0
  outer loop
    vertex -410.15546422751197 -62.89290258121833 20.000000000000007
    vertex -410.5550659175305 -61.92817876162842 0.0
    vertex -410.5550659175305 -61.92817876162842 20.000000000000007
  endloop
endfacet
facet normal -0.7933533402912517 0.6087614290086991 0.0
  outer loop
    vertex -403.2272609972365 -62.89290258121833 20.000000000000007
    vertex -403.862935487628 -63.72132970596453 0.0
    vertex -403.862935487628 -63.72132970596453 20.000000000000007
  endloop
endfacet
facet normal -0.7933533402912517 0.6087614290086991 0.0
  outer loop
    vertex -403.862935487628 -63.72132970596453 0.0
    vertex -403.2272609972365 -62.89290258121833 20.000000000000007
    vertex -403.2272609972365 -62.89290258121833 0.0
  endloop
endfacet
facet normal -0.6087614290086991 0.7933533402912517 0.0
  outer loop
    vertex -404.69136261237423 -64.35700419635607 20.000000000000007
    vertex -403.862935487628 -63.72132970596453 0.0
    vertex -404.69136261237423 -64.35700419635607 0.0
  endloop
endfacet
facet normal -0.6087614290086991 0.7933533402912517 0.0
  outer loop
    vertex -403.862935487628 -63.72132970596453 0.0
    vertex -404.69136261237423 -64.35700419635607 20.000000000000007
    vertex -403.862935487628 -63.72132970596453 20.000000000000007
  endloop
endfacet
facet normal 0.7933533402912517 -0.6087614290086991 0.0
  outer loop
    vertex -409.51978973712045 -58.06447545647214 0.0
    vertex -410.15546422751197 -58.89290258121834 20.000000000000007
    vertex -410.15546422751197 -58.89290258121834 0.0
  endloop
endfacet
facet normal 0.7933533402912517 -0.6087614290086991 0.0
  outer loop
    vertex -410.15546422751197 -58.89290258121834 20.000000000000007
    vertex -409.51978973712045 -58.06447545647214 0.0
    vertex -409.51978973712045 -58.06447545647214 20.000000000000007
  endloop
endfacet
facet normal 0.6087614290087264 -0.793353340291231 0.0
  outer loop
    vertex -408.69136261237423 -57.42880096608055 20.000000000000007
    vertex -409.51978973712045 -58.06447545647214 0.0
    vertex -408.69136261237423 -57.42880096608055 0.0
  endloop
endfacet
facet normal 0.6087614290087264 -0.793353340291231 0.0
  outer loop
    vertex -409.51978973712045 -58.06447545647214 0.0
    vertex -408.69136261237423 -57.42880096608055 20.000000000000007
    vertex -409.51978973712045 -58.06447545647214 20.000000000000007
  endloop
endfacet
facet normal 0.3826834323650706 -0.9238795325112946 0.0
  outer loop
    vertex -407.7266387927843 -57.029199276062045 20.000000000000007
    vertex -408.69136261237423 -57.42880096608055 0.0
    vertex -407.7266387927843 -57.029199276062045 0.0
  endloop
endfacet
facet normal 0.3826834323650706 -0.9238795325112946 0.0
  outer loop
    vertex -408.69136261237423 -57.42880096608055 0.0
    vertex -407.7266387927843 -57.029199276062045 20.000000000000007
    vertex -408.69136261237423 -57.42880096608055 20.000000000000007
  endloop
endfacet
facet normal 0.9238795325112884 -0.38268343236508595 0.0
  outer loop
    vertex -410.15546422751197 -58.89290258121834 0.0
    vertex -410.5550659175305 -59.85762640080824 20.000000000000007
    vertex -410.5550659175305 -59.85762640080824 0.0
  endloop
endfacet
facet normal 0.9238795325112884 -0.38268343236508595 0.0
  outer loop
    vertex -410.5550659175305 -59.85762640080824 20.000000000000007
    vertex -410.15546422751197 -58.89290258121834 0.0
    vertex -410.15546422751197 -58.89290258121834 20.000000000000007
  endloop
endfacet
facet normal 0.9914448613738077 -0.130526192220072 0.0
  outer loop
    vertex -410.5550659175305 -59.85762640080824 0.0
    vertex -410.69136261237423 -60.89290258121833 20.000000000000007
    vertex -410.69136261237423 -60.89290258121833 0.0
  endloop
endfacet
facet normal 0.9914448613738077 -0.130526192220072 0.0
  outer loop
    vertex -410.69136261237423 -60.89290258121833 20.000000000000007
    vertex -410.5550659175305 -59.85762640080824 0.0
    vertex -410.5550659175305 -59.85762640080824 20.000000000000007
  endloop
endfacet
facet normal 0.1305261922200435 -0.9914448613738116 0.0
  outer loop
    vertex -404.10317216134905 -70.55216084410903 91.99999999999997
    vertex -406.69136261237423 -70.89290258121831 0.0
    vertex -404.10317216134905 -70.55216084410903 0.0
  endloop
endfacet
facet normal 0.1305261922200435 -0.9914448613738116 0.0
  outer loop
    vertex -406.69136261237423 -70.89290258121831 0.0
    vertex -404.10317216134905 -70.55216084410903 91.99999999999997
    vertex -406.69136261237423 -70.89290258121831 91.99999999999997
  endloop
endfacet
facet normal 0.3826834323651063 -0.9238795325112801 0.0
  outer loop
    vertex -401.69136261237423 -69.55315661906266 91.99999999999997
    vertex -404.10317216134905 -70.55216084410903 0.0
    vertex -401.69136261237423 -69.55315661906266 0.0
  endloop
endfacet
facet normal 0.3826834323651063 -0.9238795325112801 0.0
  outer loop
    vertex -404.10317216134905 -70.55216084410903 0.0
    vertex -401.69136261237423 -69.55315661906266 91.99999999999997
    vertex -404.10317216134905 -70.55216084410903 91.99999999999997
  endloop
endfacet
facet normal 0.7933533402912498 -0.6087614290087017 -3.259321071857246e-19
  outer loop
    vertex -398.03110857452987 -65.89290258121828 0.0
    vertex -399.62029480050876 -67.96397039308383 97.0
    vertex -399.62029480050876 -67.96397039308383 0.0
  endloop
endfacet
facet normal 0.7933533402912498 -0.6087614290087017 -3.259321071857246e-19
  outer loop
    vertex -399.62029480050876 -67.96397039308383 97.0
    vertex -398.03110857452987 -65.89290258121828 0.0
    vertex -398.03110857452987 -65.89290258121828 97.0
  endloop
endfacet
facet normal 0.7933533402912498 -0.6087614290087017 -3.259321071857246e-19
  outer loop
    vertex -398.03110857452987 -65.89290258121828 97.0
    vertex -398.03110857452987 -65.89290258121828 0.0
    vertex -398.03110857452987 -65.89290258121828 91.99999999999997
  endloop
endfacet
endsolid PotiBox
