solid PotiBox
facet normal 1.0 0.0 -4.5822030840534e-16
  outer loop
    vertex 53.7889939770852 37.11243502264508 3.032657916332934e-14
    vertex 53.7889939770852 14.11243502264524 1.0000000000000246
    vertex 53.7889939770852 14.11243502264524 2.501502060658625e-14
  endloop
endfacet
facet normal 1.0 0.0 -4.5822030840534e-16
  outer loop
    vertex 53.7889939770852 14.11243502264524 1.0000000000000246
    vertex 53.7889939770852 37.11243502264508 3.032657916332934e-14
    vertex 53.7889939770852 37.11243502264508 1.0000000000000318
  endloop
endfacet
facet normal -1.0 0.0 0.0
  outer loop
    vertex -40.211006022914816 32.11243502264527 2.000000000000076
    vertex -40.211006022914816 19.112435022645244 1.0000000000000788
    vertex -40.211006022914816 19.11243502264524 2.0000000000000786
  endloop
endfacet
facet normal -1.0 0.0 0.0
  outer loop
    vertex -40.211006022914816 19.112435022645244 1.0000000000000788
    vertex -40.211006022914816 32.11243502264527 2.000000000000076
    vertex -40.211006022914816 32.11243502264527 1.0000000000000762
  endloop
endfacet
facet normal 1.2850480173636058e-14 1.0 2.8199664825478907e-15
  outer loop
    vertex -40.211006022914816 32.11243502264527 1.0000000000000762
    vertex -0.7110060229150191 32.11243502264476 2.0000000000000604
    vertex -0.71100602291502 32.11243502264477 1.0000000000000606
  endloop
endfacet
facet normal 1.2850480173636058e-14 1.0 2.8199664825478907e-15
  outer loop
    vertex -0.7110060229150191 32.11243502264476 2.0000000000000604
    vertex -40.211006022914816 32.11243502264527 1.0000000000000762
    vertex -40.211006022914816 32.11243502264527 2.000000000000076
  endloop
endfacet
facet normal 1.0 -1.7353639892603068e-15 -2.4238950722762625e-30
  outer loop
    vertex 48.78899397708516 19.112435022645535 0.9999999999999999
    vertex 48.788993977085184 32.112435022645066 2.0000000000000253
    vertex 48.78899397708516 19.11243502264553 1.9999999999999998
  endloop
endfacet
facet normal 1.0 -1.7353639892603068e-15 -2.4238950722762625e-30
  outer loop
    vertex 48.788993977085184 32.112435022645066 2.0000000000000253
    vertex 48.78899397708516 19.112435022645535 0.9999999999999999
    vertex 48.788993977085184 32.11243502264507 1.0000000000000253
  endloop
endfacet
facet normal -6.1526541437408395e-15 1.0 2.819966482547898e-15
  outer loop
    vertex -0.71100602291502 32.11243502264477 1.0000000000000606
    vertex 48.788993977085184 32.112435022645066 2.0000000000000253
    vertex 48.788993977085184 32.11243502264507 1.0000000000000253
  endloop
endfacet
facet normal -6.1526541437408395e-15 1.0 2.819966482547898e-15
  outer loop
    vertex 48.788993977085184 32.112435022645066 2.0000000000000253
    vertex -0.71100602291502 32.11243502264477 1.0000000000000606
    vertex -0.7110060229150191 32.11243502264476 2.0000000000000604
  endloop
endfacet
facet normal -6.635215253053872e-16 1.0 1.7883922374210065e-15
  outer loop
    vertex -38.211006022914816 21.112435022645496 2.000000000000028
    vertex 46.788993977085255 21.112435022645556 3.3839597790574766e-14
    vertex -38.211006022914816 21.1124350226455 2.8199664825478976e-14
  endloop
endfacet
facet normal -6.635215253053872e-16 1.0 1.7883922374210065e-15
  outer loop
    vertex 46.788993977085255 21.112435022645556 3.3839597790574766e-14
    vertex -38.211006022914816 21.112435022645496 2.000000000000028
    vertex 46.788993977085255 21.112435022645553 2.0000000000000338
  endloop
endfacet
facet normal -1.0 -5.0132737467520794e-15 7.064714187739948e-16
  outer loop
    vertex 46.788993977085205 30.11243502264508 2.0000000000000533
    vertex 46.788993977085255 21.112435022645556 3.3839597790574766e-14
    vertex 46.788993977085255 21.112435022645553 2.0000000000000338
  endloop
endfacet
facet normal -1.0 -5.0132737467520794e-15 7.064714187739948e-16
  outer loop
    vertex 46.788993977085255 21.112435022645556 3.3839597790574766e-14
    vertex 46.788993977085205 30.11243502264508 2.0000000000000533
    vertex 46.788993977085205 30.112435022645087 5.357936316841005e-14
  endloop
endfacet
facet normal 3.9811291518323197e-16 -1.0 -1.788392237421006e-15
  outer loop
    vertex 46.788993977085205 30.11243502264508 2.0000000000000533
    vertex -38.211006022914816 30.11243502264505 7.613909502879323e-14
    vertex 46.788993977085205 30.112435022645087 5.357936316841005e-14
  endloop
endfacet
facet normal 3.9811291518323197e-16 -1.0 -1.788392237421006e-15
  outer loop
    vertex -38.211006022914816 30.11243502264505 7.613909502879323e-14
    vertex 46.788993977085205 30.11243502264508 2.0000000000000533
    vertex -38.211006022914816 30.112435022645048 2.000000000000076
  endloop
endfacet
facet normal 1.2935626066733736e-17 -1.0 5.311558556743081e-16
  outer loop
    vertex 53.7889939770852 14.11243502264524 1.0000000000000246
    vertex -45.21100602291482 14.11243502264524 7.401218069094291e-14
    vertex 53.7889939770852 14.11243502264524 2.501502060658625e-14
  endloop
endfacet
facet normal 1.2935626066733736e-17 -1.0 5.311558556743081e-16
  outer loop
    vertex -45.21100602291482 14.11243502264524 7.401218069094291e-14
    vertex 53.7889939770852 14.11243502264524 1.0000000000000246
    vertex -45.21100602291482 14.11243502264524 1.0000000000000722
  endloop
endfacet
facet normal -2.24317964647996e-16 -9.338314359766137e-16 -1.0
  outer loop
    vertex -45.21100602291482 37.11243502264508 2.5744376079275895e-14
    vertex -38.211006022914816 30.11243502264505 7.613909502879323e-14
    vertex -45.21100602291482 14.11243502264524 7.401218069094291e-14
  endloop
endfacet
facet normal -2.24317964647996e-16 -9.338314359766137e-16 -1.0
  outer loop
    vertex -38.211006022914816 30.11243502264505 7.613909502879323e-14
    vertex -45.21100602291482 37.11243502264508 2.5744376079275895e-14
    vertex 53.7889939770852 37.11243502264508 3.032657916332934e-14
  endloop
endfacet
facet normal -2.24317964647996e-16 -9.338314359766137e-16 -1.0
  outer loop
    vertex -38.211006022914816 30.11243502264505 7.613909502879323e-14
    vertex 53.7889939770852 37.11243502264508 3.032657916332934e-14
    vertex 46.788993977085205 30.112435022645087 5.357936316841005e-14
  endloop
endfacet
facet normal -2.24317964647996e-16 -9.338314359766137e-16 -1.0
  outer loop
    vertex 46.788993977085205 30.112435022645087 5.357936316841005e-14
    vertex 53.7889939770852 37.11243502264508 3.032657916332934e-14
    vertex 46.788993977085255 21.112435022645556 3.3839597790574766e-14
  endloop
endfacet
facet normal -2.24317964647996e-16 -9.338314359766137e-16 -1.0
  outer loop
    vertex -45.21100602291482 14.11243502264524 7.401218069094291e-14
    vertex -38.211006022914816 21.1124350226455 2.8199664825478976e-14
    vertex 53.7889939770852 14.11243502264524 2.501502060658625e-14
  endloop
endfacet
facet normal -2.24317964647996e-16 -9.338314359766137e-16 -1.0
  outer loop
    vertex -38.211006022914816 21.1124350226455 2.8199664825478976e-14
    vertex -45.21100602291482 14.11243502264524 7.401218069094291e-14
    vertex -38.211006022914816 30.11243502264505 7.613909502879323e-14
  endloop
endfacet
facet normal -2.24317964647996e-16 -9.338314359766137e-16 -1.0
  outer loop
    vertex 53.7889939770852 14.11243502264524 2.501502060658625e-14
    vertex -38.211006022914816 21.1124350226455 2.8199664825478976e-14
    vertex 46.788993977085255 21.112435022645556 3.3839597790574766e-14
  endloop
endfacet
facet normal -2.24317964647996e-16 -9.338314359766137e-16 -1.0
  outer loop
    vertex 53.7889939770852 14.11243502264524 2.501502060658625e-14
    vertex 46.788993977085255 21.112435022645556 3.3839597790574766e-14
    vertex 53.7889939770852 37.11243502264508 3.032657916332934e-14
  endloop
endfacet
facet normal 0.0 1.0 -5.311558556743081e-16
  outer loop
    vertex -45.21100602291482 37.11243502264508 1.0000000000000258
    vertex 53.7889939770852 37.11243502264508 3.032657916332934e-14
    vertex -45.21100602291482 37.11243502264508 2.5744376079275895e-14
  endloop
endfacet
facet normal 0.0 1.0 -5.311558556743081e-16
  outer loop
    vertex 53.7889939770852 37.11243502264508 3.032657916332934e-14
    vertex -45.21100602291482 37.11243502264508 1.0000000000000258
    vertex 53.7889939770852 37.11243502264508 1.0000000000000318
  endloop
endfacet
facet normal 2.45776895267936e-16 8.118085328547021e-16 1.0
  outer loop
    vertex 53.7889939770852 14.11243502264524 1.0000000000000246
    vertex -40.211006022914816 19.112435022645244 1.0000000000000788
    vertex -45.21100602291482 14.11243502264524 1.0000000000000722
  endloop
endfacet
facet normal 2.45776895267936e-16 8.118085328547021e-16 1.0
  outer loop
    vertex -40.211006022914816 19.112435022645244 1.0000000000000788
    vertex 53.7889939770852 14.11243502264524 1.0000000000000246
    vertex 48.78899397708516 19.112435022645535 0.9999999999999999
  endloop
endfacet
facet normal 2.45776895267936e-16 8.118085328547021e-16 1.0
  outer loop
    vertex 48.78899397708516 19.112435022645535 0.9999999999999999
    vertex 53.7889939770852 14.11243502264524 1.0000000000000246
    vertex 48.788993977085184 32.11243502264507 1.0000000000000253
  endloop
endfacet
facet normal 2.45776895267936e-16 8.118085328547021e-16 1.0
  outer loop
    vertex -45.21100602291482 37.11243502264508 1.0000000000000258
    vertex -40.211006022914816 32.11243502264527 1.0000000000000762
    vertex 53.7889939770852 37.11243502264508 1.0000000000000318
  endloop
endfacet
facet normal 2.45776895267936e-16 8.118085328547021e-16 1.0
  outer loop
    vertex -40.211006022914816 32.11243502264527 1.0000000000000762
    vertex -45.21100602291482 37.11243502264508 1.0000000000000258
    vertex -45.21100602291482 14.11243502264524 1.0000000000000722
  endloop
endfacet
facet normal 2.45776895267936e-16 8.118085328547021e-16 1.0
  outer loop
    vertex -40.211006022914816 32.11243502264527 1.0000000000000762
    vertex -45.21100602291482 14.11243502264524 1.0000000000000722
    vertex -40.211006022914816 19.112435022645244 1.0000000000000788
  endloop
endfacet
facet normal 2.45776895267936e-16 8.118085328547021e-16 1.0
  outer loop
    vertex 53.7889939770852 37.11243502264508 1.0000000000000318
    vertex -40.211006022914816 32.11243502264527 1.0000000000000762
    vertex -0.71100602291502 32.11243502264477 1.0000000000000606
  endloop
endfacet
facet normal 2.45776895267936e-16 8.118085328547021e-16 1.0
  outer loop
    vertex 53.7889939770852 37.11243502264508 1.0000000000000318
    vertex -0.71100602291502 32.11243502264477 1.0000000000000606
    vertex 48.788993977085184 32.11243502264507 1.0000000000000253
  endloop
endfacet
facet normal 2.45776895267936e-16 8.118085328547021e-16 1.0
  outer loop
    vertex 53.7889939770852 37.11243502264508 1.0000000000000318
    vertex 48.788993977085184 32.11243502264507 1.0000000000000253
    vertex 53.7889939770852 14.11243502264524 1.0000000000000246
  endloop
endfacet
facet normal 3.2952417324155205e-15 -1.0 -1.4099832412739542e-15
  outer loop
    vertex 48.78899397708516 19.11243502264553 1.9999999999999998
    vertex -40.211006022914816 19.112435022645244 1.0000000000000788
    vertex 48.78899397708516 19.112435022645535 0.9999999999999999
  endloop
endfacet
facet normal 3.2952417324155205e-15 -1.0 -1.4099832412739542e-15
  outer loop
    vertex -40.211006022914816 19.112435022645244 1.0000000000000788
    vertex 48.78899397708516 19.11243502264553 1.9999999999999998
    vertex -40.211006022914816 19.11243502264524 2.0000000000000786
  endloop
endfacet
facet normal 1.0 3.7630930301060464e-30 -7.064714187740037e-16
  outer loop
    vertex -38.211006022914816 21.1124350226455 2.8199664825478976e-14
    vertex -38.211006022914816 30.112435022645048 2.000000000000076
    vertex -38.211006022914816 21.112435022645496 2.000000000000028
  endloop
endfacet
facet normal 1.0 3.7630930301060464e-30 -7.064714187740037e-16
  outer loop
    vertex -38.211006022914816 30.112435022645048 2.000000000000076
    vertex -38.211006022914816 21.1124350226455 2.8199664825478976e-14
    vertex -38.211006022914816 30.11243502264505 7.613909502879323e-14
  endloop
endfacet
facet normal -1.0 -1.7090705954835757e-16 4.582203084053401e-16
  outer loop
    vertex -45.21100602291482 37.11243502264508 1.0000000000000258
    vertex -45.21100602291482 14.11243502264524 7.401218069094291e-14
    vertex -45.21100602291482 14.11243502264524 1.0000000000000722
  endloop
endfacet
facet normal -1.0 -1.7090705954835757e-16 4.582203084053401e-16
  outer loop
    vertex -45.21100602291482 14.11243502264524 7.401218069094291e-14
    vertex -45.21100602291482 37.11243502264508 1.0000000000000258
    vertex -45.21100602291482 37.11243502264508 2.5744376079275895e-14
  endloop
endfacet
facet normal 7.064714187740036e-16 -1.788392237421006e-15 1.0
  outer loop
    vertex -40.211006022914816 19.11243502264524 2.0000000000000786
    vertex -38.211006022914816 21.112435022645496 2.000000000000028
    vertex -40.211006022914816 32.11243502264527 2.000000000000076
  endloop
endfacet
facet normal 7.064714187740036e-16 -1.788392237421006e-15 1.0
  outer loop
    vertex -38.211006022914816 21.112435022645496 2.000000000000028
    vertex -40.211006022914816 19.11243502264524 2.0000000000000786
    vertex 48.78899397708516 19.11243502264553 1.9999999999999998
  endloop
endfacet
facet normal 7.064714187740036e-16 -1.788392237421006e-15 1.0
  outer loop
    vertex -38.211006022914816 21.112435022645496 2.000000000000028
    vertex 48.78899397708516 19.11243502264553 1.9999999999999998
    vertex 46.788993977085255 21.112435022645553 2.0000000000000338
  endloop
endfacet
facet normal 7.064714187740036e-16 -1.788392237421006e-15 1.0
  outer loop
    vertex -40.211006022914816 32.11243502264527 2.000000000000076
    vertex -38.211006022914816 30.112435022645048 2.000000000000076
    vertex -0.7110060229150191 32.11243502264476 2.0000000000000604
  endloop
endfacet
facet normal 7.064714187740036e-16 -1.788392237421006e-15 1.0
  outer loop
    vertex -38.211006022914816 30.112435022645048 2.000000000000076
    vertex -40.211006022914816 32.11243502264527 2.000000000000076
    vertex -38.211006022914816 21.112435022645496 2.000000000000028
  endloop
endfacet
facet normal 7.064714187740036e-16 -1.788392237421006e-15 1.0
  outer loop
    vertex -0.7110060229150191 32.11243502264476 2.0000000000000604
    vertex -38.211006022914816 30.112435022645048 2.000000000000076
    vertex 46.788993977085205 30.11243502264508 2.0000000000000533
  endloop
endfacet
facet normal 7.064714187740036e-16 -1.788392237421006e-15 1.0
  outer loop
    vertex -0.7110060229150191 32.11243502264476 2.0000000000000604
    vertex 46.788993977085205 30.11243502264508 2.0000000000000533
    vertex 48.788993977085184 32.112435022645066 2.0000000000000253
  endloop
endfacet
facet normal 7.064714187740036e-16 -1.788392237421006e-15 1.0
  outer loop
    vertex 48.788993977085184 32.112435022645066 2.0000000000000253
    vertex 46.788993977085205 30.11243502264508 2.0000000000000533
    vertex 46.788993977085255 21.112435022645553 2.0000000000000338
  endloop
endfacet
facet normal 7.064714187740036e-16 -1.788392237421006e-15 1.0
  outer loop
    vertex 48.788993977085184 32.112435022645066 2.0000000000000253
    vertex 46.788993977085255 21.112435022645553 2.0000000000000338
    vertex 48.78899397708516 19.11243502264553 1.9999999999999998
  endloop
endfacet
endsolid PotiBox
