solid PotiBox
facet normal 0.0 0.0 -1.0
  outer loop
    vertex -81.82455089683961 278.40477586828365 0.0
    vertex -189.82455089683967 170.4047758682843 0.0
    vertex -189.82455089683967 278.40477586828365 0.0
  endloop
endfacet
facet normal 0.0 0.0 -1.0
  outer loop
    vertex -189.82455089683967 170.4047758682843 0.0
    vertex -81.82455089683961 278.40477586828365 0.0
    vertex -81.82455089683961 170.4047758682843 0.0
  endloop
endfacet
facet normal -1.0 0.0 0.0
  outer loop
    vertex -189.82455089683967 278.40477586828365 11.0
    vertex -189.82455089683967 170.4047758682843 0.0
    vertex -189.82455089683967 170.4047758682843 11.0
  endloop
endfacet
facet normal -1.0 0.0 0.0
  outer loop
    vertex -189.82455089683967 170.4047758682843 0.0
    vertex -189.82455089683967 278.40477586828365 11.0
    vertex -189.82455089683967 278.40477586828365 0.0
  endloop
endfacet
facet normal -0.0 1.0 -0.0
  outer loop
    vertex -189.82455089683967 278.40477586828365 0.0
    vertex -187.82455089683964 278.40477586828365 1.9999999999999998
    vertex -81.82455089683961 278.40477586828365 0.0
  endloop
endfacet
facet normal -0.0 1.0 -0.0
  outer loop
    vertex -187.82455089683964 278.40477586828365 1.9999999999999998
    vertex -189.82455089683967 278.40477586828365 0.0
    vertex -189.82455089683967 278.40477586828365 11.0
  endloop
endfacet
facet normal -0.0 1.0 -0.0
  outer loop
    vertex -187.82455089683964 278.40477586828365 1.9999999999999998
    vertex -189.82455089683967 278.40477586828365 11.0
    vertex -187.82455089683964 278.40477586828365 11.0
  endloop
endfacet
facet normal -0.0 1.0 -0.0
  outer loop
    vertex -81.82455089683961 278.40477586828365 0.0
    vertex -97.8245508968396 278.40477586828365 1.9999999999999998
    vertex -81.82455089683961 278.40477586828365 11.000000000000009
  endloop
endfacet
facet normal -0.0 1.0 -0.0
  outer loop
    vertex -97.8245508968396 278.40477586828365 1.9999999999999998
    vertex -81.82455089683961 278.40477586828365 0.0
    vertex -187.82455089683964 278.40477586828365 1.9999999999999998
  endloop
endfacet
facet normal -0.0 1.0 -0.0
  outer loop
    vertex -81.82455089683961 278.40477586828365 11.000000000000009
    vertex -97.8245508968396 278.40477586828365 1.9999999999999998
    vertex -97.8245508968396 278.40477586828365 11.000000000000009
  endloop
endfacet
facet normal 1.0 0.0 0.0
  outer loop
    vertex -81.82455089683961 278.40477586828365 0.0
    vertex -81.82455089683961 170.4047758682843 11.000000000000009
    vertex -81.82455089683961 170.4047758682843 0.0
  endloop
endfacet
facet normal 1.0 0.0 0.0
  outer loop
    vertex -81.82455089683961 170.4047758682843 11.000000000000009
    vertex -81.82455089683961 278.40477586828365 0.0
    vertex -81.82455089683961 278.40477586828365 11.000000000000009
  endloop
endfacet
facet normal 0.0 -1.0 0.0
  outer loop
    vertex -81.82455089683961 170.4047758682843 0.0
    vertex -83.82455089683961 170.4047758682843 1.9999999999999998
    vertex -189.82455089683967 170.4047758682843 0.0
  endloop
endfacet
facet normal 0.0 -1.0 0.0
  outer loop
    vertex -83.82455089683961 170.4047758682843 1.9999999999999998
    vertex -81.82455089683961 170.4047758682843 0.0
    vertex -81.82455089683961 170.4047758682843 11.000000000000009
  endloop
endfacet
facet normal 0.0 -1.0 0.0
  outer loop
    vertex -83.82455089683961 170.4047758682843 1.9999999999999998
    vertex -81.82455089683961 170.4047758682843 11.000000000000009
    vertex -83.82455089683961 170.4047758682843 11.000000000000009
  endloop
endfacet
facet normal 0.0 -1.0 0.0
  outer loop
    vertex -189.82455089683967 170.4047758682843 0.0
    vertex -173.82455089683964 170.4047758682843 1.9999999999999998
    vertex -189.82455089683967 170.4047758682843 11.0
  endloop
endfacet
facet normal 0.0 -1.0 0.0
  outer loop
    vertex -173.82455089683964 170.4047758682843 1.9999999999999998
    vertex -189.82455089683967 170.4047758682843 0.0
    vertex -83.82455089683961 170.4047758682843 1.9999999999999998
  endloop
endfacet
facet normal 0.0 -1.0 0.0
  outer loop
    vertex -189.82455089683967 170.4047758682843 11.0
    vertex -173.82455089683964 170.4047758682843 1.9999999999999998
    vertex -173.82455089683964 170.4047758682843 11.0
  endloop
endfacet
facet normal 3.3515147579914407e-17 -1.9528915617427557e-18 1.0
  outer loop
    vertex -189.82455089683967 170.4047758682843 11.0
    vertex -187.82455089683964 172.40477586828428 11.0
    vertex -189.82455089683967 278.40477586828365 11.0
  endloop
endfacet
facet normal 3.3515147579914407e-17 -1.9528915617427557e-18 1.0
  outer loop
    vertex -187.82455089683964 172.40477586828428 11.0
    vertex -189.82455089683967 170.4047758682843 11.0
    vertex -173.82455089683964 170.4047758682843 11.0
  endloop
endfacet
facet normal 3.3515147579914407e-17 -1.9528915617427557e-18 1.0
  outer loop
    vertex -187.82455089683964 172.40477586828428 11.0
    vertex -173.82455089683964 170.4047758682843 11.0
    vertex -173.82455089683964 172.40477586828428 11.0
  endloop
endfacet
facet normal 3.3515147579914407e-17 -1.9528915617427557e-18 1.0
  outer loop
    vertex -187.82455089683964 278.40477586828365 11.0
    vertex -189.82455089683967 278.40477586828365 11.0
    vertex -187.82455089683964 172.40477586828428 11.0
  endloop
endfacet
facet normal 1.0 -0.0 -0.0
  outer loop
    vertex -187.82455089683964 278.40477586828365 1.9999999999999998
    vertex -187.82455089683964 172.40477586828428 11.0
    vertex -187.82455089683964 172.40477586828428 1.9999999999999998
  endloop
endfacet
facet normal 1.0 -0.0 -0.0
  outer loop
    vertex -187.82455089683964 172.40477586828428 11.0
    vertex -187.82455089683964 278.40477586828365 1.9999999999999998
    vertex -187.82455089683964 278.40477586828365 11.0
  endloop
endfacet
facet normal 0.0 0.0 1.0
  outer loop
    vertex -81.82455089683961 170.4047758682843 11.000000000000009
    vertex -83.82455089683961 276.40477586828365 11.000000000000009
    vertex -83.82455089683961 170.4047758682843 11.000000000000009
  endloop
endfacet
facet normal 0.0 0.0 1.0
  outer loop
    vertex -83.82455089683961 276.40477586828365 11.000000000000009
    vertex -97.8245508968396 278.40477586828365 11.000000000000009
    vertex -97.8245508968396 276.40477586828365 11.000000000000009
  endloop
endfacet
facet normal 0.0 0.0 1.0
  outer loop
    vertex -97.8245508968396 278.40477586828365 11.000000000000009
    vertex -83.82455089683961 276.40477586828365 11.000000000000009
    vertex -81.82455089683961 278.40477586828365 11.000000000000009
  endloop
endfacet
facet normal 0.0 0.0 1.0
  outer loop
    vertex -81.82455089683961 278.40477586828365 11.000000000000009
    vertex -83.82455089683961 276.40477586828365 11.000000000000009
    vertex -81.82455089683961 170.4047758682843 11.000000000000009
  endloop
endfacet
facet normal -1.0 0.0 0.0
  outer loop
    vertex -83.82455089683961 276.40477586828365 11.000000000000009
    vertex -83.82455089683961 170.4047758682843 1.9999999999999998
    vertex -83.82455089683961 170.4047758682843 11.000000000000009
  endloop
endfacet
facet normal -1.0 0.0 0.0
  outer loop
    vertex -83.82455089683961 170.4047758682843 1.9999999999999998
    vertex -83.82455089683961 276.40477586828365 11.000000000000009
    vertex -83.82455089683961 276.40477586828365 1.9999999999999998
  endloop
endfacet
facet normal -1.0 -0.0 -0.0
  outer loop
    vertex -97.8245508968396 278.40477586828365 11.000000000000009
    vertex -97.8245508968396 276.40477586828365 1.9999999999999998
    vertex -97.8245508968396 276.40477586828365 11.000000000000009
  endloop
endfacet
facet normal -1.0 -0.0 -0.0
  outer loop
    vertex -97.8245508968396 276.40477586828365 1.9999999999999998
    vertex -97.8245508968396 278.40477586828365 11.000000000000009
    vertex -97.8245508968396 278.40477586828365 1.9999999999999998
  endloop
endfacet
facet normal 0.0 -1.0 0.0
  outer loop
    vertex -83.82455089683961 276.40477586828365 11.000000000000009
    vertex -97.8245508968396 276.40477586828365 1.9999999999999998
    vertex -83.82455089683961 276.40477586828365 1.9999999999999998
  endloop
endfacet
facet normal 0.0 -1.0 0.0
  outer loop
    vertex -97.8245508968396 276.40477586828365 1.9999999999999998
    vertex -83.82455089683961 276.40477586828365 11.000000000000009
    vertex -97.8245508968396 276.40477586828365 11.000000000000009
  endloop
endfacet
facet normal -0.0 -0.0 1.0
  outer loop
    vertex -83.82455089683961 170.4047758682843 1.9999999999999998
    vertex -173.82455089683964 172.40477586828428 1.9999999999999998
    vertex -173.82455089683964 170.4047758682843 1.9999999999999998
  endloop
endfacet
facet normal -0.0 -0.0 1.0
  outer loop
    vertex -173.82455089683964 172.40477586828428 1.9999999999999998
    vertex -83.82455089683961 170.4047758682843 1.9999999999999998
    vertex -97.8245508968396 276.40477586828365 1.9999999999999998
  endloop
endfacet
facet normal -0.0 -0.0 1.0
  outer loop
    vertex -97.8245508968396 276.40477586828365 1.9999999999999998
    vertex -83.82455089683961 170.4047758682843 1.9999999999999998
    vertex -83.82455089683961 276.40477586828365 1.9999999999999998
  endloop
endfacet
facet normal -0.0 -0.0 1.0
  outer loop
    vertex -173.82455089683964 172.40477586828428 1.9999999999999998
    vertex -187.82455089683964 278.40477586828365 1.9999999999999998
    vertex -187.82455089683964 172.40477586828428 1.9999999999999998
  endloop
endfacet
facet normal -0.0 -0.0 1.0
  outer loop
    vertex -187.82455089683964 278.40477586828365 1.9999999999999998
    vertex -173.82455089683964 172.40477586828428 1.9999999999999998
    vertex -97.8245508968396 278.40477586828365 1.9999999999999998
  endloop
endfacet
facet normal -0.0 -0.0 1.0
  outer loop
    vertex -97.8245508968396 278.40477586828365 1.9999999999999998
    vertex -173.82455089683964 172.40477586828428 1.9999999999999998
    vertex -97.8245508968396 276.40477586828365 1.9999999999999998
  endloop
endfacet
facet normal 1.0 -0.0 0.0
  outer loop
    vertex -173.82455089683964 172.40477586828428 1.9999999999999998
    vertex -173.82455089683964 170.4047758682843 11.0
    vertex -173.82455089683964 170.4047758682843 1.9999999999999998
  endloop
endfacet
facet normal 1.0 -0.0 0.0
  outer loop
    vertex -173.82455089683964 170.4047758682843 11.0
    vertex -173.82455089683964 172.40477586828428 1.9999999999999998
    vertex -173.82455089683964 172.40477586828428 11.0
  endloop
endfacet
facet normal -0.0 1.0 -0.0
  outer loop
    vertex -187.82455089683964 172.40477586828428 11.0
    vertex -173.82455089683964 172.40477586828428 1.9999999999999998
    vertex -187.82455089683964 172.40477586828428 1.9999999999999998
  endloop
endfacet
facet normal -0.0 1.0 -0.0
  outer loop
    vertex -173.82455089683964 172.40477586828428 1.9999999999999998
    vertex -187.82455089683964 172.40477586828428 11.0
    vertex -173.82455089683964 172.40477586828428 11.0
  endloop
endfacet
endsolid PotiBox
