solid StreetBox
facet normal 0.0 0.0 -1.0
  outer loop
    vertex -9.659258262890667 12.588190451025199 0.0
    vertex -9.659258262890667 7.411809548974788 0.0
    vertex -9.999999999999984 9.999999999999993 0.0
  endloop
endfacet
facet normal 0.0 0.0 -1.0
  outer loop
    vertex -9.659258262890667 7.411809548974788 0.0
    vertex -9.659258262890667 12.588190451025199 0.0
    vertex -8.660254037844384 14.999999999999984 0.0
  endloop
endfacet
facet normal 0.0 0.0 -1.0
  outer loop
    vertex -9.659258262890667 7.411809548974788 0.0
    vertex -8.660254037844384 14.999999999999984 0.0
    vertex -8.660254037844384 5.000000000000025 0.0
  endloop
endfacet
facet normal 0.0 0.0 -1.0
  outer loop
    vertex -8.660254037844384 5.000000000000025 0.0
    vertex -8.660254037844384 14.999999999999984 0.0
    vertex -7.071067811865473 17.071067811865525 0.0
  endloop
endfacet
facet normal 0.0 0.0 -1.0
  outer loop
    vertex -8.660254037844384 5.000000000000025 0.0
    vertex -7.071067811865473 17.071067811865525 0.0
    vertex -7.071067811865473 2.928932188134511 0.0
  endloop
endfacet
facet normal 0.0 0.0 -1.0
  outer loop
    vertex -7.071067811865473 2.928932188134511 0.0
    vertex -7.071067811865473 17.071067811865525 0.0
    vertex -5.000000000000005 18.660254037844414 0.0
  endloop
endfacet
facet normal 0.0 0.0 -1.0
  outer loop
    vertex -7.071067811865473 2.928932188134511 0.0
    vertex -5.000000000000005 18.660254037844414 0.0
    vertex -5.000000000000005 1.3397459621556238 0.0
  endloop
endfacet
facet normal 0.0 0.0 -1.0
  outer loop
    vertex -5.000000000000005 1.3397459621556238 0.0
    vertex -5.000000000000005 18.660254037844414 0.0
    vertex -3.9999999999999956 9.999999999999993 0.0
  endloop
endfacet
facet normal 0.0 0.0 -1.0
  outer loop
    vertex -3.9999999999999956 9.999999999999993 0.0
    vertex -5.000000000000005 18.660254037844414 0.0
    vertex -3.8637033051562684 11.035276180410085 0.0
  endloop
endfacet
facet normal 0.0 0.0 -1.0
  outer loop
    vertex -3.8637033051562684 11.035276180410085 0.0
    vertex -5.000000000000005 18.660254037844414 0.0
    vertex -2.588190451025208 19.65925826289073 0.0
  endloop
endfacet
facet normal 0.0 0.0 -1.0
  outer loop
    vertex -3.8637033051562684 11.035276180410085 0.0
    vertex -2.588190451025208 19.65925826289073 0.0
    vertex -3.4641016151377597 11.99999999999999 0.0
  endloop
endfacet
facet normal 0.0 0.0 -1.0
  outer loop
    vertex -3.4641016151377597 11.99999999999999 0.0
    vertex -2.588190451025208 19.65925826289073 0.0
    vertex -2.8284271247461885 12.82842712474619 0.0
  endloop
endfacet
facet normal 0.0 0.0 -1.0
  outer loop
    vertex -2.8284271247461885 12.82842712474619 0.0
    vertex -2.588190451025208 19.65925826289073 0.0
    vertex -1.9999999999999878 13.464101615137773 0.0
  endloop
endfacet
facet normal 0.0 0.0 -1.0
  outer loop
    vertex -1.9999999999999878 13.464101615137773 0.0
    vertex -2.588190451025208 19.65925826289073 0.0
    vertex 0.0 20.00000000000006 0.0
  endloop
endfacet
facet normal 0.0 0.0 -1.0
  outer loop
    vertex -1.9999999999999878 13.464101615137773 0.0
    vertex 0.0 20.00000000000006 0.0
    vertex -1.035276180410077 13.863703305156282 0.0
  endloop
endfacet
facet normal 0.0 0.0 -1.0
  outer loop
    vertex -1.035276180410077 13.863703305156282 0.0
    vertex 0.0 20.00000000000006 0.0
    vertex 0.0 13.999999999999986 0.0
  endloop
endfacet
facet normal 0.0 0.0 -1.0
  outer loop
    vertex 0.0 13.999999999999986 0.0
    vertex 0.0 20.00000000000006 0.0
    vertex 2.588190451025205 19.65925826289073 0.0
  endloop
endfacet
facet normal 0.0 0.0 -1.0
  outer loop
    vertex 0.0 13.999999999999986 0.0
    vertex 2.588190451025205 19.65925826289073 0.0
    vertex 1.0352761804100798 13.863703305156282 0.0
  endloop
endfacet
facet normal 0.0 0.0 -1.0
  outer loop
    vertex 1.0352761804100798 13.863703305156282 0.0
    vertex 2.588190451025205 19.65925826289073 0.0
    vertex 1.9999999999999962 13.464101615137773 0.0
  endloop
endfacet
facet normal 0.0 0.0 -1.0
  outer loop
    vertex 1.9999999999999962 13.464101615137773 0.0
    vertex 2.588190451025205 19.65925826289073 0.0
    vertex 2.828427124746186 12.82842712474619 0.0
  endloop
endfacet
facet normal 0.0 0.0 -1.0
  outer loop
    vertex 2.828427124746186 12.82842712474619 0.0
    vertex 2.588190451025205 19.65925826289073 0.0
    vertex 5.000000000000005 18.660254037844414 0.0
  endloop
endfacet
facet normal 0.0 0.0 -1.0
  outer loop
    vertex 2.828427124746186 12.82842712474619 0.0
    vertex 5.000000000000005 18.660254037844414 0.0
    vertex 3.464101615137748 11.99999999999999 0.0
  endloop
endfacet
facet normal 0.0 0.0 -1.0
  outer loop
    vertex 3.464101615137748 11.99999999999999 0.0
    vertex 5.000000000000005 18.660254037844414 0.0
    vertex 3.8637033051562573 11.035276180410085 0.0
  endloop
endfacet
facet normal 0.0 0.0 -1.0
  outer loop
    vertex 3.8637033051562573 11.035276180410085 0.0
    vertex 5.000000000000005 18.660254037844414 0.0
    vertex 3.999999999999984 9.999999999999993 0.0
  endloop
endfacet
facet normal 0.0 0.0 -1.0
  outer loop
    vertex 3.999999999999984 9.999999999999993 0.0
    vertex 5.000000000000005 18.660254037844414 0.0
    vertex 4.999999999999982 1.3397459621556238 0.0
  endloop
endfacet
facet normal 0.0 0.0 -1.0
  outer loop
    vertex 4.999999999999982 1.3397459621556238 0.0
    vertex 5.000000000000005 18.660254037844414 0.0
    vertex 7.0710678118654675 2.928932188134511 0.0
  endloop
endfacet
facet normal 0.0 0.0 -1.0
  outer loop
    vertex 7.0710678118654675 2.928932188134511 0.0
    vertex 5.000000000000005 18.660254037844414 0.0
    vertex 7.0710678118654675 17.071067811865525 0.0
  endloop
endfacet
facet normal 0.0 0.0 -1.0
  outer loop
    vertex 7.0710678118654675 2.928932188134511 0.0
    vertex 7.0710678118654675 17.071067811865525 0.0
    vertex 8.6602540378444 14.999999999999984 0.0
  endloop
endfacet
facet normal 0.0 0.0 -1.0
  outer loop
    vertex 7.0710678118654675 2.928932188134511 0.0
    vertex 8.6602540378444 14.999999999999984 0.0
    vertex 8.6602540378444 5.000000000000025 0.0
  endloop
endfacet
facet normal 0.0 0.0 -1.0
  outer loop
    vertex 8.6602540378444 5.000000000000025 0.0
    vertex 8.6602540378444 14.999999999999984 0.0
    vertex 9.659258262890695 12.588190451025199 0.0
  endloop
endfacet
facet normal 0.0 0.0 -1.0
  outer loop
    vertex 8.6602540378444 5.000000000000025 0.0
    vertex 9.659258262890695 12.588190451025199 0.0
    vertex 9.659258262890695 7.411809548974788 0.0
  endloop
endfacet
facet normal 0.0 0.0 -1.0
  outer loop
    vertex 9.659258262890695 7.411809548974788 0.0
    vertex 9.659258262890695 12.588190451025199 0.0
    vertex 10.000000000000002 9.999999999999993 0.0
  endloop
endfacet
facet normal 0.0 0.0 -1.0
  outer loop
    vertex -5.000000000000005 1.3397459621556238 0.0
    vertex -3.8637033051562684 8.964723819589901 0.0
    vertex -2.5881904510252194 0.3407417371093062 0.0
  endloop
endfacet
facet normal 0.0 0.0 -1.0
  outer loop
    vertex -3.8637033051562684 8.964723819589901 0.0
    vertex -5.000000000000005 1.3397459621556238 0.0
    vertex -3.9999999999999956 9.999999999999993 0.0
  endloop
endfacet
facet normal 0.0 0.0 -1.0
  outer loop
    vertex -2.5881904510252194 0.3407417371093062 0.0
    vertex -3.8637033051562684 8.964723819589901 0.0
    vertex -3.4641016151377597 7.9999999999999964 0.0
  endloop
endfacet
facet normal 0.0 0.0 -1.0
  outer loop
    vertex -2.5881904510252194 0.3407417371093062 0.0
    vertex -3.4641016151377597 7.9999999999999964 0.0
    vertex -2.8284271247461885 7.171572875253796 0.0
  endloop
endfacet
facet normal 0.0 0.0 -1.0
  outer loop
    vertex -2.5881904510252194 0.3407417371093062 0.0
    vertex -2.8284271247461885 7.171572875253796 0.0
    vertex -1.9999999999999991 6.535898384862259 0.0
  endloop
endfacet
facet normal 0.0 0.0 -1.0
  outer loop
    vertex -2.5881904510252194 0.3407417371093062 0.0
    vertex -1.9999999999999991 6.535898384862259 0.0
    vertex 0.0 0.0 0.0
  endloop
endfacet
facet normal 0.0 0.0 -1.0
  outer loop
    vertex 0.0 0.0 0.0
    vertex -1.9999999999999991 6.535898384862259 0.0
    vertex -1.0352761804100883 6.13629669484375 0.0
  endloop
endfacet
facet normal 0.0 0.0 -1.0
  outer loop
    vertex 0.0 0.0 0.0
    vertex -1.0352761804100883 6.13629669484375 0.0
    vertex 0.0 6.0 0.0
  endloop
endfacet
facet normal 0.0 0.0 -1.0
  outer loop
    vertex 0.0 0.0 0.0
    vertex 0.0 6.0 0.0
    vertex 1.0352761804100798 6.13629669484375 0.0
  endloop
endfacet
facet normal 0.0 0.0 -1.0
  outer loop
    vertex 0.0 0.0 0.0
    vertex 1.0352761804100798 6.13629669484375 0.0
    vertex 2.5881904510251936 0.3407417371093062 0.0
  endloop
endfacet
facet normal 0.0 0.0 -1.0
  outer loop
    vertex 2.5881904510251936 0.3407417371093062 0.0
    vertex 1.0352761804100798 6.13629669484375 0.0
    vertex 1.9999999999999962 6.535898384862259 0.0
  endloop
endfacet
facet normal 0.0 0.0 -1.0
  outer loop
    vertex 2.5881904510251936 0.3407417371093062 0.0
    vertex 1.9999999999999962 6.535898384862259 0.0
    vertex 2.828427124746186 7.171572875253796 0.0
  endloop
endfacet
facet normal 0.0 0.0 -1.0
  outer loop
    vertex 2.5881904510251936 0.3407417371093062 0.0
    vertex 2.828427124746186 7.171572875253796 0.0
    vertex 4.999999999999982 1.3397459621556238 0.0
  endloop
endfacet
facet normal 0.0 0.0 -1.0
  outer loop
    vertex 4.999999999999982 1.3397459621556238 0.0
    vertex 2.828427124746186 7.171572875253796 0.0
    vertex 3.464101615137748 7.9999999999999964 0.0
  endloop
endfacet
facet normal 0.0 0.0 -1.0
  outer loop
    vertex 4.999999999999982 1.3397459621556238 0.0
    vertex 3.464101615137748 7.9999999999999964 0.0
    vertex 3.8637033051562573 8.964723819589901 0.0
  endloop
endfacet
facet normal 0.0 0.0 -1.0
  outer loop
    vertex 4.999999999999982 1.3397459621556238 0.0
    vertex 3.8637033051562573 8.964723819589901 0.0
    vertex 3.999999999999984 9.999999999999993 0.0
  endloop
endfacet
facet normal -0.0 -0.0 1.0
  outer loop
    vertex -5.000000000000005 15.00062683581059 90.99999999999999
    vertex -7.071067811865473 17.071067811865525 90.99999999999999
    vertex -8.660254037844384 14.999999999999984 90.99999999999999
  endloop
endfacet
facet normal -0.0 -0.0 1.0
  outer loop
    vertex -7.071067811865473 17.071067811865525 90.99999999999999
    vertex -5.000000000000005 15.00062683581059 90.99999999999999
    vertex -5.000000000000005 18.660254037844414 90.99999999999999
  endloop
endfacet
facet normal -0.0 -0.0 1.0
  outer loop
    vertex 8.6602540378444 14.999999999999984 90.99999999999999
    vertex 5.000000000000005 18.660254037844414 90.99999999999999
    vertex 4.999999999999982 15.00062683581059 90.99999999999999
  endloop
endfacet
facet normal -0.0 -0.0 1.0
  outer loop
    vertex 5.000000000000005 18.660254037844414 90.99999999999999
    vertex 8.6602540378444 14.999999999999984 90.99999999999999
    vertex 7.0710678118654675 17.071067811865525 90.99999999999999
  endloop
endfacet
facet normal -0.0 -0.0 1.0
  outer loop
    vertex 7.0710678118654675 2.928932188134511 90.99999999999999
    vertex 4.999999999999982 5.000000000000025 90.99999999999999
    vertex 4.999999999999982 1.3397459621556238 90.99999999999999
  endloop
endfacet
facet normal -0.0 -0.0 1.0
  outer loop
    vertex 4.999999999999982 5.000000000000025 90.99999999999999
    vertex 7.0710678118654675 2.928932188134511 90.99999999999999
    vertex 8.6602540378444 5.000000000000025 90.99999999999999
  endloop
endfacet
facet normal -0.0 -0.0 1.0
  outer loop
    vertex -7.071067811865473 2.928932188134511 90.99999999999999
    vertex -5.000000000000005 5.000000000000025 90.99999999999999
    vertex -8.660254037844384 5.000000000000025 90.99999999999999
  endloop
endfacet
facet normal -0.0 -0.0 1.0
  outer loop
    vertex -5.000000000000005 5.000000000000025 90.99999999999999
    vertex -7.071067811865473 2.928932188134511 90.99999999999999
    vertex -5.000000000000005 1.3397459621556238 90.99999999999999
  endloop
endfacet
facet normal -1.0 6.164489062668924e-15 0.0
  outer loop
    vertex 5.000000000000005 18.660254037844414 90.99999999999999
    vertex 4.999999999999982 15.00062683581059 85.99999999999999
    vertex 4.999999999999982 15.00062683581059 90.99999999999999
  endloop
endfacet
facet normal -1.0 6.164489062668924e-15 0.0
  outer loop
    vertex 4.999999999999982 15.00062683581059 85.99999999999999
    vertex 5.000000000000005 18.660254037844414 90.99999999999999
    vertex 5.000000000000005 18.660254037844414 85.99999999999999
  endloop
endfacet
facet normal 1.0 -0.0 -0.0
  outer loop
    vertex -5.000000000000005 18.660254037844414 85.99999999999999
    vertex -5.000000000000005 15.00062683581059 90.99999999999999
    vertex -5.000000000000005 15.00062683581059 85.99999999999999
  endloop
endfacet
facet normal 1.0 -0.0 -0.0
  outer loop
    vertex -5.000000000000005 15.00062683581059 90.99999999999999
    vertex -5.000000000000005 18.660254037844414 85.99999999999999
    vertex -5.000000000000005 18.660254037844414 90.99999999999999
  endloop
endfacet
facet normal 0.0001712547257465988 -0.9999999853359094 0.0
  outer loop
    vertex -5.000000000000005 15.00062683581059 90.99999999999999
    vertex -8.660254037844384 14.999999999999984 85.99999999999999
    vertex -5.000000000000005 15.00062683581059 85.99999999999999
  endloop
endfacet
facet normal 0.0001712547257465988 -0.9999999853359094 0.0
  outer loop
    vertex -8.660254037844384 14.999999999999984 85.99999999999999
    vertex -5.000000000000005 15.00062683581059 90.99999999999999
    vertex -8.660254037844384 14.999999999999984 90.99999999999999
  endloop
endfacet
facet normal -0.0 1.0 -0.0
  outer loop
    vertex -8.660254037844384 5.000000000000025 90.99999999999999
    vertex -5.000000000000005 5.000000000000025 85.99999999999999
    vertex -8.660254037844384 5.000000000000025 85.99999999999999
  endloop
endfacet
facet normal -0.0 1.0 -0.0
  outer loop
    vertex -5.000000000000005 5.000000000000025 85.99999999999999
    vertex -8.660254037844384 5.000000000000025 90.99999999999999
    vertex -5.000000000000005 5.000000000000025 90.99999999999999
  endloop
endfacet
facet normal 1.0 -0.0 -0.0
  outer loop
    vertex -5.000000000000005 5.000000000000025 85.99999999999999
    vertex -5.000000000000005 1.3397459621556238 90.99999999999999
    vertex -5.000000000000005 1.3397459621556238 85.99999999999999
  endloop
endfacet
facet normal 1.0 -0.0 -0.0
  outer loop
    vertex -5.000000000000005 1.3397459621556238 90.99999999999999
    vertex -5.000000000000005 5.000000000000025 85.99999999999999
    vertex -5.000000000000005 5.000000000000025 90.99999999999999
  endloop
endfacet
facet normal -1.0 0.0 0.0
  outer loop
    vertex 4.999999999999982 5.000000000000025 90.99999999999999
    vertex 4.999999999999982 1.3397459621556238 85.99999999999999
    vertex 4.999999999999982 1.3397459621556238 90.99999999999999
  endloop
endfacet
facet normal -1.0 0.0 0.0
  outer loop
    vertex 4.999999999999982 1.3397459621556238 85.99999999999999
    vertex 4.999999999999982 5.000000000000025 90.99999999999999
    vertex 4.999999999999982 5.000000000000025 85.99999999999999
  endloop
endfacet
facet normal -0.0 1.0 -0.0
  outer loop
    vertex 4.999999999999982 5.000000000000025 90.99999999999999
    vertex 8.6602540378444 5.000000000000025 85.99999999999999
    vertex 4.999999999999982 5.000000000000025 85.99999999999999
  endloop
endfacet
facet normal -0.0 1.0 -0.0
  outer loop
    vertex 8.6602540378444 5.000000000000025 85.99999999999999
    vertex 4.999999999999982 5.000000000000025 90.99999999999999
    vertex 8.6602540378444 5.000000000000025 90.99999999999999
  endloop
endfacet
facet normal -0.00017125472574659688 -0.9999999853359094 0.0
  outer loop
    vertex 8.6602540378444 14.999999999999984 90.99999999999999
    vertex 4.999999999999982 15.00062683581059 85.99999999999999
    vertex 8.6602540378444 14.999999999999984 85.99999999999999
  endloop
endfacet
facet normal -0.00017125472574659688 -0.9999999853359094 0.0
  outer loop
    vertex 4.999999999999982 15.00062683581059 85.99999999999999
    vertex 8.6602540378444 14.999999999999984 90.99999999999999
    vertex 4.999999999999982 15.00062683581059 90.99999999999999
  endloop
endfacet
facet normal -1.5904421925387142e-31 4.337520178392739e-31 1.0
  outer loop
    vertex -2.5881904510252194 0.3407417371093062 85.99999999999999
    vertex -5.000000000000005 5.000000000000025 85.99999999999999
    vertex -5.000000000000005 1.3397459621556238 85.99999999999999
  endloop
endfacet
facet normal -1.5904421925387142e-31 4.337520178392739e-31 1.0
  outer loop
    vertex -5.000000000000005 5.000000000000025 85.99999999999999
    vertex -2.5881904510252194 0.3407417371093062 85.99999999999999
    vertex -4.242773652823834 5.757805700657859 85.99999999999999
  endloop
endfacet
facet normal -1.5904421925387142e-31 4.337520178392739e-31 1.0
  outer loop
    vertex -4.242773652823834 5.757805700657859 85.99999999999999
    vertex -2.5881904510252194 0.3407417371093062 85.99999999999999
    vertex -3.255246120995279 5.000000000000025 85.99999999999999
  endloop
endfacet
facet normal -1.5904421925387142e-31 4.337520178392739e-31 1.0
  outer loop
    vertex -3.255246120995279 5.000000000000025 85.99999999999999
    vertex -2.5881904510252194 0.3407417371093062 85.99999999999999
    vertex -3.000162850143285 4.804255020175348 85.99999999999999
  endloop
endfacet
facet normal -1.5904421925387142e-31 4.337520178392739e-31 1.0
  outer loop
    vertex -3.000162850143285 4.804255020175348 85.99999999999999
    vertex -2.5881904510252194 0.3407417371093062 85.99999999999999
    vertex -1.5530959072290091 4.204807132605603 85.99999999999999
  endloop
endfacet
facet normal -1.5904421925387142e-31 4.337520178392739e-31 1.0
  outer loop
    vertex -1.5530959072290091 4.204807132605603 85.99999999999999
    vertex -2.5881904510252194 0.3407417371093062 85.99999999999999
    vertex 0.0 0.0 85.99999999999999
  endloop
endfacet
facet normal -1.5904421925387142e-31 4.337520178392739e-31 1.0
  outer loop
    vertex -1.5530959072290091 4.204807132605603 85.99999999999999
    vertex 0.0 0.0 85.99999999999999
    vertex -0.0001880448494270048 4.000313420852059 85.99999999999999
  endloop
endfacet
facet normal -1.5904421925387142e-31 4.337520178392739e-31 1.0
  outer loop
    vertex -0.0001880448494270048 4.000313420852059 85.99999999999999
    vertex 0.0 0.0 85.99999999999999
    vertex 1.5527326324758963 4.2047097934288695 85.99999999999999
  endloop
endfacet
facet normal -1.5904421925387142e-31 4.337520178392739e-31 1.0
  outer loop
    vertex 1.5527326324758963 4.2047097934288695 85.99999999999999
    vertex 0.0 0.0 85.99999999999999
    vertex 2.5881904510251936 0.3407417371093062 85.99999999999999
  endloop
endfacet
facet normal -1.5904421925387142e-31 4.337520178392739e-31 1.0
  outer loop
    vertex 1.5527326324758963 4.2047097934288695 85.99999999999999
    vertex 2.5881904510251936 0.3407417371093062 85.99999999999999
    vertex 2.999837146909977 4.804066975325933 85.99999999999999
  endloop
endfacet
facet normal -1.5904421925387142e-31 4.337520178392739e-31 1.0
  outer loop
    vertex 2.999837146909977 4.804066975325933 85.99999999999999
    vertex 2.5881904510251936 0.3407417371093062 85.99999999999999
    vertex 4.999999999999982 1.3397459621556238 85.99999999999999
  endloop
endfacet
facet normal -1.5904421925387142e-31 4.337520178392739e-31 1.0
  outer loop
    vertex 2.999837146909977 4.804066975325933 85.99999999999999
    vertex 4.999999999999982 1.3397459621556238 85.99999999999999
    vertex 3.255198606760468 5.000000000000025 85.99999999999999
  endloop
endfacet
facet normal -1.5904421925387142e-31 4.337520178392739e-31 1.0
  outer loop
    vertex 3.255198606760468 5.000000000000025 85.99999999999999
    vertex 4.999999999999982 1.3397459621556238 85.99999999999999
    vertex 4.242507717247428 5.757539765081465 85.99999999999999
  endloop
endfacet
facet normal -1.5904421925387142e-31 4.337520178392739e-31 1.0
  outer loop
    vertex 4.242507717247428 5.757539765081465 85.99999999999999
    vertex 4.999999999999982 1.3397459621556238 85.99999999999999
    vertex 4.999999999999982 5.000000000000025 85.99999999999999
  endloop
endfacet
facet normal -1.5904421925387142e-31 4.337520178392739e-31 1.0
  outer loop
    vertex 4.242507717247428 5.757539765081465 85.99999999999999
    vertex 4.999999999999982 5.000000000000025 85.99999999999999
    vertex 5.196058397729962 7.000150567762013 85.99999999999999
  endloop
endfacet
facet normal -1.5904421925387142e-31 4.337520178392739e-31 1.0
  outer loop
    vertex 5.196058397729962 7.000150567762013 85.99999999999999
    vertex 4.999999999999982 5.000000000000025 85.99999999999999
    vertex 8.6602540378444 5.000000000000025 85.99999999999999
  endloop
endfacet
facet normal -1.5904421925387142e-31 4.337520178392739e-31 1.0
  outer loop
    vertex 5.196058397729962 7.000150567762013 85.99999999999999
    vertex 8.6602540378444 5.000000000000025 85.99999999999999
    vertex 5.795506285299712 8.447217510676284 85.99999999999999
  endloop
endfacet
facet normal -1.5904421925387142e-31 4.337520178392739e-31 1.0
  outer loop
    vertex 5.795506285299712 8.447217510676284 85.99999999999999
    vertex 8.6602540378444 5.000000000000025 85.99999999999999
    vertex 5.999999997053257 10.00012537305588 85.99999999999999
  endloop
endfacet
facet normal -1.5904421925387142e-31 4.337520178392739e-31 1.0
  outer loop
    vertex 5.196246442579378 13.000150564815273 85.99999999999999
    vertex 4.999999999999982 15.00062683581059 85.99999999999999
    vertex 4.242773652823822 14.242821135152733 85.99999999999999
  endloop
endfacet
facet normal -1.5904421925387142e-31 4.337520178392739e-31 1.0
  outer loop
    vertex 4.999999999999982 15.00062683581059 85.99999999999999
    vertex 5.196246442579378 13.000150564815273 85.99999999999999
    vertex 8.6602540378444 14.999999999999984 85.99999999999999
  endloop
endfacet
facet normal -1.5904421925387142e-31 4.337520178392739e-31 1.0
  outer loop
    vertex 8.6602540378444 14.999999999999984 85.99999999999999
    vertex 5.196246442579378 13.000150564815273 85.99999999999999
    vertex 5.795603624476446 11.553046050381203 85.99999999999999
  endloop
endfacet
facet normal -1.5904421925387142e-31 4.337520178392739e-31 1.0
  outer loop
    vertex 8.6602540378444 14.999999999999984 85.99999999999999
    vertex 5.795603624476446 11.553046050381203 85.99999999999999
    vertex 5.999999997053257 10.00012537305588 85.99999999999999
  endloop
endfacet
facet normal -1.5904421925387142e-31 4.337520178392739e-31 1.0
  outer loop
    vertex 8.6602540378444 14.999999999999984 85.99999999999999
    vertex 5.999999997053257 10.00012537305588 85.99999999999999
    vertex 8.6602540378444 5.000000000000025 85.99999999999999
  endloop
endfacet
facet normal -1.5904421925387142e-31 4.337520178392739e-31 1.0
  outer loop
    vertex 8.6602540378444 14.999999999999984 85.99999999999999
    vertex 8.6602540378444 5.000000000000025 85.99999999999999
    vertex 9.659258262890695 7.411809548974788 85.99999999999999
  endloop
endfacet
facet normal -1.5904421925387142e-31 4.337520178392739e-31 1.0
  outer loop
    vertex 8.6602540378444 14.999999999999984 85.99999999999999
    vertex 9.659258262890695 7.411809548974788 85.99999999999999
    vertex 9.659258262890695 12.588190451025199 85.99999999999999
  endloop
endfacet
facet normal -1.5904421925387142e-31 4.337520178392739e-31 1.0
  outer loop
    vertex 9.659258262890695 12.588190451025199 85.99999999999999
    vertex 9.659258262890695 7.411809548974788 85.99999999999999
    vertex 10.000000000000002 9.999999999999993 85.99999999999999
  endloop
endfacet
facet normal -1.5904421925387142e-31 4.337520178392739e-31 1.0
  outer loop
    vertex -8.660254037844384 14.999999999999984 85.99999999999999
    vertex -5.79550628529973 11.553409325134307 85.99999999999999
    vertex -5.000000000000005 15.00062683581059 85.99999999999999
  endloop
endfacet
facet normal -1.5904421925387142e-31 4.337520178392739e-31 1.0
  outer loop
    vertex -5.79550628529973 11.553409325134307 85.99999999999999
    vertex -8.660254037844384 14.999999999999984 85.99999999999999
    vertex -5.999999997053274 10.00050146275471 85.99999999999999
  endloop
endfacet
facet normal -1.5904421925387142e-31 4.337520178392739e-31 1.0
  outer loop
    vertex -5.000000000000005 15.00062683581059 85.99999999999999
    vertex -5.79550628529973 11.553409325134307 85.99999999999999
    vertex -5.196058397729985 13.000476268048578 85.99999999999999
  endloop
endfacet
facet normal -1.5904421925387142e-31 4.337520178392739e-31 1.0
  outer loop
    vertex -5.000000000000005 15.00062683581059 85.99999999999999
    vertex -5.196058397729985 13.000476268048578 85.99999999999999
    vertex -4.24250771724744 14.243087070729127 85.99999999999999
  endloop
endfacet
facet normal -1.5904421925387142e-31 4.337520178392739e-31 1.0
  outer loop
    vertex -5.000000000000005 15.00062683581059 85.99999999999999
    vertex -4.24250771724744 14.243087070729127 85.99999999999999
    vertex -5.000000000000005 18.660254037844414 85.99999999999999
  endloop
endfacet
facet normal -1.5904421925387142e-31 4.337520178392739e-31 1.0
  outer loop
    vertex -5.000000000000005 18.660254037844414 85.99999999999999
    vertex -4.24250771724744 14.243087070729127 85.99999999999999
    vertex -2.588190451025208 19.65925826289073 85.99999999999999
  endloop
endfacet
facet normal -1.5904421925387142e-31 4.337520178392739e-31 1.0
  outer loop
    vertex -2.588190451025208 19.65925826289073 85.99999999999999
    vertex -4.24250771724744 14.243087070729127 85.99999999999999
    vertex -2.999837146909991 15.196559860484705 85.99999999999999
  endloop
endfacet
facet normal -1.5904421925387142e-31 4.337520178392739e-31 1.0
  outer loop
    vertex -2.588190451025208 19.65925826289073 85.99999999999999
    vertex -2.999837146909991 15.196559860484705 85.99999999999999
    vertex -1.5527326324759048 15.795917042381738 85.99999999999999
  endloop
endfacet
facet normal -1.5904421925387142e-31 4.337520178392739e-31 1.0
  outer loop
    vertex -2.588190451025208 19.65925826289073 85.99999999999999
    vertex -1.5527326324759048 15.795917042381738 85.99999999999999
    vertex 0.0 20.00000000000006 85.99999999999999
  endloop
endfacet
facet normal -1.5904421925387142e-31 4.337520178392739e-31 1.0
  outer loop
    vertex 0.0 20.00000000000006 85.99999999999999
    vertex -1.5527326324759048 15.795917042381738 85.99999999999999
    vertex 0.00018804484941572496 16.00031341495855 85.99999999999999
  endloop
endfacet
facet normal -1.5904421925387142e-31 4.337520178392739e-31 1.0
  outer loop
    vertex 0.0 20.00000000000006 85.99999999999999
    vertex 0.00018804484941572496 16.00031341495855 85.99999999999999
    vertex 2.588190451025205 19.65925826289073 85.99999999999999
  endloop
endfacet
facet normal -1.5904421925387142e-31 4.337520178392739e-31 1.0
  outer loop
    vertex 2.588190451025205 19.65925826289073 85.99999999999999
    vertex 0.00018804484941572496 16.00031341495855 85.99999999999999
    vertex 1.5530959072290007 15.795819703205005 85.99999999999999
  endloop
endfacet
facet normal -1.5904421925387142e-31 4.337520178392739e-31 1.0
  outer loop
    vertex 2.588190451025205 19.65925826289073 85.99999999999999
    vertex 1.5530959072290007 15.795819703205005 85.99999999999999
    vertex 3.0001628501432713 15.196371815635267 85.99999999999999
  endloop
endfacet
facet normal -1.5904421925387142e-31 4.337520178392739e-31 1.0
  outer loop
    vertex 2.588190451025205 19.65925826289073 85.99999999999999
    vertex 3.0001628501432713 15.196371815635267 85.99999999999999
    vertex 5.000000000000005 18.660254037844414 85.99999999999999
  endloop
endfacet
facet normal -1.5904421925387142e-31 4.337520178392739e-31 1.0
  outer loop
    vertex 5.000000000000005 18.660254037844414 85.99999999999999
    vertex 3.0001628501432713 15.196371815635267 85.99999999999999
    vertex 4.242773652823822 14.242821135152733 85.99999999999999
  endloop
endfacet
facet normal -1.5904421925387142e-31 4.337520178392739e-31 1.0
  outer loop
    vertex 5.000000000000005 18.660254037844414 85.99999999999999
    vertex 4.242773652823822 14.242821135152733 85.99999999999999
    vertex 4.999999999999982 15.00062683581059 85.99999999999999
  endloop
endfacet
facet normal -1.5904421925387142e-31 4.337520178392739e-31 1.0
  outer loop
    vertex -9.659258262890667 7.411809548974788 85.99999999999999
    vertex -9.659258262890667 12.588190451025199 85.99999999999999
    vertex -9.999999999999984 9.999999999999993 85.99999999999999
  endloop
endfacet
facet normal -1.5904421925387142e-31 4.337520178392739e-31 1.0
  outer loop
    vertex -9.659258262890667 12.588190451025199 85.99999999999999
    vertex -9.659258262890667 7.411809548974788 85.99999999999999
    vertex -8.660254037844384 5.000000000000025 85.99999999999999
  endloop
endfacet
facet normal -1.5904421925387142e-31 4.337520178392739e-31 1.0
  outer loop
    vertex -9.659258262890667 12.588190451025199 85.99999999999999
    vertex -8.660254037844384 5.000000000000025 85.99999999999999
    vertex -8.660254037844384 14.999999999999984 85.99999999999999
  endloop
endfacet
facet normal -1.5904421925387142e-31 4.337520178392739e-31 1.0
  outer loop
    vertex -8.660254037844384 14.999999999999984 85.99999999999999
    vertex -8.660254037844384 5.000000000000025 85.99999999999999
    vertex -5.000000000000005 5.000000000000025 85.99999999999999
  endloop
endfacet
facet normal -1.5904421925387142e-31 4.337520178392739e-31 1.0
  outer loop
    vertex -8.660254037844384 14.999999999999984 85.99999999999999
    vertex -5.000000000000005 5.000000000000025 85.99999999999999
    vertex -5.795603624476452 8.447580785429388 85.99999999999999
  endloop
endfacet
facet normal -1.5904421925387142e-31 4.337520178392739e-31 1.0
  outer loop
    vertex -8.660254037844384 14.999999999999984 85.99999999999999
    vertex -5.795603624476452 8.447580785429388 85.99999999999999
    vertex -5.999999997053274 10.00050146275471 85.99999999999999
  endloop
endfacet
facet normal -1.5904421925387142e-31 4.337520178392739e-31 1.0
  outer loop
    vertex -5.795603624476452 8.447580785429388 85.99999999999999
    vertex -5.000000000000005 5.000000000000025 85.99999999999999
    vertex -5.1962464425794 7.0004762709953186 85.99999999999999
  endloop
endfacet
facet normal -1.5904421925387142e-31 4.337520178392739e-31 1.0
  outer loop
    vertex -5.1962464425794 7.0004762709953186 85.99999999999999
    vertex -5.000000000000005 5.000000000000025 85.99999999999999
    vertex -4.242773652823834 5.757805700657859 85.99999999999999
  endloop
endfacet
facet normal 0.5658860882535811 0.737477108349956 -0.36864678186693484
  outer loop
    vertex 0.0 9.999999999999993 23.999999999999996
    vertex -1.9999999999999991 6.535898384862259 14.0
    vertex -2.8284271247461885 7.171572875253796 14.0
  endloop
endfacet
facet normal 0.7374771083499455 0.5658860882535941 -0.3686467818669359
  outer loop
    vertex 0.0 9.999999999999993 23.999999999999996
    vertex -2.8284271247461885 7.171572875253796 14.0
    vertex -3.4641016151377597 7.9999999999999964 14.0
  endloop
endfacet
facet normal 0.5658860882536019 -0.7374771083499394 -0.3686467818669364
  outer loop
    vertex 0.0 9.999999999999993 23.999999999999996
    vertex -2.8284271247461885 12.82842712474619 14.0
    vertex -1.9999999999999878 13.464101615137773 14.0
  endloop
endfacet
facet normal -0.7374771083499506 0.5658860882535879 -0.36864678186693545
  outer loop
    vertex 0.0 9.999999999999993 23.999999999999996
    vertex 3.464101615137748 7.9999999999999964 14.0
    vertex 2.828427124746186 7.171572875253796 14.0
  endloop
endfacet
facet normal -0.5658860882535819 0.7374771083499555 -0.36864678186693467
  outer loop
    vertex 0.0 9.999999999999993 23.999999999999996
    vertex 2.828427124746186 7.171572875253796 14.0
    vertex 1.9999999999999962 6.535898384862259 14.0
  endloop
endfacet
facet normal 0.9216169546673391 0.12133317390084354 -0.3686467818669353
  outer loop
    vertex 0.0 9.999999999999993 23.999999999999996
    vertex -3.8637033051562684 8.964723819589901 14.0
    vertex -3.9999999999999956 9.999999999999993 14.0
  endloop
endfacet
facet normal 0.8588102822507911 0.35573086641373797 -0.3686467818669357
  outer loop
    vertex 0.0 9.999999999999993 23.999999999999996
    vertex -3.4641016151377597 7.9999999999999964 14.0
    vertex -3.8637033051562684 8.964723819589901 14.0
  endloop
endfacet
facet normal 0.3557308664137366 0.8588102822507925 -0.3686467818669339
  outer loop
    vertex 0.0 9.999999999999993 23.999999999999996
    vertex -1.0352761804100883 6.13629669484375 14.0
    vertex -1.9999999999999991 6.535898384862259 14.0
  endloop
endfacet
facet normal -0.5658860882536072 -0.7374771083499354 -0.3686467818669363
  outer loop
    vertex 0.0 9.999999999999993 23.999999999999996
    vertex 1.9999999999999962 13.464101615137773 14.0
    vertex 2.828427124746186 12.82842712474619 14.0
  endloop
endfacet
facet normal -0.35573086641373364 -0.8588102822507923 -0.3686467818669369
  outer loop
    vertex 0.0 9.999999999999993 23.999999999999996
    vertex 1.0352761804100798 13.863703305156282 14.0
    vertex 1.9999999999999962 13.464101615137773 14.0
  endloop
endfacet
facet normal -0.7374771083499506 -0.5658860882535879 -0.36864678186693545
  outer loop
    vertex 2.828427124746186 12.82842712474619 14.0
    vertex 3.464101615137748 11.99999999999999 14.0
    vertex 0.0 9.999999999999993 23.999999999999996
  endloop
endfacet
facet normal -0.3557308664137378 0.8588102822507919 -0.36864678186693356
  outer loop
    vertex 0.0 9.999999999999993 23.999999999999996
    vertex 1.9999999999999962 6.535898384862259 14.0
    vertex 1.0352761804100798 6.13629669484375 14.0
  endloop
endfacet
facet normal -0.1213331739008255 -0.9216169546673411 -0.36864678186693595
  outer loop
    vertex 0.0 9.999999999999993 23.999999999999996
    vertex 0.0 13.999999999999986 14.0
    vertex 1.0352761804100798 13.863703305156282 14.0
  endloop
endfacet
facet normal -0.1213331739008651 0.9216169546673366 -0.36864678186693417
  outer loop
    vertex 0.0 9.999999999999993 23.999999999999996
    vertex 1.0352761804100798 6.13629669484375 14.0
    vertex 0.0 6.0 14.0
  endloop
endfacet
facet normal -0.8588102822507918 -0.355730866413737 -0.36864678186693495
  outer loop
    vertex 3.464101615137748 11.99999999999999 14.0
    vertex 3.8637033051562573 11.035276180410085 14.0
    vertex 0.0 9.999999999999993 23.999999999999996
  endloop
endfacet
facet normal -0.9216169546673393 -0.12133317390084475 -0.36864678186693445
  outer loop
    vertex 3.8637033051562573 11.035276180410085 14.0
    vertex 3.999999999999984 9.999999999999993 14.0
    vertex 0.0 9.999999999999993 23.999999999999996
  endloop
endfacet
facet normal 0.12133317390082617 -0.9216169546673412 -0.36864678186693595
  outer loop
    vertex 0.0 9.999999999999993 23.999999999999996
    vertex -1.035276180410077 13.863703305156282 14.0
    vertex 0.0 13.999999999999986 14.0
  endloop
endfacet
facet normal 0.3557308664137363 -0.8588102822507911 -0.36864678186693695
  outer loop
    vertex 0.0 9.999999999999993 23.999999999999996
    vertex -1.9999999999999878 13.464101615137773 14.0
    vertex -1.035276180410077 13.863703305156282 14.0
  endloop
endfacet
facet normal 0.9216169546673391 -0.12133317390084414 -0.36864678186693534
  outer loop
    vertex -3.8637033051562684 11.035276180410085 14.0
    vertex 0.0 9.999999999999993 23.999999999999996
    vertex -3.9999999999999956 9.999999999999993 14.0
  endloop
endfacet
facet normal 0.12133317390086455 0.9216169546673366 -0.36864678186693417
  outer loop
    vertex 0.0 9.999999999999993 23.999999999999996
    vertex 0.0 6.0 14.0
    vertex -1.0352761804100883 6.13629669484375 14.0
  endloop
endfacet
facet normal 0.7374771083499455 -0.5658860882535941 -0.3686467818669359
  outer loop
    vertex -2.8284271247461885 12.82842712474619 14.0
    vertex 0.0 9.999999999999993 23.999999999999996
    vertex -3.4641016151377597 11.99999999999999 14.0
  endloop
endfacet
facet normal 0.8588102822507905 -0.35573086641373947 -0.36864678186693584
  outer loop
    vertex -3.4641016151377597 11.99999999999999 14.0
    vertex 0.0 9.999999999999993 23.999999999999996
    vertex -3.8637033051562684 11.035276180410085 14.0
  endloop
endfacet
facet normal -0.9216169546673394 0.12133317390084418 -0.3686467818669345
  outer loop
    vertex 3.999999999999984 9.999999999999993 14.0
    vertex 3.8637033051562573 8.964723819589901 14.0
    vertex 0.0 9.999999999999993 23.999999999999996
  endloop
endfacet
facet normal -0.8588102822507913 0.355730866413738 -0.3686467818669349
  outer loop
    vertex 0.0 9.999999999999993 23.999999999999996
    vertex 3.8637033051562573 8.964723819589901 14.0
    vertex 3.464101615137748 7.9999999999999964 14.0
  endloop
endfacet
facet normal 0.6087614290087043 0.7933533402912477 -0.0
  outer loop
    vertex -2.8284271247461885 7.171572875253796 14.0
    vertex -1.9999999999999991 6.535898384862259 0.0
    vertex -2.8284271247461885 7.171572875253796 0.0
  endloop
endfacet
facet normal 0.6087614290087043 0.7933533402912477 -0.0
  outer loop
    vertex -1.9999999999999991 6.535898384862259 0.0
    vertex -2.8284271247461885 7.171572875253796 14.0
    vertex -1.9999999999999991 6.535898384862259 14.0
  endloop
endfacet
facet normal 0.382683432365084 0.9238795325112892 -0.0
  outer loop
    vertex -1.9999999999999991 6.535898384862259 14.0
    vertex -1.0352761804100883 6.13629669484375 0.0
    vertex -1.9999999999999991 6.535898384862259 0.0
  endloop
endfacet
facet normal 0.382683432365084 0.9238795325112892 -0.0
  outer loop
    vertex -1.0352761804100883 6.13629669484375 0.0
    vertex -1.9999999999999991 6.535898384862259 14.0
    vertex -1.0352761804100883 6.13629669484375 14.0
  endloop
endfacet
facet normal -0.9914448613738105 -0.13052619222005077 0.0
  outer loop
    vertex 3.8637033051562573 11.035276180410085 14.0
    vertex 3.999999999999984 9.999999999999993 0.0
    vertex 3.999999999999984 9.999999999999993 14.0
  endloop
endfacet
facet normal -0.9914448613738105 -0.13052619222005077 0.0
  outer loop
    vertex 3.999999999999984 9.999999999999993 0.0
    vertex 3.8637033051562573 11.035276180410085 14.0
    vertex 3.8637033051562573 11.035276180410085 0.0
  endloop
endfacet
facet normal -0.9238795325112884 -0.38268343236508595 0.0
  outer loop
    vertex 3.464101615137748 11.99999999999999 14.0
    vertex 3.8637033051562573 11.035276180410085 0.0
    vertex 3.8637033051562573 11.035276180410085 14.0
  endloop
endfacet
facet normal -0.9238795325112884 -0.38268343236508595 0.0
  outer loop
    vertex 3.8637033051562573 11.035276180410085 0.0
    vertex 3.464101615137748 11.99999999999999 14.0
    vertex 3.464101615137748 11.99999999999999 0.0
  endloop
endfacet
facet normal 0.1305261922200723 0.9914448613738077 -0.0
  outer loop
    vertex -1.0352761804100883 6.13629669484375 14.0
    vertex 0.0 6.0 0.0
    vertex -1.0352761804100883 6.13629669484375 0.0
  endloop
endfacet
facet normal 0.1305261922200723 0.9914448613738077 -0.0
  outer loop
    vertex 0.0 6.0 0.0
    vertex -1.0352761804100883 6.13629669484375 14.0
    vertex 0.0 6.0 14.0
  endloop
endfacet
facet normal -0.3826834323650821 -0.92387953251129 0.0
  outer loop
    vertex 1.9999999999999962 13.464101615137773 14.0
    vertex 1.0352761804100798 13.863703305156282 0.0
    vertex 1.9999999999999962 13.464101615137773 0.0
  endloop
endfacet
facet normal -0.3826834323650821 -0.92387953251129 0.0
  outer loop
    vertex 1.0352761804100798 13.863703305156282 0.0
    vertex 1.9999999999999962 13.464101615137773 14.0
    vertex 1.0352761804100798 13.863703305156282 14.0
  endloop
endfacet
facet normal -0.6087614290087315 -0.7933533402912267 0.0
  outer loop
    vertex 2.828427124746186 12.82842712474619 14.0
    vertex 1.9999999999999962 13.464101615137773 0.0
    vertex 2.828427124746186 12.82842712474619 0.0
  endloop
endfacet
facet normal -0.6087614290087315 -0.7933533402912267 0.0
  outer loop
    vertex 1.9999999999999962 13.464101615137773 0.0
    vertex 2.828427124746186 12.82842712474619 14.0
    vertex 1.9999999999999962 13.464101615137773 14.0
  endloop
endfacet
facet normal -0.79335334029124 -0.6087614290087144 0.0
  outer loop
    vertex 2.828427124746186 12.82842712474619 14.0
    vertex 3.464101615137748 11.99999999999999 0.0
    vertex 3.464101615137748 11.99999999999999 14.0
  endloop
endfacet
facet normal -0.79335334029124 -0.6087614290087144 0.0
  outer loop
    vertex 3.464101615137748 11.99999999999999 0.0
    vertex 2.828427124746186 12.82842712474619 14.0
    vertex 2.828427124746186 12.82842712474619 0.0
  endloop
endfacet
facet normal -0.1305261922200309 -0.9914448613738132 0.0
  outer loop
    vertex 1.0352761804100798 13.863703305156282 14.0
    vertex 0.0 13.999999999999986 0.0
    vertex 1.0352761804100798 13.863703305156282 0.0
  endloop
endfacet
facet normal -0.1305261922200309 -0.9914448613738132 0.0
  outer loop
    vertex 0.0 13.999999999999986 0.0
    vertex 1.0352761804100798 13.863703305156282 14.0
    vertex 0.0 13.999999999999986 14.0
  endloop
endfacet
facet normal 0.13052619222003126 -0.9914448613738132 0.0
  outer loop
    vertex 0.0 13.999999999999986 14.0
    vertex -1.035276180410077 13.863703305156282 0.0
    vertex 0.0 13.999999999999986 0.0
  endloop
endfacet
facet normal 0.13052619222003126 -0.9914448613738132 0.0
  outer loop
    vertex -1.035276180410077 13.863703305156282 0.0
    vertex 0.0 13.999999999999986 14.0
    vertex -1.035276180410077 13.863703305156282 14.0
  endloop
endfacet
facet normal 0.793353340291236 0.6087614290087195 -0.0
  outer loop
    vertex -3.4641016151377597 7.9999999999999964 0.0
    vertex -2.8284271247461885 7.171572875253796 14.0
    vertex -2.8284271247461885 7.171572875253796 0.0
  endloop
endfacet
facet normal 0.793353340291236 0.6087614290087195 -0.0
  outer loop
    vertex -2.8284271247461885 7.171572875253796 14.0
    vertex -3.4641016151377597 7.9999999999999964 0.0
    vertex -3.4641016151377597 7.9999999999999964 14.0
  endloop
endfacet
facet normal -0.3826834323650821 0.92387953251129 -0.0
  outer loop
    vertex 1.0352761804100798 6.13629669484375 14.0
    vertex 1.9999999999999962 6.535898384862259 0.0
    vertex 1.0352761804100798 6.13629669484375 0.0
  endloop
endfacet
facet normal -0.3826834323650821 0.92387953251129 -0.0
  outer loop
    vertex 1.9999999999999962 6.535898384862259 0.0
    vertex 1.0352761804100798 6.13629669484375 14.0
    vertex 1.9999999999999962 6.535898384862259 14.0
  endloop
endfacet
facet normal -0.1305261922200734 0.9914448613738077 -0.0
  outer loop
    vertex 0.0 6.0 14.0
    vertex 1.0352761804100798 6.13629669484375 0.0
    vertex 0.0 6.0 0.0
  endloop
endfacet
facet normal -0.1305261922200734 0.9914448613738077 -0.0
  outer loop
    vertex 1.0352761804100798 6.13629669484375 0.0
    vertex 0.0 6.0 14.0
    vertex 1.0352761804100798 6.13629669484375 14.0
  endloop
endfacet
facet normal -0.9238795325112884 0.38268343236508595 0.0
  outer loop
    vertex 3.8637033051562573 8.964723819589901 14.0
    vertex 3.464101615137748 7.9999999999999964 0.0
    vertex 3.464101615137748 7.9999999999999964 14.0
  endloop
endfacet
facet normal -0.9238795325112884 0.38268343236508595 0.0
  outer loop
    vertex 3.464101615137748 7.9999999999999964 0.0
    vertex 3.8637033051562573 8.964723819589901 14.0
    vertex 3.8637033051562573 8.964723819589901 0.0
  endloop
endfacet
facet normal -0.9914448613738105 0.13052619222005077 0.0
  outer loop
    vertex 3.999999999999984 9.999999999999993 14.0
    vertex 3.8637033051562573 8.964723819589901 0.0
    vertex 3.8637033051562573 8.964723819589901 14.0
  endloop
endfacet
facet normal -0.9914448613738105 0.13052619222005077 0.0
  outer loop
    vertex 3.8637033051562573 8.964723819589901 0.0
    vertex 3.999999999999984 9.999999999999993 14.0
    vertex 3.999999999999984 9.999999999999993 0.0
  endloop
endfacet
facet normal 0.9914448613738105 0.13052619222005077 -0.0
  outer loop
    vertex -3.9999999999999956 9.999999999999993 0.0
    vertex -3.8637033051562684 8.964723819589901 14.0
    vertex -3.8637033051562684 8.964723819589901 0.0
  endloop
endfacet
facet normal 0.9914448613738105 0.13052619222005077 -0.0
  outer loop
    vertex -3.8637033051562684 8.964723819589901 14.0
    vertex -3.9999999999999956 9.999999999999993 0.0
    vertex -3.9999999999999956 9.999999999999993 14.0
  endloop
endfacet
facet normal 0.9238795325112884 0.38268343236508595 -0.0
  outer loop
    vertex -3.8637033051562684 8.964723819589901 0.0
    vertex -3.4641016151377597 7.9999999999999964 14.0
    vertex -3.4641016151377597 7.9999999999999964 0.0
  endloop
endfacet
facet normal 0.9238795325112884 0.38268343236508595 -0.0
  outer loop
    vertex -3.4641016151377597 7.9999999999999964 14.0
    vertex -3.8637033051562684 8.964723819589901 0.0
    vertex -3.8637033051562684 8.964723819589901 14.0
  endloop
endfacet
facet normal -0.79335334029124 0.6087614290087144 0.0
  outer loop
    vertex 3.464101615137748 7.9999999999999964 14.0
    vertex 2.828427124746186 7.171572875253796 0.0
    vertex 2.828427124746186 7.171572875253796 14.0
  endloop
endfacet
facet normal -0.79335334029124 0.6087614290087144 0.0
  outer loop
    vertex 2.828427124746186 7.171572875253796 0.0
    vertex 3.464101615137748 7.9999999999999964 14.0
    vertex 3.464101615137748 7.9999999999999964 0.0
  endloop
endfacet
facet normal -0.6087614290087043 0.7933533402912477 -0.0
  outer loop
    vertex 1.9999999999999962 6.535898384862259 14.0
    vertex 2.828427124746186 7.171572875253796 0.0
    vertex 1.9999999999999962 6.535898384862259 0.0
  endloop
endfacet
facet normal -0.6087614290087043 0.7933533402912477 -0.0
  outer loop
    vertex 2.828427124746186 7.171572875253796 0.0
    vertex 1.9999999999999962 6.535898384862259 14.0
    vertex 2.828427124746186 7.171572875253796 14.0
  endloop
endfacet
facet normal 0.793353340291236 -0.6087614290087195 -0.0
  outer loop
    vertex -2.8284271247461885 12.82842712474619 0.0
    vertex -3.4641016151377597 11.99999999999999 14.0
    vertex -3.4641016151377597 11.99999999999999 0.0
  endloop
endfacet
facet normal 0.793353340291236 -0.6087614290087195 -0.0
  outer loop
    vertex -3.4641016151377597 11.99999999999999 14.0
    vertex -2.8284271247461885 12.82842712474619 0.0
    vertex -2.8284271247461885 12.82842712474619 14.0
  endloop
endfacet
facet normal 0.6087614290087263 -0.793353340291231 0.0
  outer loop
    vertex -1.9999999999999878 13.464101615137773 14.0
    vertex -2.8284271247461885 12.82842712474619 0.0
    vertex -1.9999999999999878 13.464101615137773 0.0
  endloop
endfacet
facet normal 0.6087614290087263 -0.793353340291231 0.0
  outer loop
    vertex -2.8284271247461885 12.82842712474619 0.0
    vertex -1.9999999999999878 13.464101615137773 14.0
    vertex -2.8284271247461885 12.82842712474619 14.0
  endloop
endfacet
facet normal 0.382683432365084 -0.9238795325112892 0.0
  outer loop
    vertex -1.035276180410077 13.863703305156282 14.0
    vertex -1.9999999999999878 13.464101615137773 0.0
    vertex -1.035276180410077 13.863703305156282 0.0
  endloop
endfacet
facet normal 0.382683432365084 -0.9238795325112892 0.0
  outer loop
    vertex -1.9999999999999878 13.464101615137773 0.0
    vertex -1.035276180410077 13.863703305156282 14.0
    vertex -1.9999999999999878 13.464101615137773 14.0
  endloop
endfacet
facet normal 0.9238795325112884 -0.38268343236508595 -0.0
  outer loop
    vertex -3.4641016151377597 11.99999999999999 0.0
    vertex -3.8637033051562684 11.035276180410085 14.0
    vertex -3.8637033051562684 11.035276180410085 0.0
  endloop
endfacet
facet normal 0.9238795325112884 -0.38268343236508595 -0.0
  outer loop
    vertex -3.8637033051562684 11.035276180410085 14.0
    vertex -3.4641016151377597 11.99999999999999 0.0
    vertex -3.4641016151377597 11.99999999999999 14.0
  endloop
endfacet
facet normal 0.9914448613738105 -0.13052619222005077 -0.0
  outer loop
    vertex -3.8637033051562684 11.035276180410085 0.0
    vertex -3.9999999999999956 9.999999999999993 14.0
    vertex -3.9999999999999956 9.999999999999993 0.0
  endloop
endfacet
facet normal 0.9914448613738105 -0.13052619222005077 -0.0
  outer loop
    vertex -3.9999999999999956 9.999999999999993 14.0
    vertex -3.8637033051562684 11.035276180410085 0.0
    vertex -3.8637033051562684 11.035276180410085 14.0
  endloop
endfacet
facet normal 0.13052619222004821 -0.9914448613738109 0.0
  outer loop
    vertex 2.5881904510251936 0.3407417371093062 85.99999999999999
    vertex 0.0 0.0 0.0
    vertex 2.5881904510251936 0.3407417371093062 0.0
  endloop
endfacet
facet normal 0.13052619222004821 -0.9914448613738109 0.0
  outer loop
    vertex 0.0 0.0 0.0
    vertex 2.5881904510251936 0.3407417371093062 85.99999999999999
    vertex 0.0 0.0 85.99999999999999
  endloop
endfacet
facet normal 0.3826834323650973 -0.9238795325112839 0.0
  outer loop
    vertex 4.999999999999982 1.3397459621556238 85.99999999999999
    vertex 2.5881904510251936 0.3407417371093062 0.0
    vertex 4.999999999999982 1.3397459621556238 0.0
  endloop
endfacet
facet normal 0.3826834323650973 -0.9238795325112839 0.0
  outer loop
    vertex 2.5881904510251936 0.3407417371093062 0.0
    vertex 4.999999999999982 1.3397459621556238 85.99999999999999
    vertex 2.5881904510251936 0.3407417371093062 85.99999999999999
  endloop
endfacet
facet normal 0.7933533402912366 -0.6087614290087188 3.7099136484349366e-19
  outer loop
    vertex 8.6602540378444 5.000000000000025 0.0
    vertex 7.0710678118654675 2.928932188134511 90.99999999999999
    vertex 7.0710678118654675 2.928932188134511 0.0
  endloop
endfacet
facet normal 0.7933533402912366 -0.6087614290087188 3.7099136484349366e-19
  outer loop
    vertex 7.0710678118654675 2.928932188134511 90.99999999999999
    vertex 8.6602540378444 5.000000000000025 0.0
    vertex 8.6602540378444 5.000000000000025 90.99999999999999
  endloop
endfacet
facet normal 0.7933533402912366 -0.6087614290087188 3.7099136484349366e-19
  outer loop
    vertex 8.6602540378444 5.000000000000025 90.99999999999999
    vertex 8.6602540378444 5.000000000000025 0.0
    vertex 8.6602540378444 5.000000000000025 85.99999999999999
  endloop
endfacet
facet normal 0.6087614290087131 -0.7933533402912409 -7.419827296870116e-19
  outer loop
    vertex 7.0710678118654675 2.928932188134511 90.99999999999999
    vertex 4.999999999999982 1.3397459621556238 0.0
    vertex 7.0710678118654675 2.928932188134511 0.0
  endloop
endfacet
facet normal 0.6087614290087131 -0.7933533402912409 -7.419827296870116e-19
  outer loop
    vertex 4.999999999999982 1.3397459621556238 0.0
    vertex 7.0710678118654675 2.928932188134511 90.99999999999999
    vertex 4.999999999999982 1.3397459621556238 85.99999999999999
  endloop
endfacet
facet normal 0.6087614290087131 -0.7933533402912409 -7.419827296870116e-19
  outer loop
    vertex 4.999999999999982 1.3397459621556238 85.99999999999999
    vertex 7.0710678118654675 2.928932188134511 90.99999999999999
    vertex 4.999999999999982 1.3397459621556238 90.99999999999999
  endloop
endfacet
facet normal 0.9238795325112854 -0.3826834323650934 -0.0
  outer loop
    vertex 9.659258262890695 7.411809548974788 0.0
    vertex 8.6602540378444 5.000000000000025 85.99999999999999
    vertex 8.6602540378444 5.000000000000025 0.0
  endloop
endfacet
facet normal 0.9238795325112854 -0.3826834323650934 -0.0
  outer loop
    vertex 8.6602540378444 5.000000000000025 85.99999999999999
    vertex 9.659258262890695 7.411809548974788 0.0
    vertex 9.659258262890695 7.411809548974788 85.99999999999999
  endloop
endfacet
facet normal -0.1305261922200469 -0.9914448613738112 0.0
  outer loop
    vertex 0.0 0.0 85.99999999999999
    vertex -2.5881904510252194 0.3407417371093062 0.0
    vertex 0.0 0.0 0.0
  endloop
endfacet
facet normal -0.1305261922200469 -0.9914448613738112 0.0
  outer loop
    vertex -2.5881904510252194 0.3407417371093062 0.0
    vertex 0.0 0.0 85.99999999999999
    vertex -2.5881904510252194 0.3407417371093062 85.99999999999999
  endloop
endfacet
facet normal -0.3826834323650976 -0.9238795325112835 0.0
  outer loop
    vertex -2.5881904510252194 0.3407417371093062 85.99999999999999
    vertex -5.000000000000005 1.3397459621556238 0.0
    vertex -2.5881904510252194 0.3407417371093062 0.0
  endloop
endfacet
facet normal -0.3826834323650976 -0.9238795325112835 0.0
  outer loop
    vertex -5.000000000000005 1.3397459621556238 0.0
    vertex -2.5881904510252194 0.3407417371093062 85.99999999999999
    vertex -5.000000000000005 1.3397459621556238 85.99999999999999
  endloop
endfacet
facet normal 0.9238795325112867 0.38268343236509034 -0.0
  outer loop
    vertex 8.6602540378444 14.999999999999984 0.0
    vertex 9.659258262890695 12.588190451025199 85.99999999999999
    vertex 9.659258262890695 12.588190451025199 0.0
  endloop
endfacet
facet normal 0.9238795325112867 0.38268343236509034 -0.0
  outer loop
    vertex 9.659258262890695 12.588190451025199 85.99999999999999
    vertex 8.6602540378444 14.999999999999984 0.0
    vertex 8.6602540378444 14.999999999999984 85.99999999999999
  endloop
endfacet
facet normal 0.9914448613738109 -0.13052619222004763 -0.0
  outer loop
    vertex 10.000000000000002 9.999999999999993 0.0
    vertex 9.659258262890695 7.411809548974788 85.99999999999999
    vertex 9.659258262890695 7.411809548974788 0.0
  endloop
endfacet
facet normal 0.9914448613738109 -0.13052619222004763 -0.0
  outer loop
    vertex 9.659258262890695 7.411809548974788 85.99999999999999
    vertex 10.000000000000002 9.999999999999993 0.0
    vertex 10.000000000000002 9.999999999999993 85.99999999999999
  endloop
endfacet
facet normal 0.9914448613738109 0.13052619222004763 -0.0
  outer loop
    vertex 9.659258262890695 12.588190451025199 0.0
    vertex 10.000000000000002 9.999999999999993 85.99999999999999
    vertex 10.000000000000002 9.999999999999993 0.0
  endloop
endfacet
facet normal 0.9914448613738109 0.13052619222004763 -0.0
  outer loop
    vertex 10.000000000000002 9.999999999999993 85.99999999999999
    vertex 9.659258262890695 12.588190451025199 0.0
    vertex 9.659258262890695 12.588190451025199 85.99999999999999
  endloop
endfacet
facet normal 0.6087614290087172 0.7933533402912377 -7.419827296870246e-19
  outer loop
    vertex 5.000000000000005 18.660254037844414 85.99999999999999
    vertex 7.0710678118654675 17.071067811865525 0.0
    vertex 5.000000000000005 18.660254037844414 0.0
  endloop
endfacet
facet normal 0.6087614290087172 0.7933533402912377 -7.419827296870246e-19
  outer loop
    vertex 7.0710678118654675 17.071067811865525 0.0
    vertex 5.000000000000005 18.660254037844414 85.99999999999999
    vertex 7.0710678118654675 17.071067811865525 90.99999999999999
  endloop
endfacet
facet normal 0.6087614290087172 0.7933533402912377 -7.419827296870246e-19
  outer loop
    vertex 7.0710678118654675 17.071067811865525 90.99999999999999
    vertex 5.000000000000005 18.660254037844414 85.99999999999999
    vertex 5.000000000000005 18.660254037844414 90.99999999999999
  endloop
endfacet
facet normal -0.6087614290087162 -0.7933533402912386 -3.709913648435107e-19
  outer loop
    vertex -5.000000000000005 1.3397459621556238 85.99999999999999
    vertex -7.071067811865473 2.928932188134511 0.0
    vertex -5.000000000000005 1.3397459621556238 0.0
  endloop
endfacet
facet normal -0.6087614290087162 -0.7933533402912386 -3.709913648435107e-19
  outer loop
    vertex -7.071067811865473 2.928932188134511 0.0
    vertex -5.000000000000005 1.3397459621556238 85.99999999999999
    vertex -7.071067811865473 2.928932188134511 90.99999999999999
  endloop
endfacet
facet normal -0.6087614290087162 -0.7933533402912386 -3.709913648435107e-19
  outer loop
    vertex -7.071067811865473 2.928932188134511 90.99999999999999
    vertex -5.000000000000005 1.3397459621556238 85.99999999999999
    vertex -5.000000000000005 1.3397459621556238 90.99999999999999
  endloop
endfacet
facet normal -0.7933533402912408 -0.6087614290087134 0.0
  outer loop
    vertex -8.660254037844384 5.000000000000025 90.99999999999999
    vertex -7.071067811865473 2.928932188134511 0.0
    vertex -7.071067811865473 2.928932188134511 90.99999999999999
  endloop
endfacet
facet normal -0.7933533402912408 -0.6087614290087134 0.0
  outer loop
    vertex -7.071067811865473 2.928932188134511 0.0
    vertex -8.660254037844384 5.000000000000025 90.99999999999999
    vertex -8.660254037844384 5.000000000000025 0.0
  endloop
endfacet
facet normal -0.7933533402912408 -0.6087614290087134 0.0
  outer loop
    vertex -8.660254037844384 5.000000000000025 0.0
    vertex -8.660254037844384 5.000000000000025 90.99999999999999
    vertex -8.660254037844384 5.000000000000025 85.99999999999999
  endloop
endfacet
facet normal -0.9238795325112868 -0.38268343236508967 0.0
  outer loop
    vertex -9.659258262890667 7.411809548974788 85.99999999999999
    vertex -8.660254037844384 5.000000000000025 0.0
    vertex -8.660254037844384 5.000000000000025 85.99999999999999
  endloop
endfacet
facet normal -0.9238795325112868 -0.38268343236508967 0.0
  outer loop
    vertex -8.660254037844384 5.000000000000025 0.0
    vertex -9.659258262890667 7.411809548974788 85.99999999999999
    vertex -9.659258262890667 7.411809548974788 0.0
  endloop
endfacet
facet normal 0.7933533402912408 0.6087614290087136 3.7099136484348553e-19
  outer loop
    vertex 7.0710678118654675 17.071067811865525 0.0
    vertex 8.6602540378444 14.999999999999984 85.99999999999999
    vertex 8.6602540378444 14.999999999999984 0.0
  endloop
endfacet
facet normal 0.7933533402912408 0.6087614290087136 3.7099136484348553e-19
  outer loop
    vertex 8.6602540378444 14.999999999999984 85.99999999999999
    vertex 7.0710678118654675 17.071067811865525 0.0
    vertex 8.6602540378444 14.999999999999984 90.99999999999999
  endloop
endfacet
facet normal 0.7933533402912408 0.6087614290087136 3.7099136484348553e-19
  outer loop
    vertex 8.6602540378444 14.999999999999984 90.99999999999999
    vertex 7.0710678118654675 17.071067811865525 0.0
    vertex 7.0710678118654675 17.071067811865525 90.99999999999999
  endloop
endfacet
facet normal -0.6087614290087163 0.7933533402912385 3.709913648435107e-19
  outer loop
    vertex -7.071067811865473 17.071067811865525 90.99999999999999
    vertex -5.000000000000005 18.660254037844414 0.0
    vertex -7.071067811865473 17.071067811865525 0.0
  endloop
endfacet
facet normal -0.6087614290087163 0.7933533402912385 3.709913648435107e-19
  outer loop
    vertex -5.000000000000005 18.660254037844414 0.0
    vertex -7.071067811865473 17.071067811865525 90.99999999999999
    vertex -5.000000000000005 18.660254037844414 85.99999999999999
  endloop
endfacet
facet normal -0.6087614290087163 0.7933533402912385 3.709913648435107e-19
  outer loop
    vertex -5.000000000000005 18.660254037844414 85.99999999999999
    vertex -7.071067811865473 17.071067811865525 90.99999999999999
    vertex -5.000000000000005 18.660254037844414 90.99999999999999
  endloop
endfacet
facet normal -0.3826834323650961 0.9238795325112843 -0.0
  outer loop
    vertex -5.000000000000005 18.660254037844414 85.99999999999999
    vertex -2.588190451025208 19.65925826289073 0.0
    vertex -5.000000000000005 18.660254037844414 0.0
  endloop
endfacet
facet normal -0.3826834323650961 0.9238795325112843 -0.0
  outer loop
    vertex -2.588190451025208 19.65925826289073 0.0
    vertex -5.000000000000005 18.660254037844414 85.99999999999999
    vertex -2.588190451025208 19.65925826289073 85.99999999999999
  endloop
endfacet
facet normal -0.130526192220056 0.9914448613738098 -0.0
  outer loop
    vertex -2.588190451025208 19.65925826289073 85.99999999999999
    vertex 0.0 20.00000000000006 0.0
    vertex -2.588190451025208 19.65925826289073 0.0
  endloop
endfacet
facet normal -0.130526192220056 0.9914448613738098 -0.0
  outer loop
    vertex 0.0 20.00000000000006 0.0
    vertex -2.588190451025208 19.65925826289073 85.99999999999999
    vertex 0.0 20.00000000000006 85.99999999999999
  endloop
endfacet
facet normal -0.9914448613738105 -0.13052619222005185 0.0
  outer loop
    vertex -9.999999999999984 9.999999999999993 85.99999999999999
    vertex -9.659258262890667 7.411809548974788 0.0
    vertex -9.659258262890667 7.411809548974788 85.99999999999999
  endloop
endfacet
facet normal -0.9914448613738105 -0.13052619222005185 0.0
  outer loop
    vertex -9.659258262890667 7.411809548974788 0.0
    vertex -9.999999999999984 9.999999999999993 85.99999999999999
    vertex -9.999999999999984 9.999999999999993 0.0
  endloop
endfacet
facet normal 0.13052619222005613 0.9914448613738098 -0.0
  outer loop
    vertex 0.0 20.00000000000006 85.99999999999999
    vertex 2.588190451025205 19.65925826289073 0.0
    vertex 0.0 20.00000000000006 0.0
  endloop
endfacet
facet normal 0.13052619222005613 0.9914448613738098 -0.0
  outer loop
    vertex 2.588190451025205 19.65925826289073 0.0
    vertex 0.0 20.00000000000006 85.99999999999999
    vertex 2.588190451025205 19.65925826289073 85.99999999999999
  endloop
endfacet
facet normal -0.7933533402912447 0.6087614290087081 -3.709913648434874e-19
  outer loop
    vertex -7.071067811865473 17.071067811865525 90.99999999999999
    vertex -8.660254037844384 14.999999999999984 85.99999999999999
    vertex -8.660254037844384 14.999999999999984 90.99999999999999
  endloop
endfacet
facet normal -0.7933533402912447 0.6087614290087081 -3.709913648434874e-19
  outer loop
    vertex -8.660254037844384 14.999999999999984 85.99999999999999
    vertex -7.071067811865473 17.071067811865525 90.99999999999999
    vertex -8.660254037844384 14.999999999999984 0.0
  endloop
endfacet
facet normal -0.7933533402912447 0.6087614290087081 -3.709913648434874e-19
  outer loop
    vertex -8.660254037844384 14.999999999999984 0.0
    vertex -7.071067811865473 17.071067811865525 90.99999999999999
    vertex -7.071067811865473 17.071067811865525 0.0
  endloop
endfacet
facet normal 0.3826834323650958 0.9238795325112845 -0.0
  outer loop
    vertex 2.588190451025205 19.65925826289073 85.99999999999999
    vertex 5.000000000000005 18.660254037844414 0.0
    vertex 2.588190451025205 19.65925826289073 0.0
  endloop
endfacet
facet normal 0.3826834323650958 0.9238795325112845 -0.0
  outer loop
    vertex 5.000000000000005 18.660254037844414 0.0
    vertex 2.588190451025205 19.65925826289073 85.99999999999999
    vertex 5.000000000000005 18.660254037844414 85.99999999999999
  endloop
endfacet
facet normal -0.9914448613738105 0.13052619222005185 0.0
  outer loop
    vertex -9.659258262890667 12.588190451025199 85.99999999999999
    vertex -9.999999999999984 9.999999999999993 0.0
    vertex -9.999999999999984 9.999999999999993 85.99999999999999
  endloop
endfacet
facet normal -0.9914448613738105 0.13052619222005185 0.0
  outer loop
    vertex -9.999999999999984 9.999999999999993 0.0
    vertex -9.659258262890667 12.588190451025199 85.99999999999999
    vertex -9.659258262890667 12.588190451025199 0.0
  endloop
endfacet
facet normal -0.9238795325112881 0.3826834323650866 0.0
  outer loop
    vertex -8.660254037844384 14.999999999999984 85.99999999999999
    vertex -9.659258262890667 12.588190451025199 0.0
    vertex -9.659258262890667 12.588190451025199 85.99999999999999
  endloop
endfacet
facet normal -0.9238795325112881 0.3826834323650866 0.0
  outer loop
    vertex -9.659258262890667 12.588190451025199 0.0
    vertex -8.660254037844384 14.999999999999984 85.99999999999999
    vertex -8.660254037844384 14.999999999999984 0.0
  endloop
endfacet
facet normal -0.0 -0.0 1.0
  outer loop
    vertex -5.795603624476452 8.447580785429388 83.0
    vertex -5.79550628529973 11.553409325134307 83.0
    vertex -5.999999997053274 10.00050146275471 83.0
  endloop
endfacet
facet normal -0.0 -0.0 1.0
  outer loop
    vertex -5.79550628529973 11.553409325134307 83.0
    vertex -5.795603624476452 8.447580785429388 83.0
    vertex -5.1962464425794 7.0004762709953186 83.0
  endloop
endfacet
facet normal -0.0 -0.0 1.0
  outer loop
    vertex -5.79550628529973 11.553409325134307 83.0
    vertex -5.1962464425794 7.0004762709953186 83.0
    vertex -5.196058397729985 13.000476268048578 83.0
  endloop
endfacet
facet normal -0.0 -0.0 1.0
  outer loop
    vertex -5.196058397729985 13.000476268048578 83.0
    vertex -5.1962464425794 7.0004762709953186 83.0
    vertex -4.242773652823834 5.757805700657859 83.0
  endloop
endfacet
facet normal -0.0 -0.0 1.0
  outer loop
    vertex -5.196058397729985 13.000476268048578 83.0
    vertex -4.242773652823834 5.757805700657859 83.0
    vertex -4.24250771724744 14.243087070729127 83.0
  endloop
endfacet
facet normal -0.0 -0.0 1.0
  outer loop
    vertex -4.24250771724744 14.243087070729127 83.0
    vertex -4.242773652823834 5.757805700657859 83.0
    vertex -3.255246120995279 5.000000000000025 83.0
  endloop
endfacet
facet normal -0.0 -0.0 1.0
  outer loop
    vertex -4.24250771724744 14.243087070729127 83.0
    vertex -3.255246120995279 5.000000000000025 83.0
    vertex -2.999837146909991 15.196559860484705 83.0
  endloop
endfacet
facet normal -0.0 -0.0 1.0
  outer loop
    vertex -2.999837146909991 15.196559860484705 83.0
    vertex -3.255246120995279 5.000000000000025 83.0
    vertex -3.000162850143285 4.804255020175348 83.0
  endloop
endfacet
facet normal -0.0 -0.0 1.0
  outer loop
    vertex -2.999837146909991 15.196559860484705 83.0
    vertex -3.000162850143285 4.804255020175348 83.0
    vertex -1.5530959072290091 4.204807132605603 83.0
  endloop
endfacet
facet normal -0.0 -0.0 1.0
  outer loop
    vertex -2.999837146909991 15.196559860484705 83.0
    vertex -1.5530959072290091 4.204807132605603 83.0
    vertex -1.5527326324759048 15.795917042381738 83.0
  endloop
endfacet
facet normal -0.0 -0.0 1.0
  outer loop
    vertex -1.5527326324759048 15.795917042381738 83.0
    vertex -1.5530959072290091 4.204807132605603 83.0
    vertex -0.0001880448494270048 4.000313420852059 83.0
  endloop
endfacet
facet normal -0.0 -0.0 1.0
  outer loop
    vertex -1.5527326324759048 15.795917042381738 83.0
    vertex -0.0001880448494270048 4.000313420852059 83.0
    vertex 0.00018804484941572496 16.00031341495855 83.0
  endloop
endfacet
facet normal -0.0 -0.0 1.0
  outer loop
    vertex 0.00018804484941572496 16.00031341495855 83.0
    vertex -0.0001880448494270048 4.000313420852059 83.0
    vertex 1.5527326324758963 4.2047097934288695 83.0
  endloop
endfacet
facet normal -0.0 -0.0 1.0
  outer loop
    vertex 0.00018804484941572496 16.00031341495855 83.0
    vertex 1.5527326324758963 4.2047097934288695 83.0
    vertex 1.5530959072290007 15.795819703205005 83.0
  endloop
endfacet
facet normal -0.0 -0.0 1.0
  outer loop
    vertex 1.5530959072290007 15.795819703205005 83.0
    vertex 1.5527326324758963 4.2047097934288695 83.0
    vertex 2.999837146909977 4.804066975325933 83.0
  endloop
endfacet
facet normal -0.0 -0.0 1.0
  outer loop
    vertex 1.5530959072290007 15.795819703205005 83.0
    vertex 2.999837146909977 4.804066975325933 83.0
    vertex 3.0001628501432713 15.196371815635267 83.0
  endloop
endfacet
facet normal -0.0 -0.0 1.0
  outer loop
    vertex 3.0001628501432713 15.196371815635267 83.0
    vertex 2.999837146909977 4.804066975325933 83.0
    vertex 3.255198606760468 5.000000000000025 83.0
  endloop
endfacet
facet normal -0.0 -0.0 1.0
  outer loop
    vertex 3.0001628501432713 15.196371815635267 83.0
    vertex 3.255198606760468 5.000000000000025 83.0
    vertex 4.242773652823822 14.242821135152733 83.0
  endloop
endfacet
facet normal -0.0 -0.0 1.0
  outer loop
    vertex 4.242773652823822 14.242821135152733 83.0
    vertex 3.255198606760468 5.000000000000025 83.0
    vertex 4.242507717247428 5.757539765081465 83.0
  endloop
endfacet
facet normal -0.0 -0.0 1.0
  outer loop
    vertex 4.242773652823822 14.242821135152733 83.0
    vertex 4.242507717247428 5.757539765081465 83.0
    vertex 5.196058397729962 7.000150567762013 83.0
  endloop
endfacet
facet normal -0.0 -0.0 1.0
  outer loop
    vertex 4.242773652823822 14.242821135152733 83.0
    vertex 5.196058397729962 7.000150567762013 83.0
    vertex 5.196246442579378 13.000150564815273 83.0
  endloop
endfacet
facet normal -0.0 -0.0 1.0
  outer loop
    vertex 5.196246442579378 13.000150564815273 83.0
    vertex 5.196058397729962 7.000150567762013 83.0
    vertex 5.795506285299712 8.447217510676284 83.0
  endloop
endfacet
facet normal -0.0 -0.0 1.0
  outer loop
    vertex 5.196246442579378 13.000150564815273 83.0
    vertex 5.795506285299712 8.447217510676284 83.0
    vertex 5.795603624476446 11.553046050381203 83.0
  endloop
endfacet
facet normal -0.0 -0.0 1.0
  outer loop
    vertex 5.795603624476446 11.553046050381203 83.0
    vertex 5.795506285299712 8.447217510676284 83.0
    vertex 5.999999997053257 10.00012537305588 83.0
  endloop
endfacet
facet normal -0.6087365643748248 0.7933724189768225 -0.0
  outer loop
    vertex 3.255198606760468 5.000000000000025 85.99999999999999
    vertex 4.242507717247428 5.757539765081465 83.0
    vertex 3.255198606760468 5.000000000000025 83.0
  endloop
endfacet
facet normal -0.6087365643748248 0.7933724189768225 -0.0
  outer loop
    vertex 4.242507717247428 5.757539765081465 83.0
    vertex 3.255198606760468 5.000000000000025 85.99999999999999
    vertex 4.242507717247428 5.757539765081465 85.99999999999999
  endloop
endfacet
facet normal -0.7933342608263959 0.6087862930446415 0.0
  outer loop
    vertex 5.196058397729962 7.000150567762013 85.99999999999999
    vertex 4.242507717247428 5.757539765081465 83.0
    vertex 4.242507717247428 5.757539765081465 85.99999999999999
  endloop
endfacet
facet normal -0.7933342608263959 0.6087862930446415 0.0
  outer loop
    vertex 4.242507717247428 5.757539765081465 83.0
    vertex 5.196058397729962 7.000150567762013 85.99999999999999
    vertex 5.196058397729962 7.000150567762013 83.0
  endloop
endfacet
facet normal -0.9238675384494774 0.38271238730841123 0.0
  outer loop
    vertex 5.795506285299712 8.447217510676284 85.99999999999999
    vertex 5.196058397729962 7.000150567762013 83.0
    vertex 5.196058397729962 7.000150567762013 85.99999999999999
  endloop
endfacet
facet normal -0.9238675384494774 0.38271238730841123 0.0
  outer loop
    vertex 5.196058397729962 7.000150567762013 83.0
    vertex 5.795506285299712 8.447217510676284 85.99999999999999
    vertex 5.795506285299712 8.447217510676284 83.0
  endloop
endfacet
facet normal -0.991440770090529 0.13055726483922267 0.0
  outer loop
    vertex 5.999999997053257 10.00012537305588 85.99999999999999
    vertex 5.795506285299712 8.447217510676284 83.0
    vertex 5.795506285299712 8.447217510676284 85.99999999999999
  endloop
endfacet
facet normal -0.991440770090529 0.13055726483922267 0.0
  outer loop
    vertex 5.795506285299712 8.447217510676284 83.0
    vertex 5.999999997053257 10.00012537305588 85.99999999999999
    vertex 5.999999997053257 10.00012537305588 83.0
  endloop
endfacet
facet normal -0.99144895168325 -0.13049511947266357 0.0
  outer loop
    vertex 5.795603624476446 11.553046050381203 85.99999999999999
    vertex 5.999999997053257 10.00012537305588 83.0
    vertex 5.999999997053257 10.00012537305588 85.99999999999999
  endloop
endfacet
facet normal -0.99144895168325 -0.13049511947266357 0.0
  outer loop
    vertex 5.999999997053257 10.00012537305588 83.0
    vertex 5.795603624476446 11.553046050381203 85.99999999999999
    vertex 5.795603624476446 11.553046050381203 83.0
  endloop
endfacet
facet normal -0.923891525665612 -0.38265447704589617 0.0
  outer loop
    vertex 5.196246442579378 13.000150564815273 85.99999999999999
    vertex 5.795603624476446 11.553046050381203 83.0
    vertex 5.795603624476446 11.553046050381203 85.99999999999999
  endloop
endfacet
facet normal -0.923891525665612 -0.38265447704589617 0.0
  outer loop
    vertex 5.795603624476446 11.553046050381203 83.0
    vertex 5.196246442579378 13.000150564815273 85.99999999999999
    vertex 5.196246442579378 13.000150564815273 83.0
  endloop
endfacet
facet normal -0.7933724189768168 -0.6087365643748324 0.0
  outer loop
    vertex 4.242773652823822 14.242821135152733 85.99999999999999
    vertex 5.196246442579378 13.000150564815273 83.0
    vertex 5.196246442579378 13.000150564815273 85.99999999999999
  endloop
endfacet
facet normal -0.7933724189768168 -0.6087365643748324 0.0
  outer loop
    vertex 5.196246442579378 13.000150564815273 83.0
    vertex 4.242773652823822 14.242821135152733 85.99999999999999
    vertex 4.242773652823822 14.242821135152733 83.0
  endloop
endfacet
facet normal -0.6087862930446406 -0.7933342608263965 0.0
  outer loop
    vertex 4.242773652823822 14.242821135152733 85.99999999999999
    vertex 3.0001628501432713 15.196371815635267 83.0
    vertex 4.242773652823822 14.242821135152733 83.0
  endloop
endfacet
facet normal -0.6087862930446406 -0.7933342608263965 0.0
  outer loop
    vertex 3.0001628501432713 15.196371815635267 83.0
    vertex 4.242773652823822 14.242821135152733 85.99999999999999
    vertex 3.0001628501432713 15.196371815635267 85.99999999999999
  endloop
endfacet
facet normal -0.38271238730840507 -0.9238675384494801 0.0
  outer loop
    vertex 3.0001628501432713 15.196371815635267 85.99999999999999
    vertex 1.5530959072290007 15.795819703205005 83.0
    vertex 3.0001628501432713 15.196371815635267 83.0
  endloop
endfacet
facet normal -0.38271238730840507 -0.9238675384494801 0.0
  outer loop
    vertex 1.5530959072290007 15.795819703205005 83.0
    vertex 3.0001628501432713 15.196371815635267 85.99999999999999
    vertex 1.5530959072290007 15.795819703205005 85.99999999999999
  endloop
endfacet
facet normal -0.1305572648392236 -0.9914407700905288 0.0
  outer loop
    vertex 1.5530959072290007 15.795819703205005 85.99999999999999
    vertex 0.00018804484941572496 16.00031341495855 83.0
    vertex 1.5530959072290007 15.795819703205005 83.0
  endloop
endfacet
facet normal -0.1305572648392236 -0.9914407700905288 0.0
  outer loop
    vertex 0.00018804484941572496 16.00031341495855 83.0
    vertex 1.5530959072290007 15.795819703205005 85.99999999999999
    vertex 0.00018804484941572496 16.00031341495855 85.99999999999999
  endloop
endfacet
facet normal 0.13049511947266382 -0.99144895168325 0.0
  outer loop
    vertex 0.00018804484941572496 16.00031341495855 85.99999999999999
    vertex -1.5527326324759048 15.795917042381738 83.0
    vertex 0.00018804484941572496 16.00031341495855 83.0
  endloop
endfacet
facet normal 0.13049511947266382 -0.99144895168325 0.0
  outer loop
    vertex -1.5527326324759048 15.795917042381738 83.0
    vertex 0.00018804484941572496 16.00031341495855 85.99999999999999
    vertex -1.5527326324759048 15.795917042381738 85.99999999999999
  endloop
endfacet
facet normal 0.38265447704587385 -0.923891525665621 0.0
  outer loop
    vertex -1.5527326324759048 15.795917042381738 85.99999999999999
    vertex -2.999837146909991 15.196559860484705 83.0
    vertex -1.5527326324759048 15.795917042381738 83.0
  endloop
endfacet
facet normal 0.38265447704587385 -0.923891525665621 0.0
  outer loop
    vertex -2.999837146909991 15.196559860484705 83.0
    vertex -1.5527326324759048 15.795917042381738 85.99999999999999
    vertex -2.999837146909991 15.196559860484705 85.99999999999999
  endloop
endfacet
facet normal 0.6087365643748449 -0.7933724189768071 0.0
  outer loop
    vertex -2.999837146909991 15.196559860484705 85.99999999999999
    vertex -4.24250771724744 14.243087070729127 83.0
    vertex -2.999837146909991 15.196559860484705 83.0
  endloop
endfacet
facet normal 0.6087365643748449 -0.7933724189768071 0.0
  outer loop
    vertex -4.24250771724744 14.243087070729127 83.0
    vertex -2.999837146909991 15.196559860484705 85.99999999999999
    vertex -4.24250771724744 14.243087070729127 85.99999999999999
  endloop
endfacet
facet normal 0.7933342608263924 -0.608786293044646 -0.0
  outer loop
    vertex -4.24250771724744 14.243087070729127 83.0
    vertex -5.196058397729985 13.000476268048578 85.99999999999999
    vertex -5.196058397729985 13.000476268048578 83.0
  endloop
endfacet
facet normal 0.7933342608263924 -0.608786293044646 -0.0
  outer loop
    vertex -5.196058397729985 13.000476268048578 85.99999999999999
    vertex -4.24250771724744 14.243087070729127 83.0
    vertex -4.24250771724744 14.243087070729127 85.99999999999999
  endloop
endfacet
facet normal 0.9238675384494788 -0.3827123873084081 -0.0
  outer loop
    vertex -5.196058397729985 13.000476268048578 83.0
    vertex -5.79550628529973 11.553409325134307 85.99999999999999
    vertex -5.79550628529973 11.553409325134307 83.0
  endloop
endfacet
facet normal 0.9238675384494788 -0.3827123873084081 -0.0
  outer loop
    vertex -5.79550628529973 11.553409325134307 85.99999999999999
    vertex -5.196058397729985 13.000476268048578 83.0
    vertex -5.196058397729985 13.000476268048578 85.99999999999999
  endloop
endfacet
facet normal 0.991440770090529 -0.13055726483922267 -0.0
  outer loop
    vertex -5.79550628529973 11.553409325134307 83.0
    vertex -5.999999997053274 10.00050146275471 85.99999999999999
    vertex -5.999999997053274 10.00050146275471 83.0
  endloop
endfacet
facet normal 0.991440770090529 -0.13055726483922267 -0.0
  outer loop
    vertex -5.999999997053274 10.00050146275471 85.99999999999999
    vertex -5.79550628529973 11.553409325134307 83.0
    vertex -5.79550628529973 11.553409325134307 85.99999999999999
  endloop
endfacet
facet normal 0.9914489516832491 0.13049511947267067 -0.0
  outer loop
    vertex -5.999999997053274 10.00050146275471 83.0
    vertex -5.795603624476452 8.447580785429388 85.99999999999999
    vertex -5.795603624476452 8.447580785429388 83.0
  endloop
endfacet
facet normal 0.9914489516832491 0.13049511947267067 -0.0
  outer loop
    vertex -5.795603624476452 8.447580785429388 85.99999999999999
    vertex -5.999999997053274 10.00050146275471 83.0
    vertex -5.999999997053274 10.00050146275471 85.99999999999999
  endloop
endfacet
facet normal 0.9238915256656155 0.38265447704588684 -0.0
  outer loop
    vertex -5.795603624476452 8.447580785429388 83.0
    vertex -5.1962464425794 7.0004762709953186 85.99999999999999
    vertex -5.1962464425794 7.0004762709953186 83.0
  endloop
endfacet
facet normal 0.9238915256656155 0.38265447704588684 -0.0
  outer loop
    vertex -5.1962464425794 7.0004762709953186 85.99999999999999
    vertex -5.795603624476452 8.447580785429388 83.0
    vertex -5.795603624476452 8.447580785429388 85.99999999999999
  endloop
endfacet
facet normal 0.7933724189768133 0.6087365643748368 -0.0
  outer loop
    vertex -5.1962464425794 7.0004762709953186 83.0
    vertex -4.242773652823834 5.757805700657859 85.99999999999999
    vertex -4.242773652823834 5.757805700657859 83.0
  endloop
endfacet
facet normal 0.7933724189768133 0.6087365643748368 -0.0
  outer loop
    vertex -4.242773652823834 5.757805700657859 85.99999999999999
    vertex -5.1962464425794 7.0004762709953186 83.0
    vertex -5.1962464425794 7.0004762709953186 85.99999999999999
  endloop
endfacet
facet normal 0.6087862930446303 0.7933342608264046 -0.0
  outer loop
    vertex -4.242773652823834 5.757805700657859 85.99999999999999
    vertex -3.255246120995279 5.000000000000025 83.0
    vertex -4.242773652823834 5.757805700657859 83.0
  endloop
endfacet
facet normal 0.6087862930446303 0.7933342608264046 -0.0
  outer loop
    vertex -3.255246120995279 5.000000000000025 83.0
    vertex -4.242773652823834 5.757805700657859 85.99999999999999
    vertex -3.255246120995279 5.000000000000025 85.99999999999999
  endloop
endfacet
facet normal 0.6087862930446412 0.7933342608263964 -0.0
  outer loop
    vertex -3.255246120995279 5.000000000000025 85.99999999999999
    vertex -3.000162850143285 4.804255020175348 83.0
    vertex -3.255246120995279 5.000000000000025 83.0
  endloop
endfacet
facet normal 0.6087862930446412 0.7933342608263964 -0.0
  outer loop
    vertex -3.000162850143285 4.804255020175348 83.0
    vertex -3.255246120995279 5.000000000000025 85.99999999999999
    vertex -3.000162850143285 4.804255020175348 85.99999999999999
  endloop
endfacet
facet normal 0.38271238730840695 0.9238675384494793 -0.0
  outer loop
    vertex -3.000162850143285 4.804255020175348 85.99999999999999
    vertex -1.5530959072290091 4.204807132605603 83.0
    vertex -3.000162850143285 4.804255020175348 83.0
  endloop
endfacet
facet normal 0.38271238730840695 0.9238675384494793 -0.0
  outer loop
    vertex -1.5530959072290091 4.204807132605603 83.0
    vertex -3.000162850143285 4.804255020175348 85.99999999999999
    vertex -1.5530959072290091 4.204807132605603 85.99999999999999
  endloop
endfacet
facet normal 0.13055726483922386 0.9914407700905288 -0.0
  outer loop
    vertex -1.5530959072290091 4.204807132605603 85.99999999999999
    vertex -0.0001880448494270048 4.000313420852059 83.0
    vertex -1.5530959072290091 4.204807132605603 83.0
  endloop
endfacet
facet normal 0.13055726483922386 0.9914407700905288 -0.0
  outer loop
    vertex -0.0001880448494270048 4.000313420852059 83.0
    vertex -1.5530959072290091 4.204807132605603 85.99999999999999
    vertex -0.0001880448494270048 4.000313420852059 85.99999999999999
  endloop
endfacet
facet normal -0.13049511947266357 0.99144895168325 -0.0
  outer loop
    vertex -0.0001880448494270048 4.000313420852059 85.99999999999999
    vertex 1.5527326324758963 4.2047097934288695 83.0
    vertex -0.0001880448494270048 4.000313420852059 83.0
  endloop
endfacet
facet normal -0.13049511947266357 0.99144895168325 -0.0
  outer loop
    vertex 1.5527326324758963 4.2047097934288695 83.0
    vertex -0.0001880448494270048 4.000313420852059 85.99999999999999
    vertex 1.5527326324758963 4.2047097934288695 85.99999999999999
  endloop
endfacet
facet normal -0.38265447704589045 0.9238915256656142 -0.0
  outer loop
    vertex 1.5527326324758963 4.2047097934288695 85.99999999999999
    vertex 2.999837146909977 4.804066975325933 83.0
    vertex 1.5527326324758963 4.2047097934288695 83.0
  endloop
endfacet
facet normal -0.38265447704589045 0.9238915256656142 -0.0
  outer loop
    vertex 2.999837146909977 4.804066975325933 83.0
    vertex 1.5527326324758963 4.2047097934288695 85.99999999999999
    vertex 2.999837146909977 4.804066975325933 85.99999999999999
  endloop
endfacet
facet normal -0.6087365643748304 0.7933724189768183 -0.0
  outer loop
    vertex 2.999837146909977 4.804066975325933 85.99999999999999
    vertex 3.255198606760468 5.000000000000025 83.0
    vertex 2.999837146909977 4.804066975325933 83.0
  endloop
endfacet
facet normal -0.6087365643748304 0.7933724189768183 -0.0
  outer loop
    vertex 3.255198606760468 5.000000000000025 83.0
    vertex 2.999837146909977 4.804066975325933 85.99999999999999
    vertex 3.255198606760468 5.000000000000025 85.99999999999999
  endloop
endfacet
endsolid StreetBox
