solid StreetBox
facet normal -2.255973186038316e-15 -9.594342526489878e-31 1.0
  outer loop
    vertex -192.0870747656175 -47.1892611929545 46.99999999999998
    vertex -196.08707476561753 -43.68926119295452 46.99999999999998
    vertex -196.08707476561753 -47.1892611929545 46.99999999999998
  endloop
endfacet
facet normal -2.255973186038316e-15 -9.594342526489878e-31 1.0
  outer loop
    vertex -196.08707476561753 -43.68926119295452 46.99999999999998
    vertex -192.0870747656175 -47.1892611929545 46.99999999999998
    vertex -192.0870747656175 -43.68926119295452 46.99999999999998
  endloop
endfacet
facet normal 0.13052619222005155 0.9914448613738105 0.0
  outer loop
    vertex -179.58707476561742 -20.689261192954547 17.000000000000007
    vertex -178.68120810775858 -20.808520800942812 4.999999999999998
    vertex -179.58707476561742 -20.689261192954547 4.999999999999998
  endloop
endfacet
facet normal 0.13052619222005155 0.9914448613738105 0.0
  outer loop
    vertex -178.68120810775858 -20.808520800942812 4.999999999999998
    vertex -179.58707476561742 -20.689261192954547 17.000000000000007
    vertex -178.68120810775858 -20.808520800942812 17.000000000000007
  endloop
endfacet
facet normal 0.6087614290087126 -0.7933533402912414 0.0
  outer loop
    vertex -177.11220103146448 -26.66413492710747 17.000000000000007
    vertex -177.83707476561742 -27.220350106200094 4.999999999999998
    vertex -177.11220103146448 -26.66413492710747 4.999999999999998
  endloop
endfacet
facet normal 0.6087614290087126 -0.7933533402912414 0.0
  outer loop
    vertex -177.83707476561742 -27.220350106200094 4.999999999999998
    vertex -177.11220103146448 -26.66413492710747 17.000000000000007
    vertex -177.83707476561742 -27.220350106200094 17.000000000000007
  endloop
endfacet
facet normal -5.724783707291786e-19 -2.6079356664210342e-18 -1.0
  outer loop
    vertex -169.33707476561744 -14.189261192954577 1.805466345533729e-16
    vertex -196.08707476561753 -47.1892611929545 3.5249581031848906e-16
    vertex -196.08707476561753 -14.189261192954577 0.0
  endloop
endfacet
facet normal -5.724783707291786e-19 -2.6079356664210342e-18 -1.0
  outer loop
    vertex -196.08707476561753 -47.1892611929545 3.5249581031848906e-16
    vertex -169.33707476561744 -14.189261192954577 1.805466345533729e-16
    vertex -169.3370747656174 -47.1892611929545 0.0
  endloop
endfacet
facet normal -0.6087614290087245 -0.7933533402912323 0.0
  outer loop
    vertex -181.3370747656174 -27.220350106200094 17.000000000000007
    vertex -182.06194849977032 -26.66413492710747 4.999999999999998
    vertex -181.3370747656174 -27.220350106200094 4.999999999999998
  endloop
endfacet
facet normal -0.6087614290087245 -0.7933533402912323 0.0
  outer loop
    vertex -182.06194849977032 -26.66413492710747 4.999999999999998
    vertex -181.3370747656174 -27.220350106200094 17.000000000000007
    vertex -182.06194849977032 -26.66413492710747 17.000000000000007
  endloop
endfacet
facet normal 0.3826834323650846 -0.9238795325112888 0.0
  outer loop
    vertex -177.83707476561742 -27.220350106200094 17.000000000000007
    vertex -178.68120810775858 -27.570001584966292 4.999999999999998
    vertex -177.83707476561742 -27.220350106200094 4.999999999999998
  endloop
endfacet
facet normal 0.3826834323650846 -0.9238795325112888 0.0
  outer loop
    vertex -178.68120810775858 -27.570001584966292 4.999999999999998
    vertex -177.83707476561742 -27.220350106200094 17.000000000000007
    vertex -178.68120810775858 -27.570001584966292 17.000000000000007
  endloop
endfacet
facet normal -0.0 -1.0 0.0
  outer loop
    vertex -180.58707476561742 -47.1892611929545 46.99999999999997
    vertex -184.5870747656175 -47.1892611929545 7.0
    vertex -180.58707476561742 -47.1892611929545 4.999999999999998
  endloop
endfacet
facet normal -0.0 -1.0 0.0
  outer loop
    vertex -184.5870747656175 -47.1892611929545 7.0
    vertex -180.58707476561742 -47.1892611929545 46.99999999999997
    vertex -184.5870747656175 -47.1892611929545 46.99999999999997
  endloop
endfacet
facet normal -0.0 -1.0 0.0
  outer loop
    vertex -169.3370747656174 -47.1892611929545 4.999999999999998
    vertex -196.08707476561753 -47.1892611929545 3.5249581031848906e-16
    vertex -169.3370747656174 -47.1892611929545 0.0
  endloop
endfacet
facet normal -0.0 -1.0 0.0
  outer loop
    vertex -196.08707476561753 -47.1892611929545 3.5249581031848906e-16
    vertex -169.3370747656174 -47.1892611929545 4.999999999999998
    vertex -180.58707476561742 -47.1892611929545 4.999999999999998
  endloop
endfacet
facet normal -0.0 -1.0 0.0
  outer loop
    vertex -196.08707476561753 -47.1892611929545 3.5249581031848906e-16
    vertex -180.58707476561742 -47.1892611929545 4.999999999999998
    vertex -192.08707476561747 -47.1892611929545 7.0
  endloop
endfacet
facet normal -0.0 -1.0 0.0
  outer loop
    vertex -196.08707476561753 -47.1892611929545 3.5249581031848906e-16
    vertex -192.08707476561747 -47.1892611929545 7.0
    vertex -196.08707476561753 -47.1892611929545 46.99999999999998
  endloop
endfacet
facet normal -0.0 -1.0 0.0
  outer loop
    vertex -192.08707476561747 -47.1892611929545 7.0
    vertex -180.58707476561742 -47.1892611929545 4.999999999999998
    vertex -184.5870747656175 -47.1892611929545 7.0
  endloop
endfacet
facet normal -0.0 -1.0 0.0
  outer loop
    vertex -196.08707476561753 -47.1892611929545 46.99999999999998
    vertex -192.08707476561747 -47.1892611929545 7.0
    vertex -192.0870747656175 -47.1892611929545 46.99999999999998
  endloop
endfacet
facet normal -0.9914448613738094 0.13052619222006065 0.0
  outer loop
    vertex -182.96781515762913 -23.283394535095727 17.000000000000007
    vertex -183.08707476561742 -24.189261192954554 4.999999999999998
    vertex -183.08707476561742 -24.189261192954554 17.000000000000007
  endloop
endfacet
facet normal -0.9914448613738094 0.13052619222006065 0.0
  outer loop
    vertex -183.08707476561742 -24.189261192954554 4.999999999999998
    vertex -182.96781515762913 -23.283394535095727 17.000000000000007
    vertex -182.96781515762913 -23.283394535095727 4.999999999999998
  endloop
endfacet
facet normal 0.0 0.0 1.0
  outer loop
    vertex -180.58707476561742 -47.1892611929545 46.99999999999997
    vertex -184.5870747656175 -43.68926119295452 46.99999999999997
    vertex -184.5870747656175 -47.1892611929545 46.99999999999997
  endloop
endfacet
facet normal 0.0 0.0 1.0
  outer loop
    vertex -184.5870747656175 -43.68926119295452 46.99999999999997
    vertex -180.58707476561742 -47.1892611929545 46.99999999999997
    vertex -180.58707476561742 -43.68926119295452 46.99999999999997
  endloop
endfacet
facet normal -0.9238795325112946 0.382683432365071 0.0
  outer loop
    vertex -182.61816367886294 -22.43926119295455 17.000000000000007
    vertex -182.96781515762913 -23.283394535095727 4.999999999999998
    vertex -182.96781515762913 -23.283394535095727 17.000000000000007
  endloop
endfacet
facet normal -0.9238795325112946 0.382683432365071 0.0
  outer loop
    vertex -182.96781515762913 -23.283394535095727 4.999999999999998
    vertex -182.61816367886294 -22.43926119295455 17.000000000000007
    vertex -182.61816367886294 -22.43926119295455 4.999999999999998
  endloop
endfacet
facet normal 0.13052619222006065 -0.9914448613738094 0.0
  outer loop
    vertex -178.68120810775858 -27.570001584966292 17.000000000000007
    vertex -179.58707476561742 -27.689261192954564 4.999999999999998
    vertex -178.68120810775858 -27.570001584966292 4.999999999999998
  endloop
endfacet
facet normal 0.13052619222006065 -0.9914448613738094 0.0
  outer loop
    vertex -179.58707476561742 -27.689261192954564 4.999999999999998
    vertex -178.68120810775858 -27.570001584966292 17.000000000000007
    vertex -179.58707476561742 -27.689261192954564 17.000000000000007
  endloop
endfacet
facet normal 0.7933533402912473 -0.6087614290087051 0.0
  outer loop
    vertex -176.55598585237186 -25.939261192954554 4.999999999999998
    vertex -177.11220103146448 -26.66413492710747 17.000000000000007
    vertex -177.11220103146448 -26.66413492710747 4.999999999999998
  endloop
endfacet
facet normal 0.7933533402912473 -0.6087614290087051 0.0
  outer loop
    vertex -177.11220103146448 -26.66413492710747 17.000000000000007
    vertex -176.55598585237186 -25.939261192954554 4.999999999999998
    vertex -176.55598585237186 -25.939261192954554 17.000000000000007
  endloop
endfacet
facet normal -0.13052619222006065 -0.9914448613738094 0.0
  outer loop
    vertex -179.58707476561742 -27.689261192954564 17.000000000000007
    vertex -180.49294142347625 -27.570001584966292 4.999999999999998
    vertex -179.58707476561742 -27.689261192954564 4.999999999999998
  endloop
endfacet
facet normal -0.13052619222006065 -0.9914448613738094 0.0
  outer loop
    vertex -180.49294142347625 -27.570001584966292 4.999999999999998
    vertex -179.58707476561742 -27.689261192954564 17.000000000000007
    vertex -180.49294142347625 -27.570001584966292 17.000000000000007
  endloop
endfacet
facet normal -0.9238795325112942 -0.38268343236507213 0.0
  outer loop
    vertex -182.96781515762913 -25.09512785081338 17.000000000000007
    vertex -182.61816367886294 -25.939261192954554 4.999999999999998
    vertex -182.61816367886294 -25.939261192954554 17.000000000000007
  endloop
endfacet
facet normal -0.9238795325112942 -0.38268343236507213 0.0
  outer loop
    vertex -182.61816367886294 -25.939261192954554 4.999999999999998
    vertex -182.96781515762913 -25.09512785081338 17.000000000000007
    vertex -182.96781515762913 -25.09512785081338 4.999999999999998
  endloop
endfacet
facet normal -0.7933533402912233 -0.6087614290087361 0.0
  outer loop
    vertex -182.61816367886294 -25.939261192954554 17.000000000000007
    vertex -182.06194849977032 -26.66413492710747 4.999999999999998
    vertex -182.06194849977032 -26.66413492710747 17.000000000000007
  endloop
endfacet
facet normal -0.7933533402912233 -0.6087614290087361 0.0
  outer loop
    vertex -182.06194849977032 -26.66413492710747 4.999999999999998
    vertex -182.61816367886294 -25.939261192954554 17.000000000000007
    vertex -182.61816367886294 -25.939261192954554 4.999999999999998
  endloop
endfacet
facet normal 0.9238795325112772 0.38268343236511315 0.0
  outer loop
    vertex -176.55598585237186 -22.43926119295455 4.999999999999998
    vertex -176.20633437360564 -23.283394535095727 17.000000000000007
    vertex -176.20633437360564 -23.283394535095727 4.999999999999998
  endloop
endfacet
facet normal 0.9238795325112772 0.38268343236511315 0.0
  outer loop
    vertex -176.20633437360564 -23.283394535095727 17.000000000000007
    vertex -176.55598585237186 -22.43926119295455 4.999999999999998
    vertex -176.55598585237186 -22.43926119295455 17.000000000000007
  endloop
endfacet
facet normal 1.0 1.4422989006035107e-15 7.975872547383445e-32
  outer loop
    vertex -169.33707476561744 -14.189261192954577 1.805466345533729e-16
    vertex -169.3370747656174 -47.1892611929545 4.999999999999998
    vertex -169.3370747656174 -47.1892611929545 0.0
  endloop
endfacet
facet normal 1.0 1.4422989006035107e-15 7.975872547383445e-32
  outer loop
    vertex -169.3370747656174 -47.1892611929545 4.999999999999998
    vertex -169.33707476561744 -14.189261192954577 1.805466345533729e-16
    vertex -169.33707476561744 -14.189261192954577 4.999999999999998
  endloop
endfacet
facet normal 0.7933533402912484 0.6087614290087036 0.0
  outer loop
    vertex -177.11220103146448 -21.714387458801635 4.999999999999998
    vertex -176.55598585237186 -22.43926119295455 17.000000000000007
    vertex -176.55598585237186 -22.43926119295455 4.999999999999998
  endloop
endfacet
facet normal 0.7933533402912484 0.6087614290087036 0.0
  outer loop
    vertex -176.55598585237186 -22.43926119295455 17.000000000000007
    vertex -177.11220103146448 -21.714387458801635 4.999999999999998
    vertex -177.11220103146448 -21.714387458801635 17.000000000000007
  endloop
endfacet
facet normal 0.0 0.0 1.0
  outer loop
    vertex -182.96781515762913 -25.09512785081338 17.000000000000007
    vertex -182.96781515762913 -23.283394535095727 17.000000000000007
    vertex -183.08707476561742 -24.189261192954554 17.000000000000007
  endloop
endfacet
facet normal 0.0 0.0 1.0
  outer loop
    vertex -182.96781515762913 -23.283394535095727 17.000000000000007
    vertex -182.96781515762913 -25.09512785081338 17.000000000000007
    vertex -182.61816367886294 -25.939261192954554 17.000000000000007
  endloop
endfacet
facet normal 0.0 0.0 1.0
  outer loop
    vertex -182.96781515762913 -23.283394535095727 17.000000000000007
    vertex -182.61816367886294 -25.939261192954554 17.000000000000007
    vertex -182.61816367886294 -22.43926119295455 17.000000000000007
  endloop
endfacet
facet normal 0.0 0.0 1.0
  outer loop
    vertex -182.61816367886294 -22.43926119295455 17.000000000000007
    vertex -182.61816367886294 -25.939261192954554 17.000000000000007
    vertex -182.06194849977032 -26.66413492710747 17.000000000000007
  endloop
endfacet
facet normal 0.0 0.0 1.0
  outer loop
    vertex -182.61816367886294 -22.43926119295455 17.000000000000007
    vertex -182.06194849977032 -26.66413492710747 17.000000000000007
    vertex -182.06194849977032 -21.714387458801635 17.000000000000007
  endloop
endfacet
facet normal 0.0 0.0 1.0
  outer loop
    vertex -182.06194849977032 -21.714387458801635 17.000000000000007
    vertex -182.06194849977032 -26.66413492710747 17.000000000000007
    vertex -181.3370747656174 -27.220350106200094 17.000000000000007
  endloop
endfacet
facet normal 0.0 0.0 1.0
  outer loop
    vertex -182.06194849977032 -21.714387458801635 17.000000000000007
    vertex -181.3370747656174 -27.220350106200094 17.000000000000007
    vertex -181.33707476561742 -21.158172279709014 17.000000000000007
  endloop
endfacet
facet normal 0.0 0.0 1.0
  outer loop
    vertex -181.33707476561742 -21.158172279709014 17.000000000000007
    vertex -181.3370747656174 -27.220350106200094 17.000000000000007
    vertex -180.49294142347625 -20.808520800942812 17.000000000000007
  endloop
endfacet
facet normal 0.0 0.0 1.0
  outer loop
    vertex -180.49294142347625 -20.808520800942812 17.000000000000007
    vertex -181.3370747656174 -27.220350106200094 17.000000000000007
    vertex -180.49294142347625 -27.570001584966292 17.000000000000007
  endloop
endfacet
facet normal 0.0 0.0 1.0
  outer loop
    vertex -180.49294142347625 -20.808520800942812 17.000000000000007
    vertex -180.49294142347625 -27.570001584966292 17.000000000000007
    vertex -179.58707476561742 -27.689261192954564 17.000000000000007
  endloop
endfacet
facet normal 0.0 0.0 1.0
  outer loop
    vertex -180.49294142347625 -20.808520800942812 17.000000000000007
    vertex -179.58707476561742 -27.689261192954564 17.000000000000007
    vertex -179.58707476561742 -20.689261192954547 17.000000000000007
  endloop
endfacet
facet normal 0.0 0.0 1.0
  outer loop
    vertex -179.58707476561742 -20.689261192954547 17.000000000000007
    vertex -179.58707476561742 -27.689261192954564 17.000000000000007
    vertex -178.68120810775858 -27.570001584966292 17.000000000000007
  endloop
endfacet
facet normal 0.0 0.0 1.0
  outer loop
    vertex -179.58707476561742 -20.689261192954547 17.000000000000007
    vertex -178.68120810775858 -27.570001584966292 17.000000000000007
    vertex -178.68120810775858 -20.808520800942812 17.000000000000007
  endloop
endfacet
facet normal 0.0 0.0 1.0
  outer loop
    vertex -178.68120810775858 -20.808520800942812 17.000000000000007
    vertex -178.68120810775858 -27.570001584966292 17.000000000000007
    vertex -177.83707476561742 -27.220350106200094 17.000000000000007
  endloop
endfacet
facet normal 0.0 0.0 1.0
  outer loop
    vertex -178.68120810775858 -20.808520800942812 17.000000000000007
    vertex -177.83707476561742 -27.220350106200094 17.000000000000007
    vertex -177.83707476561742 -21.158172279709014 17.000000000000007
  endloop
endfacet
facet normal 0.0 0.0 1.0
  outer loop
    vertex -177.83707476561742 -21.158172279709014 17.000000000000007
    vertex -177.83707476561742 -27.220350106200094 17.000000000000007
    vertex -177.11220103146448 -26.66413492710747 17.000000000000007
  endloop
endfacet
facet normal 0.0 0.0 1.0
  outer loop
    vertex -177.83707476561742 -21.158172279709014 17.000000000000007
    vertex -177.11220103146448 -26.66413492710747 17.000000000000007
    vertex -177.11220103146448 -21.714387458801635 17.000000000000007
  endloop
endfacet
facet normal 0.0 0.0 1.0
  outer loop
    vertex -177.11220103146448 -21.714387458801635 17.000000000000007
    vertex -177.11220103146448 -26.66413492710747 17.000000000000007
    vertex -176.55598585237186 -25.939261192954554 17.000000000000007
  endloop
endfacet
facet normal 0.0 0.0 1.0
  outer loop
    vertex -177.11220103146448 -21.714387458801635 17.000000000000007
    vertex -176.55598585237186 -25.939261192954554 17.000000000000007
    vertex -176.55598585237186 -22.43926119295455 17.000000000000007
  endloop
endfacet
facet normal 0.0 0.0 1.0
  outer loop
    vertex -176.55598585237186 -22.43926119295455 17.000000000000007
    vertex -176.55598585237186 -25.939261192954554 17.000000000000007
    vertex -176.20633437360564 -25.095127850813377 17.000000000000007
  endloop
endfacet
facet normal 0.0 0.0 1.0
  outer loop
    vertex -176.55598585237186 -22.43926119295455 17.000000000000007
    vertex -176.20633437360564 -25.095127850813377 17.000000000000007
    vertex -176.20633437360564 -23.283394535095727 17.000000000000007
  endloop
endfacet
facet normal 0.0 0.0 1.0
  outer loop
    vertex -176.20633437360564 -23.283394535095727 17.000000000000007
    vertex -176.20633437360564 -25.095127850813377 17.000000000000007
    vertex -176.0870747656174 -24.189261192954554 17.000000000000007
  endloop
endfacet
facet normal 0.9238795325112772 -0.38268343236511315 0.0
  outer loop
    vertex -176.20633437360564 -25.095127850813377 4.999999999999998
    vertex -176.55598585237186 -25.939261192954554 17.000000000000007
    vertex -176.55598585237186 -25.939261192954554 4.999999999999998
  endloop
endfacet
facet normal 0.9238795325112772 -0.38268343236511315 0.0
  outer loop
    vertex -176.55598585237186 -25.939261192954554 17.000000000000007
    vertex -176.20633437360564 -25.095127850813377 4.999999999999998
    vertex -176.20633437360564 -25.095127850813377 17.000000000000007
  endloop
endfacet
facet normal -0.38268343236508723 0.9238795325112877 0.0
  outer loop
    vertex -181.33707476561742 -21.158172279709014 17.000000000000007
    vertex -180.49294142347625 -20.808520800942812 4.999999999999998
    vertex -181.33707476561742 -21.158172279709014 4.999999999999998
  endloop
endfacet
facet normal -0.38268343236508723 0.9238795325112877 0.0
  outer loop
    vertex -180.49294142347625 -20.808520800942812 4.999999999999998
    vertex -181.33707476561742 -21.158172279709014 17.000000000000007
    vertex -180.49294142347625 -20.808520800942812 17.000000000000007
  endloop
endfacet
facet normal -0.13052619222005155 0.9914448613738105 0.0
  outer loop
    vertex -180.49294142347625 -20.808520800942812 17.000000000000007
    vertex -179.58707476561742 -20.689261192954547 4.999999999999998
    vertex -180.49294142347625 -20.808520800942812 4.999999999999998
  endloop
endfacet
facet normal -0.13052619222005155 0.9914448613738105 0.0
  outer loop
    vertex -179.58707476561742 -20.689261192954547 4.999999999999998
    vertex -180.49294142347625 -20.808520800942812 17.000000000000007
    vertex -179.58707476561742 -20.689261192954547 17.000000000000007
  endloop
endfacet
facet normal 0.38268343236508723 0.9238795325112877 0.0
  outer loop
    vertex -178.68120810775858 -20.808520800942812 17.000000000000007
    vertex -177.83707476561742 -21.158172279709014 4.999999999999998
    vertex -178.68120810775858 -20.808520800942812 4.999999999999998
  endloop
endfacet
facet normal 0.38268343236508723 0.9238795325112877 0.0
  outer loop
    vertex -177.83707476561742 -21.158172279709014 4.999999999999998
    vertex -178.68120810775858 -20.808520800942812 17.000000000000007
    vertex -177.83707476561742 -21.158172279709014 17.000000000000007
  endloop
endfacet
facet normal -1.0 0.0 0.0
  outer loop
    vertex -184.5870747656175 -43.68926119295452 46.99999999999997
    vertex -184.5870747656175 -47.1892611929545 7.0
    vertex -184.5870747656175 -47.1892611929545 46.99999999999997
  endloop
endfacet
facet normal -1.0 0.0 0.0
  outer loop
    vertex -184.5870747656175 -47.1892611929545 7.0
    vertex -184.5870747656175 -43.68926119295452 46.99999999999997
    vertex -184.5870747656175 -43.68926119295452 7.0
  endloop
endfacet
facet normal -0.9914448613738094 -0.13052619222006026 0.0
  outer loop
    vertex -183.08707476561742 -24.189261192954554 17.000000000000007
    vertex -182.96781515762913 -25.09512785081338 4.999999999999998
    vertex -182.96781515762913 -25.09512785081338 17.000000000000007
  endloop
endfacet
facet normal -0.9914448613738094 -0.13052619222006026 0.0
  outer loop
    vertex -182.96781515762913 -25.09512785081338 4.999999999999998
    vertex -183.08707476561742 -24.189261192954554 17.000000000000007
    vertex -183.08707476561742 -24.189261192954554 4.999999999999998
  endloop
endfacet
facet normal -0.3826834323650934 -0.9238795325112853 0.0
  outer loop
    vertex -180.49294142347625 -27.570001584966292 17.000000000000007
    vertex -181.3370747656174 -27.220350106200094 4.999999999999998
    vertex -180.49294142347625 -27.570001584966292 4.999999999999998
  endloop
endfacet
facet normal -0.3826834323650934 -0.9238795325112853 0.0
  outer loop
    vertex -181.3370747656174 -27.220350106200094 4.999999999999998
    vertex -180.49294142347625 -27.570001584966292 17.000000000000007
    vertex -181.3370747656174 -27.220350106200094 17.000000000000007
  endloop
endfacet
facet normal -1.0 0.0 0.0
  outer loop
    vertex -196.08707476561753 -43.68926119295452 46.99999999999998
    vertex -196.08707476561753 -47.1892611929545 3.5249581031848906e-16
    vertex -196.08707476561753 -47.1892611929545 46.99999999999998
  endloop
endfacet
facet normal -1.0 0.0 0.0
  outer loop
    vertex -196.08707476561753 -47.1892611929545 3.5249581031848906e-16
    vertex -196.08707476561753 -43.68926119295452 46.99999999999998
    vertex -196.08707476561753 -43.68926119295452 4.999999999999998
  endloop
endfacet
facet normal -1.0 0.0 0.0
  outer loop
    vertex -196.08707476561753 -47.1892611929545 3.5249581031848906e-16
    vertex -196.08707476561753 -43.68926119295452 4.999999999999998
    vertex -196.08707476561753 -14.189261192954577 0.0
  endloop
endfacet
facet normal -1.0 0.0 0.0
  outer loop
    vertex -196.08707476561753 -14.189261192954577 0.0
    vertex -196.08707476561753 -43.68926119295452 4.999999999999998
    vertex -196.08707476561753 -14.189261192954577 4.999999999999998
  endloop
endfacet
facet normal -0.7933533402912245 0.6087614290087348 0.0
  outer loop
    vertex -182.06194849977032 -21.714387458801635 17.000000000000007
    vertex -182.61816367886294 -22.43926119295455 4.999999999999998
    vertex -182.61816367886294 -22.43926119295455 17.000000000000007
  endloop
endfacet
facet normal -0.7933533402912245 0.6087614290087348 0.0
  outer loop
    vertex -182.61816367886294 -22.43926119295455 4.999999999999998
    vertex -182.06194849977032 -21.714387458801635 17.000000000000007
    vertex -182.06194849977032 -21.714387458801635 4.999999999999998
  endloop
endfacet
facet normal -0.6087614290087344 0.7933533402912245 0.0
  outer loop
    vertex -182.06194849977032 -21.714387458801635 17.000000000000007
    vertex -181.33707476561742 -21.158172279709014 4.999999999999998
    vertex -182.06194849977032 -21.714387458801635 4.999999999999998
  endloop
endfacet
facet normal -0.6087614290087344 0.7933533402912245 0.0
  outer loop
    vertex -181.33707476561742 -21.158172279709014 4.999999999999998
    vertex -182.06194849977032 -21.714387458801635 17.000000000000007
    vertex -181.33707476561742 -21.158172279709014 17.000000000000007
  endloop
endfacet
facet normal 0.9914448613738124 -0.13052619222003636 0.0
  outer loop
    vertex -176.0870747656174 -24.189261192954554 4.999999999999998
    vertex -176.20633437360564 -25.095127850813377 17.000000000000007
    vertex -176.20633437360564 -25.095127850813377 4.999999999999998
  endloop
endfacet
facet normal 0.9914448613738124 -0.13052619222003636 0.0
  outer loop
    vertex -176.20633437360564 -25.095127850813377 17.000000000000007
    vertex -176.0870747656174 -24.189261192954554 4.999999999999998
    vertex -176.0870747656174 -24.189261192954554 17.000000000000007
  endloop
endfacet
facet normal 0.0 0.0 1.0
  outer loop
    vertex -169.3370747656174 -47.1892611929545 4.999999999999998
    vertex -180.58707476561742 -43.68926119295452 4.999999999999998
    vertex -180.58707476561742 -47.1892611929545 4.999999999999998
  endloop
endfacet
facet normal 0.0 0.0 1.0
  outer loop
    vertex -180.58707476561742 -43.68926119295452 4.999999999999998
    vertex -169.3370747656174 -47.1892611929545 4.999999999999998
    vertex -180.49294142347625 -27.570001584966292 4.999999999999998
  endloop
endfacet
facet normal 0.0 0.0 1.0
  outer loop
    vertex -180.49294142347625 -27.570001584966292 4.999999999999998
    vertex -169.3370747656174 -47.1892611929545 4.999999999999998
    vertex -179.58707476561742 -27.689261192954564 4.999999999999998
  endloop
endfacet
facet normal 0.0 0.0 1.0
  outer loop
    vertex -179.58707476561742 -27.689261192954564 4.999999999999998
    vertex -169.3370747656174 -47.1892611929545 4.999999999999998
    vertex -178.68120810775858 -27.570001584966292 4.999999999999998
  endloop
endfacet
facet normal 0.0 0.0 1.0
  outer loop
    vertex -178.68120810775858 -27.570001584966292 4.999999999999998
    vertex -169.3370747656174 -47.1892611929545 4.999999999999998
    vertex -177.83707476561742 -27.220350106200094 4.999999999999998
  endloop
endfacet
facet normal 0.0 0.0 1.0
  outer loop
    vertex -177.83707476561742 -27.220350106200094 4.999999999999998
    vertex -169.3370747656174 -47.1892611929545 4.999999999999998
    vertex -177.11220103146448 -26.66413492710747 4.999999999999998
  endloop
endfacet
facet normal 0.0 0.0 1.0
  outer loop
    vertex -177.11220103146448 -26.66413492710747 4.999999999999998
    vertex -169.3370747656174 -47.1892611929545 4.999999999999998
    vertex -176.55598585237186 -25.939261192954554 4.999999999999998
  endloop
endfacet
facet normal 0.0 0.0 1.0
  outer loop
    vertex -176.55598585237186 -25.939261192954554 4.999999999999998
    vertex -169.3370747656174 -47.1892611929545 4.999999999999998
    vertex -176.20633437360564 -25.095127850813377 4.999999999999998
  endloop
endfacet
facet normal 0.0 0.0 1.0
  outer loop
    vertex -176.20633437360564 -25.095127850813377 4.999999999999998
    vertex -169.3370747656174 -47.1892611929545 4.999999999999998
    vertex -176.0870747656174 -24.189261192954554 4.999999999999998
  endloop
endfacet
facet normal 0.0 0.0 1.0
  outer loop
    vertex -176.0870747656174 -24.189261192954554 4.999999999999998
    vertex -169.3370747656174 -47.1892611929545 4.999999999999998
    vertex -169.33707476561744 -14.189261192954577 4.999999999999998
  endloop
endfacet
facet normal 0.0 0.0 1.0
  outer loop
    vertex -196.08707476561753 -14.189261192954577 4.999999999999998
    vertex -181.33707476561742 -21.158172279709014 4.999999999999998
    vertex -169.33707476561744 -14.189261192954577 4.999999999999998
  endloop
endfacet
facet normal 0.0 0.0 1.0
  outer loop
    vertex -181.33707476561742 -21.158172279709014 4.999999999999998
    vertex -196.08707476561753 -14.189261192954577 4.999999999999998
    vertex -182.06194849977032 -21.714387458801635 4.999999999999998
  endloop
endfacet
facet normal 0.0 0.0 1.0
  outer loop
    vertex -182.06194849977032 -21.714387458801635 4.999999999999998
    vertex -196.08707476561753 -14.189261192954577 4.999999999999998
    vertex -182.61816367886294 -22.43926119295455 4.999999999999998
  endloop
endfacet
facet normal 0.0 0.0 1.0
  outer loop
    vertex -182.61816367886294 -22.43926119295455 4.999999999999998
    vertex -196.08707476561753 -14.189261192954577 4.999999999999998
    vertex -182.96781515762913 -23.283394535095727 4.999999999999998
  endloop
endfacet
facet normal 0.0 0.0 1.0
  outer loop
    vertex -182.96781515762913 -23.283394535095727 4.999999999999998
    vertex -196.08707476561753 -14.189261192954577 4.999999999999998
    vertex -183.08707476561742 -24.189261192954554 4.999999999999998
  endloop
endfacet
facet normal 0.0 0.0 1.0
  outer loop
    vertex -169.33707476561744 -14.189261192954577 4.999999999999998
    vertex -181.33707476561742 -21.158172279709014 4.999999999999998
    vertex -180.49294142347625 -20.808520800942812 4.999999999999998
  endloop
endfacet
facet normal 0.0 0.0 1.0
  outer loop
    vertex -169.33707476561744 -14.189261192954577 4.999999999999998
    vertex -180.49294142347625 -20.808520800942812 4.999999999999998
    vertex -179.58707476561742 -20.689261192954547 4.999999999999998
  endloop
endfacet
facet normal 0.0 0.0 1.0
  outer loop
    vertex -169.33707476561744 -14.189261192954577 4.999999999999998
    vertex -179.58707476561742 -20.689261192954547 4.999999999999998
    vertex -178.68120810775858 -20.808520800942812 4.999999999999998
  endloop
endfacet
facet normal 0.0 0.0 1.0
  outer loop
    vertex -169.33707476561744 -14.189261192954577 4.999999999999998
    vertex -178.68120810775858 -20.808520800942812 4.999999999999998
    vertex -177.83707476561742 -21.158172279709014 4.999999999999998
  endloop
endfacet
facet normal 0.0 0.0 1.0
  outer loop
    vertex -169.33707476561744 -14.189261192954577 4.999999999999998
    vertex -177.83707476561742 -21.158172279709014 4.999999999999998
    vertex -177.11220103146448 -21.714387458801635 4.999999999999998
  endloop
endfacet
facet normal 0.0 0.0 1.0
  outer loop
    vertex -169.33707476561744 -14.189261192954577 4.999999999999998
    vertex -177.11220103146448 -21.714387458801635 4.999999999999998
    vertex -176.55598585237186 -22.43926119295455 4.999999999999998
  endloop
endfacet
facet normal 0.0 0.0 1.0
  outer loop
    vertex -169.33707476561744 -14.189261192954577 4.999999999999998
    vertex -176.55598585237186 -22.43926119295455 4.999999999999998
    vertex -176.20633437360564 -23.283394535095727 4.999999999999998
  endloop
endfacet
facet normal 0.0 0.0 1.0
  outer loop
    vertex -169.33707476561744 -14.189261192954577 4.999999999999998
    vertex -176.20633437360564 -23.283394535095727 4.999999999999998
    vertex -176.0870747656174 -24.189261192954554 4.999999999999998
  endloop
endfacet
facet normal 0.0 0.0 1.0
  outer loop
    vertex -180.58707476561742 -43.68926119295452 4.999999999999998
    vertex -196.08707476561753 -14.189261192954577 4.999999999999998
    vertex -196.08707476561753 -43.68926119295452 4.999999999999998
  endloop
endfacet
facet normal 0.0 0.0 1.0
  outer loop
    vertex -196.08707476561753 -14.189261192954577 4.999999999999998
    vertex -180.58707476561742 -43.68926119295452 4.999999999999998
    vertex -183.08707476561742 -24.189261192954554 4.999999999999998
  endloop
endfacet
facet normal 0.0 0.0 1.0
  outer loop
    vertex -183.08707476561742 -24.189261192954554 4.999999999999998
    vertex -180.58707476561742 -43.68926119295452 4.999999999999998
    vertex -182.96781515762913 -25.09512785081338 4.999999999999998
  endloop
endfacet
facet normal 0.0 0.0 1.0
  outer loop
    vertex -182.96781515762913 -25.09512785081338 4.999999999999998
    vertex -180.58707476561742 -43.68926119295452 4.999999999999998
    vertex -182.61816367886294 -25.939261192954554 4.999999999999998
  endloop
endfacet
facet normal 0.0 0.0 1.0
  outer loop
    vertex -182.61816367886294 -25.939261192954554 4.999999999999998
    vertex -180.58707476561742 -43.68926119295452 4.999999999999998
    vertex -182.06194849977032 -26.66413492710747 4.999999999999998
  endloop
endfacet
facet normal 0.0 0.0 1.0
  outer loop
    vertex -182.06194849977032 -26.66413492710747 4.999999999999998
    vertex -180.58707476561742 -43.68926119295452 4.999999999999998
    vertex -181.3370747656174 -27.220350106200094 4.999999999999998
  endloop
endfacet
facet normal 0.0 0.0 1.0
  outer loop
    vertex -181.3370747656174 -27.220350106200094 4.999999999999998
    vertex -180.58707476561742 -43.68926119295452 4.999999999999998
    vertex -180.49294142347625 -27.570001584966292 4.999999999999998
  endloop
endfacet
facet normal 0.6087614290087107 0.7933533402912428 0.0
  outer loop
    vertex -177.83707476561742 -21.158172279709014 17.000000000000007
    vertex -177.11220103146448 -21.714387458801635 4.999999999999998
    vertex -177.83707476561742 -21.158172279709014 4.999999999999998
  endloop
endfacet
facet normal 0.6087614290087107 0.7933533402912428 0.0
  outer loop
    vertex -177.11220103146448 -21.714387458801635 4.999999999999998
    vertex -177.83707476561742 -21.158172279709014 17.000000000000007
    vertex -177.11220103146448 -21.714387458801635 17.000000000000007
  endloop
endfacet
facet normal 0.9914448613738124 0.13052619222003636 0.0
  outer loop
    vertex -176.20633437360564 -23.283394535095727 4.999999999999998
    vertex -176.0870747656174 -24.189261192954554 17.000000000000007
    vertex -176.0870747656174 -24.189261192954554 4.999999999999998
  endloop
endfacet
facet normal 0.9914448613738124 0.13052619222003636 0.0
  outer loop
    vertex -176.0870747656174 -24.189261192954554 17.000000000000007
    vertex -176.20633437360564 -23.283394535095727 4.999999999999998
    vertex -176.20633437360564 -23.283394535095727 17.000000000000007
  endloop
endfacet
facet normal 0.0 1.0 0.0
  outer loop
    vertex -196.08707476561753 -43.68926119295452 4.999999999999998
    vertex -192.08707476561747 -43.68926119295452 7.0
    vertex -180.58707476561742 -43.68926119295452 4.999999999999998
  endloop
endfacet
facet normal 0.0 1.0 0.0
  outer loop
    vertex -192.08707476561747 -43.68926119295452 7.0
    vertex -196.08707476561753 -43.68926119295452 4.999999999999998
    vertex -196.08707476561753 -43.68926119295452 46.99999999999998
  endloop
endfacet
facet normal 0.0 1.0 0.0
  outer loop
    vertex -192.08707476561747 -43.68926119295452 7.0
    vertex -196.08707476561753 -43.68926119295452 46.99999999999998
    vertex -192.0870747656175 -43.68926119295452 46.99999999999998
  endloop
endfacet
facet normal 0.0 1.0 0.0
  outer loop
    vertex -180.58707476561742 -43.68926119295452 4.999999999999998
    vertex -184.5870747656175 -43.68926119295452 7.0
    vertex -180.58707476561742 -43.68926119295452 46.99999999999997
  endloop
endfacet
facet normal 0.0 1.0 0.0
  outer loop
    vertex -184.5870747656175 -43.68926119295452 7.0
    vertex -180.58707476561742 -43.68926119295452 4.999999999999998
    vertex -192.08707476561747 -43.68926119295452 7.0
  endloop
endfacet
facet normal 0.0 1.0 0.0
  outer loop
    vertex -180.58707476561742 -43.68926119295452 46.99999999999997
    vertex -184.5870747656175 -43.68926119295452 7.0
    vertex -184.5870747656175 -43.68926119295452 46.99999999999997
  endloop
endfacet
facet normal 1.0 2.8199664825479124e-16 2.2559731860383165e-15
  outer loop
    vertex -192.08707476561747 -43.68926119295452 7.0
    vertex -192.0870747656175 -47.1892611929545 46.99999999999998
    vertex -192.08707476561747 -47.1892611929545 7.0
  endloop
endfacet
facet normal 1.0 2.8199664825479124e-16 2.2559731860383165e-15
  outer loop
    vertex -192.0870747656175 -47.1892611929545 46.99999999999998
    vertex -192.08707476561747 -43.68926119295452 7.0
    vertex -192.0870747656175 -43.68926119295452 46.99999999999998
  endloop
endfacet
facet normal 0.0 0.0 1.0
  outer loop
    vertex -184.5870747656175 -47.1892611929545 7.0
    vertex -192.08707476561747 -43.68926119295452 7.0
    vertex -192.08707476561747 -47.1892611929545 7.0
  endloop
endfacet
facet normal 0.0 0.0 1.0
  outer loop
    vertex -192.08707476561747 -43.68926119295452 7.0
    vertex -184.5870747656175 -47.1892611929545 7.0
    vertex -184.5870747656175 -43.68926119295452 7.0
  endloop
endfacet
facet normal 0.0 1.0 0.0
  outer loop
    vertex -196.08707476561753 -14.189261192954577 4.999999999999998
    vertex -169.33707476561744 -14.189261192954577 1.805466345533729e-16
    vertex -196.08707476561753 -14.189261192954577 0.0
  endloop
endfacet
facet normal 0.0 1.0 0.0
  outer loop
    vertex -169.33707476561744 -14.189261192954577 1.805466345533729e-16
    vertex -196.08707476561753 -14.189261192954577 4.999999999999998
    vertex -169.33707476561744 -14.189261192954577 4.999999999999998
  endloop
endfacet
facet normal 1.0 0.0 0.0
  outer loop
    vertex -180.58707476561742 -43.68926119295452 4.999999999999998
    vertex -180.58707476561742 -47.1892611929545 46.99999999999997
    vertex -180.58707476561742 -47.1892611929545 4.999999999999998
  endloop
endfacet
facet normal 1.0 0.0 0.0
  outer loop
    vertex -180.58707476561742 -47.1892611929545 46.99999999999997
    vertex -180.58707476561742 -43.68926119295452 4.999999999999998
    vertex -180.58707476561742 -43.68926119295452 46.99999999999997
  endloop
endfacet
endsolid StreetBox
