solid StreetBox
facet normal 0.38268343236509056 0.9238795325112865 -1.2327813368477965e-18
  outer loop
    vertex 144.56850447194284 -72.35495089863598 6.284496732535357e-14
    vertex 149.39212356989245 -74.35295934872858 25.000000000000057
    vertex 149.39212356989245 -74.35295934872858 5.337183655658503e-14
  endloop
endfacet
facet normal 0.38268343236509056 0.9238795325112865 -1.2327813368477965e-18
  outer loop
    vertex 149.39212356989245 -74.35295934872858 25.000000000000057
    vertex 144.56850447194284 -72.35495089863598 6.284496732535357e-14
    vertex 144.56850447194284 -72.35495089863598 25.00000000000006
  endloop
endfacet
facet normal 0.13052619222005185 -0.9914448613738105 6.336260371747231e-17
  outer loop
    vertex 160.26252346419832 -76.28481100130672 3.202340136373568e-14
    vertex 157.0685044719429 -76.70531157897872 10.000000000000059
    vertex 154.56850447194284 -77.03444282294721 4.320591503618057e-14
  endloop
endfacet
facet normal 0.13052619222005185 -0.9914448613738105 6.336260371747231e-17
  outer loop
    vertex 157.0685044719429 -76.70531157897872 10.000000000000059
    vertex 160.26252346419832 -76.28481100130672 3.202340136373568e-14
    vertex 160.26252346419832 -76.28481100130672 25.000000000000032
  endloop
endfacet
facet normal 0.13052619222005185 -0.9914448613738105 6.336260371747231e-17
  outer loop
    vertex 157.0685044719429 -76.70531157897872 10.000000000000059
    vertex 160.26252346419832 -76.28481100130672 25.000000000000032
    vertex 157.06850447194284 -76.70531157897872 15.000000000000028
  endloop
endfacet
facet normal 0.13052619222005185 -0.9914448613738105 6.336260371747231e-17
  outer loop
    vertex 157.06850447194284 -76.70531157897872 15.000000000000028
    vertex 160.26252346419832 -76.28481100130672 25.000000000000032
    vertex 154.56850447194284 -77.03444282294721 15.000000000000028
  endloop
endfacet
facet normal 0.13052619222005185 -0.9914448613738105 6.336260371747231e-17
  outer loop
    vertex 154.56850447194284 -77.03444282294721 15.000000000000028
    vertex 160.26252346419832 -76.28481100130672 25.000000000000032
    vertex 154.56850447194284 -77.03444282294721 25.000000000000046
  endloop
endfacet
facet normal 0.13052619222005185 -0.9914448613738105 6.336260371747231e-17
  outer loop
    vertex 154.56850447194284 -77.03444282294723 10.000000000000059
    vertex 154.56850447194284 -77.03444282294721 4.320591503618057e-14
    vertex 157.0685044719429 -76.70531157897872 10.000000000000059
  endloop
endfacet
facet normal -0.6087614290087209 0.7933533402912352 1.1955497535933933e-15
  outer loop
    vertex 139.01215528583882 -39.47809363684316 7.375711054563365e-14
    vertex 143.56850447194284 -35.98188393968956 25.000000000000068
    vertex 143.56850447194284 -35.98188393968956 6.480887255427085e-14
  endloop
endfacet
facet normal -0.6087614290087209 0.7933533402912352 1.1955497535933933e-15
  outer loop
    vertex 143.56850447194284 -35.98188393968956 25.000000000000068
    vertex 139.01215528583882 -39.47809363684316 7.375711054563365e-14
    vertex 139.01215528583882 -39.47809363684316 25.00000000000007
  endloop
endfacet
facet normal -0.38268343236509145 -0.923879532511286 7.515539938418221e-16
  outer loop
    vertex 148.87448547968737 -76.28481100130672 25.000000000000057
    vertex 143.56850447194284 -74.08700170620486 6.480887255427088e-14
    vertex 148.87448547968737 -76.28481100130672 5.4388428708625504e-14
  endloop
endfacet
facet normal -0.38268343236509145 -0.923879532511286 7.515539938418221e-16
  outer loop
    vertex 143.56850447194284 -74.08700170620486 6.480887255427088e-14
    vertex 148.87448547968737 -76.28481100130672 25.000000000000057
    vertex 143.56850447194284 -74.08700170620486 25.000000000000068
  endloop
endfacet
facet normal -1.0 -1.3419355999581254e-31 -9.023892744153325e-15
  outer loop
    vertex 157.06850447194284 -74.70531157897872 15.000000000000028
    vertex 157.0685044719429 -76.70531157897872 10.000000000000059
    vertex 157.06850447194284 -76.70531157897872 15.000000000000028
  endloop
endfacet
facet normal -1.0 -1.3419355999581254e-31 -9.023892744153325e-15
  outer loop
    vertex 157.0685044719429 -76.70531157897872 10.000000000000059
    vertex 157.06850447194284 -74.70531157897872 15.000000000000028
    vertex 157.0685044719429 -74.70531157897871 10.000000000000059
  endloop
endfacet
facet normal -1.9639052289172975e-15 -4.767862156900704e-32 -1.0
  outer loop
    vertex 133.31813629358336 -49.34042383069175 8.493962421807857e-14
    vertex 133.31813629358336 -60.72846181520267 8.493962421807857e-14
    vertex 132.56850447194284 -55.03444282294721 8.641183007236114e-14
  endloop
endfacet
facet normal -1.9639052289172975e-15 -4.767862156900704e-32 -1.0
  outer loop
    vertex 133.31813629358336 -60.72846181520267 8.493962421807857e-14
    vertex 133.31813629358336 -49.34042383069175 8.493962421807857e-14
    vertex 135.5159455886852 -44.03444282294721 8.062333505126498e-14
  endloop
endfacet
facet normal -1.9639052289172975e-15 -4.767862156900704e-32 -1.0
  outer loop
    vertex 133.31813629358336 -60.72846181520267 8.493962421807857e-14
    vertex 135.5159455886852 -44.03444282294721 8.062333505126498e-14
    vertex 134.56850447194287 -55.03444282294721 8.248401961452654e-14
  endloop
endfacet
facet normal -1.9639052289172975e-15 -4.767862156900704e-32 -1.0
  outer loop
    vertex 134.56850447194287 -55.03444282294721 8.248401961452654e-14
    vertex 135.5159455886852 -44.03444282294721 8.062333505126498e-14
    vertex 135.24998794616147 -49.858061920896795 8.114565065608783e-14
  endloop
endfacet
facet normal -1.9639052289172975e-15 -4.767862156900704e-32 -1.0
  outer loop
    vertex 135.24998794616147 -49.858061920896795 8.114565065608783e-14
    vertex 135.5159455886852 -44.03444282294721 8.062333505126498e-14
    vertex 137.24799639625408 -45.03444282294721 7.722175141353004e-14
  endloop
endfacet
facet normal -1.9639052289172975e-15 -4.767862156900704e-32 -1.0
  outer loop
    vertex 137.24799639625408 -45.03444282294721 7.722175141353004e-14
    vertex 135.5159455886852 -44.03444282294721 8.062333505126498e-14
    vertex 139.01215528583882 -39.47809363684316 7.375711054563365e-14
  endloop
endfacet
facet normal -1.9639052289172975e-15 -4.767862156900704e-32 -1.0
  outer loop
    vertex 137.24799639625408 -45.03444282294721 7.722175141353004e-14
    vertex 139.01215528583882 -39.47809363684316 7.375711054563365e-14
    vertex 140.42636884821192 -40.89230719921627 7.097972913568338e-14
  endloop
endfacet
facet normal -1.9639052289172975e-15 -4.767862156900704e-32 -1.0
  outer loop
    vertex 140.42636884821192 -40.89230719921627 7.097972913568338e-14
    vertex 139.01215528583882 -39.47809363684316 7.375711054563365e-14
    vertex 143.56850447194284 -35.98188393968956 6.480887255427085e-14
  endloop
endfacet
facet normal -1.9639052289172975e-15 -4.767862156900704e-32 -1.0
  outer loop
    vertex 140.42636884821192 -40.89230719921627 7.097972913568338e-14
    vertex 143.56850447194284 -35.98188393968956 6.480887255427085e-14
    vertex 144.56850447194284 -37.71393474725844 6.284496732535355e-14
  endloop
endfacet
facet normal -1.9639052289172975e-15 -4.767862156900704e-32 -1.0
  outer loop
    vertex 144.56850447194284 -37.71393474725844 6.284496732535355e-14
    vertex 143.56850447194284 -35.98188393968956 6.480887255427085e-14
    vertex 148.8744854796874 -33.78407464458772 5.438842870862545e-14
  endloop
endfacet
facet normal -1.9639052289172975e-15 -4.767862156900704e-32 -1.0
  outer loop
    vertex 144.56850447194284 -37.71393474725844 6.284496732535355e-14
    vertex 148.8744854796874 -33.78407464458772 5.438842870862545e-14
    vertex 149.39212356989245 -35.71592629716585 5.3371836556585016e-14
  endloop
endfacet
facet normal -1.9639052289172975e-15 -4.767862156900704e-32 -1.0
  outer loop
    vertex 149.39212356989245 -35.71592629716585 5.3371836556585016e-14
    vertex 148.8744854796874 -33.78407464458772 5.438842870862545e-14
    vertex 154.56850447194284 -33.03444282294722 4.3205915036180566e-14
  endloop
endfacet
facet normal -1.9639052289172975e-15 -4.767862156900704e-32 -1.0
  outer loop
    vertex 149.39212356989245 -35.71592629716585 5.3371836556585016e-14
    vertex 154.56850447194284 -33.03444282294722 4.3205915036180566e-14
    vertex 154.56850447194284 -35.03444282294721 4.320591503618057e-14
  endloop
endfacet
facet normal -1.9639052289172975e-15 -4.767862156900704e-32 -1.0
  outer loop
    vertex 154.56850447194284 -35.03444282294721 4.320591503618057e-14
    vertex 154.56850447194284 -33.03444282294722 4.3205915036180566e-14
    vertex 160.26252346419832 -33.78407464458772 3.202340136373566e-14
  endloop
endfacet
facet normal -1.9639052289172975e-15 -4.767862156900704e-32 -1.0
  outer loop
    vertex 154.56850447194284 -35.03444282294721 4.320591503618057e-14
    vertex 160.26252346419832 -33.78407464458772 3.202340136373566e-14
    vertex 159.7448853739933 -35.71592629716586 3.303999351577609e-14
  endloop
endfacet
facet normal -1.9639052289172975e-15 -4.767862156900704e-32 -1.0
  outer loop
    vertex 159.7448853739933 -35.71592629716586 3.303999351577609e-14
    vertex 160.26252346419832 -33.78407464458772 3.202340136373566e-14
    vertex 164.56850447194284 -37.71393474725845 2.356686274700757e-14
  endloop
endfacet
facet normal -1.9639052289172975e-15 -4.767862156900704e-32 -1.0
  outer loop
    vertex 164.56850447194284 -37.71393474725845 2.356686274700757e-14
    vertex 160.26252346419832 -33.78407464458772 3.202340136373566e-14
    vertex 165.56850447194287 -35.981883939689574 2.160295751809027e-14
  endloop
endfacet
facet normal -1.9639052289172975e-15 -4.767862156900704e-32 -1.0
  outer loop
    vertex 164.56850447194284 -37.71393474725845 2.356686274700757e-14
    vertex 165.56850447194287 -35.981883939689574 2.160295751809027e-14
    vertex 168.71064009567382 -40.89230719921627 1.543210093667775e-14
  endloop
endfacet
facet normal -1.9639052289172975e-15 -4.767862156900704e-32 -1.0
  outer loop
    vertex 168.71064009567382 -40.89230719921627 1.543210093667775e-14
    vertex 165.56850447194287 -35.981883939689574 2.160295751809027e-14
    vertex 170.1248536580469 -39.47809363684317 1.265471952672747e-14
  endloop
endfacet
facet normal -1.9639052289172975e-15 -4.767862156900704e-32 -1.0
  outer loop
    vertex 168.71064009567382 -40.89230719921627 1.543210093667775e-14
    vertex 170.1248536580469 -39.47809363684317 1.265471952672747e-14
    vertex 171.88901254763164 -45.03444282294723 9.190078658831078e-15
  endloop
endfacet
facet normal -1.9639052289172975e-15 -4.767862156900704e-32 -1.0
  outer loop
    vertex 171.88901254763164 -45.03444282294723 9.190078658831078e-15
    vertex 170.1248536580469 -39.47809363684317 1.265471952672747e-14
    vertex 173.62106335520053 -44.03444282294722 5.788495021096138e-15
  endloop
endfacet
facet normal -1.9639052289172975e-15 -4.767862156900704e-32 -1.0
  outer loop
    vertex 171.88901254763164 -45.03444282294723 9.190078658831078e-15
    vertex 173.62106335520053 -44.03444282294722 5.788495021096138e-15
    vertex 173.88702099772422 -49.85806192089681 5.2661794162733036e-15
  endloop
endfacet
facet normal -1.9639052289172975e-15 -4.767862156900704e-32 -1.0
  outer loop
    vertex 173.88702099772422 -49.85806192089681 5.2661794162733036e-15
    vertex 173.62106335520053 -44.03444282294722 5.788495021096138e-15
    vertex 175.81887265030238 -49.34042383069177 1.4722058542825644e-15
  endloop
endfacet
facet normal -1.9639052289172975e-15 -4.767862156900704e-32 -1.0
  outer loop
    vertex 173.88702099772422 -49.85806192089681 5.2661794162733036e-15
    vertex 175.81887265030238 -49.34042383069177 1.4722058542825644e-15
    vertex 174.56850447194284 -55.03444282294721 3.9278104578346e-15
  endloop
endfacet
facet normal -1.9639052289172975e-15 -4.767862156900704e-32 -1.0
  outer loop
    vertex 134.56850447194287 -55.03444282294721 8.248401961452654e-14
    vertex 135.5159455886852 -66.0344428229472 8.062333505126503e-14
    vertex 133.31813629358336 -60.72846181520267 8.493962421807857e-14
  endloop
endfacet
facet normal -1.9639052289172975e-15 -4.767862156900704e-32 -1.0
  outer loop
    vertex 135.5159455886852 -66.0344428229472 8.062333505126503e-14
    vertex 134.56850447194287 -55.03444282294721 8.248401961452654e-14
    vertex 135.24998794616147 -60.210823724997624 8.114565065608783e-14
  endloop
endfacet
facet normal -1.9639052289172975e-15 -4.767862156900704e-32 -1.0
  outer loop
    vertex 135.5159455886852 -66.0344428229472 8.062333505126503e-14
    vertex 135.24998794616147 -60.210823724997624 8.114565065608783e-14
    vertex 137.24799639625408 -65.0344428229472 7.722175141353005e-14
  endloop
endfacet
facet normal -1.9639052289172975e-15 -4.767862156900704e-32 -1.0
  outer loop
    vertex 135.5159455886852 -66.0344428229472 8.062333505126503e-14
    vertex 137.24799639625408 -65.0344428229472 7.722175141353005e-14
    vertex 139.01215528583882 -70.59079200905126 7.375711054563368e-14
  endloop
endfacet
facet normal -1.9639052289172975e-15 -4.767862156900704e-32 -1.0
  outer loop
    vertex 139.01215528583882 -70.59079200905126 7.375711054563368e-14
    vertex 137.24799639625408 -65.0344428229472 7.722175141353005e-14
    vertex 140.42636884821192 -69.17657844667815 7.097972913568338e-14
  endloop
endfacet
facet normal -1.9639052289172975e-15 -4.767862156900704e-32 -1.0
  outer loop
    vertex 139.01215528583882 -70.59079200905126 7.375711054563368e-14
    vertex 140.42636884821192 -69.17657844667815 7.097972913568338e-14
    vertex 143.56850447194284 -74.08700170620486 6.480887255427088e-14
  endloop
endfacet
facet normal -1.9639052289172975e-15 -4.767862156900704e-32 -1.0
  outer loop
    vertex 143.56850447194284 -74.08700170620486 6.480887255427088e-14
    vertex 140.42636884821192 -69.17657844667815 7.097972913568338e-14
    vertex 144.56850447194284 -72.35495089863598 6.284496732535357e-14
  endloop
endfacet
facet normal -1.9639052289172975e-15 -4.767862156900704e-32 -1.0
  outer loop
    vertex 143.56850447194284 -74.08700170620486 6.480887255427088e-14
    vertex 144.56850447194284 -72.35495089863598 6.284496732535357e-14
    vertex 148.87448547968737 -76.28481100130672 5.4388428708625504e-14
  endloop
endfacet
facet normal -1.9639052289172975e-15 -4.767862156900704e-32 -1.0
  outer loop
    vertex 148.87448547968737 -76.28481100130672 5.4388428708625504e-14
    vertex 144.56850447194284 -72.35495089863598 6.284496732535357e-14
    vertex 149.39212356989245 -74.35295934872858 5.337183655658503e-14
  endloop
endfacet
facet normal -1.9639052289172975e-15 -4.767862156900704e-32 -1.0
  outer loop
    vertex 148.87448547968737 -76.28481100130672 5.4388428708625504e-14
    vertex 149.39212356989245 -74.35295934872858 5.337183655658503e-14
    vertex 154.56850447194284 -77.03444282294721 4.320591503618057e-14
  endloop
endfacet
facet normal -1.9639052289172975e-15 -4.767862156900704e-32 -1.0
  outer loop
    vertex 154.56850447194284 -77.03444282294721 4.320591503618057e-14
    vertex 149.39212356989245 -74.35295934872858 5.337183655658503e-14
    vertex 154.56850447194284 -75.03444282294721 4.320591503618058e-14
  endloop
endfacet
facet normal -1.9639052289172975e-15 -4.767862156900704e-32 -1.0
  outer loop
    vertex 154.56850447194284 -77.03444282294721 4.320591503618057e-14
    vertex 154.56850447194284 -75.03444282294721 4.320591503618058e-14
    vertex 159.74488537399327 -74.35295934872858 3.3039993515776134e-14
  endloop
endfacet
facet normal -1.9639052289172975e-15 -4.767862156900704e-32 -1.0
  outer loop
    vertex 154.56850447194284 -77.03444282294721 4.320591503618057e-14
    vertex 159.74488537399327 -74.35295934872858 3.3039993515776134e-14
    vertex 160.26252346419832 -76.28481100130672 3.202340136373568e-14
  endloop
endfacet
facet normal -1.9639052289172975e-15 -4.767862156900704e-32 -1.0
  outer loop
    vertex 160.26252346419832 -76.28481100130672 3.202340136373568e-14
    vertex 159.74488537399327 -74.35295934872858 3.3039993515776134e-14
    vertex 164.56850447194284 -72.35495089863599 2.3566862747007594e-14
  endloop
endfacet
facet normal -1.9639052289172975e-15 -4.767862156900704e-32 -1.0
  outer loop
    vertex 160.26252346419832 -76.28481100130672 3.202340136373568e-14
    vertex 164.56850447194284 -72.35495089863599 2.3566862747007594e-14
    vertex 165.56850447194284 -74.08700170620486 2.160295751809029e-14
  endloop
endfacet
facet normal -1.9639052289172975e-15 -4.767862156900704e-32 -1.0
  outer loop
    vertex 165.56850447194284 -74.08700170620486 2.160295751809029e-14
    vertex 164.56850447194284 -72.35495089863599 2.3566862747007594e-14
    vertex 168.7106400956738 -69.17657844667816 1.5432100936677776e-14
  endloop
endfacet
facet normal -1.9639052289172975e-15 -4.767862156900704e-32 -1.0
  outer loop
    vertex 165.56850447194284 -74.08700170620486 2.160295751809029e-14
    vertex 168.7106400956738 -69.17657844667816 1.5432100936677776e-14
    vertex 170.1248536580469 -70.59079200905126 1.265471952672747e-14
  endloop
endfacet
facet normal -1.9639052289172975e-15 -4.767862156900704e-32 -1.0
  outer loop
    vertex 170.1248536580469 -70.59079200905126 1.265471952672747e-14
    vertex 168.7106400956738 -69.17657844667816 1.5432100936677776e-14
    vertex 171.8890125476316 -65.03444282294721 9.190078658831108e-15
  endloop
endfacet
facet normal -1.9639052289172975e-15 -4.767862156900704e-32 -1.0
  outer loop
    vertex 170.1248536580469 -70.59079200905126 1.265471952672747e-14
    vertex 171.8890125476316 -65.03444282294721 9.190078658831108e-15
    vertex 173.62106335520048 -66.03444282294721 5.788495021096148e-15
  endloop
endfacet
facet normal -1.9639052289172975e-15 -4.767862156900704e-32 -1.0
  outer loop
    vertex 173.62106335520048 -66.03444282294721 5.788495021096148e-15
    vertex 171.8890125476316 -65.03444282294721 9.190078658831108e-15
    vertex 173.8870209977242 -60.210823724997645 5.266179416273313e-15
  endloop
endfacet
facet normal -1.9639052289172975e-15 -4.767862156900704e-32 -1.0
  outer loop
    vertex 173.62106335520048 -66.03444282294721 5.788495021096148e-15
    vertex 173.8870209977242 -60.210823724997645 5.266179416273313e-15
    vertex 175.81887265030238 -60.72846181520268 1.4722058542825745e-15
  endloop
endfacet
facet normal -1.9639052289172975e-15 -4.767862156900704e-32 -1.0
  outer loop
    vertex 175.81887265030238 -60.72846181520268 1.4722058542825745e-15
    vertex 173.8870209977242 -60.210823724997645 5.266179416273313e-15
    vertex 174.56850447194284 -55.03444282294721 3.9278104578346e-15
  endloop
endfacet
facet normal -1.9639052289172975e-15 -4.767862156900704e-32 -1.0
  outer loop
    vertex 175.81887265030238 -60.72846181520268 1.4722058542825745e-15
    vertex 174.56850447194284 -55.03444282294721 3.9278104578346e-15
    vertex 175.81887265030238 -49.34042383069177 1.4722058542825644e-15
  endloop
endfacet
facet normal -1.9639052289172975e-15 -4.767862156900704e-32 -1.0
  outer loop
    vertex 175.81887265030238 -60.72846181520268 1.4722058542825745e-15
    vertex 175.81887265030238 -49.34042383069177 1.4722058542825644e-15
    vertex 176.56850447194284 -55.03444282294722 0.0
  endloop
endfacet
facet normal 2.8199664825479353e-15 -1.0 1.127986593019157e-15
  outer loop
    vertex 134.89763571591135 -52.53444282294722 15.000000000000007
    vertex 132.89763571591138 -52.53444282294723 10.00000000000003
    vertex 134.89763571591135 -52.53444282294722 10.000000000000027
  endloop
endfacet
facet normal 2.8199664825479353e-15 -1.0 1.127986593019157e-15
  outer loop
    vertex 132.89763571591138 -52.53444282294723 10.00000000000003
    vertex 134.89763571591135 -52.53444282294722 15.000000000000007
    vertex 132.89763571591138 -52.53444282294722 15.000000000000007
  endloop
endfacet
facet normal -2.819966482547903e-15 1.0 -1.1279865930191642e-15
  outer loop
    vertex 132.89763571591138 -57.53444282294724 10.00000000000003
    vertex 134.89763571591135 -57.53444282294723 15.000000000000007
    vertex 134.89763571591135 -57.53444282294723 10.000000000000028
  endloop
endfacet
facet normal -2.819966482547903e-15 1.0 -1.1279865930191642e-15
  outer loop
    vertex 134.89763571591135 -57.53444282294723 15.000000000000007
    vertex 132.89763571591138 -57.53444282294724 10.00000000000003
    vertex 132.89763571591138 -57.53444282294723 15.000000000000007
  endloop
endfacet
facet normal 5.596486945901844e-16 -1.2535868873776369e-30 -1.0
  outer loop
    vertex 134.89763571591135 -52.53444282294722 15.000000000000007
    vertex 134.56850447194287 -55.03444282294721 15.000000000000007
    vertex 132.89763571591138 -52.53444282294722 15.000000000000007
  endloop
endfacet
facet normal 5.596486945901844e-16 -1.2535868873776369e-30 -1.0
  outer loop
    vertex 132.89763571591138 -52.53444282294722 15.000000000000007
    vertex 132.89763571591138 -57.53444282294723 15.000000000000007
    vertex 132.56850447194284 -55.03444282294722 15.000000000000004
  endloop
endfacet
facet normal 5.596486945901844e-16 -1.2535868873776369e-30 -1.0
  outer loop
    vertex 132.89763571591138 -57.53444282294723 15.000000000000007
    vertex 132.89763571591138 -52.53444282294722 15.000000000000007
    vertex 134.89763571591135 -57.53444282294723 15.000000000000007
  endloop
endfacet
facet normal 5.596486945901844e-16 -1.2535868873776369e-30 -1.0
  outer loop
    vertex 134.89763571591135 -57.53444282294723 15.000000000000007
    vertex 132.89763571591138 -52.53444282294722 15.000000000000007
    vertex 134.56850447194287 -55.03444282294721 15.000000000000007
  endloop
endfacet
facet normal 0.0 0.0 -1.0
  outer loop
    vertex 154.5685044719429 -75.03444282294723 15.000000000000028
    vertex 152.06850447194284 -76.70531157897874 15.000000000000028
    vertex 152.06850447194284 -74.70531157897872 15.000000000000028
  endloop
endfacet
facet normal 0.0 0.0 -1.0
  outer loop
    vertex 152.06850447194284 -76.70531157897874 15.000000000000028
    vertex 154.5685044719429 -75.03444282294723 15.000000000000028
    vertex 154.56850447194284 -77.03444282294721 15.000000000000028
  endloop
endfacet
facet normal 0.0 0.0 -1.0
  outer loop
    vertex 154.56850447194284 -77.03444282294721 15.000000000000028
    vertex 154.5685044719429 -75.03444282294723 15.000000000000028
    vertex 157.06850447194284 -76.70531157897872 15.000000000000028
  endloop
endfacet
facet normal 0.0 0.0 -1.0
  outer loop
    vertex 157.06850447194284 -76.70531157897872 15.000000000000028
    vertex 154.5685044719429 -75.03444282294723 15.000000000000028
    vertex 157.06850447194284 -74.70531157897872 15.000000000000028
  endloop
endfacet
facet normal -4.337707186089557e-16 -1.4099832412739313e-16 1.0
  outer loop
    vertex 176.2393732279744 -57.53444282294724 10.000000000000018
    vertex 174.56850447194284 -55.03444282294721 10.000000000000018
    vertex 174.23937322797434 -57.53444282294723 10.000000000000018
  endloop
endfacet
facet normal -4.337707186089557e-16 -1.4099832412739313e-16 1.0
  outer loop
    vertex 174.56850447194284 -55.03444282294721 10.000000000000018
    vertex 176.2393732279744 -52.53444282294723 10.000000000000018
    vertex 174.23937322797437 -52.53444282294722 10.000000000000018
  endloop
endfacet
facet normal -4.337707186089557e-16 -1.4099832412739313e-16 1.0
  outer loop
    vertex 176.2393732279744 -52.53444282294723 10.000000000000018
    vertex 174.56850447194284 -55.03444282294721 10.000000000000018
    vertex 176.2393732279744 -57.53444282294724 10.000000000000018
  endloop
endfacet
facet normal -4.337707186089557e-16 -1.4099832412739313e-16 1.0
  outer loop
    vertex 176.2393732279744 -52.53444282294723 10.000000000000018
    vertex 176.2393732279744 -57.53444282294724 10.000000000000018
    vertex 176.56850447194284 -55.03444282294722 10.000000000000018
  endloop
endfacet
facet normal -2.819966482547871e-15 -1.0 1.127986593019167e-15
  outer loop
    vertex 176.2393732279744 -52.53444282294722 14.999999999999984
    vertex 174.23937322797437 -52.53444282294722 10.000000000000018
    vertex 176.2393732279744 -52.53444282294723 10.000000000000018
  endloop
endfacet
facet normal -2.819966482547871e-15 -1.0 1.127986593019167e-15
  outer loop
    vertex 174.23937322797437 -52.53444282294722 10.000000000000018
    vertex 176.2393732279744 -52.53444282294722 14.999999999999984
    vertex 174.23937322797437 -52.53444282294722 14.999999999999984
  endloop
endfacet
facet normal 9.430682228066404e-16 1.4099832412739444e-16 1.0
  outer loop
    vertex 132.89763571591138 -57.53444282294724 10.00000000000003
    vertex 132.89763571591138 -52.53444282294723 10.00000000000003
    vertex 132.56850447194284 -55.03444282294722 10.00000000000003
  endloop
endfacet
facet normal 9.430682228066404e-16 1.4099832412739444e-16 1.0
  outer loop
    vertex 132.89763571591138 -52.53444282294723 10.00000000000003
    vertex 132.89763571591138 -57.53444282294724 10.00000000000003
    vertex 134.89763571591135 -57.53444282294723 10.000000000000028
  endloop
endfacet
facet normal 9.430682228066404e-16 1.4099832412739444e-16 1.0
  outer loop
    vertex 132.89763571591138 -52.53444282294723 10.00000000000003
    vertex 134.89763571591135 -57.53444282294723 10.000000000000028
    vertex 134.56850447194287 -55.03444282294721 10.000000000000028
  endloop
endfacet
facet normal 9.430682228066404e-16 1.4099832412739444e-16 1.0
  outer loop
    vertex 134.89763571591135 -52.53444282294722 10.000000000000027
    vertex 132.89763571591138 -52.53444282294723 10.00000000000003
    vertex 134.56850447194287 -55.03444282294721 10.000000000000028
  endloop
endfacet
facet normal 3.582439330202278e-16 -1.749261945983723e-30 -1.0
  outer loop
    vertex 176.2393732279744 -52.53444282294722 14.999999999999984
    vertex 174.56850447194284 -55.03444282294721 14.99999999999998
    vertex 174.23937322797437 -52.53444282294722 14.999999999999984
  endloop
endfacet
facet normal 3.582439330202278e-16 -1.749261945983723e-30 -1.0
  outer loop
    vertex 174.56850447194284 -55.03444282294721 14.99999999999998
    vertex 176.2393732279744 -57.53444282294723 14.999999999999984
    vertex 174.23937322797434 -57.53444282294723 14.999999999999984
  endloop
endfacet
facet normal 3.582439330202278e-16 -1.749261945983723e-30 -1.0
  outer loop
    vertex 176.2393732279744 -57.53444282294723 14.999999999999984
    vertex 174.56850447194284 -55.03444282294721 14.99999999999998
    vertex 176.2393732279744 -52.53444282294722 14.999999999999984
  endloop
endfacet
facet normal 3.582439330202278e-16 -1.749261945983723e-30 -1.0
  outer loop
    vertex 176.2393732279744 -57.53444282294723 14.999999999999984
    vertex 176.2393732279744 -52.53444282294722 14.999999999999984
    vertex 176.56850447194284 -55.03444282294722 14.999999999999984
  endloop
endfacet
facet normal 2.8199664825478395e-15 1.0 -1.1279865930191666e-15
  outer loop
    vertex 174.23937322797434 -57.53444282294723 14.999999999999984
    vertex 176.2393732279744 -57.53444282294724 10.000000000000018
    vertex 174.23937322797434 -57.53444282294723 10.000000000000018
  endloop
endfacet
facet normal 2.8199664825478395e-15 1.0 -1.1279865930191666e-15
  outer loop
    vertex 176.2393732279744 -57.53444282294724 10.000000000000018
    vertex 174.23937322797434 -57.53444282294723 14.999999999999984
    vertex 176.2393732279744 -57.53444282294723 14.999999999999984
  endloop
endfacet
facet normal 1.0 -0.0 -0.0
  outer loop
    vertex 152.06850447194284 -74.70531157897872 10.000000000000059
    vertex 152.06850447194284 -76.70531157897874 15.000000000000028
    vertex 152.06850447194284 -76.70531157897874 10.000000000000059
  endloop
endfacet
facet normal 1.0 -0.0 -0.0
  outer loop
    vertex 152.06850447194284 -76.70531157897874 15.000000000000028
    vertex 152.06850447194284 -74.70531157897872 10.000000000000059
    vertex 152.06850447194284 -74.70531157897872 15.000000000000028
  endloop
endfacet
facet normal -0.7933533402912348 0.6087614290087211 1.55807077337696e-15
  outer loop
    vertex 139.01215528583882 -39.47809363684316 25.00000000000007
    vertex 135.5159455886852 -44.03444282294721 8.062333505126498e-14
    vertex 135.5159455886852 -44.03444282294721 25.000000000000078
  endloop
endfacet
facet normal -0.7933533402912348 0.6087614290087211 1.55807077337696e-15
  outer loop
    vertex 135.5159455886852 -44.03444282294721 8.062333505126498e-14
    vertex 139.01215528583882 -39.47809363684316 25.00000000000007
    vertex 139.01215528583882 -39.47809363684316 7.375711054563365e-14
  endloop
endfacet
facet normal 0.9914448613738107 0.13052619222004952 -7.19170690287785e-18
  outer loop
    vertex 175.81887265030238 -49.34042383069177 1.4722058542825644e-15
    vertex 176.56850447194284 -55.03444282294722 10.000000000000018
    vertex 176.56850447194284 -55.03444282294722 0.0
  endloop
endfacet
facet normal 0.9914448613738107 0.13052619222004952 -7.19170690287785e-18
  outer loop
    vertex 176.56850447194284 -55.03444282294722 10.000000000000018
    vertex 175.81887265030238 -49.34042383069177 1.4722058542825644e-15
    vertex 176.2393732279744 -52.53444282294723 10.000000000000018
  endloop
endfacet
facet normal 0.9914448613738107 0.13052619222004952 -7.19170690287785e-18
  outer loop
    vertex 176.2393732279744 -52.53444282294723 10.000000000000018
    vertex 175.81887265030238 -49.34042383069177 1.4722058542825644e-15
    vertex 176.2393732279744 -52.53444282294722 14.999999999999984
  endloop
endfacet
facet normal 0.9914448613738107 0.13052619222004952 -7.19170690287785e-18
  outer loop
    vertex 176.2393732279744 -52.53444282294722 14.999999999999984
    vertex 176.56850447194284 -55.03444282294722 25.0
    vertex 176.56850447194284 -55.03444282294722 14.999999999999984
  endloop
endfacet
facet normal 0.9914448613738107 0.13052619222004952 -7.19170690287785e-18
  outer loop
    vertex 176.56850447194284 -55.03444282294722 25.0
    vertex 176.2393732279744 -52.53444282294722 14.999999999999984
    vertex 175.81887265030238 -49.34042383069177 25.0
  endloop
endfacet
facet normal 0.9914448613738107 0.13052619222004952 -7.19170690287785e-18
  outer loop
    vertex 175.81887265030238 -49.34042383069177 25.0
    vertex 176.2393732279744 -52.53444282294722 14.999999999999984
    vertex 175.81887265030238 -49.34042383069177 1.4722058542825644e-15
  endloop
endfacet
facet normal -0.13052619222005146 0.9914448613738105 2.5964972852600647e-18
  outer loop
    vertex 148.8744854796874 -33.78407464458772 25.000000000000057
    vertex 152.06850447194282 -33.36357406691571 10.000000000000053
    vertex 148.8744854796874 -33.78407464458772 5.438842870862545e-14
  endloop
endfacet
facet normal -0.13052619222005146 0.9914448613738105 2.5964972852600647e-18
  outer loop
    vertex 152.06850447194282 -33.36357406691571 10.000000000000053
    vertex 148.8744854796874 -33.78407464458772 25.000000000000057
    vertex 152.06850447194282 -33.36357406691571 15.000000000000028
  endloop
endfacet
facet normal -0.13052619222005146 0.9914448613738105 2.5964972852600647e-18
  outer loop
    vertex 152.06850447194282 -33.36357406691571 15.000000000000028
    vertex 148.8744854796874 -33.78407464458772 25.000000000000057
    vertex 154.56850447194287 -33.03444282294722 15.000000000000028
  endloop
endfacet
facet normal -0.13052619222005146 0.9914448613738105 2.5964972852600647e-18
  outer loop
    vertex 154.56850447194287 -33.03444282294722 15.000000000000028
    vertex 148.8744854796874 -33.78407464458772 25.000000000000057
    vertex 154.56850447194284 -33.03444282294722 25.000000000000046
  endloop
endfacet
facet normal -0.13052619222005146 0.9914448613738105 2.5964972852600647e-18
  outer loop
    vertex 148.8744854796874 -33.78407464458772 5.438842870862545e-14
    vertex 154.56850447194287 -33.03444282294722 10.000000000000053
    vertex 154.56850447194284 -33.03444282294722 4.3205915036180566e-14
  endloop
endfacet
facet normal -0.13052619222005146 0.9914448613738105 2.5964972852600647e-18
  outer loop
    vertex 154.56850447194287 -33.03444282294722 10.000000000000053
    vertex 148.8744854796874 -33.78407464458772 5.438842870862545e-14
    vertex 152.06850447194282 -33.36357406691571 10.000000000000053
  endloop
endfacet
facet normal 0.9914448613738109 0.13052619222004805 1.9084485513464727e-20
  outer loop
    vertex 135.24998794616147 -60.210823724997624 8.114565065608783e-14
    vertex 134.89763571591135 -57.53444282294723 10.000000000000028
    vertex 135.24998794616147 -60.210823724997624 25.000000000000078
  endloop
endfacet
facet normal 0.9914448613738109 0.13052619222004805 1.9084485513464727e-20
  outer loop
    vertex 134.89763571591135 -57.53444282294723 10.000000000000028
    vertex 135.24998794616147 -60.210823724997624 8.114565065608783e-14
    vertex 134.56850447194287 -55.03444282294721 8.248401961452654e-14
  endloop
endfacet
facet normal 0.9914448613738109 0.13052619222004805 1.9084485513464727e-20
  outer loop
    vertex 134.89763571591135 -57.53444282294723 10.000000000000028
    vertex 134.56850447194287 -55.03444282294721 8.248401961452654e-14
    vertex 134.56850447194287 -55.03444282294721 10.000000000000028
  endloop
endfacet
facet normal 0.9914448613738109 0.13052619222004805 1.9084485513464727e-20
  outer loop
    vertex 135.24998794616147 -60.210823724997624 25.000000000000078
    vertex 134.89763571591135 -57.53444282294723 15.000000000000007
    vertex 134.56850447194287 -55.03444282294721 25.000000000000078
  endloop
endfacet
facet normal 0.9914448613738109 0.13052619222004805 1.9084485513464727e-20
  outer loop
    vertex 134.89763571591135 -57.53444282294723 15.000000000000007
    vertex 135.24998794616147 -60.210823724997624 25.000000000000078
    vertex 134.89763571591135 -57.53444282294723 10.000000000000028
  endloop
endfacet
facet normal 0.9914448613738109 0.13052619222004805 1.9084485513464727e-20
  outer loop
    vertex 134.56850447194287 -55.03444282294721 25.000000000000078
    vertex 134.89763571591135 -57.53444282294723 15.000000000000007
    vertex 134.56850447194287 -55.03444282294721 15.000000000000007
  endloop
endfacet
facet normal 0.9238795325112873 0.38268343236508845 -1.8144118447885856e-15
  outer loop
    vertex 173.62106335520053 -44.03444282294722 5.788495021096138e-15
    vertex 175.81887265030238 -49.34042383069177 25.0
    vertex 175.81887265030238 -49.34042383069177 1.4722058542825644e-15
  endloop
endfacet
facet normal 0.9238795325112873 0.38268343236508845 -1.8144118447885856e-15
  outer loop
    vertex 175.81887265030238 -49.34042383069177 25.0
    vertex 173.62106335520053 -44.03444282294722 5.788495021096138e-15
    vertex 173.62106335520053 -44.03444282294722 25.000000000000004
  endloop
endfacet
facet normal 0.9914448613738109 -0.130526192220048 1.9084485513511455e-20
  outer loop
    vertex 135.24998794616147 -49.858061920896795 8.114565065608783e-14
    vertex 134.56850447194287 -55.03444282294721 10.000000000000028
    vertex 134.56850447194287 -55.03444282294721 8.248401961452654e-14
  endloop
endfacet
facet normal 0.9914448613738109 -0.130526192220048 1.9084485513511455e-20
  outer loop
    vertex 134.56850447194287 -55.03444282294721 10.000000000000028
    vertex 135.24998794616147 -49.858061920896795 8.114565065608783e-14
    vertex 134.89763571591135 -52.53444282294722 10.000000000000027
  endloop
endfacet
facet normal 0.9914448613738109 -0.130526192220048 1.9084485513511455e-20
  outer loop
    vertex 134.89763571591135 -52.53444282294722 10.000000000000027
    vertex 135.24998794616147 -49.858061920896795 8.114565065608783e-14
    vertex 134.89763571591135 -52.53444282294722 15.000000000000007
  endloop
endfacet
facet normal 0.9914448613738109 -0.130526192220048 1.9084485513511455e-20
  outer loop
    vertex 134.89763571591135 -52.53444282294722 15.000000000000007
    vertex 134.56850447194287 -55.03444282294721 25.000000000000078
    vertex 134.56850447194287 -55.03444282294721 15.000000000000007
  endloop
endfacet
facet normal 0.9914448613738109 -0.130526192220048 1.9084485513511455e-20
  outer loop
    vertex 134.56850447194287 -55.03444282294721 25.000000000000078
    vertex 134.89763571591135 -52.53444282294722 15.000000000000007
    vertex 135.24998794616147 -49.858061920896795 25.000000000000078
  endloop
endfacet
facet normal 0.9914448613738109 -0.130526192220048 1.9084485513511455e-20
  outer loop
    vertex 135.24998794616147 -49.858061920896795 25.000000000000078
    vertex 134.89763571591135 -52.53444282294722 15.000000000000007
    vertex 135.24998794616147 -49.858061920896795 8.114565065608783e-14
  endloop
endfacet
facet normal -0.9238795325112867 -0.38268343236508984 -9.740029493483779e-20
  outer loop
    vertex 171.88901254763164 -45.03444282294723 25.00000000000001
    vertex 173.88702099772422 -49.85806192089681 5.2661794162733036e-15
    vertex 173.88702099772422 -49.85806192089681 25.000000000000004
  endloop
endfacet
facet normal -0.9238795325112867 -0.38268343236508984 -9.740029493483779e-20
  outer loop
    vertex 173.88702099772422 -49.85806192089681 5.2661794162733036e-15
    vertex 171.88901254763164 -45.03444282294723 25.00000000000001
    vertex 171.88901254763164 -45.03444282294723 9.190078658831078e-15
  endloop
endfacet
facet normal 0.13052619222004996 -0.9914448613738107 -9.802716806642783e-19
  outer loop
    vertex 154.56850447194284 -35.03444282294721 25.000000000000046
    vertex 152.06850447194284 -35.36357406691571 15.000000000000028
    vertex 154.56850447194293 -35.03444282294723 15.000000000000028
  endloop
endfacet
facet normal 0.13052619222004996 -0.9914448613738107 -9.802716806642783e-19
  outer loop
    vertex 154.56850447194293 -35.03444282294723 10.000000000000053
    vertex 149.39212356989245 -35.71592629716585 5.3371836556585016e-14
    vertex 154.56850447194284 -35.03444282294721 4.320591503618057e-14
  endloop
endfacet
facet normal 0.13052619222004996 -0.9914448613738107 -9.802716806642783e-19
  outer loop
    vertex 149.39212356989245 -35.71592629716585 5.3371836556585016e-14
    vertex 154.56850447194293 -35.03444282294723 10.000000000000053
    vertex 152.06850447194284 -35.36357406691571 10.000000000000053
  endloop
endfacet
facet normal 0.13052619222004996 -0.9914448613738107 -9.802716806642783e-19
  outer loop
    vertex 149.39212356989245 -35.71592629716585 5.3371836556585016e-14
    vertex 152.06850447194284 -35.36357406691571 10.000000000000053
    vertex 149.39212356989245 -35.71592629716585 25.000000000000057
  endloop
endfacet
facet normal 0.13052619222004996 -0.9914448613738107 -9.802716806642783e-19
  outer loop
    vertex 149.39212356989245 -35.71592629716585 25.000000000000057
    vertex 152.06850447194284 -35.36357406691571 10.000000000000053
    vertex 152.06850447194284 -35.36357406691571 15.000000000000028
  endloop
endfacet
facet normal 0.13052619222004996 -0.9914448613738107 -9.802716806642783e-19
  outer loop
    vertex 149.39212356989245 -35.71592629716585 25.000000000000057
    vertex 152.06850447194284 -35.36357406691571 15.000000000000028
    vertex 154.56850447194284 -35.03444282294721 25.000000000000046
  endloop
endfacet
facet normal 0.9238795325112844 -0.38268343236509594 -1.81441184478858e-15
  outer loop
    vertex 175.81887265030238 -60.72846181520268 1.4722058542825745e-15
    vertex 173.62106335520048 -66.03444282294721 25.000000000000004
    vertex 173.62106335520048 -66.03444282294721 5.788495021096148e-15
  endloop
endfacet
facet normal 0.9238795325112844 -0.38268343236509594 -1.81441184478858e-15
  outer loop
    vertex 173.62106335520048 -66.03444282294721 25.000000000000004
    vertex 175.81887265030238 -60.72846181520268 1.4722058542825745e-15
    vertex 175.81887265030238 -60.72846181520268 25.0
  endloop
endfacet
facet normal -0.3826834323650911 -0.9238795325112862 -9.405804520434464e-19
  outer loop
    vertex 164.56850447194284 -37.71393474725845 25.00000000000002
    vertex 159.7448853739933 -35.71592629716586 3.303999351577609e-14
    vertex 164.56850447194284 -37.71393474725845 2.356686274700757e-14
  endloop
endfacet
facet normal -0.3826834323650911 -0.9238795325112862 -9.405804520434464e-19
  outer loop
    vertex 159.7448853739933 -35.71592629716586 3.303999351577609e-14
    vertex 164.56850447194284 -37.71393474725845 25.00000000000002
    vertex 159.7448853739933 -35.71592629716586 25.000000000000032
  endloop
endfacet
facet normal -0.38268343236508845 0.9238795325112873 7.515539938418161e-16
  outer loop
    vertex 143.56850447194284 -35.98188393968956 6.480887255427085e-14
    vertex 148.8744854796874 -33.78407464458772 25.000000000000057
    vertex 148.8744854796874 -33.78407464458772 5.438842870862545e-14
  endloop
endfacet
facet normal -0.38268343236508845 0.9238795325112873 7.515539938418161e-16
  outer loop
    vertex 148.8744854796874 -33.78407464458772 25.000000000000057
    vertex 143.56850447194284 -35.98188393968956 6.480887255427085e-14
    vertex 143.56850447194284 -35.98188393968956 25.000000000000068
  endloop
endfacet
facet normal 0.9238795325112854 -0.3826834323650931 -1.6056712679347554e-18
  outer loop
    vertex 137.24799639625408 -45.03444282294721 7.722175141353004e-14
    vertex 135.24998794616147 -49.858061920896795 25.000000000000078
    vertex 135.24998794616147 -49.858061920896795 8.114565065608783e-14
  endloop
endfacet
facet normal 0.9238795325112854 -0.3826834323650931 -1.6056712679347554e-18
  outer loop
    vertex 135.24998794616147 -49.858061920896795 25.000000000000078
    vertex 137.24799639625408 -45.03444282294721 7.722175141353004e-14
    vertex 137.24799639625408 -45.03444282294721 25.000000000000078
  endloop
endfacet
facet normal 0.3826834323650901 0.9238795325112866 -7.515539938418194e-16
  outer loop
    vertex 160.26252346419832 -33.78407464458772 3.202340136373566e-14
    vertex 165.56850447194287 -35.981883939689574 25.00000000000002
    vertex 165.56850447194287 -35.981883939689574 2.160295751809027e-14
  endloop
endfacet
facet normal 0.3826834323650901 0.9238795325112866 -7.515539938418194e-16
  outer loop
    vertex 165.56850447194287 -35.981883939689574 25.00000000000002
    vertex 160.26252346419832 -33.78407464458772 3.202340136373566e-14
    vertex 160.26252346419832 -33.78407464458772 25.000000000000032
  endloop
endfacet
facet normal -0.9914448613738105 0.13052619222005143 -1.4345244834727588e-18
  outer loop
    vertex 173.8870209977242 -60.210823724997645 25.000000000000004
    vertex 174.23937322797434 -57.53444282294723 14.999999999999984
    vertex 173.8870209977242 -60.210823724997645 5.266179416273313e-15
  endloop
endfacet
facet normal -0.9914448613738105 0.13052619222005143 -1.4345244834727588e-18
  outer loop
    vertex 174.23937322797434 -57.53444282294723 14.999999999999984
    vertex 173.8870209977242 -60.210823724997645 25.000000000000004
    vertex 174.56850447194284 -55.03444282294721 25.0
  endloop
endfacet
facet normal -0.9914448613738105 0.13052619222005143 -1.4345244834727588e-18
  outer loop
    vertex 174.23937322797434 -57.53444282294723 14.999999999999984
    vertex 174.56850447194284 -55.03444282294721 25.0
    vertex 174.56850447194284 -55.03444282294721 14.99999999999998
  endloop
endfacet
facet normal -0.9914448613738105 0.13052619222005143 -1.4345244834727588e-18
  outer loop
    vertex 173.8870209977242 -60.210823724997645 5.266179416273313e-15
    vertex 174.23937322797434 -57.53444282294723 10.000000000000018
    vertex 174.56850447194284 -55.03444282294721 3.9278104578346e-15
  endloop
endfacet
facet normal -0.9914448613738105 0.13052619222005143 -1.4345244834727588e-18
  outer loop
    vertex 174.23937322797434 -57.53444282294723 10.000000000000018
    vertex 173.8870209977242 -60.210823724997645 5.266179416273313e-15
    vertex 174.23937322797434 -57.53444282294723 14.999999999999984
  endloop
endfacet
facet normal -0.9914448613738105 0.13052619222005143 -1.4345244834727588e-18
  outer loop
    vertex 174.56850447194284 -55.03444282294721 3.9278104578346e-15
    vertex 174.23937322797434 -57.53444282294723 10.000000000000018
    vertex 174.56850447194284 -55.03444282294721 10.000000000000018
  endloop
endfacet
facet normal 0.7933533402912367 -0.6087614290087187 -1.5580707733769638e-15
  outer loop
    vertex 173.62106335520048 -66.03444282294721 5.788495021096148e-15
    vertex 170.1248536580469 -70.59079200905126 25.00000000000001
    vertex 170.1248536580469 -70.59079200905126 1.265471952672747e-14
  endloop
endfacet
facet normal 0.7933533402912367 -0.6087614290087187 -1.5580707733769638e-15
  outer loop
    vertex 170.1248536580469 -70.59079200905126 25.00000000000001
    vertex 173.62106335520048 -66.03444282294721 5.788495021096148e-15
    vertex 173.62106335520048 -66.03444282294721 25.000000000000004
  endloop
endfacet
facet normal 1.9729646640152515e-15 -6.6162653055056334e-18 1.0
  outer loop
    vertex 133.31813629358336 -60.72846181520267 25.000000000000085
    vertex 133.31813629358336 -49.34042383069175 25.000000000000085
    vertex 132.56850447194284 -55.03444282294721 25.00000000000009
  endloop
endfacet
facet normal 1.9729646640152515e-15 -6.6162653055056334e-18 1.0
  outer loop
    vertex 133.31813629358336 -49.34042383069175 25.000000000000085
    vertex 133.31813629358336 -60.72846181520267 25.000000000000085
    vertex 135.5159455886852 -66.0344428229472 25.000000000000078
  endloop
endfacet
facet normal 1.9729646640152515e-15 -6.6162653055056334e-18 1.0
  outer loop
    vertex 133.31813629358336 -49.34042383069175 25.000000000000085
    vertex 135.5159455886852 -66.0344428229472 25.000000000000078
    vertex 134.56850447194287 -55.03444282294721 25.000000000000078
  endloop
endfacet
facet normal 1.9729646640152515e-15 -6.6162653055056334e-18 1.0
  outer loop
    vertex 134.56850447194287 -55.03444282294721 25.000000000000078
    vertex 135.5159455886852 -66.0344428229472 25.000000000000078
    vertex 135.24998794616147 -60.210823724997624 25.000000000000078
  endloop
endfacet
facet normal 1.9729646640152515e-15 -6.6162653055056334e-18 1.0
  outer loop
    vertex 135.24998794616147 -60.210823724997624 25.000000000000078
    vertex 135.5159455886852 -66.0344428229472 25.000000000000078
    vertex 137.24799639625408 -65.0344428229472 25.000000000000078
  endloop
endfacet
facet normal 1.9729646640152515e-15 -6.6162653055056334e-18 1.0
  outer loop
    vertex 137.24799639625408 -65.0344428229472 25.000000000000078
    vertex 135.5159455886852 -66.0344428229472 25.000000000000078
    vertex 139.01215528583882 -70.59079200905126 25.00000000000007
  endloop
endfacet
facet normal 1.9729646640152515e-15 -6.6162653055056334e-18 1.0
  outer loop
    vertex 137.24799639625408 -65.0344428229472 25.000000000000078
    vertex 139.01215528583882 -70.59079200905126 25.00000000000007
    vertex 140.42636884821192 -69.17657844667815 25.000000000000068
  endloop
endfacet
facet normal 1.9729646640152515e-15 -6.6162653055056334e-18 1.0
  outer loop
    vertex 140.42636884821192 -69.17657844667815 25.000000000000068
    vertex 139.01215528583882 -70.59079200905126 25.00000000000007
    vertex 143.56850447194284 -74.08700170620486 25.000000000000068
  endloop
endfacet
facet normal 1.9729646640152515e-15 -6.6162653055056334e-18 1.0
  outer loop
    vertex 140.42636884821192 -69.17657844667815 25.000000000000068
    vertex 143.56850447194284 -74.08700170620486 25.000000000000068
    vertex 144.56850447194284 -72.35495089863598 25.00000000000006
  endloop
endfacet
facet normal 1.9729646640152515e-15 -6.6162653055056334e-18 1.0
  outer loop
    vertex 144.56850447194284 -72.35495089863598 25.00000000000006
    vertex 143.56850447194284 -74.08700170620486 25.000000000000068
    vertex 148.87448547968737 -76.28481100130672 25.000000000000057
  endloop
endfacet
facet normal 1.9729646640152515e-15 -6.6162653055056334e-18 1.0
  outer loop
    vertex 144.56850447194284 -72.35495089863598 25.00000000000006
    vertex 148.87448547968737 -76.28481100130672 25.000000000000057
    vertex 149.39212356989245 -74.35295934872858 25.000000000000057
  endloop
endfacet
facet normal 1.9729646640152515e-15 -6.6162653055056334e-18 1.0
  outer loop
    vertex 149.39212356989245 -74.35295934872858 25.000000000000057
    vertex 148.87448547968737 -76.28481100130672 25.000000000000057
    vertex 154.56850447194284 -77.03444282294721 25.000000000000046
  endloop
endfacet
facet normal 1.9729646640152515e-15 -6.6162653055056334e-18 1.0
  outer loop
    vertex 149.39212356989245 -74.35295934872858 25.000000000000057
    vertex 154.56850447194284 -77.03444282294721 25.000000000000046
    vertex 154.56850447194284 -75.03444282294721 25.000000000000046
  endloop
endfacet
facet normal 1.9729646640152515e-15 -6.6162653055056334e-18 1.0
  outer loop
    vertex 154.56850447194284 -75.03444282294721 25.000000000000046
    vertex 154.56850447194284 -77.03444282294721 25.000000000000046
    vertex 160.26252346419832 -76.28481100130672 25.000000000000032
  endloop
endfacet
facet normal 1.9729646640152515e-15 -6.6162653055056334e-18 1.0
  outer loop
    vertex 154.56850447194284 -75.03444282294721 25.000000000000046
    vertex 160.26252346419832 -76.28481100130672 25.000000000000032
    vertex 159.74488537399327 -74.35295934872858 25.000000000000032
  endloop
endfacet
facet normal 1.9729646640152515e-15 -6.6162653055056334e-18 1.0
  outer loop
    vertex 159.74488537399327 -74.35295934872858 25.000000000000032
    vertex 160.26252346419832 -76.28481100130672 25.000000000000032
    vertex 164.56850447194284 -72.35495089863599 25.00000000000002
  endloop
endfacet
facet normal 1.9729646640152515e-15 -6.6162653055056334e-18 1.0
  outer loop
    vertex 164.56850447194284 -72.35495089863599 25.00000000000002
    vertex 160.26252346419832 -76.28481100130672 25.000000000000032
    vertex 165.56850447194284 -74.08700170620486 25.00000000000002
  endloop
endfacet
facet normal 1.9729646640152515e-15 -6.6162653055056334e-18 1.0
  outer loop
    vertex 164.56850447194284 -72.35495089863599 25.00000000000002
    vertex 165.56850447194284 -74.08700170620486 25.00000000000002
    vertex 168.7106400956738 -69.17657844667816 25.00000000000001
  endloop
endfacet
facet normal 1.9729646640152515e-15 -6.6162653055056334e-18 1.0
  outer loop
    vertex 168.7106400956738 -69.17657844667816 25.00000000000001
    vertex 165.56850447194284 -74.08700170620486 25.00000000000002
    vertex 170.1248536580469 -70.59079200905126 25.00000000000001
  endloop
endfacet
facet normal 1.9729646640152515e-15 -6.6162653055056334e-18 1.0
  outer loop
    vertex 168.7106400956738 -69.17657844667816 25.00000000000001
    vertex 170.1248536580469 -70.59079200905126 25.00000000000001
    vertex 171.8890125476316 -65.03444282294721 25.00000000000001
  endloop
endfacet
facet normal 1.9729646640152515e-15 -6.6162653055056334e-18 1.0
  outer loop
    vertex 171.8890125476316 -65.03444282294721 25.00000000000001
    vertex 170.1248536580469 -70.59079200905126 25.00000000000001
    vertex 173.62106335520048 -66.03444282294721 25.000000000000004
  endloop
endfacet
facet normal 1.9729646640152515e-15 -6.6162653055056334e-18 1.0
  outer loop
    vertex 171.8890125476316 -65.03444282294721 25.00000000000001
    vertex 173.62106335520048 -66.03444282294721 25.000000000000004
    vertex 173.8870209977242 -60.210823724997645 25.000000000000004
  endloop
endfacet
facet normal 1.9729646640152515e-15 -6.6162653055056334e-18 1.0
  outer loop
    vertex 173.8870209977242 -60.210823724997645 25.000000000000004
    vertex 173.62106335520048 -66.03444282294721 25.000000000000004
    vertex 175.81887265030238 -60.72846181520268 25.0
  endloop
endfacet
facet normal 1.9729646640152515e-15 -6.6162653055056334e-18 1.0
  outer loop
    vertex 173.8870209977242 -60.210823724997645 25.000000000000004
    vertex 175.81887265030238 -60.72846181520268 25.0
    vertex 174.56850447194284 -55.03444282294721 25.0
  endloop
endfacet
facet normal 1.9729646640152515e-15 -6.6162653055056334e-18 1.0
  outer loop
    vertex 134.56850447194287 -55.03444282294721 25.000000000000078
    vertex 135.5159455886852 -44.03444282294721 25.000000000000078
    vertex 133.31813629358336 -49.34042383069175 25.000000000000085
  endloop
endfacet
facet normal 1.9729646640152515e-15 -6.6162653055056334e-18 1.0
  outer loop
    vertex 135.5159455886852 -44.03444282294721 25.000000000000078
    vertex 134.56850447194287 -55.03444282294721 25.000000000000078
    vertex 135.24998794616147 -49.858061920896795 25.000000000000078
  endloop
endfacet
facet normal 1.9729646640152515e-15 -6.6162653055056334e-18 1.0
  outer loop
    vertex 135.5159455886852 -44.03444282294721 25.000000000000078
    vertex 135.24998794616147 -49.858061920896795 25.000000000000078
    vertex 137.24799639625408 -45.03444282294721 25.000000000000078
  endloop
endfacet
facet normal 1.9729646640152515e-15 -6.6162653055056334e-18 1.0
  outer loop
    vertex 135.5159455886852 -44.03444282294721 25.000000000000078
    vertex 137.24799639625408 -45.03444282294721 25.000000000000078
    vertex 139.01215528583882 -39.47809363684316 25.00000000000007
  endloop
endfacet
facet normal 1.9729646640152515e-15 -6.6162653055056334e-18 1.0
  outer loop
    vertex 139.01215528583882 -39.47809363684316 25.00000000000007
    vertex 137.24799639625408 -45.03444282294721 25.000000000000078
    vertex 140.42636884821192 -40.89230719921627 25.000000000000068
  endloop
endfacet
facet normal 1.9729646640152515e-15 -6.6162653055056334e-18 1.0
  outer loop
    vertex 139.01215528583882 -39.47809363684316 25.00000000000007
    vertex 140.42636884821192 -40.89230719921627 25.000000000000068
    vertex 143.56850447194284 -35.98188393968956 25.000000000000068
  endloop
endfacet
facet normal 1.9729646640152515e-15 -6.6162653055056334e-18 1.0
  outer loop
    vertex 143.56850447194284 -35.98188393968956 25.000000000000068
    vertex 140.42636884821192 -40.89230719921627 25.000000000000068
    vertex 144.56850447194284 -37.71393474725844 25.00000000000006
  endloop
endfacet
facet normal 1.9729646640152515e-15 -6.6162653055056334e-18 1.0
  outer loop
    vertex 143.56850447194284 -35.98188393968956 25.000000000000068
    vertex 144.56850447194284 -37.71393474725844 25.00000000000006
    vertex 148.8744854796874 -33.78407464458772 25.000000000000057
  endloop
endfacet
facet normal 1.9729646640152515e-15 -6.6162653055056334e-18 1.0
  outer loop
    vertex 148.8744854796874 -33.78407464458772 25.000000000000057
    vertex 144.56850447194284 -37.71393474725844 25.00000000000006
    vertex 149.39212356989245 -35.71592629716585 25.000000000000057
  endloop
endfacet
facet normal 1.9729646640152515e-15 -6.6162653055056334e-18 1.0
  outer loop
    vertex 148.8744854796874 -33.78407464458772 25.000000000000057
    vertex 149.39212356989245 -35.71592629716585 25.000000000000057
    vertex 154.56850447194284 -33.03444282294722 25.000000000000046
  endloop
endfacet
facet normal 1.9729646640152515e-15 -6.6162653055056334e-18 1.0
  outer loop
    vertex 154.56850447194284 -33.03444282294722 25.000000000000046
    vertex 149.39212356989245 -35.71592629716585 25.000000000000057
    vertex 154.56850447194284 -35.03444282294721 25.000000000000046
  endloop
endfacet
facet normal 1.9729646640152515e-15 -6.6162653055056334e-18 1.0
  outer loop
    vertex 154.56850447194284 -33.03444282294722 25.000000000000046
    vertex 154.56850447194284 -35.03444282294721 25.000000000000046
    vertex 159.7448853739933 -35.71592629716586 25.000000000000032
  endloop
endfacet
facet normal 1.9729646640152515e-15 -6.6162653055056334e-18 1.0
  outer loop
    vertex 154.56850447194284 -33.03444282294722 25.000000000000046
    vertex 159.7448853739933 -35.71592629716586 25.000000000000032
    vertex 160.26252346419832 -33.78407464458772 25.000000000000032
  endloop
endfacet
facet normal 1.9729646640152515e-15 -6.6162653055056334e-18 1.0
  outer loop
    vertex 160.26252346419832 -33.78407464458772 25.000000000000032
    vertex 159.7448853739933 -35.71592629716586 25.000000000000032
    vertex 164.56850447194284 -37.71393474725845 25.00000000000002
  endloop
endfacet
facet normal 1.9729646640152515e-15 -6.6162653055056334e-18 1.0
  outer loop
    vertex 160.26252346419832 -33.78407464458772 25.000000000000032
    vertex 164.56850447194284 -37.71393474725845 25.00000000000002
    vertex 165.56850447194287 -35.981883939689574 25.00000000000002
  endloop
endfacet
facet normal 1.9729646640152515e-15 -6.6162653055056334e-18 1.0
  outer loop
    vertex 165.56850447194287 -35.981883939689574 25.00000000000002
    vertex 164.56850447194284 -37.71393474725845 25.00000000000002
    vertex 168.71064009567382 -40.89230719921627 25.00000000000001
  endloop
endfacet
facet normal 1.9729646640152515e-15 -6.6162653055056334e-18 1.0
  outer loop
    vertex 165.56850447194287 -35.981883939689574 25.00000000000002
    vertex 168.71064009567382 -40.89230719921627 25.00000000000001
    vertex 170.1248536580469 -39.47809363684317 25.00000000000001
  endloop
endfacet
facet normal 1.9729646640152515e-15 -6.6162653055056334e-18 1.0
  outer loop
    vertex 170.1248536580469 -39.47809363684317 25.00000000000001
    vertex 168.71064009567382 -40.89230719921627 25.00000000000001
    vertex 171.88901254763164 -45.03444282294723 25.00000000000001
  endloop
endfacet
facet normal 1.9729646640152515e-15 -6.6162653055056334e-18 1.0
  outer loop
    vertex 170.1248536580469 -39.47809363684317 25.00000000000001
    vertex 171.88901254763164 -45.03444282294723 25.00000000000001
    vertex 173.62106335520053 -44.03444282294722 25.000000000000004
  endloop
endfacet
facet normal 1.9729646640152515e-15 -6.6162653055056334e-18 1.0
  outer loop
    vertex 173.62106335520053 -44.03444282294722 25.000000000000004
    vertex 171.88901254763164 -45.03444282294723 25.00000000000001
    vertex 173.88702099772422 -49.85806192089681 25.000000000000004
  endloop
endfacet
facet normal 1.9729646640152515e-15 -6.6162653055056334e-18 1.0
  outer loop
    vertex 173.62106335520053 -44.03444282294722 25.000000000000004
    vertex 173.88702099772422 -49.85806192089681 25.000000000000004
    vertex 175.81887265030238 -49.34042383069177 25.0
  endloop
endfacet
facet normal 1.9729646640152515e-15 -6.6162653055056334e-18 1.0
  outer loop
    vertex 175.81887265030238 -49.34042383069177 25.0
    vertex 173.88702099772422 -49.85806192089681 25.000000000000004
    vertex 174.56850447194284 -55.03444282294721 25.0
  endloop
endfacet
facet normal 1.9729646640152515e-15 -6.6162653055056334e-18 1.0
  outer loop
    vertex 175.81887265030238 -49.34042383069177 25.0
    vertex 174.56850447194284 -55.03444282294721 25.0
    vertex 175.81887265030238 -60.72846181520268 25.0
  endloop
endfacet
facet normal 1.9729646640152515e-15 -6.6162653055056334e-18 1.0
  outer loop
    vertex 175.81887265030238 -49.34042383069177 25.0
    vertex 175.81887265030238 -60.72846181520268 25.0
    vertex 176.56850447194284 -55.03444282294722 25.0
  endloop
endfacet
facet normal 0.608761429008719 -0.7933533402912364 -1.1955497535933895e-15
  outer loop
    vertex 170.1248536580469 -70.59079200905126 25.00000000000001
    vertex 165.56850447194284 -74.08700170620486 2.160295751809029e-14
    vertex 170.1248536580469 -70.59079200905126 1.265471952672747e-14
  endloop
endfacet
facet normal 0.608761429008719 -0.7933533402912364 -1.1955497535933895e-15
  outer loop
    vertex 165.56850447194284 -74.08700170620486 2.160295751809029e-14
    vertex 170.1248536580469 -70.59079200905126 25.00000000000001
    vertex 165.56850447194284 -74.08700170620486 25.00000000000002
  endloop
endfacet
facet normal -0.9238795325112871 -0.3826834323650891 1.814411844788585e-15
  outer loop
    vertex 133.31813629358336 -60.72846181520267 25.000000000000085
    vertex 135.5159455886852 -66.0344428229472 8.062333505126503e-14
    vertex 135.5159455886852 -66.0344428229472 25.000000000000078
  endloop
endfacet
facet normal -0.9238795325112871 -0.3826834323650891 1.814411844788585e-15
  outer loop
    vertex 135.5159455886852 -66.0344428229472 8.062333505126503e-14
    vertex 133.31813629358336 -60.72846181520267 25.000000000000085
    vertex 133.31813629358336 -60.72846181520267 8.493962421807857e-14
  endloop
endfacet
facet normal -0.7933533402912352 0.6087614290087207 1.7160260831562795e-18
  outer loop
    vertex 171.8890125476316 -65.03444282294721 25.00000000000001
    vertex 168.7106400956738 -69.17657844667816 1.5432100936677776e-14
    vertex 168.7106400956738 -69.17657844667816 25.00000000000001
  endloop
endfacet
facet normal -0.7933533402912352 0.6087614290087207 1.7160260831562795e-18
  outer loop
    vertex 168.7106400956738 -69.17657844667816 1.5432100936677776e-14
    vertex 171.8890125476316 -65.03444282294721 25.00000000000001
    vertex 171.8890125476316 -65.03444282294721 9.190078658831108e-15
  endloop
endfacet
facet normal -0.7933533402912355 -0.6087614290087202 1.5580707733769616e-15
  outer loop
    vertex 135.5159455886852 -66.0344428229472 25.000000000000078
    vertex 139.01215528583882 -70.59079200905126 7.375711054563368e-14
    vertex 139.01215528583882 -70.59079200905126 25.00000000000007
  endloop
endfacet
facet normal -0.7933533402912355 -0.6087614290087202 1.5580707733769616e-15
  outer loop
    vertex 139.01215528583882 -70.59079200905126 7.375711054563368e-14
    vertex 135.5159455886852 -66.0344428229472 25.000000000000078
    vertex 135.5159455886852 -66.0344428229472 8.062333505126503e-14
  endloop
endfacet
facet normal 0.6087614290087223 -0.7933533402912338 5.907702841954552e-19
  outer loop
    vertex 144.56850447194284 -37.71393474725844 25.00000000000006
    vertex 140.42636884821192 -40.89230719921627 7.097972913568338e-14
    vertex 144.56850447194284 -37.71393474725844 6.284496732535355e-14
  endloop
endfacet
facet normal 0.6087614290087223 -0.7933533402912338 5.907702841954552e-19
  outer loop
    vertex 140.42636884821192 -40.89230719921627 7.097972913568338e-14
    vertex 144.56850447194284 -37.71393474725844 25.00000000000006
    vertex 140.42636884821192 -40.89230719921627 25.000000000000068
  endloop
endfacet
facet normal 0.7933533402912352 -0.6087614290087207 2.053588169856644e-18
  outer loop
    vertex 140.42636884821192 -40.89230719921627 7.097972913568338e-14
    vertex 137.24799639625408 -45.03444282294721 25.000000000000078
    vertex 137.24799639625408 -45.03444282294721 7.722175141353004e-14
  endloop
endfacet
facet normal 0.7933533402912352 -0.6087614290087207 2.053588169856644e-18
  outer loop
    vertex 137.24799639625408 -45.03444282294721 25.000000000000078
    vertex 140.42636884821192 -40.89230719921627 7.097972913568338e-14
    vertex 140.42636884821192 -40.89230719921627 25.000000000000068
  endloop
endfacet
facet normal -0.6087614290087197 -0.7933533402912362 5.3448551476560855e-19
  outer loop
    vertex 168.71064009567382 -40.89230719921627 25.00000000000001
    vertex 164.56850447194284 -37.71393474725845 2.356686274700757e-14
    vertex 168.71064009567382 -40.89230719921627 1.543210093667775e-14
  endloop
endfacet
facet normal -0.6087614290087197 -0.7933533402912362 5.3448551476560855e-19
  outer loop
    vertex 164.56850447194284 -37.71393474725845 2.356686274700757e-14
    vertex 168.71064009567382 -40.89230719921627 25.00000000000001
    vertex 164.56850447194284 -37.71393474725845 25.00000000000002
  endloop
endfacet
facet normal -0.1305261922200522 -0.9914448613738105 1.1385345307218784e-17
  outer loop
    vertex 159.7448853739933 -35.71592629716586 3.303999351577609e-14
    vertex 157.0685044719429 -35.36357406691572 10.000000000000053
    vertex 154.56850447194284 -35.03444282294721 4.320591503618057e-14
  endloop
endfacet
facet normal -0.1305261922200522 -0.9914448613738105 1.1385345307218784e-17
  outer loop
    vertex 157.0685044719429 -35.36357406691572 10.000000000000053
    vertex 159.7448853739933 -35.71592629716586 3.303999351577609e-14
    vertex 159.7448853739933 -35.71592629716586 25.000000000000032
  endloop
endfacet
facet normal -0.1305261922200522 -0.9914448613738105 1.1385345307218784e-17
  outer loop
    vertex 157.0685044719429 -35.36357406691572 10.000000000000053
    vertex 159.7448853739933 -35.71592629716586 25.000000000000032
    vertex 157.06850447194282 -35.3635740669157 15.000000000000028
  endloop
endfacet
facet normal -0.1305261922200522 -0.9914448613738105 1.1385345307218784e-17
  outer loop
    vertex 157.06850447194282 -35.3635740669157 15.000000000000028
    vertex 159.7448853739933 -35.71592629716586 25.000000000000032
    vertex 154.56850447194293 -35.03444282294723 15.000000000000028
  endloop
endfacet
facet normal -0.1305261922200522 -0.9914448613738105 1.1385345307218784e-17
  outer loop
    vertex 154.56850447194293 -35.03444282294723 15.000000000000028
    vertex 159.7448853739933 -35.71592629716586 25.000000000000032
    vertex 154.56850447194284 -35.03444282294721 25.000000000000046
  endloop
endfacet
facet normal -0.1305261922200522 -0.9914448613738105 1.1385345307218784e-17
  outer loop
    vertex 154.56850447194293 -35.03444282294723 10.000000000000053
    vertex 154.56850447194284 -35.03444282294721 4.320591503618057e-14
    vertex 157.0685044719429 -35.36357406691572 10.000000000000053
  endloop
endfacet
facet normal -0.7933533402912362 -0.6087614290087197 1.7160260831563107e-18
  outer loop
    vertex 168.71064009567382 -40.89230719921627 25.00000000000001
    vertex 171.88901254763164 -45.03444282294723 9.190078658831078e-15
    vertex 171.88901254763164 -45.03444282294723 25.00000000000001
  endloop
endfacet
facet normal -0.7933533402912362 -0.6087614290087197 1.7160260831563107e-18
  outer loop
    vertex 171.88901254763164 -45.03444282294723 9.190078658831078e-15
    vertex 168.71064009567382 -40.89230719921627 25.00000000000001
    vertex 168.71064009567382 -40.89230719921627 1.543210093667775e-14
  endloop
endfacet
facet normal 2.8199664825478735e-16 -2.2947315690260124e-16 1.0
  outer loop
    vertex 154.56850447194284 -77.03444282294723 10.000000000000059
    vertex 152.06850447194284 -74.70531157897872 10.000000000000059
    vertex 152.06850447194284 -76.70531157897874 10.000000000000059
  endloop
endfacet
facet normal 2.8199664825478735e-16 -2.2947315690260124e-16 1.0
  outer loop
    vertex 152.06850447194284 -74.70531157897872 10.000000000000059
    vertex 154.56850447194284 -77.03444282294723 10.000000000000059
    vertex 154.5685044719429 -75.03444282294723 10.000000000000059
  endloop
endfacet
facet normal 2.8199664825478735e-16 -2.2947315690260124e-16 1.0
  outer loop
    vertex 154.5685044719429 -75.03444282294723 10.000000000000059
    vertex 154.56850447194284 -77.03444282294723 10.000000000000059
    vertex 157.0685044719429 -76.70531157897872 10.000000000000059
  endloop
endfacet
facet normal 2.8199664825478735e-16 -2.2947315690260124e-16 1.0
  outer loop
    vertex 154.5685044719429 -75.03444282294723 10.000000000000059
    vertex 157.0685044719429 -76.70531157897872 10.000000000000059
    vertex 157.0685044719429 -74.70531157897871 10.000000000000059
  endloop
endfacet
facet normal 0.9238795325112868 0.38268343236508945 3.876433351760698e-18
  outer loop
    vertex 135.24998794616147 -60.210823724997624 8.114565065608783e-14
    vertex 137.24799639625408 -65.0344428229472 25.000000000000078
    vertex 137.24799639625408 -65.0344428229472 7.722175141353005e-14
  endloop
endfacet
facet normal 0.9238795325112868 0.38268343236508945 3.876433351760698e-18
  outer loop
    vertex 137.24799639625408 -65.0344428229472 25.000000000000078
    vertex 135.24998794616147 -60.210823724997624 8.114565065608783e-14
    vertex 135.24998794616147 -60.210823724997624 25.000000000000078
  endloop
endfacet
facet normal -0.99144486137381 -0.13052619222005424 6.809220175115656e-18
  outer loop
    vertex 133.31813629358336 -60.72846181520267 25.000000000000085
    vertex 132.89763571591138 -57.53444282294723 15.000000000000007
    vertex 133.31813629358336 -60.72846181520267 8.493962421807857e-14
  endloop
endfacet
facet normal -0.99144486137381 -0.13052619222005424 6.809220175115656e-18
  outer loop
    vertex 132.89763571591138 -57.53444282294723 15.000000000000007
    vertex 133.31813629358336 -60.72846181520267 25.000000000000085
    vertex 132.56850447194284 -55.03444282294721 25.00000000000009
  endloop
endfacet
facet normal -0.99144486137381 -0.13052619222005424 6.809220175115656e-18
  outer loop
    vertex 133.31813629358336 -60.72846181520267 8.493962421807857e-14
    vertex 132.89763571591138 -57.53444282294723 15.000000000000007
    vertex 132.89763571591138 -57.53444282294724 10.00000000000003
  endloop
endfacet
facet normal -0.99144486137381 -0.13052619222005424 6.809220175115656e-18
  outer loop
    vertex 132.89763571591138 -57.53444282294723 15.000000000000007
    vertex 132.56850447194284 -55.03444282294721 25.00000000000009
    vertex 132.56850447194284 -55.03444282294722 15.000000000000004
  endloop
endfacet
facet normal -0.99144486137381 -0.13052619222005424 6.809220175115656e-18
  outer loop
    vertex 132.89763571591138 -57.53444282294724 10.00000000000003
    vertex 132.56850447194284 -55.03444282294721 8.641183007236114e-14
    vertex 133.31813629358336 -60.72846181520267 8.493962421807857e-14
  endloop
endfacet
facet normal -0.99144486137381 -0.13052619222005424 6.809220175115656e-18
  outer loop
    vertex 132.56850447194284 -55.03444282294721 8.641183007236114e-14
    vertex 132.89763571591138 -57.53444282294724 10.00000000000003
    vertex 132.56850447194284 -55.03444282294722 10.00000000000003
  endloop
endfacet
facet normal -0.9914448613738109 -0.13052619222004755 2.1613289679660526e-18
  outer loop
    vertex 173.88702099772422 -49.85806192089681 25.000000000000004
    vertex 174.56850447194284 -55.03444282294721 14.99999999999998
    vertex 174.56850447194284 -55.03444282294721 25.0
  endloop
endfacet
facet normal -0.9914448613738109 -0.13052619222004755 2.1613289679660526e-18
  outer loop
    vertex 174.56850447194284 -55.03444282294721 14.99999999999998
    vertex 173.88702099772422 -49.85806192089681 25.000000000000004
    vertex 174.23937322797437 -52.53444282294722 14.999999999999984
  endloop
endfacet
facet normal -0.9914448613738109 -0.13052619222004755 2.1613289679660526e-18
  outer loop
    vertex 174.23937322797437 -52.53444282294722 14.999999999999984
    vertex 173.88702099772422 -49.85806192089681 25.000000000000004
    vertex 174.23937322797437 -52.53444282294722 10.000000000000018
  endloop
endfacet
facet normal -0.9914448613738109 -0.13052619222004755 2.1613289679660526e-18
  outer loop
    vertex 174.23937322797437 -52.53444282294722 10.000000000000018
    vertex 174.56850447194284 -55.03444282294721 3.9278104578346e-15
    vertex 174.56850447194284 -55.03444282294721 10.000000000000018
  endloop
endfacet
facet normal -0.9914448613738109 -0.13052619222004755 2.1613289679660526e-18
  outer loop
    vertex 174.56850447194284 -55.03444282294721 3.9278104578346e-15
    vertex 174.23937322797437 -52.53444282294722 10.000000000000018
    vertex 173.88702099772422 -49.85806192089681 5.2661794162733036e-15
  endloop
endfacet
facet normal -0.9914448613738109 -0.13052619222004755 2.1613289679660526e-18
  outer loop
    vertex 173.88702099772422 -49.85806192089681 5.2661794162733036e-15
    vertex 174.23937322797437 -52.53444282294722 10.000000000000018
    vertex 173.88702099772422 -49.85806192089681 25.000000000000004
  endloop
endfacet
facet normal -0.6087614290087209 -0.7933533402912352 1.1955497535933933e-15
  outer loop
    vertex 143.56850447194284 -74.08700170620486 25.000000000000068
    vertex 139.01215528583882 -70.59079200905126 7.375711054563368e-14
    vertex 143.56850447194284 -74.08700170620486 6.480887255427088e-14
  endloop
endfacet
facet normal -0.6087614290087209 -0.7933533402912352 1.1955497535933933e-15
  outer loop
    vertex 139.01215528583882 -70.59079200905126 7.375711054563368e-14
    vertex 143.56850447194284 -74.08700170620486 25.000000000000068
    vertex 139.01215528583882 -70.59079200905126 25.00000000000007
  endloop
endfacet
facet normal -0.9914448613738103 0.13052619222005404 8.128461751812176e-17
  outer loop
    vertex 132.56850447194284 -55.03444282294721 25.00000000000009
    vertex 132.89763571591138 -52.53444282294722 15.000000000000007
    vertex 132.56850447194284 -55.03444282294722 15.000000000000004
  endloop
endfacet
facet normal -0.9914448613738103 0.13052619222005404 8.128461751812176e-17
  outer loop
    vertex 132.89763571591138 -52.53444282294722 15.000000000000007
    vertex 132.56850447194284 -55.03444282294721 25.00000000000009
    vertex 133.31813629358336 -49.34042383069175 25.000000000000085
  endloop
endfacet
facet normal -0.9914448613738103 0.13052619222005404 8.128461751812176e-17
  outer loop
    vertex 132.89763571591138 -52.53444282294723 10.00000000000003
    vertex 132.56850447194284 -55.03444282294721 8.641183007236114e-14
    vertex 132.56850447194284 -55.03444282294722 10.00000000000003
  endloop
endfacet
facet normal -0.9914448613738103 0.13052619222005404 8.128461751812176e-17
  outer loop
    vertex 132.56850447194284 -55.03444282294721 8.641183007236114e-14
    vertex 132.89763571591138 -52.53444282294723 10.00000000000003
    vertex 133.31813629358336 -49.34042383069175 8.493962421807857e-14
  endloop
endfacet
facet normal -0.9914448613738103 0.13052619222005404 8.128461751812176e-17
  outer loop
    vertex 133.31813629358336 -49.34042383069175 8.493962421807857e-14
    vertex 132.89763571591138 -52.53444282294723 10.00000000000003
    vertex 132.89763571591138 -52.53444282294722 15.000000000000007
  endloop
endfacet
facet normal -0.9914448613738103 0.13052619222005404 8.128461751812176e-17
  outer loop
    vertex 133.31813629358336 -49.34042383069175 8.493962421807857e-14
    vertex 132.89763571591138 -52.53444282294722 15.000000000000007
    vertex 133.31813629358336 -49.34042383069175 25.000000000000085
  endloop
endfacet
facet normal 0.382683432365093 -0.9238795325112856 -7.51553993841825e-16
  outer loop
    vertex 165.56850447194284 -74.08700170620486 25.00000000000002
    vertex 160.26252346419832 -76.28481100130672 3.202340136373568e-14
    vertex 165.56850447194284 -74.08700170620486 2.160295751809029e-14
  endloop
endfacet
facet normal 0.382683432365093 -0.9238795325112856 -7.51553993841825e-16
  outer loop
    vertex 160.26252346419832 -76.28481100130672 3.202340136373568e-14
    vertex 165.56850447194284 -74.08700170620486 25.00000000000002
    vertex 160.26252346419832 -76.28481100130672 25.000000000000032
  endloop
endfacet
facet normal -0.9238795325112867 0.38268343236509034 -9.74002949348151e-20
  outer loop
    vertex 173.8870209977242 -60.210823724997645 25.000000000000004
    vertex 171.8890125476316 -65.03444282294721 9.190078658831108e-15
    vertex 171.8890125476316 -65.03444282294721 25.00000000000001
  endloop
endfacet
facet normal -0.9238795325112867 0.38268343236509034 -9.74002949348151e-20
  outer loop
    vertex 171.8890125476316 -65.03444282294721 9.190078658831108e-15
    vertex 173.8870209977242 -60.210823724997645 25.000000000000004
    vertex 173.8870209977242 -60.210823724997645 5.266179416273313e-15
  endloop
endfacet
facet normal 0.1305261922200522 0.9914448613738105 2.4338806496512456e-18
  outer loop
    vertex 149.39212356989245 -74.35295934872858 25.000000000000057
    vertex 152.06850447194284 -74.70531157897872 10.000000000000059
    vertex 149.39212356989245 -74.35295934872858 5.337183655658503e-14
  endloop
endfacet
facet normal 0.1305261922200522 0.9914448613738105 2.4338806496512456e-18
  outer loop
    vertex 152.06850447194284 -74.70531157897872 10.000000000000059
    vertex 149.39212356989245 -74.35295934872858 25.000000000000057
    vertex 152.06850447194284 -74.70531157897872 15.000000000000028
  endloop
endfacet
facet normal 0.1305261922200522 0.9914448613738105 2.4338806496512456e-18
  outer loop
    vertex 152.06850447194284 -74.70531157897872 15.000000000000028
    vertex 149.39212356989245 -74.35295934872858 25.000000000000057
    vertex 154.5685044719429 -75.03444282294723 15.000000000000028
  endloop
endfacet
facet normal 0.1305261922200522 0.9914448613738105 2.4338806496512456e-18
  outer loop
    vertex 154.5685044719429 -75.03444282294723 15.000000000000028
    vertex 149.39212356989245 -74.35295934872858 25.000000000000057
    vertex 154.56850447194284 -75.03444282294721 25.000000000000046
  endloop
endfacet
facet normal 0.1305261922200522 0.9914448613738105 2.4338806496512456e-18
  outer loop
    vertex 149.39212356989245 -74.35295934872858 5.337183655658503e-14
    vertex 154.5685044719429 -75.03444282294723 10.000000000000059
    vertex 154.56850447194284 -75.03444282294721 4.320591503618058e-14
  endloop
endfacet
facet normal 0.1305261922200522 0.9914448613738105 2.4338806496512456e-18
  outer loop
    vertex 154.5685044719429 -75.03444282294723 10.000000000000059
    vertex 149.39212356989245 -74.35295934872858 5.337183655658503e-14
    vertex 152.06850447194284 -74.70531157897872 10.000000000000059
  endloop
endfacet
facet normal 0.13052619222005157 0.9914448613738105 2.4099851918845596e-17
  outer loop
    vertex 154.56850447194284 -33.03444282294722 25.000000000000046
    vertex 157.06850447194282 -33.36357406691571 15.000000000000028
    vertex 154.56850447194287 -33.03444282294722 15.000000000000028
  endloop
endfacet
facet normal 0.13052619222005157 0.9914448613738105 2.4099851918845596e-17
  outer loop
    vertex 157.06850447194282 -33.36357406691571 15.000000000000028
    vertex 154.56850447194284 -33.03444282294722 25.000000000000046
    vertex 160.26252346419832 -33.78407464458772 25.000000000000032
  endloop
endfacet
facet normal 0.13052619222005157 0.9914448613738105 2.4099851918845596e-17
  outer loop
    vertex 160.26252346419832 -33.78407464458772 3.202340136373566e-14
    vertex 157.06850447194284 -33.36357406691571 10.000000000000053
    vertex 160.26252346419832 -33.78407464458772 25.000000000000032
  endloop
endfacet
facet normal 0.13052619222005157 0.9914448613738105 2.4099851918845596e-17
  outer loop
    vertex 157.06850447194284 -33.36357406691571 10.000000000000053
    vertex 160.26252346419832 -33.78407464458772 3.202340136373566e-14
    vertex 154.56850447194284 -33.03444282294722 4.3205915036180566e-14
  endloop
endfacet
facet normal 0.13052619222005157 0.9914448613738105 2.4099851918845596e-17
  outer loop
    vertex 157.06850447194284 -33.36357406691571 10.000000000000053
    vertex 154.56850447194284 -33.03444282294722 4.3205915036180566e-14
    vertex 154.56850447194287 -33.03444282294722 10.000000000000053
  endloop
endfacet
facet normal 0.13052619222005157 0.9914448613738105 2.4099851918845596e-17
  outer loop
    vertex 160.26252346419832 -33.78407464458772 25.000000000000032
    vertex 157.06850447194284 -33.36357406691571 10.000000000000053
    vertex 157.06850447194282 -33.36357406691571 15.000000000000028
  endloop
endfacet
facet normal -0.13052619222005352 0.9914448613738103 2.0284128375253552e-17
  outer loop
    vertex 154.5685044719429 -75.03444282294723 10.000000000000059
    vertex 157.0685044719429 -74.70531157897871 10.000000000000059
    vertex 154.56850447194284 -75.03444282294721 4.320591503618058e-14
  endloop
endfacet
facet normal -0.13052619222005352 0.9914448613738103 2.0284128375253552e-17
  outer loop
    vertex 154.56850447194284 -75.03444282294721 25.000000000000046
    vertex 157.06850447194284 -74.70531157897872 15.000000000000028
    vertex 154.5685044719429 -75.03444282294723 15.000000000000028
  endloop
endfacet
facet normal -0.13052619222005352 0.9914448613738103 2.0284128375253552e-17
  outer loop
    vertex 157.06850447194284 -74.70531157897872 15.000000000000028
    vertex 154.56850447194284 -75.03444282294721 25.000000000000046
    vertex 159.74488537399327 -74.35295934872858 25.000000000000032
  endloop
endfacet
facet normal -0.13052619222005352 0.9914448613738103 2.0284128375253552e-17
  outer loop
    vertex 159.74488537399327 -74.35295934872858 3.3039993515776134e-14
    vertex 157.0685044719429 -74.70531157897871 10.000000000000059
    vertex 159.74488537399327 -74.35295934872858 25.000000000000032
  endloop
endfacet
facet normal -0.13052619222005352 0.9914448613738103 2.0284128375253552e-17
  outer loop
    vertex 157.0685044719429 -74.70531157897871 10.000000000000059
    vertex 159.74488537399327 -74.35295934872858 3.3039993515776134e-14
    vertex 154.56850447194284 -75.03444282294721 4.320591503618058e-14
  endloop
endfacet
facet normal -0.13052619222005352 0.9914448613738103 2.0284128375253552e-17
  outer loop
    vertex 159.74488537399327 -74.35295934872858 25.000000000000032
    vertex 157.0685044719429 -74.70531157897871 10.000000000000059
    vertex 157.06850447194284 -74.70531157897872 15.000000000000028
  endloop
endfacet
facet normal 0.3826834323650887 -0.9238795325112873 1.508270972999756e-18
  outer loop
    vertex 149.39212356989245 -35.71592629716585 25.000000000000057
    vertex 144.56850447194284 -37.71393474725844 6.284496732535355e-14
    vertex 149.39212356989245 -35.71592629716585 5.3371836556585016e-14
  endloop
endfacet
facet normal 0.3826834323650887 -0.9238795325112873 1.508270972999756e-18
  outer loop
    vertex 144.56850447194284 -37.71393474725844 6.284496732535355e-14
    vertex 149.39212356989245 -35.71592629716585 25.000000000000057
    vertex 144.56850447194284 -37.71393474725844 25.00000000000006
  endloop
endfacet
facet normal 0.7933533402912331 0.6087614290087233 2.053588169856384e-18
  outer loop
    vertex 137.24799639625408 -65.0344428229472 7.722175141353005e-14
    vertex 140.42636884821192 -69.17657844667815 25.000000000000068
    vertex 140.42636884821192 -69.17657844667815 7.097972913568338e-14
  endloop
endfacet
facet normal 0.7933533402912331 0.6087614290087233 2.053588169856384e-18
  outer loop
    vertex 140.42636884821192 -69.17657844667815 25.000000000000068
    vertex 137.24799639625408 -65.0344428229472 7.722175141353005e-14
    vertex 137.24799639625408 -65.0344428229472 25.000000000000078
  endloop
endfacet
facet normal -0.9238795325112871 0.3826834323650891 1.814411844788585e-15
  outer loop
    vertex 135.5159455886852 -44.03444282294721 25.000000000000078
    vertex 133.31813629358336 -49.34042383069175 8.493962421807857e-14
    vertex 133.31813629358336 -49.34042383069175 25.000000000000085
  endloop
endfacet
facet normal -0.9238795325112871 0.3826834323650891 1.814411844788585e-15
  outer loop
    vertex 133.31813629358336 -49.34042383069175 8.493962421807857e-14
    vertex 135.5159455886852 -44.03444282294721 25.000000000000078
    vertex 135.5159455886852 -44.03444282294721 8.062333505126498e-14
  endloop
endfacet
facet normal 0.6087614290087217 0.7933533402912344 5.907702841953873e-19
  outer loop
    vertex 140.42636884821192 -69.17657844667815 7.097972913568338e-14
    vertex 144.56850447194284 -72.35495089863598 25.00000000000006
    vertex 144.56850447194284 -72.35495089863598 6.284496732535357e-14
  endloop
endfacet
facet normal 0.6087614290087217 0.7933533402912344 5.907702841953873e-19
  outer loop
    vertex 144.56850447194284 -72.35495089863598 25.00000000000006
    vertex 140.42636884821192 -69.17657844667815 7.097972913568338e-14
    vertex 140.42636884821192 -69.17657844667815 25.000000000000068
  endloop
endfacet
facet normal -0.6087614290087218 0.7933533402912344 5.344855147653938e-19
  outer loop
    vertex 164.56850447194284 -72.35495089863599 2.3566862747007594e-14
    vertex 168.7106400956738 -69.17657844667816 25.00000000000001
    vertex 168.7106400956738 -69.17657844667816 1.5432100936677776e-14
  endloop
endfacet
facet normal -0.6087614290087218 0.7933533402912344 5.344855147653938e-19
  outer loop
    vertex 168.7106400956738 -69.17657844667816 25.00000000000001
    vertex 164.56850447194284 -72.35495089863599 2.3566862747007594e-14
    vertex 164.56850447194284 -72.35495089863599 25.00000000000002
  endloop
endfacet
facet normal 0.9914448613738107 -0.13052619222004952 3.595853451438296e-18
  outer loop
    vertex 175.81887265030238 -60.72846181520268 1.4722058542825745e-15
    vertex 176.2393732279744 -57.53444282294724 10.000000000000018
    vertex 175.81887265030238 -60.72846181520268 25.0
  endloop
endfacet
facet normal 0.9914448613738107 -0.13052619222004952 3.595853451438296e-18
  outer loop
    vertex 176.2393732279744 -57.53444282294724 10.000000000000018
    vertex 175.81887265030238 -60.72846181520268 1.4722058542825745e-15
    vertex 176.56850447194284 -55.03444282294722 0.0
  endloop
endfacet
facet normal 0.9914448613738107 -0.13052619222004952 3.595853451438296e-18
  outer loop
    vertex 176.2393732279744 -57.53444282294724 10.000000000000018
    vertex 176.56850447194284 -55.03444282294722 0.0
    vertex 176.56850447194284 -55.03444282294722 10.000000000000018
  endloop
endfacet
facet normal 0.9914448613738107 -0.13052619222004952 3.595853451438296e-18
  outer loop
    vertex 175.81887265030238 -60.72846181520268 25.0
    vertex 176.2393732279744 -57.53444282294723 14.999999999999984
    vertex 176.56850447194284 -55.03444282294722 25.0
  endloop
endfacet
facet normal 0.9914448613738107 -0.13052619222004952 3.595853451438296e-18
  outer loop
    vertex 176.2393732279744 -57.53444282294723 14.999999999999984
    vertex 175.81887265030238 -60.72846181520268 25.0
    vertex 176.2393732279744 -57.53444282294724 10.000000000000018
  endloop
endfacet
facet normal 0.9914448613738107 -0.13052619222004952 3.595853451438296e-18
  outer loop
    vertex 176.56850447194284 -55.03444282294722 25.0
    vertex 176.2393732279744 -57.53444282294723 14.999999999999984
    vertex 176.56850447194284 -55.03444282294722 14.999999999999984
  endloop
endfacet
facet normal 0.7933533402912328 0.6087614290087237 -1.5580707733769563e-15
  outer loop
    vertex 170.1248536580469 -39.47809363684317 1.265471952672747e-14
    vertex 173.62106335520053 -44.03444282294722 25.000000000000004
    vertex 173.62106335520053 -44.03444282294722 5.788495021096138e-15
  endloop
endfacet
facet normal 0.7933533402912328 0.6087614290087237 -1.5580707733769563e-15
  outer loop
    vertex 173.62106335520053 -44.03444282294722 25.000000000000004
    vertex 170.1248536580469 -39.47809363684317 1.265471952672747e-14
    vertex 170.1248536580469 -39.47809363684317 25.00000000000001
  endloop
endfacet
facet normal -0.3826834323650887 0.9238795325112873 -9.405804520432402e-19
  outer loop
    vertex 159.74488537399327 -74.35295934872858 3.3039993515776134e-14
    vertex 164.56850447194284 -72.35495089863599 25.00000000000002
    vertex 164.56850447194284 -72.35495089863599 2.3566862747007594e-14
  endloop
endfacet
facet normal -0.3826834323650887 0.9238795325112873 -9.405804520432402e-19
  outer loop
    vertex 164.56850447194284 -72.35495089863599 25.00000000000002
    vertex 159.74488537399327 -74.35295934872858 3.3039993515776134e-14
    vertex 159.74488537399327 -74.35295934872858 25.000000000000032
  endloop
endfacet
facet normal 0.6087614290087229 0.7933533402912337 -1.195549753593397e-15
  outer loop
    vertex 165.56850447194287 -35.981883939689574 2.160295751809027e-14
    vertex 170.1248536580469 -39.47809363684317 25.00000000000001
    vertex 170.1248536580469 -39.47809363684317 1.265471952672747e-14
  endloop
endfacet
facet normal 0.6087614290087229 0.7933533402912337 -1.195549753593397e-15
  outer loop
    vertex 170.1248536580469 -39.47809363684317 25.00000000000001
    vertex 165.56850447194287 -35.981883939689574 2.160295751809027e-14
    vertex 165.56850447194287 -35.981883939689574 25.00000000000002
  endloop
endfacet
facet normal -0.13052619222005163 -0.9914448613738105 4.347547468848266e-17
  outer loop
    vertex 154.56850447194284 -77.03444282294721 25.000000000000046
    vertex 152.06850447194284 -76.70531157897874 15.000000000000028
    vertex 154.56850447194284 -77.03444282294721 15.000000000000028
  endloop
endfacet
facet normal -0.13052619222005163 -0.9914448613738105 4.347547468848266e-17
  outer loop
    vertex 154.56850447194284 -77.03444282294723 10.000000000000059
    vertex 148.87448547968737 -76.28481100130672 5.4388428708625504e-14
    vertex 154.56850447194284 -77.03444282294721 4.320591503618057e-14
  endloop
endfacet
facet normal -0.13052619222005163 -0.9914448613738105 4.347547468848266e-17
  outer loop
    vertex 148.87448547968737 -76.28481100130672 5.4388428708625504e-14
    vertex 154.56850447194284 -77.03444282294723 10.000000000000059
    vertex 152.06850447194284 -76.70531157897874 10.000000000000059
  endloop
endfacet
facet normal -0.13052619222005163 -0.9914448613738105 4.347547468848266e-17
  outer loop
    vertex 148.87448547968737 -76.28481100130672 5.4388428708625504e-14
    vertex 152.06850447194284 -76.70531157897874 10.000000000000059
    vertex 148.87448547968737 -76.28481100130672 25.000000000000057
  endloop
endfacet
facet normal -0.13052619222005163 -0.9914448613738105 4.347547468848266e-17
  outer loop
    vertex 148.87448547968737 -76.28481100130672 25.000000000000057
    vertex 152.06850447194284 -76.70531157897874 10.000000000000059
    vertex 152.06850447194284 -76.70531157897874 15.000000000000028
  endloop
endfacet
facet normal -0.13052619222005163 -0.9914448613738105 4.347547468848266e-17
  outer loop
    vertex 148.87448547968737 -76.28481100130672 25.000000000000057
    vertex 152.06850447194284 -76.70531157897874 15.000000000000028
    vertex 154.56850447194284 -77.03444282294721 25.000000000000046
  endloop
endfacet
facet normal -1.0 -1.6919798895287383e-14 -1.1279865930191626e-14
  outer loop
    vertex 157.06850447194282 -35.3635740669157 15.000000000000028
    vertex 157.06850447194284 -33.36357406691571 10.000000000000053
    vertex 157.0685044719429 -35.36357406691572 10.000000000000053
  endloop
endfacet
facet normal -1.0 -1.6919798895287383e-14 -1.1279865930191626e-14
  outer loop
    vertex 157.06850447194284 -33.36357406691571 10.000000000000053
    vertex 157.06850447194282 -35.3635740669157 15.000000000000028
    vertex 157.06850447194282 -33.36357406691571 15.000000000000028
  endloop
endfacet
facet normal 1.0 2.2559731860383224e-14 -0.0
  outer loop
    vertex 152.06850447194282 -33.36357406691571 10.000000000000053
    vertex 152.06850447194284 -35.36357406691571 15.000000000000028
    vertex 152.06850447194284 -35.36357406691571 10.000000000000053
  endloop
endfacet
facet normal 1.0 2.2559731860383224e-14 -0.0
  outer loop
    vertex 152.06850447194284 -35.36357406691571 15.000000000000028
    vertex 152.06850447194282 -33.36357406691571 10.000000000000053
    vertex 152.06850447194282 -33.36357406691571 15.000000000000028
  endloop
endfacet
facet normal -0.0 -0.0 1.0
  outer loop
    vertex 152.06850447194284 -35.36357406691571 10.000000000000053
    vertex 154.56850447194287 -33.03444282294722 10.000000000000053
    vertex 152.06850447194282 -33.36357406691571 10.000000000000053
  endloop
endfacet
facet normal -0.0 -0.0 1.0
  outer loop
    vertex 154.56850447194287 -33.03444282294722 10.000000000000053
    vertex 152.06850447194284 -35.36357406691571 10.000000000000053
    vertex 154.56850447194293 -35.03444282294723 10.000000000000053
  endloop
endfacet
facet normal -0.0 -0.0 1.0
  outer loop
    vertex 154.56850447194287 -33.03444282294722 10.000000000000053
    vertex 154.56850447194293 -35.03444282294723 10.000000000000053
    vertex 157.06850447194284 -33.36357406691571 10.000000000000053
  endloop
endfacet
facet normal -0.0 -0.0 1.0
  outer loop
    vertex 157.06850447194284 -33.36357406691571 10.000000000000053
    vertex 154.56850447194293 -35.03444282294723 10.000000000000053
    vertex 157.0685044719429 -35.36357406691572 10.000000000000053
  endloop
endfacet
facet normal 0.0 0.0 -1.0
  outer loop
    vertex 154.56850447194287 -33.03444282294722 15.000000000000028
    vertex 152.06850447194284 -35.36357406691571 15.000000000000028
    vertex 152.06850447194282 -33.36357406691571 15.000000000000028
  endloop
endfacet
facet normal 0.0 0.0 -1.0
  outer loop
    vertex 152.06850447194284 -35.36357406691571 15.000000000000028
    vertex 154.56850447194287 -33.03444282294722 15.000000000000028
    vertex 154.56850447194293 -35.03444282294723 15.000000000000028
  endloop
endfacet
facet normal 0.0 0.0 -1.0
  outer loop
    vertex 154.56850447194293 -35.03444282294723 15.000000000000028
    vertex 154.56850447194287 -33.03444282294722 15.000000000000028
    vertex 157.06850447194282 -33.36357406691571 15.000000000000028
  endloop
endfacet
facet normal 0.0 0.0 -1.0
  outer loop
    vertex 154.56850447194293 -35.03444282294723 15.000000000000028
    vertex 157.06850447194282 -33.36357406691571 15.000000000000028
    vertex 157.06850447194282 -35.3635740669157 15.000000000000028
  endloop
endfacet
endsolid StreetBox
