solid PotiBox
facet normal -0.3826834323650905 0.9238795325112865 -7.70824609068531e-17
  outer loop
    vertex -8.632842203113468 -26.653715889284786 1.0000000000000007
    vertex -3.6886326277151493 -24.605757227939876 1.7512413996335845e-15
    vertex -8.632842203113468 -26.653715889284786 7.553481649681798e-16
  endloop
endfacet
facet normal -0.3826834323650905 0.9238795325112865 -7.70824609068531e-17
  outer loop
    vertex -3.6886326277151493 -24.605757227939876 1.7512413996335845e-15
    vertex -8.632842203113468 -26.653715889284786 1.0000000000000007
    vertex -3.6886326277151493 -24.605757227939876 1.0000000000000018
  endloop
endfacet
facet normal 0.1305261922200522 -0.9914448613738104 2.6291391939653733e-17
  outer loop
    vertex 6.922948221488219 -64.20871610579167 3.888691565462208e-15
    vertex 1.6171577968865414 -64.90723666686577 1.0000000000000027
    vertex 1.6171577968865414 -64.90723666686577 2.8199664825478975e-15
  endloop
endfacet
facet normal 0.1305261922200522 -0.9914448613738104 2.6291391939653733e-17
  outer loop
    vertex 1.6171577968865414 -64.90723666686577 1.0000000000000027
    vertex 6.922948221488219 -64.20871610579167 3.888691565462208e-15
    vertex 6.922948221488219 -64.20871610579167 1.0000000000000038
  endloop
endfacet
facet normal 0.6087614290087214 -0.7933533402912346 1.2262048754804002e-16
  outer loop
    vertex 16.112846811210765 -58.902925681189984 5.739777708393053e-15
    vertex 11.867157796886541 -62.16075744444676 1.0000000000000049
    vertex 11.867157796886541 -62.16075744444676 4.884584800127614e-15
  endloop
endfacet
facet normal 0.6087614290087214 -0.7933533402912346 1.2262048754804002e-16
  outer loop
    vertex 11.867157796886541 -62.16075744444676 1.0000000000000049
    vertex 16.112846811210765 -58.902925681189984 5.739777708393053e-15
    vertex 16.112846811210765 -58.902925681189984 1.0000000000000056
  endloop
endfacet
facet normal -0.9914448613738105 0.13052619222005146 -1.9970294845489284e-16
  outer loop
    vertex -18.184321642039357 -39.1014462422641 0.9999999999999989
    vertex -18.882842203113455 -44.40723666686577 -1.3092701526115341e-15
    vertex -18.882842203113455 -44.40723666686577 0.9999999999999986
  endloop
endfacet
facet normal -0.9914448613738105 0.13052619222005146 -1.9970294845489284e-16
  outer loop
    vertex -18.882842203113455 -44.40723666686577 -1.3092701526115341e-15
    vertex -18.184321642039357 -39.1014462422641 0.9999999999999989
    vertex -18.184321642039357 -39.1014462422641 -1.1685698262115689e-15
  endloop
endfacet
facet normal 7.277332858188126e-16 -1.0 2.6113325429746024e-31
  outer loop
    vertex 17.117157796886545 -47.907236666865764 1.000000000000011
    vertex -13.882842203113443 -47.907236666865785 1.9999999999999998
    vertex -13.882842203113443 -47.907236666865785 0.9999999999999999
  endloop
endfacet
facet normal 7.277332858188126e-16 -1.0 2.6113325429746024e-31
  outer loop
    vertex -13.882842203113443 -47.907236666865785 1.9999999999999998
    vertex 17.117157796886545 -47.907236666865764 1.000000000000011
    vertex 17.117157796886545 -47.907236666865764 2.000000000000011
  endloop
endfacet
facet normal 2.0142617732485037e-16 1.1443650800397556e-32 -1.0
  outer loop
    vertex -18.184321642039357 -39.1014462422641 -1.1685698262115689e-15
    vertex -18.184321642039354 -49.713027091467445 -1.1685698262115689e-15
    vertex -18.882842203113455 -44.40723666686577 -1.3092701526115341e-15
  endloop
endfacet
facet normal 2.0142617732485037e-16 1.1443650800397556e-32 -1.0
  outer loop
    vertex -18.184321642039354 -49.713027091467445 -1.1685698262115689e-15
    vertex -18.184321642039357 -39.1014462422641 -1.1685698262115689e-15
    vertex -16.13636298069445 -34.15723666686578 -7.560573417375468e-16
  endloop
endfacet
facet normal 2.0142617732485037e-16 1.1443650800397556e-32 -1.0
  outer loop
    vertex -18.184321642039354 -49.713027091467445 -1.1685698262115689e-15
    vertex -16.13636298069445 -34.15723666686578 -7.560573417375468e-16
    vertex -16.136362980694447 -54.65723666686577 -7.560573417375456e-16
  endloop
endfacet
facet normal 2.0142617732485037e-16 1.1443650800397556e-32 -1.0
  outer loop
    vertex -16.136362980694447 -54.65723666686577 -7.560573417375456e-16
    vertex -16.13636298069445 -34.15723666686578 -7.560573417375468e-16
    vertex -12.87853121743769 -29.911547652541554 -9.984474329726057e-17
  endloop
endfacet
facet normal 2.0142617732485037e-16 1.1443650800397556e-32 -1.0
  outer loop
    vertex -16.136362980694447 -54.65723666686577 -7.560573417375456e-16
    vertex -12.87853121743769 -29.911547652541554 -9.984474329726057e-17
    vertex -12.878531217437681 -58.90292568119 -9.98447432972587e-17
  endloop
endfacet
facet normal 2.0142617732485037e-16 1.1443650800397556e-32 -1.0
  outer loop
    vertex -12.878531217437681 -58.90292568119 -9.98447432972587e-17
    vertex -12.87853121743769 -29.911547652541554 -9.984474329726057e-17
    vertex -12.382842203113423 -42.40723666686577 0.0
  endloop
endfacet
facet normal 2.0142617732485037e-16 1.1443650800397556e-32 -1.0
  outer loop
    vertex -12.382842203113423 -42.40723666686577 0.0
    vertex -12.87853121743769 -29.911547652541554 -9.984474329726057e-17
    vertex -8.632842203113468 -26.653715889284786 7.553481649681798e-16
  endloop
endfacet
facet normal 2.0142617732485037e-16 1.1443650800397556e-32 -1.0
  outer loop
    vertex -12.382842203113423 -42.40723666686577 0.0
    vertex -8.632842203113468 -26.653715889284786 7.553481649681798e-16
    vertex 15.617157796886502 -42.40723666686577 5.639932965095795e-15
  endloop
endfacet
facet normal 2.0142617732485037e-16 1.1443650800397556e-32 -1.0
  outer loop
    vertex 15.617157796886502 -42.40723666686577 5.639932965095795e-15
    vertex -8.632842203113468 -26.653715889284786 7.553481649681798e-16
    vertex -3.6886326277151493 -24.605757227939876 1.7512413996335845e-15
  endloop
endfacet
facet normal 2.0142617732485037e-16 1.1443650800397556e-32 -1.0
  outer loop
    vertex 15.617157796886502 -42.40723666686577 5.639932965095795e-15
    vertex -3.6886326277151493 -24.605757227939876 1.7512413996335845e-15
    vertex 1.617157796886536 -23.90723666686577 2.8199664825478967e-15
  endloop
endfacet
facet normal 2.0142617732485037e-16 1.1443650800397556e-32 -1.0
  outer loop
    vertex 15.617157796886502 -42.40723666686577 5.639932965095795e-15
    vertex 1.617157796886536 -23.90723666686577 2.8199664825478967e-15
    vertex 6.922948221488206 -24.605757227939872 3.888691565462206e-15
  endloop
endfacet
facet normal 2.0142617732485037e-16 1.1443650800397556e-32 -1.0
  outer loop
    vertex 15.617157796886502 -42.40723666686577 5.639932965095795e-15
    vertex 6.922948221488206 -24.605757227939872 3.888691565462206e-15
    vertex 11.867157796886524 -26.65371588928477 4.884584800127611e-15
  endloop
endfacet
facet normal 2.0142617732485037e-16 1.1443650800397556e-32 -1.0
  outer loop
    vertex 15.617157796886502 -42.40723666686577 5.639932965095795e-15
    vertex 11.867157796886524 -26.65371588928477 4.884584800127611e-15
    vertex 16.112846811210762 -29.911547652541543 5.739777708393053e-15
  endloop
endfacet
facet normal 2.0142617732485037e-16 1.1443650800397556e-32 -1.0
  outer loop
    vertex 15.617157796886502 -42.40723666686577 5.639932965095795e-15
    vertex 16.112846811210762 -29.911547652541543 5.739777708393053e-15
    vertex 15.617157796886502 -46.407236666865764 5.639932965095795e-15
  endloop
endfacet
facet normal 2.0142617732485037e-16 1.1443650800397556e-32 -1.0
  outer loop
    vertex -12.878531217437681 -58.90292568119 -9.98447432972587e-17
    vertex -12.382842203113423 -46.407236666865764 0.0
    vertex -8.632842203113453 -62.16075744444676 7.553481649681823e-16
  endloop
endfacet
facet normal 2.0142617732485037e-16 1.1443650800397556e-32 -1.0
  outer loop
    vertex -12.382842203113423 -46.407236666865764 0.0
    vertex -12.878531217437681 -58.90292568119 -9.98447432972587e-17
    vertex -12.382842203113423 -42.40723666686577 0.0
  endloop
endfacet
facet normal 2.0142617732485037e-16 1.1443650800397556e-32 -1.0
  outer loop
    vertex -8.632842203113453 -62.16075744444676 7.553481649681823e-16
    vertex -12.382842203113423 -46.407236666865764 0.0
    vertex 15.617157796886502 -46.407236666865764 5.639932965095795e-15
  endloop
endfacet
facet normal 2.0142617732485037e-16 1.1443650800397556e-32 -1.0
  outer loop
    vertex -8.632842203113453 -62.16075744444676 7.553481649681823e-16
    vertex 15.617157796886502 -46.407236666865764 5.639932965095795e-15
    vertex -3.6886326277151316 -64.20871610579167 1.7512413996335879e-15
  endloop
endfacet
facet normal 2.0142617732485037e-16 1.1443650800397556e-32 -1.0
  outer loop
    vertex -3.6886326277151316 -64.20871610579167 1.7512413996335879e-15
    vertex 15.617157796886502 -46.407236666865764 5.639932965095795e-15
    vertex 1.6171577968865414 -64.90723666686577 2.8199664825478975e-15
  endloop
endfacet
facet normal 2.0142617732485037e-16 1.1443650800397556e-32 -1.0
  outer loop
    vertex 1.6171577968865414 -64.90723666686577 2.8199664825478975e-15
    vertex 15.617157796886502 -46.407236666865764 5.639932965095795e-15
    vertex 6.922948221488219 -64.20871610579167 3.888691565462208e-15
  endloop
endfacet
facet normal 2.0142617732485037e-16 1.1443650800397556e-32 -1.0
  outer loop
    vertex 6.922948221488219 -64.20871610579167 3.888691565462208e-15
    vertex 15.617157796886502 -46.407236666865764 5.639932965095795e-15
    vertex 11.867157796886541 -62.16075744444676 4.884584800127614e-15
  endloop
endfacet
facet normal 2.0142617732485037e-16 1.1443650800397556e-32 -1.0
  outer loop
    vertex 11.867157796886541 -62.16075744444676 4.884584800127614e-15
    vertex 15.617157796886502 -46.407236666865764 5.639932965095795e-15
    vertex 16.112846811210765 -58.902925681189984 5.739777708393053e-15
  endloop
endfacet
facet normal 2.0142617732485037e-16 1.1443650800397556e-32 -1.0
  outer loop
    vertex 16.112846811210765 -58.902925681189984 5.739777708393053e-15
    vertex 15.617157796886502 -46.407236666865764 5.639932965095795e-15
    vertex 16.112846811210762 -29.911547652541543 5.739777708393053e-15
  endloop
endfacet
facet normal 2.0142617732485037e-16 1.1443650800397556e-32 -1.0
  outer loop
    vertex 16.112846811210765 -58.902925681189984 5.739777708393053e-15
    vertex 16.112846811210762 -29.911547652541543 5.739777708393053e-15
    vertex 19.370678574467522 -34.157236666865764 6.39599030683334e-15
  endloop
endfacet
facet normal 2.0142617732485037e-16 1.1443650800397556e-32 -1.0
  outer loop
    vertex 16.112846811210765 -58.902925681189984 5.739777708393053e-15
    vertex 19.370678574467522 -34.157236666865764 6.39599030683334e-15
    vertex 19.37067857446753 -54.657236666865764 6.39599030683334e-15
  endloop
endfacet
facet normal 2.0142617732485037e-16 1.1443650800397556e-32 -1.0
  outer loop
    vertex 19.37067857446753 -54.657236666865764 6.39599030683334e-15
    vertex 19.370678574467522 -34.157236666865764 6.39599030683334e-15
    vertex 21.418637235812433 -39.10144624226408 6.808502791307362e-15
  endloop
endfacet
facet normal 2.0142617732485037e-16 1.1443650800397556e-32 -1.0
  outer loop
    vertex 19.37067857446753 -54.657236666865764 6.39599030683334e-15
    vertex 21.418637235812433 -39.10144624226408 6.808502791307362e-15
    vertex 21.418637235812437 -49.713027091467445 6.808502791307364e-15
  endloop
endfacet
facet normal 2.0142617732485037e-16 1.1443650800397556e-32 -1.0
  outer loop
    vertex 21.418637235812437 -49.713027091467445 6.808502791307364e-15
    vertex 21.418637235812433 -39.10144624226408 6.808502791307362e-15
    vertex 22.117157796886538 -44.40723666686577 6.949203117707329e-15
  endloop
endfacet
facet normal -0.6087614290087209 0.7933533402912352 -1.2262048754803992e-16
  outer loop
    vertex -12.87853121743769 -29.911547652541554 0.9999999999999999
    vertex -8.632842203113468 -26.653715889284786 7.553481649681798e-16
    vertex -12.87853121743769 -29.911547652541554 -9.984474329726057e-17
  endloop
endfacet
facet normal -0.6087614290087209 0.7933533402912352 -1.2262048754803992e-16
  outer loop
    vertex -8.632842203113468 -26.653715889284786 7.553481649681798e-16
    vertex -12.87853121743769 -29.911547652541554 0.9999999999999999
    vertex -8.632842203113468 -26.653715889284786 1.0000000000000007
  endloop
endfacet
facet normal -0.13052619222005202 0.9914448613738105 -2.6291391939653693e-17
  outer loop
    vertex -3.6886326277151493 -24.605757227939876 1.0000000000000018
    vertex 1.617157796886536 -23.90723666686577 2.8199664825478967e-15
    vertex -3.6886326277151493 -24.605757227939876 1.7512413996335845e-15
  endloop
endfacet
facet normal -0.13052619222005202 0.9914448613738105 -2.6291391939653693e-17
  outer loop
    vertex 1.617157796886536 -23.90723666686577 2.8199664825478967e-15
    vertex -3.6886326277151493 -24.605757227939876 1.0000000000000018
    vertex 1.617157796886536 -23.90723666686577 1.0000000000000027
  endloop
endfacet
facet normal 0.7933533402912356 0.6087614290087202 1.5980213060276479e-16
  outer loop
    vertex 16.112846811210762 -29.911547652541543 5.739777708393053e-15
    vertex 19.370678574467522 -34.157236666865764 1.0000000000000062
    vertex 19.370678574467522 -34.157236666865764 6.39599030683334e-15
  endloop
endfacet
facet normal 0.7933533402912356 0.6087614290087202 1.5980213060276479e-16
  outer loop
    vertex 19.370678574467522 -34.157236666865764 1.0000000000000062
    vertex 16.112846811210762 -29.911547652541543 5.739777708393053e-15
    vertex 16.112846811210762 -29.911547652541543 1.0000000000000056
  endloop
endfacet
facet normal -0.13052619222005235 -0.9914448613738105 -2.629139193965378e-17
  outer loop
    vertex 1.6171577968865414 -64.90723666686577 2.8199664825478975e-15
    vertex -3.6886326277151316 -64.20871610579167 1.0000000000000018
    vertex -3.6886326277151316 -64.20871610579167 1.7512413996335879e-15
  endloop
endfacet
facet normal -0.13052619222005235 -0.9914448613738105 -2.629139193965378e-17
  outer loop
    vertex -3.6886326277151316 -64.20871610579167 1.0000000000000018
    vertex 1.6171577968865414 -64.90723666686577 2.8199664825478975e-15
    vertex 1.6171577968865414 -64.90723666686577 1.0000000000000027
  endloop
endfacet
facet normal 0.9238795325112864 0.38268343236509067 1.8609352254241825e-16
  outer loop
    vertex 19.370678574467522 -34.157236666865764 6.39599030683334e-15
    vertex 21.418637235812433 -39.10144624226408 1.0000000000000067
    vertex 21.418637235812433 -39.10144624226408 6.808502791307362e-15
  endloop
endfacet
facet normal 0.9238795325112864 0.38268343236509067 1.8609352254241825e-16
  outer loop
    vertex 21.418637235812433 -39.10144624226408 1.0000000000000067
    vertex 19.370678574467522 -34.157236666865764 6.39599030683334e-15
    vertex 19.370678574467522 -34.157236666865764 1.0000000000000062
  endloop
endfacet
facet normal -0.7933533402912356 0.6087614290087202 -1.5980213060276479e-16
  outer loop
    vertex -12.87853121743769 -29.911547652541554 0.9999999999999999
    vertex -16.13636298069445 -34.15723666686578 -7.560573417375468e-16
    vertex -16.13636298069445 -34.15723666686578 0.9999999999999992
  endloop
endfacet
facet normal -0.7933533402912356 0.6087614290087202 -1.5980213060276479e-16
  outer loop
    vertex -16.13636298069445 -34.15723666686578 -7.560573417375468e-16
    vertex -12.87853121743769 -29.911547652541554 0.9999999999999999
    vertex -12.87853121743769 -29.911547652541554 -9.984474329726057e-17
  endloop
endfacet
facet normal 0.7933533402912354 -0.6087614290087204 1.598021306027647e-16
  outer loop
    vertex 19.37067857446753 -54.657236666865764 6.39599030683334e-15
    vertex 16.112846811210765 -58.902925681189984 1.0000000000000056
    vertex 16.112846811210765 -58.902925681189984 5.739777708393053e-15
  endloop
endfacet
facet normal 0.7933533402912354 -0.6087614290087204 1.598021306027647e-16
  outer loop
    vertex 16.112846811210765 -58.902925681189984 1.0000000000000056
    vertex 19.37067857446753 -54.657236666865764 6.39599030683334e-15
    vertex 19.37067857446753 -54.657236666865764 1.0000000000000062
  endloop
endfacet
facet normal -1.0 -0.0 -3.638666429094063e-16
  outer loop
    vertex -13.882842203113443 -40.9072366668658 1.9999999999999998
    vertex -13.882842203113443 -47.907236666865785 0.9999999999999999
    vertex -13.882842203113443 -47.907236666865785 1.9999999999999998
  endloop
endfacet
facet normal -1.0 -0.0 -3.638666429094063e-16
  outer loop
    vertex -13.882842203113443 -47.907236666865785 0.9999999999999999
    vertex -13.882842203113443 -40.9072366668658 1.9999999999999998
    vertex -13.882842203113443 -40.9072366668658 0.9999999999999999
  endloop
endfacet
facet normal -7.381490578321319e-49 1.0 3.664613346862464e-33
  outer loop
    vertex -12.382842203113423 -46.407236666865764 1.9999999999999998
    vertex 15.617157796886502 -46.407236666865764 5.639932965095795e-15
    vertex -12.382842203113423 -46.407236666865764 0.0
  endloop
endfacet
facet normal -7.381490578321319e-49 1.0 3.664613346862464e-33
  outer loop
    vertex 15.617157796886502 -46.407236666865764 5.639932965095795e-15
    vertex -12.382842203113423 -46.407236666865764 1.9999999999999998
    vertex 15.617157796886502 -46.407236666865764 2.0000000000000053
  endloop
endfacet
facet normal 0.38268343236508934 -0.9238795325112871 7.708246090685285e-17
  outer loop
    vertex 11.867157796886541 -62.16075744444676 4.884584800127614e-15
    vertex 6.922948221488219 -64.20871610579167 1.0000000000000038
    vertex 6.922948221488219 -64.20871610579167 3.888691565462208e-15
  endloop
endfacet
facet normal 0.38268343236508934 -0.9238795325112871 7.708246090685285e-17
  outer loop
    vertex 6.922948221488219 -64.20871610579167 1.0000000000000038
    vertex 11.867157796886541 -62.16075744444676 4.884584800127614e-15
    vertex 11.867157796886541 -62.16075744444676 1.0000000000000049
  endloop
endfacet
facet normal 0.6087614290087202 0.7933533402912356 1.226204875480398e-16
  outer loop
    vertex 11.867157796886524 -26.65371588928477 1.0000000000000049
    vertex 16.112846811210762 -29.911547652541543 5.739777708393053e-15
    vertex 11.867157796886524 -26.65371588928477 4.884584800127611e-15
  endloop
endfacet
facet normal 0.6087614290087202 0.7933533402912356 1.226204875480398e-16
  outer loop
    vertex 16.112846811210762 -29.911547652541543 5.739777708393053e-15
    vertex 11.867157796886524 -26.65371588928477 1.0000000000000049
    vertex 16.112846811210762 -29.911547652541543 1.0000000000000056
  endloop
endfacet
facet normal -0.38268343236508934 -0.9238795325112871 -7.708246090685288e-17
  outer loop
    vertex -3.6886326277151316 -64.20871610579167 1.7512413996335879e-15
    vertex -8.632842203113453 -62.16075744444676 1.0000000000000007
    vertex -8.632842203113453 -62.16075744444676 7.553481649681823e-16
  endloop
endfacet
facet normal -0.38268343236508934 -0.9238795325112871 -7.708246090685288e-17
  outer loop
    vertex -8.632842203113453 -62.16075744444676 1.0000000000000007
    vertex -3.6886326277151316 -64.20871610579167 1.7512413996335879e-15
    vertex -3.6886326277151316 -64.20871610579167 1.0000000000000018
  endloop
endfacet
facet normal 0.13052619222005135 0.9914448613738105 2.6291391939653582e-17
  outer loop
    vertex 1.617157796886536 -23.90723666686577 1.0000000000000027
    vertex 6.922948221488206 -24.605757227939872 3.888691565462206e-15
    vertex 1.617157796886536 -23.90723666686577 2.8199664825478967e-15
  endloop
endfacet
facet normal 0.13052619222005135 0.9914448613738105 2.6291391939653582e-17
  outer loop
    vertex 6.922948221488206 -24.605757227939872 3.888691565462206e-15
    vertex 1.617157796886536 -23.90723666686577 1.0000000000000027
    vertex 6.922948221488206 -24.605757227939872 1.0000000000000038
  endloop
endfacet
facet normal -1.0 -0.0 -3.6386664290940623e-16
  outer loop
    vertex 15.617157796886502 -42.40723666686577 2.0000000000000053
    vertex 15.617157796886502 -46.407236666865764 5.639932965095795e-15
    vertex 15.617157796886502 -46.407236666865764 2.0000000000000053
  endloop
endfacet
facet normal -1.0 -0.0 -3.6386664290940623e-16
  outer loop
    vertex 15.617157796886502 -46.407236666865764 5.639932965095795e-15
    vertex 15.617157796886502 -42.40723666686577 2.0000000000000053
    vertex 15.617157796886502 -42.40723666686577 5.639932965095795e-15
  endloop
endfacet
facet normal -3.6386664290940623e-16 -3.664613346862464e-33 1.0
  outer loop
    vertex -13.882842203113443 -47.907236666865785 1.9999999999999998
    vertex -12.382842203113423 -46.407236666865764 1.9999999999999998
    vertex -13.882842203113443 -40.9072366668658 1.9999999999999998
  endloop
endfacet
facet normal -3.6386664290940623e-16 -3.664613346862464e-33 1.0
  outer loop
    vertex -12.382842203113423 -46.407236666865764 1.9999999999999998
    vertex -13.882842203113443 -47.907236666865785 1.9999999999999998
    vertex 17.117157796886545 -47.907236666865764 2.000000000000011
  endloop
endfacet
facet normal -3.6386664290940623e-16 -3.664613346862464e-33 1.0
  outer loop
    vertex -12.382842203113423 -46.407236666865764 1.9999999999999998
    vertex 17.117157796886545 -47.907236666865764 2.000000000000011
    vertex 15.617157796886502 -46.407236666865764 2.0000000000000053
  endloop
endfacet
facet normal -3.6386664290940623e-16 -3.664613346862464e-33 1.0
  outer loop
    vertex 15.617157796886502 -46.407236666865764 2.0000000000000053
    vertex 17.117157796886545 -47.907236666865764 2.000000000000011
    vertex 15.617157796886502 -42.40723666686577 2.0000000000000053
  endloop
endfacet
facet normal -3.6386664290940623e-16 -3.664613346862464e-33 1.0
  outer loop
    vertex -13.882842203113443 -40.9072366668658 1.9999999999999998
    vertex -12.382842203113423 -42.40723666686577 1.9999999999999998
    vertex 17.117157796886545 -40.9072366668658 2.000000000000011
  endloop
endfacet
facet normal -3.6386664290940623e-16 -3.664613346862464e-33 1.0
  outer loop
    vertex -12.382842203113423 -42.40723666686577 1.9999999999999998
    vertex -13.882842203113443 -40.9072366668658 1.9999999999999998
    vertex -12.382842203113423 -46.407236666865764 1.9999999999999998
  endloop
endfacet
facet normal -3.6386664290940623e-16 -3.664613346862464e-33 1.0
  outer loop
    vertex 17.117157796886545 -40.9072366668658 2.000000000000011
    vertex -12.382842203113423 -42.40723666686577 1.9999999999999998
    vertex 15.617157796886502 -42.40723666686577 2.0000000000000053
  endloop
endfacet
facet normal -3.6386664290940623e-16 -3.664613346862464e-33 1.0
  outer loop
    vertex 17.117157796886545 -40.9072366668658 2.000000000000011
    vertex 15.617157796886502 -42.40723666686577 2.0000000000000053
    vertex 17.117157796886545 -47.907236666865764 2.000000000000011
  endloop
endfacet
facet normal -1.3334305560838484e-48 1.0 3.6646133468624645e-33
  outer loop
    vertex -13.882842203113443 -40.9072366668658 1.9999999999999998
    vertex 17.117157796886545 -40.9072366668658 1.000000000000011
    vertex -13.882842203113443 -40.9072366668658 0.9999999999999999
  endloop
endfacet
facet normal -1.3334305560838484e-48 1.0 3.6646133468624645e-33
  outer loop
    vertex 17.117157796886545 -40.9072366668658 1.000000000000011
    vertex -13.882842203113443 -40.9072366668658 1.9999999999999998
    vertex 17.117157796886545 -40.9072366668658 2.000000000000011
  endloop
endfacet
facet normal 1.0 -0.0 3.6386664290940623e-16
  outer loop
    vertex -12.382842203113423 -42.40723666686577 0.0
    vertex -12.382842203113423 -46.407236666865764 1.9999999999999998
    vertex -12.382842203113423 -46.407236666865764 0.0
  endloop
endfacet
facet normal 1.0 -0.0 3.6386664290940623e-16
  outer loop
    vertex -12.382842203113423 -46.407236666865764 1.9999999999999998
    vertex -12.382842203113423 -42.40723666686577 0.0
    vertex -12.382842203113423 -42.40723666686577 1.9999999999999998
  endloop
endfacet
facet normal -0.9238795325112871 0.3826834323650895 -1.8609352254241837e-16
  outer loop
    vertex -16.13636298069445 -34.15723666686578 0.9999999999999992
    vertex -18.184321642039357 -39.1014462422641 -1.1685698262115689e-15
    vertex -18.184321642039357 -39.1014462422641 0.9999999999999989
  endloop
endfacet
facet normal -0.9238795325112871 0.3826834323650895 -1.8609352254241837e-16
  outer loop
    vertex -18.184321642039357 -39.1014462422641 -1.1685698262115689e-15
    vertex -16.13636298069445 -34.15723666686578 0.9999999999999992
    vertex -16.13636298069445 -34.15723666686578 -7.560573417375468e-16
  endloop
endfacet
facet normal -0.7933533402912354 -0.6087614290087204 -1.598021306027647e-16
  outer loop
    vertex -16.136362980694447 -54.65723666686577 0.9999999999999992
    vertex -12.878531217437681 -58.90292568119 -9.98447432972587e-17
    vertex -12.878531217437681 -58.90292568119 0.9999999999999999
  endloop
endfacet
facet normal -0.7933533402912354 -0.6087614290087204 -1.598021306027647e-16
  outer loop
    vertex -12.878531217437681 -58.90292568119 -9.98447432972587e-17
    vertex -16.136362980694447 -54.65723666686577 0.9999999999999992
    vertex -16.136362980694447 -54.65723666686577 -7.560573417375456e-16
  endloop
endfacet
facet normal 0.3826834323650887 0.9238795325112874 7.708246090685275e-17
  outer loop
    vertex 6.922948221488206 -24.605757227939872 1.0000000000000038
    vertex 11.867157796886524 -26.65371588928477 4.884584800127611e-15
    vertex 6.922948221488206 -24.605757227939872 3.888691565462206e-15
  endloop
endfacet
facet normal 0.3826834323650887 0.9238795325112874 7.708246090685275e-17
  outer loop
    vertex 11.867157796886524 -26.65371588928477 4.884584800127611e-15
    vertex 6.922948221488206 -24.605757227939872 1.0000000000000038
    vertex 11.867157796886524 -26.65371588928477 1.0000000000000049
  endloop
endfacet
facet normal -0.6087614290087198 -0.7933533402912359 -1.2262048754803973e-16
  outer loop
    vertex -8.632842203113453 -62.16075744444676 7.553481649681823e-16
    vertex -12.878531217437681 -58.90292568119 0.9999999999999999
    vertex -12.878531217437681 -58.90292568119 -9.98447432972587e-17
  endloop
endfacet
facet normal -0.6087614290087198 -0.7933533402912359 -1.2262048754803973e-16
  outer loop
    vertex -12.878531217437681 -58.90292568119 0.9999999999999999
    vertex -8.632842203113453 -62.16075744444676 7.553481649681823e-16
    vertex -8.632842203113453 -62.16075744444676 1.0000000000000007
  endloop
endfacet
facet normal -0.9914448613738104 -0.13052619222005168 -1.9970294845489284e-16
  outer loop
    vertex -18.882842203113455 -44.40723666686577 0.9999999999999986
    vertex -18.184321642039354 -49.713027091467445 -1.1685698262115689e-15
    vertex -18.184321642039354 -49.713027091467445 0.9999999999999989
  endloop
endfacet
facet normal -0.9914448613738104 -0.13052619222005168 -1.9970294845489284e-16
  outer loop
    vertex -18.184321642039354 -49.713027091467445 -1.1685698262115689e-15
    vertex -18.882842203113455 -44.40723666686577 0.9999999999999986
    vertex -18.882842203113455 -44.40723666686577 -1.3092701526115341e-15
  endloop
endfacet
facet normal -2.0142617732485037e-16 -1.1443650800397556e-32 1.0
  outer loop
    vertex -12.878531217437681 -58.90292568119 0.9999999999999999
    vertex -13.882842203113443 -47.907236666865785 0.9999999999999999
    vertex -16.136362980694447 -54.65723666686577 0.9999999999999992
  endloop
endfacet
facet normal -2.0142617732485037e-16 -1.1443650800397556e-32 1.0
  outer loop
    vertex -13.882842203113443 -47.907236666865785 0.9999999999999999
    vertex -12.878531217437681 -58.90292568119 0.9999999999999999
    vertex 17.117157796886545 -47.907236666865764 1.000000000000011
  endloop
endfacet
facet normal -2.0142617732485037e-16 -1.1443650800397556e-32 1.0
  outer loop
    vertex 17.117157796886545 -47.907236666865764 1.000000000000011
    vertex -12.878531217437681 -58.90292568119 0.9999999999999999
    vertex -8.632842203113453 -62.16075744444676 1.0000000000000007
  endloop
endfacet
facet normal -2.0142617732485037e-16 -1.1443650800397556e-32 1.0
  outer loop
    vertex 17.117157796886545 -47.907236666865764 1.000000000000011
    vertex -8.632842203113453 -62.16075744444676 1.0000000000000007
    vertex -3.6886326277151316 -64.20871610579167 1.0000000000000018
  endloop
endfacet
facet normal -2.0142617732485037e-16 -1.1443650800397556e-32 1.0
  outer loop
    vertex 17.117157796886545 -47.907236666865764 1.000000000000011
    vertex -3.6886326277151316 -64.20871610579167 1.0000000000000018
    vertex 1.6171577968865414 -64.90723666686577 1.0000000000000027
  endloop
endfacet
facet normal -2.0142617732485037e-16 -1.1443650800397556e-32 1.0
  outer loop
    vertex 17.117157796886545 -47.907236666865764 1.000000000000011
    vertex 1.6171577968865414 -64.90723666686577 1.0000000000000027
    vertex 6.922948221488219 -64.20871610579167 1.0000000000000038
  endloop
endfacet
facet normal -2.0142617732485037e-16 -1.1443650800397556e-32 1.0
  outer loop
    vertex 17.117157796886545 -47.907236666865764 1.000000000000011
    vertex 6.922948221488219 -64.20871610579167 1.0000000000000038
    vertex 11.867157796886541 -62.16075744444676 1.0000000000000049
  endloop
endfacet
facet normal -2.0142617732485037e-16 -1.1443650800397556e-32 1.0
  outer loop
    vertex 17.117157796886545 -47.907236666865764 1.000000000000011
    vertex 11.867157796886541 -62.16075744444676 1.0000000000000049
    vertex 16.112846811210765 -58.902925681189984 1.0000000000000056
  endloop
endfacet
facet normal -2.0142617732485037e-16 -1.1443650800397556e-32 1.0
  outer loop
    vertex 17.117157796886545 -47.907236666865764 1.000000000000011
    vertex 16.112846811210765 -58.902925681189984 1.0000000000000056
    vertex 19.37067857446753 -54.657236666865764 1.0000000000000062
  endloop
endfacet
facet normal -2.0142617732485037e-16 -1.1443650800397556e-32 1.0
  outer loop
    vertex 17.117157796886545 -47.907236666865764 1.000000000000011
    vertex 19.37067857446753 -54.657236666865764 1.0000000000000062
    vertex 17.117157796886545 -40.9072366668658 1.000000000000011
  endloop
endfacet
facet normal -2.0142617732485037e-16 -1.1443650800397556e-32 1.0
  outer loop
    vertex 17.117157796886545 -40.9072366668658 1.000000000000011
    vertex 19.37067857446753 -54.657236666865764 1.0000000000000062
    vertex 19.370678574467522 -34.157236666865764 1.0000000000000062
  endloop
endfacet
facet normal -2.0142617732485037e-16 -1.1443650800397556e-32 1.0
  outer loop
    vertex 19.370678574467522 -34.157236666865764 1.0000000000000062
    vertex 19.37067857446753 -54.657236666865764 1.0000000000000062
    vertex 21.418637235812433 -39.10144624226408 1.0000000000000067
  endloop
endfacet
facet normal -2.0142617732485037e-16 -1.1443650800397556e-32 1.0
  outer loop
    vertex 21.418637235812433 -39.10144624226408 1.0000000000000067
    vertex 19.37067857446753 -54.657236666865764 1.0000000000000062
    vertex 21.418637235812437 -49.713027091467445 1.0000000000000067
  endloop
endfacet
facet normal -2.0142617732485037e-16 -1.1443650800397556e-32 1.0
  outer loop
    vertex 21.418637235812433 -39.10144624226408 1.0000000000000067
    vertex 21.418637235812437 -49.713027091467445 1.0000000000000067
    vertex 22.117157796886538 -44.40723666686577 1.0000000000000069
  endloop
endfacet
facet normal -2.0142617732485037e-16 -1.1443650800397556e-32 1.0
  outer loop
    vertex -18.184321642039354 -49.713027091467445 0.9999999999999989
    vertex -18.184321642039357 -39.1014462422641 0.9999999999999989
    vertex -18.882842203113455 -44.40723666686577 0.9999999999999986
  endloop
endfacet
facet normal -2.0142617732485037e-16 -1.1443650800397556e-32 1.0
  outer loop
    vertex -18.184321642039357 -39.1014462422641 0.9999999999999989
    vertex -18.184321642039354 -49.713027091467445 0.9999999999999989
    vertex -16.13636298069445 -34.15723666686578 0.9999999999999992
  endloop
endfacet
facet normal -2.0142617732485037e-16 -1.1443650800397556e-32 1.0
  outer loop
    vertex -16.13636298069445 -34.15723666686578 0.9999999999999992
    vertex -18.184321642039354 -49.713027091467445 0.9999999999999989
    vertex -16.136362980694447 -54.65723666686577 0.9999999999999992
  endloop
endfacet
facet normal -2.0142617732485037e-16 -1.1443650800397556e-32 1.0
  outer loop
    vertex -16.13636298069445 -34.15723666686578 0.9999999999999992
    vertex -16.136362980694447 -54.65723666686577 0.9999999999999992
    vertex -12.87853121743769 -29.911547652541554 0.9999999999999999
  endloop
endfacet
facet normal -2.0142617732485037e-16 -1.1443650800397556e-32 1.0
  outer loop
    vertex -12.87853121743769 -29.911547652541554 0.9999999999999999
    vertex -16.136362980694447 -54.65723666686577 0.9999999999999992
    vertex -13.882842203113443 -40.9072366668658 0.9999999999999999
  endloop
endfacet
facet normal -2.0142617732485037e-16 -1.1443650800397556e-32 1.0
  outer loop
    vertex -13.882842203113443 -40.9072366668658 0.9999999999999999
    vertex -16.136362980694447 -54.65723666686577 0.9999999999999992
    vertex -13.882842203113443 -47.907236666865785 0.9999999999999999
  endloop
endfacet
facet normal -2.0142617732485037e-16 -1.1443650800397556e-32 1.0
  outer loop
    vertex -12.87853121743769 -29.911547652541554 0.9999999999999999
    vertex -13.882842203113443 -40.9072366668658 0.9999999999999999
    vertex 17.117157796886545 -40.9072366668658 1.000000000000011
  endloop
endfacet
facet normal -2.0142617732485037e-16 -1.1443650800397556e-32 1.0
  outer loop
    vertex -12.87853121743769 -29.911547652541554 0.9999999999999999
    vertex 17.117157796886545 -40.9072366668658 1.000000000000011
    vertex -8.632842203113468 -26.653715889284786 1.0000000000000007
  endloop
endfacet
facet normal -2.0142617732485037e-16 -1.1443650800397556e-32 1.0
  outer loop
    vertex -8.632842203113468 -26.653715889284786 1.0000000000000007
    vertex 17.117157796886545 -40.9072366668658 1.000000000000011
    vertex -3.6886326277151493 -24.605757227939876 1.0000000000000018
  endloop
endfacet
facet normal -2.0142617732485037e-16 -1.1443650800397556e-32 1.0
  outer loop
    vertex -3.6886326277151493 -24.605757227939876 1.0000000000000018
    vertex 17.117157796886545 -40.9072366668658 1.000000000000011
    vertex 1.617157796886536 -23.90723666686577 1.0000000000000027
  endloop
endfacet
facet normal -2.0142617732485037e-16 -1.1443650800397556e-32 1.0
  outer loop
    vertex 1.617157796886536 -23.90723666686577 1.0000000000000027
    vertex 17.117157796886545 -40.9072366668658 1.000000000000011
    vertex 6.922948221488206 -24.605757227939872 1.0000000000000038
  endloop
endfacet
facet normal -2.0142617732485037e-16 -1.1443650800397556e-32 1.0
  outer loop
    vertex 6.922948221488206 -24.605757227939872 1.0000000000000038
    vertex 17.117157796886545 -40.9072366668658 1.000000000000011
    vertex 11.867157796886524 -26.65371588928477 1.0000000000000049
  endloop
endfacet
facet normal -2.0142617732485037e-16 -1.1443650800397556e-32 1.0
  outer loop
    vertex 11.867157796886524 -26.65371588928477 1.0000000000000049
    vertex 17.117157796886545 -40.9072366668658 1.000000000000011
    vertex 16.112846811210762 -29.911547652541543 1.0000000000000056
  endloop
endfacet
facet normal -2.0142617732485037e-16 -1.1443650800397556e-32 1.0
  outer loop
    vertex 16.112846811210762 -29.911547652541543 1.0000000000000056
    vertex 17.117157796886545 -40.9072366668658 1.000000000000011
    vertex 19.370678574467522 -34.157236666865764 1.0000000000000062
  endloop
endfacet
facet normal 0.9914448613738105 -0.13052619222005118 1.9970294845489286e-16
  outer loop
    vertex 22.117157796886538 -44.40723666686577 6.949203117707329e-15
    vertex 21.418637235812437 -49.713027091467445 1.0000000000000067
    vertex 21.418637235812437 -49.713027091467445 6.808502791307364e-15
  endloop
endfacet
facet normal 0.9914448613738105 -0.13052619222005118 1.9970294845489286e-16
  outer loop
    vertex 21.418637235812437 -49.713027091467445 1.0000000000000067
    vertex 22.117157796886538 -44.40723666686577 6.949203117707329e-15
    vertex 22.117157796886538 -44.40723666686577 1.0000000000000069
  endloop
endfacet
facet normal 0.9238795325112864 -0.38268343236509067 1.8609352254241825e-16
  outer loop
    vertex 21.418637235812437 -49.713027091467445 6.808502791307364e-15
    vertex 19.37067857446753 -54.657236666865764 1.0000000000000062
    vertex 19.37067857446753 -54.657236666865764 6.39599030683334e-15
  endloop
endfacet
facet normal 0.9238795325112864 -0.38268343236509067 1.8609352254241825e-16
  outer loop
    vertex 19.37067857446753 -54.657236666865764 1.0000000000000062
    vertex 21.418637235812437 -49.713027091467445 6.808502791307364e-15
    vertex 21.418637235812437 -49.713027091467445 1.0000000000000067
  endloop
endfacet
facet normal -0.9238795325112868 -0.38268343236509 -1.8609352254241832e-16
  outer loop
    vertex -18.184321642039354 -49.713027091467445 0.9999999999999989
    vertex -16.136362980694447 -54.65723666686577 -7.560573417375456e-16
    vertex -16.136362980694447 -54.65723666686577 0.9999999999999992
  endloop
endfacet
facet normal -0.9238795325112868 -0.38268343236509 -1.8609352254241832e-16
  outer loop
    vertex -16.136362980694447 -54.65723666686577 -7.560573417375456e-16
    vertex -18.184321642039354 -49.713027091467445 0.9999999999999989
    vertex -18.184321642039354 -49.713027091467445 -1.1685698262115689e-15
  endloop
endfacet
facet normal 0.9914448613738104 0.13052619222005196 1.9970294845489284e-16
  outer loop
    vertex 21.418637235812433 -39.10144624226408 6.808502791307362e-15
    vertex 22.117157796886538 -44.40723666686577 1.0000000000000069
    vertex 22.117157796886538 -44.40723666686577 6.949203117707329e-15
  endloop
endfacet
facet normal 0.9914448613738104 0.13052619222005196 1.9970294845489284e-16
  outer loop
    vertex 22.117157796886538 -44.40723666686577 1.0000000000000069
    vertex 21.418637235812433 -39.10144624226408 6.808502791307362e-15
    vertex 21.418637235812433 -39.10144624226408 1.0000000000000067
  endloop
endfacet
facet normal 1.0 -0.0 3.6386664290940623e-16
  outer loop
    vertex 17.117157796886545 -40.9072366668658 1.000000000000011
    vertex 17.117157796886545 -47.907236666865764 2.000000000000011
    vertex 17.117157796886545 -47.907236666865764 1.000000000000011
  endloop
endfacet
facet normal 1.0 -0.0 3.6386664290940623e-16
  outer loop
    vertex 17.117157796886545 -47.907236666865764 2.000000000000011
    vertex 17.117157796886545 -40.9072366668658 1.000000000000011
    vertex 17.117157796886545 -40.9072366668658 2.000000000000011
  endloop
endfacet
facet normal 7.381490578321319e-49 -1.0 -3.664613346862464e-33
  outer loop
    vertex 15.617157796886502 -42.40723666686577 5.639932965095795e-15
    vertex -12.382842203113423 -42.40723666686577 1.9999999999999998
    vertex -12.382842203113423 -42.40723666686577 0.0
  endloop
endfacet
facet normal 7.381490578321319e-49 -1.0 -3.664613346862464e-33
  outer loop
    vertex -12.382842203113423 -42.40723666686577 1.9999999999999998
    vertex 15.617157796886502 -42.40723666686577 5.639932965095795e-15
    vertex 15.617157796886502 -42.40723666686577 2.0000000000000053
  endloop
endfacet
endsolid PotiBox
